<svg xmlns="http://www.w3.org/2000/svg" width="101" height="101" viewBox="0 0 101 101">
  <g id="icon1" transform="translate(-637 -1157)">
    <circle id="Elipse_1146" data-name="Elipse 1146" cx="50.5" cy="50.5" r="50.5" transform="translate(637 1157)" fill="#6dc5db"/>
    <g id="icon1-2" data-name="icon1" transform="translate(640.017 1173)">
      <g id="Grupo_102631" data-name="Grupo 102631" transform="translate(16.001 1.07)">
        <g id="Grupo_102626" data-name="Grupo 102626" transform="translate(17.647)">
          <ellipse id="Elipse_5027" data-name="Elipse 5027" cx="22.939" cy="22.998" rx="22.939" ry="22.998" fill="#ff5781"/>
          <path id="Trazado_160662" data-name="Trazado 160662" d="M304.116,7.882a23.1,23.1,0,0,0-2.716.161,23.006,23.006,0,0,1,0,45.674,22.995,22.995,0,1,0,2.716-45.835Z" transform="translate(-281.176 -7.882)" fill="#ff4170"/>
        </g>
        <g id="Grupo_102630" data-name="Grupo 102630" transform="translate(0 33.948)">
          <path id="Trazado_160663" data-name="Trazado 160663" d="M38.651,454.331c0,1.594-3.62,2.886-8.084,2.886s-8.084-1.292-8.084-2.886v-4.6H38.651S38.651,452.738,38.651,454.331Z" transform="translate(-22.482 -423.684)" fill="#ffe563"/>
          <path id="Trazado_160664" data-name="Trazado 160664" d="M67.392,449.729v4.6c0,1.254-2.24,2.32-5.369,2.719a21.6,21.6,0,0,0,2.716.167c4.465,0,8.084-1.292,8.084-2.886v-4.6H67.392Z" transform="translate(-56.654 -423.684)" fill="#ffdc2e"/>
          <path id="Trazado_160665" data-name="Trazado 160665" d="M38.651,420.434c0,1.594-3.62,2.886-8.084,2.886s-8.084-1.292-8.084-2.886v-4.6H38.651S38.651,418.841,38.651,420.434Z" transform="translate(-22.482 -394.39)" fill="#ffb700"/>
          <path id="Trazado_160666" data-name="Trazado 160666" d="M67.392,415.831v4.6c0,1.254-2.24,2.32-5.369,2.719a21.6,21.6,0,0,0,2.716.167c4.465,0,8.084-1.292,8.084-2.886v-4.6H67.392Z" transform="translate(-56.654 -394.389)" fill="#f5b000"/>
          <path id="Trazado_160667" data-name="Trazado 160667" d="M38.651,386.536c0,1.594-3.62,2.886-8.084,2.886s-8.084-1.292-8.084-2.886v-4.6H38.651S38.651,384.943,38.651,386.536Z" transform="translate(-22.482 -365.094)" fill="#ffe563"/>
          <path id="Trazado_160668" data-name="Trazado 160668" d="M67.392,381.934v4.6c0,1.254-2.24,2.32-5.369,2.719a21.6,21.6,0,0,0,2.716.167c4.465,0,8.084-1.292,8.084-2.886v-4.6H67.392Z" transform="translate(-56.654 -365.094)" fill="#ffdc2e"/>
          <g id="Grupo_102627" data-name="Grupo 102627" transform="translate(0 9.351)">
            <path id="Trazado_160669" data-name="Trazado 160669" d="M38.651,352.639c0,1.594-3.62,2.886-8.084,2.886s-8.084-1.292-8.084-2.886v-4.6H38.651S38.651,351.046,38.651,352.639Z" transform="translate(-22.482 -345.151)" fill="#ffb700"/>
            <path id="Trazado_160670" data-name="Trazado 160670" d="M67.392,348.037v4.6c0,1.254-2.24,2.32-5.369,2.719a21.6,21.6,0,0,0,2.716.167c4.465,0,8.084-1.292,8.084-2.886v-4.6Z" transform="translate(-56.654 -345.151)" fill="#f5b000"/>
            <ellipse id="Elipse_5028" data-name="Elipse 5028" cx="8.084" cy="2.886" rx="8.084" ry="2.886" transform="translate(0)" fill="#ffe563"/>
          </g>
          <path id="Trazado_160671" data-name="Trazado 160671" d="M157.733,454.331c0,1.594-3.62,2.886-8.084,2.886s-8.084-1.292-8.084-2.886v-4.6h16.169S157.733,452.738,157.733,454.331Z" transform="translate(-125.395 -423.684)" fill="#ffb700"/>
          <path id="Trazado_160672" data-name="Trazado 160672" d="M186.474,449.729v4.6c0,1.254-2.24,2.32-5.369,2.719a21.6,21.6,0,0,0,2.716.167c4.465,0,8.084-1.292,8.084-2.886v-4.6h-5.431Z" transform="translate(-159.568 -423.684)" fill="#f5b000"/>
          <path id="Trazado_160673" data-name="Trazado 160673" d="M157.733,420.434c0,1.594-3.62,2.886-8.084,2.886s-8.084-1.292-8.084-2.886v-4.6h16.169S157.733,418.841,157.733,420.434Z" transform="translate(-125.395 -394.39)" fill="#ffe563"/>
          <path id="Trazado_160674" data-name="Trazado 160674" d="M186.474,415.831v4.6c0,1.254-2.24,2.32-5.369,2.719a21.6,21.6,0,0,0,2.716.167c4.465,0,8.084-1.292,8.084-2.886v-4.6h-5.431Z" transform="translate(-159.568 -394.389)" fill="#ffdc2e"/>
          <path id="Trazado_160675" data-name="Trazado 160675" d="M157.733,386.536c0,1.594-3.62,2.886-8.084,2.886s-8.084-1.292-8.084-2.886v-4.6h16.169S157.733,384.943,157.733,386.536Z" transform="translate(-125.395 -365.094)" fill="#ffb700"/>
          <path id="Trazado_160676" data-name="Trazado 160676" d="M186.474,381.934v4.6c0,1.254-2.24,2.32-5.369,2.719a21.6,21.6,0,0,0,2.716.167c4.465,0,8.084-1.292,8.084-2.886v-4.6h-5.431Z" transform="translate(-159.568 -365.094)" fill="#f5b000"/>
          <path id="Trazado_160677" data-name="Trazado 160677" d="M157.733,352.639c0,1.594-3.62,2.886-8.084,2.886s-8.084-1.292-8.084-2.886v-4.6h16.169S157.733,351.046,157.733,352.639Z" transform="translate(-125.395 -335.8)" fill="#ffe563"/>
          <path id="Trazado_160678" data-name="Trazado 160678" d="M186.474,348.037v4.6c0,1.254-2.24,2.32-5.369,2.719a21.6,21.6,0,0,0,2.716.167c4.465,0,8.084-1.292,8.084-2.886v-4.6Z" transform="translate(-159.568 -335.8)" fill="#ffdc2e"/>
          <path id="Trazado_160679" data-name="Trazado 160679" d="M157.733,318.2c0,1.594-3.62,2.886-8.084,2.886s-8.084-1.292-8.084-2.886v-4.6h16.169S157.733,316.61,157.733,318.2Z" transform="translate(-125.395 -306.039)" fill="#ffb700"/>
          <path id="Trazado_160680" data-name="Trazado 160680" d="M186.474,313.6v4.6c0,1.254-2.24,2.32-5.369,2.719a21.6,21.6,0,0,0,2.716.167c4.465,0,8.084-1.292,8.084-2.886v-4.6h-5.431Z" transform="translate(-159.568 -306.039)" fill="#f5b000"/>
          <g id="Grupo_102628" data-name="Grupo 102628" transform="translate(16.169)">
            <path id="Trazado_160681" data-name="Trazado 160681" d="M157.733,283.768c0,1.594-3.62,2.886-8.084,2.886s-8.084-1.292-8.084-2.886v-4.6h16.169S157.733,282.175,157.733,283.768Z" transform="translate(-141.564 -276.28)" fill="#ffe563"/>
            <path id="Trazado_160682" data-name="Trazado 160682" d="M186.474,279.165v4.6c0,1.254-2.24,2.32-5.369,2.719a21.6,21.6,0,0,0,2.716.167c4.465,0,8.084-1.292,8.084-2.886v-4.6h-5.431Z" transform="translate(-175.736 -276.279)" fill="#ffdc2e"/>
            <ellipse id="Elipse_5029" data-name="Elipse 5029" cx="8.084" cy="2.886" rx="8.084" ry="2.886" fill="#ffb700"/>
          </g>
          <path id="Trazado_160683" data-name="Trazado 160683" d="M276.816,449.729v4.6c0,1.594-3.62,2.886-8.084,2.886s-8.084-1.292-8.084-2.886v-4.6Z" transform="translate(-228.309 -423.684)" fill="#ffe563"/>
          <path id="Trazado_160684" data-name="Trazado 160684" d="M305.557,449.729v4.6c0,1.254-2.24,2.32-5.369,2.719a21.6,21.6,0,0,0,2.716.167c4.465,0,8.084-1.292,8.084-2.886v-4.6h-5.431Z" transform="translate(-262.482 -423.684)" fill="#ffdc2e"/>
          <g id="Grupo_102629" data-name="Grupo 102629" transform="translate(32.337 18.556)">
            <path id="Trazado_160685" data-name="Trazado 160685" d="M276.816,420.434c0,1.594-3.62,2.886-8.084,2.886s-8.084-1.292-8.084-2.886v-4.6h16.169S276.816,418.841,276.816,420.434Z" transform="translate(-260.647 -412.946)" fill="#ffb700"/>
            <path id="Trazado_160686" data-name="Trazado 160686" d="M305.557,415.831v4.6c0,1.254-2.24,2.32-5.369,2.719a21.6,21.6,0,0,0,2.716.167c4.465,0,8.084-1.292,8.084-2.886v-4.6h-5.431Z" transform="translate(-294.819 -412.945)" fill="#f5b000"/>
            <ellipse id="Elipse_5030" data-name="Elipse 5030" cx="8.084" cy="2.886" rx="8.084" ry="2.886" transform="translate(0)" fill="#ffe563"/>
          </g>
        </g>
      </g>
      <g id="Grupo_102632" data-name="Grupo 102632" transform="translate(14.983 0)">
        <path id="Trazado_160687" data-name="Trazado 160687" d="M269.859,123.269a1.049,1.049,0,0,0,1.414-.271l12.236-18.026a1.018,1.018,0,1,0-1.685-1.144l-12.236,18.026A1.018,1.018,0,0,0,269.859,123.269Z" transform="translate(-234.867 -89.345)"/>
        <path id="Trazado_160688" data-name="Trazado 160688" d="M346.315,191.15c2.119,0,3.843-2.119,3.843-4.724-.217-6.27-7.47-6.268-7.687,0C342.472,189.031,344.2,191.15,346.315,191.15Zm0-7.411c.979,0,1.807,1.231,1.807,2.687s-.827,2.687-1.807,2.687-1.807-1.231-1.807-2.687S345.336,183.739,346.315,183.739Z" transform="translate(-298.006 -157.051)"/>
        <path id="Trazado_160689" data-name="Trazado 160689" d="M251.538,108.107c0-2.6-1.724-4.724-3.843-4.724-5.1.252-5.095,9.2,0,9.448,2.119,0,3.843-2.119,3.843-4.724Zm-5.65,0c0-1.457.827-2.687,1.807-2.687s1.807,1.231,1.807,2.687-.827,2.687-1.807,2.687-1.807-1.231-1.807-2.687Z" transform="translate(-212.795 -89.346)"/>
        <path id="Trazado_160690" data-name="Trazado 160690" d="M49.357,46.971c24.994,7.45,42.3-23.841,22.834-41.127a1.018,1.018,0,1,0-1.329,1.543C88.928,23.48,72.356,52.4,49.357,44.824V37.9c0-.873-.528-2.1-3.044-3a19.7,19.7,0,0,0-9.177-.692C27.533,15.468,47.186-4.835,66.18,4.3a1.018,1.018,0,0,0,.894-1.83c-20.488-9.874-41.892,11.714-32,32.163-.3.084-.6.174-.874.273-2.516.9-3.044,2.127-3.044,3v6.778A16.477,16.477,0,0,0,24.1,43.351a1.018,1.018,0,0,0,0,2.037,16.608,16.608,0,0,1,5.366.787c1.395.5,1.688,1,1.688,1.08s-.294.583-1.692,1.082a17.074,17.074,0,0,1-10.748,0c-1.4-.5-1.692-1-1.692-1.082s.357-.673,2.056-1.2a1.018,1.018,0,0,0-.606-1.944c-2.882.9-3.486,2.207-3.486,3.146v18.41c0,.873.528,2.1,3.044,3a19.116,19.116,0,0,0,12.118,0,6.643,6.643,0,0,0,2.026-1.078A6.643,6.643,0,0,0,34.2,68.665a19.116,19.116,0,0,0,12.118,0,6.643,6.643,0,0,0,2.026-1.078,6.643,6.643,0,0,0,2.026,1.078,19.116,19.116,0,0,0,12.118,0c2.516-.9,3.044-2.127,3.044-3V56.46c0-.873-.528-2.1-3.044-3a19.116,19.116,0,0,0-12.118,0,8.834,8.834,0,0,0-1.007.427c0-1.327,0-5.267,0-6.652,0-.037,0-.225,0-.265ZM63.489,61.063c0,.079-.294.583-1.692,1.082a17.074,17.074,0,0,1-10.748,0c-1.4-.5-1.692-1-1.692-1.082V59.034a8.858,8.858,0,0,0,1.007.427,19.116,19.116,0,0,0,12.118,0,8.834,8.834,0,0,0,1.007-.427ZM47.32,42.507c0,.079-.294.583-1.692,1.082a17.073,17.073,0,0,1-10.748,0c-1.4-.5-1.692-1-1.692-1.082V40.477A8.86,8.86,0,0,0,34.2,40.9a19.116,19.116,0,0,0,12.118,0,8.834,8.834,0,0,0,1.007-.427Zm-13.125,3A18.568,18.568,0,0,0,47.32,45.08v2.1c0,.079-.294.583-1.692,1.082a17.075,17.075,0,0,1-10.748,0c-1.4-.5-1.692-1-1.692-1.082v-2.1A8.85,8.85,0,0,0,34.2,45.507ZM31.152,56.46c0,.079-.294.583-1.692,1.082a17.074,17.074,0,0,1-10.748,0c-1.4-.5-1.692-1-1.692-1.082V54.431a8.86,8.86,0,0,0,1.007.427,19.116,19.116,0,0,0,12.118,0,8.834,8.834,0,0,0,1.007-.427ZM17.02,59.033a8.858,8.858,0,0,0,1.007.427,19.116,19.116,0,0,0,12.118,0,8.834,8.834,0,0,0,1.007-.427v2.029c0,.079-.294.583-1.692,1.082a17.074,17.074,0,0,1-10.748,0c-1.4-.5-1.692-1-1.692-1.082Zm16.169,0a8.859,8.859,0,0,0,1.007.427,19.116,19.116,0,0,0,12.118,0,8.834,8.834,0,0,0,1.007-.427v2.029c0,.079-.294.583-1.692,1.082a17.073,17.073,0,0,1-10.748,0c-1.4-.5-1.692-1-1.692-1.082Zm12.44-1.491a17.075,17.075,0,0,1-10.748,0c-1.4-.5-1.692-1-1.692-1.082V54.431a8.86,8.86,0,0,0,1.007.427,19.116,19.116,0,0,0,12.118,0,8.835,8.835,0,0,0,1.007-.427V56.46C47.32,56.539,47.026,57.043,45.628,57.542Zm1.692-5.684c0,.079-.294.583-1.692,1.082a17.075,17.075,0,0,1-10.748,0c-1.4-.5-1.692-1-1.692-1.082v-2.1a8.86,8.86,0,0,0,1.007.427,19.116,19.116,0,0,0,12.118,0,8.835,8.835,0,0,0,1.007-.427ZM34.88,36.823a17.08,17.08,0,0,1,10.748,0c1.4.5,1.692,1,1.692,1.082s-.294.583-1.692,1.082a17.075,17.075,0,0,1-10.748,0c-1.4-.5-1.692-1-1.692-1.082S33.482,37.322,34.88,36.823ZM18.027,50.255a18.568,18.568,0,0,0,13.125-.427v2.03c0,.079-.294.583-1.692,1.082a17.074,17.074,0,0,1-10.748,0c-1.4-.5-1.692-1-1.692-1.082v-2.03A8.839,8.839,0,0,0,18.027,50.255ZM29.46,66.747a17.074,17.074,0,0,1-10.748,0c-1.4-.5-1.692-1-1.692-1.082v-2.03a18.2,18.2,0,0,0,14.132,0v2.03C31.152,65.744,30.857,66.248,29.46,66.747Zm16.169,0a17.075,17.075,0,0,1-10.748,0c-1.4-.5-1.692-1-1.692-1.082v-2.03a18.2,18.2,0,0,0,14.132,0v2.03C47.32,65.744,47.026,66.248,45.628,66.747Zm16.169,0a17.074,17.074,0,0,1-10.748,0c-1.4-.5-1.692-1-1.692-1.082v-2.03a18.2,18.2,0,0,0,14.132,0v2.03C63.489,65.744,63.195,66.248,61.8,66.747ZM51.049,55.379a17.074,17.074,0,0,1,10.748,0c1.4.5,1.692,1,1.692,1.082s-.294.583-1.692,1.082a17.074,17.074,0,0,1-10.748,0c-1.4-.5-1.692-1-1.692-1.082S49.651,55.878,51.049,55.379Z" transform="translate(-14.983 0)"/>
      </g>
    </g>
  </g>
</svg>
