<svg xmlns="http://www.w3.org/2000/svg" width="52" height="59.999" viewBox="0 0 52 59.999">
  <g id="icon20" transform="translate(0 -0.4)">
    <g id="Grupo_104744" data-name="Grupo 104744" transform="translate(0.88 1.281)">
      <g id="Grupo_104742" data-name="Grupo 104742" transform="translate(7.553 0)">
        <g id="Grupo_104741" data-name="Grupo 104741">
          <path id="Trazado_179850" data-name="Trazado 179850" d="M114.537,24.854V60.987c0,2.848-1.941,5.156-4.335,5.156H76.186c-2.394,0-4.335-2.309-4.335-5.156V13.062c0-2.848,1.941-5.156,4.335-5.156h24.105a5.021,5.021,0,0,1,3.831,1.888l8.829,10.5a7.113,7.113,0,0,1,1.587,4.557Z" transform="translate(-71.851 -7.906)" fill="#e7ecf6"/>
          <path id="Trazado_179851" data-name="Trazado 179851" d="M368.771,24.858v1.1A3.771,3.771,0,0,0,365,22.187h-5.352a5.156,5.156,0,0,1-5.156-5.156V11.68a3.771,3.771,0,0,0-3.771-3.771h1.1A6.451,6.451,0,0,1,356.381,9.8l10.5,10.5A6.45,6.45,0,0,1,368.771,24.858Z" transform="translate(-326.084 -7.909)" fill="#d8e2f1"/>
        </g>
      </g>
      <g id="Grupo_104743" data-name="Grupo 104743" transform="translate(0 17.579)">
        <path id="Trazado_179852" data-name="Trazado 179852" d="M14.528,157.68A7.025,7.025,0,0,0,7.5,164.706v9.969a23.637,23.637,0,0,0,7.026,16.816,23.637,23.637,0,0,0,7.026-16.816v-9.969A7.026,7.026,0,0,0,14.528,157.68Z" transform="translate(-7.502 -157.68)" fill="#ffe07d"/>
        <path id="Trazado_179853" data-name="Trazado 179853" d="M11.758,174.673a47.331,47.331,0,0,0,2.768,16.816A23.639,23.639,0,0,1,7.5,174.673V164.7a7.026,7.026,0,0,1,7.025-7.026c-1.528,0-2.768,3.146-2.768,7.026Z" transform="translate(-7.501 -157.678)" fill="#ffd064"/>
        <ellipse id="Elipse_5124" data-name="Elipse 5124" cx="1.706" cy="16.571" rx="1.706" ry="16.571" transform="translate(5.319 7.517)" fill="gray"/>
        <path id="Trazado_179854" data-name="Trazado 179854" d="M54.529,221.722v33.142a81.312,81.312,0,0,1,0-33.142Z" transform="translate(-47.504 -214.205)" fill="#595959"/>
      </g>
    </g>
    <g id="Grupo_104745" data-name="Grupo 104745" transform="translate(0 0.4)">
      <path id="Trazado_179855" data-name="Trazado 179855" d="M52,18.229a7.889,7.889,0,0,0-1.857-5.18l-9.089-10.5A5.9,5.9,0,0,0,36.573.4H11.759C8.879.4,6.536,3.108,6.536,6.437V17.989C2.9,18.174,0,21.645,0,25.886v9.968A26.906,26.906,0,0,0,5.005,51.668c.249,2.7.612,5.383,1.09,8.03a.8.8,0,0,0,.746.7.8.8,0,0,0,.746-.7q.123-.683.235-1.369A4.963,4.963,0,0,0,11.759,60.4H46.777c2.88,0,5.223-2.708,5.223-6.038ZM6.841,54.451a92.9,92.9,0,0,1,0-23.008,92.891,92.891,0,0,1,.715,11.5A92.874,92.874,0,0,1,6.841,54.451Zm39.936,4.188H11.759a3.808,3.808,0,0,1-3.532-3q.267-1.977.45-3.971a25.146,25.146,0,0,0,2.7-4.7.949.949,0,0,0-.334-1.184.716.716,0,0,0-1.024.386,23.865,23.865,0,0,1-1.1,2.177q.153-2.693.154-5.4A94.5,94.5,0,0,0,7.587,26.2a.8.8,0,0,0-.746-.7.8.8,0,0,0-.746.7A94.491,94.491,0,0,0,4.6,42.948q0,2.7.154,5.4A25.372,25.372,0,0,1,1.523,35.854V25.886c0-3.389,2.386-6.145,5.318-6.145s5.318,2.757,5.318,6.145v9.968a25.962,25.962,0,0,1-1.007,7.186.917.917,0,0,0,.482,1.113A.744.744,0,0,0,12.6,43.6a27.974,27.974,0,0,0,1.085-7.741V25.886c0-3.879-2.43-7.112-5.624-7.778V6.437a4.025,4.025,0,0,1,3.7-4.277H35.646a2.725,2.725,0,0,1,2.476,2.89V10.4c0,3.221,2.179,5.869,4.96,6.028a.813.813,0,0,0,.8-.836.842.842,0,0,0-.723-.923,4.05,4.05,0,0,1-3.512-4.27V5.051a5.236,5.236,0,0,0-.363-1.926,5.1,5.1,0,0,1,.7.666l9.089,10.5a5.533,5.533,0,0,1,.577.8,3.553,3.553,0,0,0-1.668-.42H46.164a.89.89,0,0,0,0,1.761h1.811a2.719,2.719,0,0,1,2.5,2.883V54.362a4.025,4.025,0,0,1-3.7,4.277Z" transform="translate(0 -0.4)"/>
      <path id="Trazado_179856" data-name="Trazado 179856" d="M213.185,266.742H185.163a.88.88,0,0,0,0,1.761h28.022a.88.88,0,1,0,0-1.761Z" transform="translate(-170.747 -235.481)"/>
      <path id="Trazado_179857" data-name="Trazado 179857" d="M172.618,314.315H139.2a.88.88,0,1,0,0,1.761h33.416a.88.88,0,1,0,0-1.761Z" transform="translate(-130.18 -277.471)"/>
      <path id="Trazado_179858" data-name="Trazado 179858" d="M172.618,361.9H139.2a.88.88,0,1,0,0,1.761h33.416a.88.88,0,1,0,0-1.761Z" transform="translate(-130.18 -319.468)"/>
      <path id="Trazado_179859" data-name="Trazado 179859" d="M156.223,409.468H139.2a.88.88,0,1,0,0,1.761h17.023a.88.88,0,1,0,0-1.761Z" transform="translate(-125.266 -361.456)"/>
    </g>
  </g>
</svg>
