<svg xmlns="http://www.w3.org/2000/svg" width="62.309" height="62.311" viewBox="0 0 62.309 62.311">
  <g id="invoice" transform="translate(-0.007)">
    <g id="Grupo_104736" data-name="Grupo 104736" transform="translate(1.045 1.038)">
      <path id="Trazado_179735" data-name="Trazado 179735" d="M136.489,21.033V47.867l-4.154,19.9H94.95a2.083,2.083,0,0,1-2.077-2.077V9.61A2.083,2.083,0,0,1,94.95,7.533h28.039Z" transform="translate(-82.488 -7.533)" fill="#ffb301"/>
      <path id="Trazado_179736" data-name="Trazado 179736" d="M133.373,21.033V47.867l-4.154,19.9H94.95a2.083,2.083,0,0,1-2.077-2.077V9.61A2.083,2.083,0,0,1,94.95,7.533h24.923Z" transform="translate(-82.488 -7.533)" fill="#fec108"/>
      <path id="Trazado_179737" data-name="Trazado 179737" d="M9.617,152.6H27.271a2.077,2.077,0,0,1,2.077,2.077V179.6a2.077,2.077,0,0,1-2.077,2.077H9.617A2.077,2.077,0,0,1,7.54,179.6V154.677A2.077,2.077,0,0,1,9.617,152.6Z" transform="translate(-7.54 -134.946)" fill="#283593"/>
      <path id="Trazado_179738" data-name="Trazado 179738" d="M9.617,152.6H24.156a2.077,2.077,0,0,1,2.077,2.077V179.6a2.077,2.077,0,0,1-2.077,2.077H9.617A2.077,2.077,0,0,1,7.54,179.6V154.677A2.077,2.077,0,0,1,9.617,152.6Z" transform="translate(-7.54 -134.946)" fill="#3f51b5"/>
      <path id="Trazado_179739" data-name="Trazado 179739" d="M340.34,7.533V18.956a2.077,2.077,0,0,0,2.077,2.077H353.84Z" transform="translate(-299.84 -7.533)" fill="#ff9801"/>
      <g id="Grupo_104735" data-name="Grupo 104735" transform="translate(12.462 30.116)">
        <path id="Trazado_179740" data-name="Trazado 179740" d="M110.978,255h3.115a1.038,1.038,0,0,1,1.038,1.038v2.077a1.038,1.038,0,0,1-1.038,1.038h-3.115a1.038,1.038,0,0,1-1.038-1.038v-2.077A1.038,1.038,0,0,1,110.978,255Z" transform="translate(-109.94 -255)" fill="#e91e63"/>
        <path id="Trazado_179741" data-name="Trazado 179741" d="M110.978,323.267h3.115a1.038,1.038,0,0,1,1.038,1.038v2.077a1.038,1.038,0,0,1-1.038,1.038h-3.115a1.038,1.038,0,0,1-1.038-1.038v-2.077A1.038,1.038,0,0,1,110.978,323.267Z" transform="translate(-109.94 -314.959)" fill="#e91e63"/>
      </g>
      <path id="Trazado_179742" data-name="Trazado 179742" d="M42.712,186.733H54.136a1.038,1.038,0,0,1,1.038,1.038v2.077a1.038,1.038,0,0,1-1.038,1.038H42.712a1.038,1.038,0,0,1-1.038-1.038v-2.077A1.038,1.038,0,0,1,42.712,186.733Z" transform="translate(-37.52 -164.925)" fill="#fff"/>
      <path id="Trazado_179743" data-name="Trazado 179743" d="M351.629,346.48a10.393,10.393,0,0,1-11.029,5.961,10.573,10.573,0,0,1-2.731-.82,10.386,10.386,0,1,1,13.76-5.14Z" transform="translate(-292.332 -292.324)" fill="#2e7d32"/>
      <path id="Trazado_179744" data-name="Trazado 179744" d="M348.5,347.319a10.364,10.364,0,0,1-7.913,5.961,10.572,10.572,0,0,1-2.731-.82,9.675,9.675,0,1,1,10.644-5.14Z" transform="translate(-292.323 -293.163)" fill="#4caf50"/>
    </g>
    <g id="Grupo_104737" data-name="Grupo 104737" transform="translate(0.007)">
      <path id="Trazado_179745" data-name="Trazado 179745" d="M3.122,176.221H20.777a3.119,3.119,0,0,0,3.115-3.115V148.182a3.119,3.119,0,0,0-3.115-3.115H3.122a3.119,3.119,0,0,0-3.115,3.115v24.923A3.119,3.119,0,0,0,3.122,176.221ZM2.084,148.182a1.04,1.04,0,0,1,1.038-1.038H20.776a1.04,1.04,0,0,1,1.038,1.038v24.923a1.04,1.04,0,0,1-1.038,1.038H3.122a1.04,1.04,0,0,1-1.038-1.038V148.182Z" transform="translate(-0.007 -127.413)"/>
      <path id="Trazado_179746" data-name="Trazado 179746" d="M131.02,14.473a1.02,1.02,0,0,0-.053-.267,1,1,0,0,0-.035-.1,1.025,1.025,0,0,0-.2-.3L117.228.3a1.025,1.025,0,0,0-.3-.2,1.3,1.3,0,0,0-.365-.088c-.022,0-.042-.013-.064-.013H88.455A3.119,3.119,0,0,0,85.34,3.115V14.539a1.038,1.038,0,1,0,2.077,0V3.115a1.04,1.04,0,0,1,1.038-1.038h27V12.462a3.119,3.119,0,0,0,3.115,3.115h10.385V39.911a11.411,11.411,0,0,0-9.671,20.321H88.455a1.04,1.04,0,0,1-1.038-1.038V51.924a1.038,1.038,0,1,0-2.077,0v7.269a3.119,3.119,0,0,0,3.115,3.115h37.332l.039,0a11.414,11.414,0,0,0,5.207-21.583V14.539C131.033,14.516,131.021,14.5,131.02,14.473ZM118.571,13.5a1.04,1.04,0,0,1-1.038-1.038V3.545l9.955,9.955Zm15.775,41.268a9.345,9.345,0,1,1-4.623-12.383A9.345,9.345,0,0,1,134.346,54.768Z" transform="translate(-74.955)"/>
      <path id="Trazado_179747" data-name="Trazado 179747" d="M107.6,247.467h-3.115a2.079,2.079,0,0,0-2.077,2.077v2.077a2.079,2.079,0,0,0,2.077,2.077H107.6a2.079,2.079,0,0,0,2.077-2.077v-2.077A2.079,2.079,0,0,0,107.6,247.467Zm0,4.154h-3.115v-2.077H107.6Z" transform="translate(-89.944 -217.351)"/>
      <path id="Trazado_179748" data-name="Trazado 179748" d="M107.6,315.733h-3.115a2.079,2.079,0,0,0-2.077,2.077v2.077a2.079,2.079,0,0,0,2.077,2.077H107.6a2.079,2.079,0,0,0,2.077-2.077V317.81A2.079,2.079,0,0,0,107.6,315.733Zm0,4.154h-3.115V317.81H107.6Z" transform="translate(-89.944 -277.31)"/>
      <path id="Trazado_179749" data-name="Trazado 179749" d="M35.178,251.621h1.038v1.038a1.038,1.038,0,1,0,2.077,0v-1.038h1.038a1.038,1.038,0,0,0,0-2.077H38.294v-1.039a1.038,1.038,0,1,0-2.077,0v1.038H35.178a1.038,1.038,0,0,0,0,2.077Z" transform="translate(-29.986 -217.351)"/>
      <path id="Trazado_179750" data-name="Trazado 179750" d="M35.178,334.878h4.154a1.038,1.038,0,0,0,0-2.077H35.178a1.038,1.038,0,0,0,0,2.077Z" transform="translate(-29.986 -292.3)"/>
      <path id="Trazado_179751" data-name="Trazado 179751" d="M214.378,164.211h23.885a1.038,1.038,0,1,0,0-2.077H214.378a1.038,1.038,0,1,0,0,2.077Z" transform="translate(-187.378 -142.403)"/>
      <path id="Trazado_179752" data-name="Trazado 179752" d="M214.378,215.411h23.885a1.038,1.038,0,0,0,0-2.077H214.378a1.038,1.038,0,1,0,0,2.077Z" transform="translate(-187.378 -187.372)"/>
      <path id="Trazado_179753" data-name="Trazado 179753" d="M214.378,266.611h23.885a1.038,1.038,0,1,0,0-2.077H214.378a1.038,1.038,0,1,0,0,2.077Z" transform="translate(-187.378 -232.341)"/>
      <path id="Trazado_179754" data-name="Trazado 179754" d="M214.378,317.811h14.539a1.038,1.038,0,1,0,0-2.077H214.378a1.038,1.038,0,1,0,0,2.077Z" transform="translate(-187.378 -277.31)"/>
      <path id="Trazado_179755" data-name="Trazado 179755" d="M36.217,185.43H47.64a2.079,2.079,0,0,0,2.077-2.077v-2.077A2.079,2.079,0,0,0,47.64,179.2H36.217a2.079,2.079,0,0,0-2.077,2.077v2.077A2.079,2.079,0,0,0,36.217,185.43Zm0-4.154H47.64v2.077H36.217Z" transform="translate(-29.986 -157.391)"/>
      <path id="Trazado_179756" data-name="Trazado 179756" d="M384.835,364.813l.138-.3a1.038,1.038,0,1,0-1.889-.862l-.138.3a4.375,4.375,0,0,0-2,.005,3.194,3.194,0,0,0-2.137,4.682,4.386,4.386,0,0,0,1.3,1.511l-1.171,2.567a2.154,2.154,0,0,1-.348-.479,1.275,1.275,0,0,1-.081-1.083,1.038,1.038,0,1,0-1.889-.862,3.318,3.318,0,0,0,.116,2.882,4.383,4.383,0,0,0,1.3,1.51l-.138.3a1.038,1.038,0,1,0,1.889.862l.133-.291a4.594,4.594,0,0,0,.977.108,4.184,4.184,0,0,0,1.024-.125,3.194,3.194,0,0,0,2.137-4.682,4.386,4.386,0,0,0-1.3-1.511l1.171-2.567a2.15,2.15,0,0,1,.348.479,1.274,1.274,0,0,1,.081,1.083,1.038,1.038,0,1,0,1.889.862,3.318,3.318,0,0,0-.116-2.882A4.38,4.38,0,0,0,384.835,364.813Zm-4.168,2.888a1.127,1.127,0,0,1,.79-1.731,2.136,2.136,0,0,1,.59-.051l-1.032,2.262a2.162,2.162,0,0,1-.348-.479Zm1.549,4.094a1.127,1.127,0,0,1-.79,1.731,2.148,2.148,0,0,1-.59.051l1.032-2.261a2.16,2.16,0,0,1,.348.479Z" transform="translate(-330.554 -318.86)"/>
    </g>
  </g>
</svg>
