<svg xmlns="http://www.w3.org/2000/svg" width="108" height="108" viewBox="0 0 108 108">
  <g id="icon6" transform="translate(-1052 -887)">
    <circle id="Elipse_4724" data-name="Elipse 4724" cx="54" cy="54" r="54" transform="translate(1052 887)" fill="#36a3f7"/>
    <g id="box" transform="translate(1054.968 903.999)">
      <path id="Trazado_164009" data-name="Trazado 164009" d="M56.532,9.5,24.2,25.114a1.173,1.173,0,0,0-.663,1.056V64.583A1.173,1.173,0,0,0,24.2,65.64L56.532,81.251a2.346,2.346,0,0,0,2.04,0L90.908,65.64a1.173,1.173,0,0,0,.663-1.056V26.171a1.173,1.173,0,0,0-.663-1.056L58.572,9.5A2.346,2.346,0,0,0,56.532,9.5Z" transform="translate(-6.402 -7.913)" fill="#ffe17d"/>
      <path id="Trazado_164010" data-name="Trazado 164010" d="M23.727,120.368a1.168,1.168,0,0,0-.2.642v38.412a1.173,1.173,0,0,0,.663,1.056L56.532,176.09a2.346,2.346,0,0,0,1.02.233V136.7Z" transform="translate(-6.402 -102.753)" fill="#ffc350"/>
      <path id="Trazado_164011" data-name="Trazado 164011" d="M289.825,120.368a1.168,1.168,0,0,1,.2.642v38.412a1.173,1.173,0,0,1-.663,1.056L257.02,176.09a2.346,2.346,0,0,1-1.02.233V136.7Z" transform="translate(-204.851 -102.753)" fill="#ffd164"/>
      <path id="Trazado_164012" data-name="Trazado 164012" d="M158.609,62.4,124.666,46l-8.948,4.337,34.02,16.423Z" transform="translate(-85.098 -39.268)" fill="#ff8087"/>
      <path id="Trazado_164013" data-name="Trazado 164013" d="M348.185,162.415v12.723a.587.587,0,0,0,.842.528l7.367-3.556a1.173,1.173,0,0,0,.663-1.056v-13Z" transform="translate(-283.545 -134.922)" fill="#e6646e"/>
      <path id="Trazado_164014" data-name="Trazado 164014" d="M85.646,16.533,51.626.11a1.1,1.1,0,0,0-.954,0L16.652,16.533a1.1,1.1,0,0,0-.62.988V57.406a1.1,1.1,0,0,0,.62.988l34.02,16.423a1.1,1.1,0,0,0,.954,0l34.02-16.423a1.1,1.1,0,0,0,.62-.988V17.521A1.1,1.1,0,0,0,85.646,16.533ZM51.149,2.317l31.5,15.2-9.13,4.408a1.088,1.088,0,0,0-.186-.117L42.048,6.711ZM39.569,7.952,71.018,23.134l-6.441,3.11L33.141,11.067ZM65.737,28.121l6.017-2.9V36.711l-6.017,2.9ZM52.247,72.081V34.633l7.591-3.665a1.1,1.1,0,1,0-.954-1.977l-7.734,3.734-3.043-1.469a1.1,1.1,0,1,0-.954,1.977l2.9,1.4V72.081L18.227,56.717V19.27l24.234,11.7a1.1,1.1,0,0,0,.954-1.977L19.654,17.521l10.9-5.264,32.97,15.917.015.019V41.364a1.1,1.1,0,0,0,1.575.988l8.212-3.964a1.1,1.1,0,0,0,.62-.988V24.157L84.071,19.27V56.718Z"/>
      <path id="Trazado_164015" data-name="Trazado 164015" d="M54.616,343.782l-4.992-2.41a1.1,1.1,0,0,0-.954,1.977l4.992,2.41a1.1,1.1,0,0,0,.954-1.977Z" transform="translate(-27.331 -291.321)"/>
      <path id="Trazado_164016" data-name="Trazado 164016" d="M59.251,310.425l-9.58-4.625a1.1,1.1,0,1,0-.954,1.977L58.3,312.4a1.1,1.1,0,0,0,.954-1.977Z" transform="translate(-27.372 -260.955)"/>
    </g>
  </g>
</svg>
