<svg xmlns="http://www.w3.org/2000/svg" width="87" height="87" viewBox="0 0 87 87">
  <g id="icon8" transform="translate(-390 -8303)">
    <circle id="Elipse_5101" data-name="Elipse 5101" cx="43.5" cy="43.5" r="43.5" transform="translate(390 8303)" fill="#36a3f7"/>
    <g id="vessel" transform="translate(402 8316)">
      <path id="Trazado_179639" data-name="Trazado 179639" d="M18.36,338.42l5.207,10.521-.01.034c2.579.767,3.1,3.319,6.562,3.319,4.074,0,4.074-3.534,8.148-3.534s4.074,3.534,8.149,3.534,4.074-3.534,8.149-3.534,4.075,3.534,8.149,3.534,4.075-3.534,8.15-3.534c3.152,0,3.866,2.115,5.914,3.073L80.14,338.42Z" transform="translate(-17.58 -296.953)" fill="#70798c"/>
      <path id="Trazado_179640" data-name="Trazado 179640" d="M429.93,25.41h3.677V62.092H429.93Z" transform="translate(-375.652 -24.63)" fill="#bc5e51"/>
      <path id="Trazado_179641" data-name="Trazado 179641" d="M246,191.16h18.995v10.021H246Z" transform="translate(-215.63 -168.835)" fill="#fb6771"/>
      <path id="Trazado_179642" data-name="Trazado 179642" d="M145.16,159.3h4.968v3.727H145.16Z" transform="translate(-127.898 -141.116)" fill="#d4e1f4"/>
      <path id="Trazado_179643" data-name="Trazado 179643" d="M150.128,194.8v.124H145.16V187.97h4.968Z" transform="translate(-127.898 -166.059)" fill="#b6c7d8"/>
      <path id="Trazado_179644" data-name="Trazado 179644" d="M57.349,241.47H47.9a9.535,9.535,0,0,0-8.181,4.638l-4.765,7.964h22.4" transform="translate(-32.014 -212.605)" fill="#a0eaea"/>
      <path id="Trazado_179645" data-name="Trazado 179645" d="M105.289,278.54v4.586H102.06V280.62a2.08,2.08,0,0,1,2.08-2.08Z" transform="translate(-90.4 -244.857)" fill="#43a2ff"/>
      <path id="Trazado_179646" data-name="Trazado 179646" d="M126.9,278.54h3.712v4.586H126.9Z" transform="translate(-112.011 -244.857)" fill="#3090fc"/>
      <path id="Trazado_179647" data-name="Trazado 179647" d="M155.46,278.54h3.23v4.586h-3.23Z" transform="translate(-136.859 -244.857)" fill="#43a2ff"/>
      <path id="Trazado_179648" data-name="Trazado 179648" d="M207.27,307.61h35.15v4H207.27Z" transform="translate(-181.935 -270.148)" fill="#e8a467"/>
      <path id="Trazado_179649" data-name="Trazado 179649" d="M306.62,50.79h16.029v2.639H306.62Z" transform="translate(-268.37 -46.711)" fill="#d16f59"/>
      <path id="Trazado_179650" data-name="Trazado 179650" d="M51.8,241.47H47.9a9.535,9.535,0,0,0-8.181,4.638l-4.765,7.964h3.9l4.765-7.964A9.535,9.535,0,0,1,51.8,241.47Z" transform="translate(-32.014 -212.605)" fill="#6ad3d3"/>
      <path id="Trazado_179651" data-name="Trazado 179651" d="M29.292,352.239,22.26,338.42h-3.9l5.207,10.521-.01.034C25.915,349.676,26.553,351.868,29.292,352.239Z" transform="translate(-17.58 -296.953)" fill="#b0b5ca"/>
      <path id="Trazado_179652" data-name="Trazado 179652" d="M246,191.16h3.9v10.021H246Z" transform="translate(-215.63 -168.835)" fill="#e75163"/>
      <path id="Trazado_179653" data-name="Trazado 179653" d="M145.16,159.3h2.6v3.727h-2.6Z" transform="translate(-127.898 -141.116)" fill="#bfcfe2"/>
      <path id="Trazado_179654" data-name="Trazado 179654" d="M147.76,187.97h-2.6v6.954h2.6V187.97Z" transform="translate(-127.898 -166.059)" fill="#a1b5c4"/>
      <g id="Grupo_104684" data-name="Grupo 104684" transform="translate(0 0)">
        <path id="Trazado_179655" data-name="Trazado 179655" d="M107.011,272.54H98.92a2.863,2.863,0,0,0-2.86,2.86v2.506a.78.78,0,0,0,.78.78h10.171a.78.78,0,0,0,.78-.78V273.32A.78.78,0,0,0,107.011,272.54Zm-7.722,4.586H97.62V275.4a1.3,1.3,0,0,1,1.3-1.3h.369Zm3.712,0h-2.153V274.1H103Zm3.23,0h-1.67V274.1h1.67Z" transform="translate(-85.18 -239.637)" fill="#284268"/>
        <path id="Trazado_179656" data-name="Trazado 179656" d="M116.368,366.82h-.758a.78.78,0,1,0,0,1.56h.758a.78.78,0,0,0,0-1.56Z" transform="translate(-101.51 -321.661)" fill="#284268"/>
        <path id="Trazado_179657" data-name="Trazado 179657" d="M138.57,367.6a.78.78,0,0,0,.78.78h22.037a.78.78,0,1,0,0-1.56H139.35A.78.78,0,0,0,138.57,367.6Z" transform="translate(-122.164 -321.661)" fill="#284268"/>
        <path id="Trazado_179658" data-name="Trazado 179658" d="M277.52,209.2a.78.78,0,0,0,.78-.78V202.77a.78.78,0,1,0-1.56,0v5.645A.78.78,0,0,0,277.52,209.2Z" transform="translate(-242.374 -178.257)" fill="#284268"/>
        <path id="Trazado_179659" data-name="Trazado 179659" d="M313.84,209.2a.78.78,0,0,0,.78-.78V202.77a.78.78,0,1,0-1.56,0v5.645A.78.78,0,0,0,313.84,209.2Z" transform="translate(-273.973 -178.257)" fill="#284268"/>
        <path id="Trazado_179660" data-name="Trazado 179660" d="M350.17,209.2a.78.78,0,0,0,.78-.78V202.77a.78.78,0,1,0-1.56,0v5.645A.78.78,0,0,0,350.17,209.2Z" transform="translate(-305.581 -178.257)" fill="#284268"/>
        <path id="Trazado_179661" data-name="Trazado 179661" d="M97.943,456.926a4.843,4.843,0,0,1-3.563-1.577,6.348,6.348,0,0,0-9.172,0,4.814,4.814,0,0,1-7.127,0,6.348,6.348,0,0,0-9.172,0,4.815,4.815,0,0,1-7.127,0,6.346,6.346,0,0,0-9.17,0,4.815,4.815,0,0,1-7.127,0A6.34,6.34,0,0,0,40.9,453.39a.78.78,0,1,0,0,1.56,4.846,4.846,0,0,1,3.564,1.577,6.347,6.347,0,0,0,9.171,0,4.813,4.813,0,0,1,7.125,0,6.347,6.347,0,0,0,9.171,0,4.816,4.816,0,0,1,7.128,0,6.347,6.347,0,0,0,9.171,0,4.816,4.816,0,0,1,7.128,0,6.337,6.337,0,0,0,4.585,1.958.78.78,0,1,0,0-1.56Z" transform="translate(-36.512 -396.978)" fill="#284268"/>
        <path id="Trazado_179662" data-name="Trazado 179662" d="M74.92,60.1H73.625V56.872a.78.78,0,0,0-.78-.78H71.1V20.19a.78.78,0,0,0-.78-.78H66.638a.78.78,0,0,0-.78.78v2.519H50.61a.78.78,0,0,0-.78.78v2.639a.78.78,0,0,0,.78.78h.75v2.273a.717.717,0,0,1-.351.614,2.223,2.223,0,0,0,.559,4.063v1.9l-8.9,5.116-.533.539a1.417,1.417,0,0,0-.181.692v9.652a.78.78,0,0,0,.78.78H61.725a.78.78,0,0,0,.78-.78V42.111a1.416,1.416,0,0,0-.187-.7l-.011-.019a1.417,1.417,0,0,0-.51-.517l-8.669-5.108V33.7a2.224,2.224,0,0,0,1.235-1.94.8.8,0,0,0-.707-.829.78.78,0,0,0-.852.777.665.665,0,1,1-1-.573,2.283,2.283,0,0,0,1.118-1.957V26.908H65.859V56.092H38.476V48.275a.78.78,0,0,0-.78-.78H35.37v-9.9a.78.78,0,0,0-.78-.78H29.622a.78.78,0,0,0-.78.78v9.9h-.6a10.367,10.367,0,0,0-8.851,5.017L14.854,60.1H13.14a.78.78,0,0,0-.7,1.126L17,70.441q-.126,0-.255,0a.78.78,0,1,0,0,1.56,4.7,4.7,0,0,1,1.366.183,5.9,5.9,0,0,1,2.2,1.393,6.349,6.349,0,0,0,9.171,0,4.814,4.814,0,0,1,7.125,0,6.349,6.349,0,0,0,9.171,0,4.817,4.817,0,0,1,7.128,0,6.349,6.349,0,0,0,9.171,0,4.817,4.817,0,0,1,7.128,0A8.6,8.6,0,0,0,71.227,75a5.923,5.923,0,0,0,2.565.535.78.78,0,0,0,0-1.56,4.8,4.8,0,0,1-1.309-.169l3.194-12.735a.78.78,0,0,0-.757-.97ZM60.945,50.976H43.51V42.515H60.945Zm-8.6-13.864,6.522,3.843H45.653ZM67.418,20.97h2.117V56.092H67.418ZM51.39,25.348V24.269H65.859v1.079ZM30.4,38.374H33.81v2.167H30.4Zm0,3.727H33.81v5.394H30.4ZM20.731,53.313a8.8,8.8,0,0,1,7.512-4.259h8.673V60.1H16.672ZM71.057,73.076c-.283-.21-.552-.442-.829-.682a6.35,6.35,0,0,0-9.172,0,4.815,4.815,0,0,1-7.126,0,6.35,6.35,0,0,0-9.172,0,4.816,4.816,0,0,1-7.127,0,6.347,6.347,0,0,0-9.169,0,4.816,4.816,0,0,1-7.127,0,7.877,7.877,0,0,0-2.409-1.586L14.4,61.657H43.338a.78.78,0,0,0,0-1.56H38.476V57.652H72.065V60.1H46.543a.78.78,0,0,0,0,1.56H73.92Z" transform="translate(-12.36 -19.41)" fill="#284268"/>
      </g>
    </g>
  </g>
</svg>
