<svg xmlns="http://www.w3.org/2000/svg" width="108" height="108" viewBox="0 0 108 108">
  <g id="icon12" transform="translate(-1052 -1931)">
    <circle id="Elipse_5081" data-name="Elipse 5081" cx="54" cy="54" r="54" transform="translate(1052 1931)" fill="#36a3f7"/>
    <g id="documents" transform="translate(1072 1950.995)">
      <g id="Grupo_102759" data-name="Grupo 102759" transform="translate(1.318 1.323)">
        <path id="Trazado_164023" data-name="Trazado 164023" d="M60,28.462H72.409A2.4,2.4,0,0,1,74.6,30.019l2.541,6.353h25.048V11.323A1.322,1.322,0,0,0,100.868,10H61.318A1.322,1.322,0,0,0,60,11.323Z" transform="translate(-53.408 -10.005)" fill="#fff" fill-rule="evenodd"/>
        <path id="Trazado_164024" data-name="Trazado 164024" d="M31.188,151.568A2.4,2.4,0,0,0,29,150.011H11.318A1.322,1.322,0,0,0,10,151.329v38.231a2.644,2.644,0,0,0,2.637,2.637H55.969c-10.094-9.681-7.04-22.523-7.04-22.523,3.237,0,10.338-2.515,12.749-4.9a14.009,14.009,0,0,0,3.691,2.345v-6.564a2.644,2.644,0,0,0-2.637-2.637h-29Z" transform="translate(-10 -131.554)" fill="#ffc144" fill-rule="evenodd"/>
        <path id="Trazado_164025" data-name="Trazado 164025" d="M315.186,262.007c-2.411,2.384-9.512,4.9-12.749,4.9,0,0-3.054,12.842,7.04,22.523a28.874,28.874,0,0,0,5.709,4.218,24.967,24.967,0,0,0,12.749-26.741c-2.15,0-6.005-1.109-9.058-2.553A14.015,14.015,0,0,1,315.186,262.007ZM308.4,275.765a2.636,2.636,0,0,1,3.728,0l1.55,1.55,4.571-4.571a2.636,2.636,0,1,1,3.728,3.728l-6.435,6.435a2.636,2.636,0,0,1-3.728,0l-3.415-3.415A2.637,2.637,0,0,1,308.4,275.765Z" transform="translate(-263.508 -228.785)" fill="#6d91ac" fill-rule="evenodd"/>
        <path id="Trazado_164026" data-name="Trazado 164026" d="M350.7,342.946l-1.55-1.55a2.636,2.636,0,0,0-3.728,3.728l3.415,3.415a2.636,2.636,0,0,0,3.728,0L359,342.1a2.636,2.636,0,0,0-3.728-3.728Z" transform="translate(-300.53 -294.416)" fill="#cbe558" fill-rule="evenodd"/>
      </g>
      <g id="Grupo_102760" data-name="Grupo 102760" transform="translate(0 0.005)">
        <path id="Trazado_164027" data-name="Trazado 164027" d="M67.028,39.139a1.318,1.318,0,0,0-1.283-1.013,23.591,23.591,0,0,1-7.74-2.078V30.327a3.959,3.959,0,0,0-3.955-3.955H51.414V2.642A2.64,2.64,0,0,0,48.778,0H9.228A2.64,2.64,0,0,0,6.592,2.642v15.82H2.637A2.64,2.64,0,0,0,0,21.1V59.33a3.959,3.959,0,0,0,3.955,3.955H46.776a30.264,30.264,0,0,0,5.567,4.045,1.319,1.319,0,0,0,1.307,0c9.123-5.208,12.281-12.588,13.323-17.861a26.436,26.436,0,0,0,.054-10.33Zm-57.8-36.5H48.778v23.73H25.941l-2.21-5.524a3.7,3.7,0,0,0-3.412-2.386H9.228ZM2.637,59.33V58.011H9.491a1.318,1.318,0,1,0,0-2.637H2.637V21.1H20.319a1.1,1.1,0,0,1,.964.728l2.541,6.353a1.318,1.318,0,0,0,1.224.829h29a1.32,1.32,0,0,1,1.318,1.318V34.7a8.293,8.293,0,0,1-1.446-1.09,1.318,1.318,0,0,0-1.854,0c-2.162,2.138-8.892,4.518-11.822,4.518a1.318,1.318,0,0,0-1.283,1.013,26.434,26.434,0,0,0,.054,10.33,25.242,25.242,0,0,0,5.265,11.18H3.955A1.32,1.32,0,0,1,2.637,59.33Zm61.75-10.373C63.071,55.614,59.241,60.893,53,64.656c-6.21-3.743-10.033-8.986-11.37-15.595a25.254,25.254,0,0,1-.262-8.369A28.718,28.718,0,0,0,53,36.267,28.715,28.715,0,0,0,64.63,40.693a25.118,25.118,0,0,1-.243,8.264Z" transform="translate(0 -0.005)"/>
        <path id="Trazado_164028" data-name="Trazado 164028" d="M97.819,42.643h29.926a1.318,1.318,0,0,0,0-2.637H97.819a1.318,1.318,0,0,0,0,2.637Z" transform="translate(-83.779 -34.733)"/>
        <path id="Trazado_164029" data-name="Trazado 164029" d="M129.063,81.324a1.318,1.318,0,0,0-1.318-1.318H97.819a1.318,1.318,0,0,0,0,2.637h29.926A1.318,1.318,0,0,0,129.063,81.324Z" transform="translate(-83.779 -69.459)"/>
        <path id="Trazado_164030" data-name="Trazado 164030" d="M226.281,120.006H211.318a1.318,1.318,0,0,0,0,2.637h14.963a1.318,1.318,0,1,0,0-2.637Z" transform="translate(-182.315 -104.186)"/>
        <path id="Trazado_164031" data-name="Trazado 164031" d="M273.6,160.006h-7.778a1.318,1.318,0,0,0,0,2.637H273.6a1.318,1.318,0,0,0,0-2.637Z" transform="translate(-229.631 -138.913)"/>
        <path id="Trazado_164032" data-name="Trazado 164032" d="M348.45,327.6a3.929,3.929,0,0,0-2.8,1.158l-3.639,3.639-.618-.618a3.955,3.955,0,0,0-5.593,5.593l3.415,3.415a3.959,3.959,0,0,0,5.593,0l6.435-6.435a3.955,3.955,0,0,0-2.8-6.751Zm.932,4.887-6.435,6.435a1.32,1.32,0,0,1-1.864,0l-3.415-3.415a1.318,1.318,0,0,1,1.864-1.864l1.55,1.55a1.318,1.318,0,0,0,1.864,0l4.571-4.571a1.318,1.318,0,0,1,1.864,1.864Z" transform="translate(-290.529 -284.415)"/>
        <path id="Trazado_164033" data-name="Trazado 164033" d="M108.311,420.01a1.318,1.318,0,0,0,0,2.637h0a1.318,1.318,0,1,0,0-2.637Z" transform="translate(-92.888 -364.64)"/>
      </g>
    </g>
  </g>
</svg>
