<svg xmlns="http://www.w3.org/2000/svg" width="52" height="62.4" viewBox="0 0 52 62.4">
  <g id="icon15" transform="translate(-40)">
    <path id="Trazado_179802" data-name="Trazado 179802" d="M91.68,96.16H48V40H77.12L91.68,54.56Z" transform="translate(-6.96 -34.8)" fill="#36a3f7"/>
    <path id="Trazado_179803" data-name="Trazado 179803" d="M139.68,62.08H96V8h29.12l14.56,14.56Z" transform="translate(-48.72 -6.96)" fill="#2cffe2" opacity="0.79"/>
    <path id="Trazado_179804" data-name="Trazado 179804" d="M320,22.56h14.56L320,8Z" transform="translate(-243.6 -6.96)" fill="#32c5b1"/>
    <g id="Grupo_104739" data-name="Grupo 104739" transform="translate(52.48 10.4)">
      <path id="Trazado_179805" data-name="Trazado 179805" d="M139.12,346.08h-2.08a1.04,1.04,0,1,1,0-2.08h2.08a1.04,1.04,0,1,1,0,2.08Z" transform="translate(-136 -309.68)" fill="#e9686a"/>
      <path id="Trazado_179806" data-name="Trazado 179806" d="M210,346.08H185.04a1.04,1.04,0,1,1,0-2.08H210a1.04,1.04,0,1,1,0,2.08Z" transform="translate(-177.76 -309.68)" fill="#e9686a"/>
      <path id="Trazado_179807" data-name="Trazado 179807" d="M139.12,298.08h-2.08a1.04,1.04,0,1,1,0-2.08h2.08a1.04,1.04,0,1,1,0,2.08Z" transform="translate(-136 -267.92)" fill="#e9686a"/>
      <path id="Trazado_179808" data-name="Trazado 179808" d="M210,298.08H185.04a1.04,1.04,0,1,1,0-2.08H210a1.04,1.04,0,1,1,0,2.08Z" transform="translate(-177.76 -267.92)" fill="#e9686a"/>
      <path id="Trazado_179809" data-name="Trazado 179809" d="M139.12,250.08h-2.08a1.04,1.04,0,0,1,0-2.08h2.08a1.04,1.04,0,0,1,0,2.08Z" transform="translate(-136 -226.16)" fill="#e9686a"/>
      <path id="Trazado_179810" data-name="Trazado 179810" d="M210,250.08H185.04a1.04,1.04,0,0,1,0-2.08H210a1.04,1.04,0,0,1,0,2.08Z" transform="translate(-177.76 -226.16)" fill="#e9686a"/>
      <path id="Trazado_179811" data-name="Trazado 179811" d="M139.12,202.08h-2.08a1.04,1.04,0,0,1,0-2.08h2.08a1.04,1.04,0,0,1,0,2.08Z" transform="translate(-136 -184.4)" fill="#e9686a"/>
      <path id="Trazado_179812" data-name="Trazado 179812" d="M210,202.08H185.04a1.04,1.04,0,0,1,0-2.08H210a1.04,1.04,0,0,1,0,2.08Z" transform="translate(-177.76 -184.4)" fill="#e9686a"/>
      <path id="Trazado_179813" data-name="Trazado 179813" d="M139.12,154.08h-2.08a1.04,1.04,0,1,1,0-2.08h2.08a1.04,1.04,0,1,1,0,2.08Z" transform="translate(-136 -142.64)" fill="#e9686a"/>
      <path id="Trazado_179814" data-name="Trazado 179814" d="M210,154.08H185.04a1.04,1.04,0,1,1,0-2.08H210a1.04,1.04,0,1,1,0,2.08Z" transform="translate(-177.76 -142.64)" fill="#e9686a"/>
      <path id="Trazado_179815" data-name="Trazado 179815" d="M144,80h6.24v6.24H144Z" transform="translate(-142.96 -80)" fill="#e9686a"/>
    </g>
    <path id="Trazado_179816" data-name="Trazado 179816" d="M137.04,346.08h2.08a1.04,1.04,0,1,0,0-2.08h-2.08a1.04,1.04,0,1,0,0,2.08Z" transform="translate(-83.52 -299.28)"/>
    <path id="Trazado_179817" data-name="Trazado 179817" d="M210,344H185.04a1.04,1.04,0,1,0,0,2.08H210a1.04,1.04,0,1,0,0-2.08Z" transform="translate(-125.28 -299.28)"/>
    <path id="Trazado_179818" data-name="Trazado 179818" d="M137.04,298.08h2.08a1.04,1.04,0,1,0,0-2.08h-2.08a1.04,1.04,0,1,0,0,2.08Z" transform="translate(-83.52 -257.52)"/>
    <path id="Trazado_179819" data-name="Trazado 179819" d="M210,296H185.04a1.04,1.04,0,1,0,0,2.08H210a1.04,1.04,0,1,0,0-2.08Z" transform="translate(-125.28 -257.52)"/>
    <path id="Trazado_179820" data-name="Trazado 179820" d="M137.04,250.08h2.08a1.04,1.04,0,0,0,0-2.08h-2.08a1.04,1.04,0,0,0,0,2.08Z" transform="translate(-83.52 -215.76)"/>
    <path id="Trazado_179821" data-name="Trazado 179821" d="M210,248H185.04a1.04,1.04,0,0,0,0,2.08H210a1.04,1.04,0,0,0,0-2.08Z" transform="translate(-125.28 -215.76)"/>
    <path id="Trazado_179822" data-name="Trazado 179822" d="M137.04,202.08h2.08a1.04,1.04,0,0,0,0-2.08h-2.08a1.04,1.04,0,0,0,0,2.08Z" transform="translate(-83.52 -174)"/>
    <path id="Trazado_179823" data-name="Trazado 179823" d="M210,200H185.04a1.04,1.04,0,0,0,0,2.08H210a1.04,1.04,0,0,0,0-2.08Z" transform="translate(-125.28 -174)"/>
    <path id="Trazado_179824" data-name="Trazado 179824" d="M137.04,154.08h2.08a1.04,1.04,0,1,0,0-2.08h-2.08a1.04,1.04,0,1,0,0,2.08Z" transform="translate(-83.52 -132.24)"/>
    <path id="Trazado_179825" data-name="Trazado 179825" d="M184,153.04a1.04,1.04,0,0,0,1.04,1.04H210a1.04,1.04,0,1,0,0-2.08H185.04A1.04,1.04,0,0,0,184,153.04Z" transform="translate(-125.28 -132.24)"/>
    <path id="Trazado_179826" data-name="Trazado 179826" d="M41.04,62.4H84.72a1.04,1.04,0,0,0,1.04-1.04v-5.2h5.2A1.04,1.04,0,0,0,92,55.12V15.6c0-.023-.011-.043-.014-.066a.983.983,0,0,0-.053-.267c-.011-.033-.02-.066-.034-.1a1.04,1.04,0,0,0-.208-.3L77.131.3a1.04,1.04,0,0,0-.3-.208c-.032-.015-.064-.023-.1-.034A1.036,1.036,0,0,0,76.46.008C76.443.011,76.423,0,76.4,0H47.28a1.04,1.04,0,0,0-1.04,1.04V4.16h-5.2A1.04,1.04,0,0,0,40,5.2V61.36a1.04,1.04,0,0,0,1.04,1.04ZM88.449,14.56H77.44V3.551ZM48.32,2.08H75.36V15.6a1.04,1.04,0,0,0,1.04,1.04H89.92V54.08H48.32ZM42.08,6.24h4.16V55.12a1.04,1.04,0,0,0,1.04,1.04h36.4v4.16H42.08Z"/>
    <path id="Trazado_179827" data-name="Trazado 179827" d="M137.04,80.32h6.24a1.04,1.04,0,0,0,1.04-1.04V73.04A1.04,1.04,0,0,0,143.28,72h-6.24A1.04,1.04,0,0,0,136,73.04v6.24A1.04,1.04,0,0,0,137.04,80.32Zm1.04-6.24h4.16v4.16h-4.16Z" transform="translate(-83.52 -62.64)"/>
  </g>
</svg>
