<svg xmlns="http://www.w3.org/2000/svg" width="52" height="62.4" viewBox="0 0 52 62.4">
  <g id="icon17" transform="translate(0 -34.936)">
    <g id="Grupo_104749" data-name="Grupo 104749" transform="translate(1.059 35.994)">
      <g id="Grupo_104747" data-name="Grupo 104747">
        <g id="Grupo_104746" data-name="Grupo 104746">
          <path id="Trazado_179860" data-name="Trazado 179860" d="M7.5,95.466V43.847c0-.779.449-1.411,1-1.411H56.379c.554,0,1,.632,1,1.411V95.466c0,.779-.449,1.411-1,1.411H8.5C7.949,96.877,7.5,96.245,7.5,95.466Z" transform="translate(-7.5 -42.436)" fill="#fed23a"/>
          <path id="Trazado_179861" data-name="Trazado 179861" d="M38.179,118.843H79.4v-45.8H38.179Z" transform="translate(-33.849 -68.722)" fill="#fff9e9"/>
          <path id="Trazado_179862" data-name="Trazado 179862" d="M433.821,73.041h5.645v45.8h-5.645Z" transform="translate(-393.913 -68.722)" fill="#fff4d6"/>
        </g>
      </g>
      <path id="Trazado_179863" data-name="Trazado 179863" d="M353.957,358.831l-3.034-1.411-3.034,1.411V340.625h6.069Z" transform="translate(-315.038 -298.54)" fill="#ffabe7"/>
      <g id="Grupo_104748" data-name="Grupo 104748" transform="translate(23.774 28.109)">
        <path id="Trazado_179864" data-name="Trazado 179864" d="M316.25,259.093c-1.071,0-1.772-1.823-2.7-2.209-.965-.4-2.744.376-3.471-.353s.048-2.511-.352-3.478c-.386-.933-2.205-1.635-2.205-2.708s1.819-1.775,2.205-2.708c.4-.967-.375-2.749.352-3.478s2.506.048,3.471-.353c.931-.387,1.632-2.209,2.7-2.209s1.772,1.823,2.7,2.209c.965.4,2.744-.376,3.471.353s-.048,2.511.352,3.478c.386.933,2.205,1.635,2.205,2.708s-1.819,1.775-2.205,2.708c-.4.967.375,2.749-.352,3.478s-2.506-.048-3.471.353C318.022,257.27,317.321,259.093,316.25,259.093Z" transform="translate(-307.518 -241.597)" fill="#ff6ed4"/>
      </g>
      <path id="Trazado_179865" data-name="Trazado 179865" d="M358.736,247.637c-.4-.967.375-2.749-.352-3.478s-2.506.048-3.471-.353c-.931-.387-1.632-2.209-2.7-2.209s-1.772,1.823-2.7,2.209c-.039.016-.079.029-.12.042.986.3,2.653-.389,3.352.311.727.729-.048,2.511.352,3.478.386.933,2.205,1.635,2.205,2.708s-1.819,1.775-2.205,2.708c-.4.967.375,2.749-.352,3.478-.7.7-2.366.012-3.352.311.041.012.081.026.12.042.931.387,1.632,2.209,2.7,2.209s1.772-1.823,2.7-2.209c.965-.4,2.744.376,3.471-.353s-.048-2.511.352-3.478c.386-.933,2.205-1.635,2.205-2.708S359.122,248.57,358.736,247.637Z" transform="translate(-319.928 -213.488)" fill="#ff5ccf"/>
      <circle id="Elipse_5125" data-name="Elipse 5125" cx="3.076" cy="3.076" r="3.076" transform="translate(32.802 33.781)" fill="#ffabe7"/>
    </g>
    <g id="Grupo_104750" data-name="Grupo 104750" transform="translate(0 34.936)">
      <path id="Trazado_179866" data-name="Trazado 179866" d="M50.223,34.936H1.777C.8,34.936,0,36.044,0,37.406V46.1c0,1.369,1.523,1.369,1.523,0V37.406c0-.194.114-.353.254-.353H50.223c.14,0,.254.158.254.353V89.024c0,.194-.114.353-.254.353H40.461v-2.2h7.661c.421,0,.762-.474.762-1.059V75.032c0-1.369-1.523-1.369-1.523,0V85.058h-6.9v-4.7l.073.009a1.845,1.845,0,0,0,1.964-.585,4.279,4.279,0,0,0,.42-2.731,1.918,1.918,0,0,1,.526-1.8,3.335,3.335,0,0,0,0-4.8,1.919,1.919,0,0,1-.526-1.8c.149-2.368-.647-3.528-2.384-3.316-.678.083-.862-.007-1.294-.732-1.115-1.871-2.312-1.906-3.449,0-.432.725-.616.815-1.294.732-1.705-.208-2.536.9-2.384,3.316a1.919,1.919,0,0,1-.526,1.8,3.335,3.335,0,0,0,0,4.8,1.919,1.919,0,0,1,.526,1.8c-.16,2.536.712,3.517,2.457,3.307v4.7H4.639V41.372H47.361V69.386c0,1.369,1.523,1.369,1.523,0V40.314c0-.585-.341-1.059-.762-1.059H3.878c-.421,0-.762.474-.762,1.059v45.8c0,.585.341,1.059.762,1.059H34.571v2.2H1.777c-.14,0-.254-.158-.254-.353V51.462c0-1.369-1.523-1.369-1.523,0V89.024c0,1.362.8,2.47,1.777,2.47H34.571v4.792q.163,1.3,1.083.96l1.862-1.2,1.862,1.2c.461.3,1.083-.173,1.083-.96V91.494h9.761c.98,0,1.777-1.108,1.777-2.47V37.406c0-1.362-.8-2.47-1.777-2.47ZM34.364,78.261c-.763.093-.8.037-.733-1.023a4.4,4.4,0,0,0-1.07-3.617c-.618-.714-.618-.826,0-1.54a4.4,4.4,0,0,0,1.07-3.617c-.067-1.059-.03-1.115.733-1.023,1.17.143,1.851-.233,2.6-1.491.512-.859.59-.859,1.1,0,.749,1.257,1.431,1.633,2.6,1.491.763-.093.8-.037.733,1.023a4.4,4.4,0,0,0,1.07,3.617c.618.714.618.826,0,1.54a4.4,4.4,0,0,0-1.07,3.617c.067,1.059.03,1.116-.733,1.023a2.337,2.337,0,0,0-1.5.151,3.628,3.628,0,0,0-1.1,1.34,3.616,3.616,0,0,1-.551.783,3.619,3.619,0,0,1-.551-.783,3.628,3.628,0,0,0-1.1-1.34,2.446,2.446,0,0,0-1.5-.151Zm3.473,15.654a.572.572,0,0,0-.642,0l-1.1.711V81.592c.361.552.807,1.065,1.422,1.065s1.06-.513,1.422-1.065V94.626Z" transform="translate(0 -34.936)" fill="#060606"/>
      <path id="Trazado_179867" data-name="Trazado 179867" d="M91.016,130.438h36.49a1.059,1.059,0,0,0,0-2.117H91.016A1.059,1.059,0,0,0,91.016,130.438Z" transform="translate(-82.531 -115.141)" fill="#060606"/>
      <path id="Trazado_179868" data-name="Trazado 179868" d="M116.621,175c0-.585-.269-1.059-.6-1.059H90.573c-.777,0-.777,2.117,0,2.117H116.02C116.352,176.056,116.621,175.582,116.621,175Z" transform="translate(-77.289 -154.321)" fill="#060606"/>
      <path id="Trazado_179869" data-name="Trazado 179869" d="M117.532,220.615a1.058,1.058,0,0,0-1.059-1.059H91.017a1.059,1.059,0,0,0,0,2.117h25.457A1.059,1.059,0,0,0,117.532,220.615Z" transform="translate(-81.242 -193.5)" fill="#060606"/>
      <path id="Trazado_179870" data-name="Trazado 179870" d="M106.114,275.773l-1.731,0c-1.11,0-1.722-.3-1.948-1.472-.207-1.075-1.757-.938-2.041,0-.126.415-.761,1.6-1.316,1.507-.294-.052-.422-.5-.531-.74a9.03,9.03,0,0,1-.5-1.427c-.557-2.051-.668-4.193-1.017-6.283-.2-1.212-2.049-.869-2.079.281a32.391,32.391,0,0,1-2,10.716c-.484,1.275,1.562,1.826,2.041.563a29.931,29.931,0,0,0,1.212-4.058,10.733,10.733,0,0,0,.607,1.472,2.519,2.519,0,0,0,3.228,1.4,3.612,3.612,0,0,0,1.294-.945c1,1.155,2.491,1.1,3.881,1.1q3.143,0,6.286-.013a1.059,1.059,0,0,0,0-2.117Q108.809,275.768,106.114,275.773Z" transform="translate(-84.819 -233.904)" fill="#060606"/>
      <path id="Trazado_179871" data-name="Trazado 179871" d="M344.228,282.555a4.134,4.134,0,1,0-4.134-4.134A4.139,4.139,0,0,0,344.228,282.555Zm0-6.152a2.017,2.017,0,1,1-2.017,2.017A2.02,2.02,0,0,1,344.228,276.4Z" transform="translate(-307.292 -240.505)" fill="#060606"/>
    </g>
  </g>
</svg>
