<svg xmlns="http://www.w3.org/2000/svg" width="101" height="101" viewBox="0 0 101 101">
  <g id="icon4" transform="translate(-637 -1883)">
    <path id="Trazado_160734" data-name="Trazado 160734" d="M50.5,0A50.5,50.5,0,1,1,0,50.5,50.5,50.5,0,0,1,50.5,0Z" transform="translate(637 1883)" fill="#6dc5db"/>
    <g id="icon4-2" data-name="icon4" transform="translate(655 1896)">
      <g id="Grupo_102646" data-name="Grupo 102646" transform="translate(1.18 1.18)">
        <g id="Grupo_102644" data-name="Grupo 102644">
          <g id="Grupo_102640" data-name="Grupo 102640">
            <g id="Grupo_102639" data-name="Grupo 102639">
              <g id="Grupo_102638" data-name="Grupo 102638">
                <g id="Grupo_102637" data-name="Grupo 102637">
                  <g id="Grupo_102636" data-name="Grupo 102636">
                    <g id="Grupo_102635" data-name="Grupo 102635">
                      <g id="Grupo_102634" data-name="Grupo 102634">
                        <path id="Trazado_160691" data-name="Trazado 160691" d="M91.622,7.985h-35.4a4.119,4.119,0,0,0-2.912,1.206L42.556,19.948A4.119,4.119,0,0,0,41.35,22.86V73.007a4.119,4.119,0,0,0,4.119,4.119H91.622a4.119,4.119,0,0,0,4.119-4.119V12.1a4.119,4.119,0,0,0-4.119-4.119Z" transform="translate(-41.35 -7.985)" fill="#f4fbff"/>
                        <path id="Trazado_160692" data-name="Trazado 160692" d="M327.478,7.985H318.1a4.119,4.119,0,0,1,4.119,4.119v60.9a4.119,4.119,0,0,1-4.119,4.119h9.375a4.119,4.119,0,0,0,4.119-4.119V12.1a4.119,4.119,0,0,0-4.119-4.119Z" transform="translate(-277.206 -7.985)" fill="#e4f6ff"/>
                        <path id="Trazado_160693" data-name="Trazado 160693" d="M56.653,20.734V10.488a4.115,4.115,0,0,0-1.206.836L44.689,22.081a4.12,4.12,0,0,0-.836,1.206H54.1A2.553,2.553,0,0,0,56.653,20.734Z" transform="translate(-43.483 -10.118)" fill="#e28086"/>
                      </g>
                    </g>
                  </g>
                </g>
              </g>
            </g>
          </g>
          <g id="Grupo_102642" data-name="Grupo 102642" transform="translate(8.201 26.317)">
            <g id="Grupo_102641" data-name="Grupo 102641">
              <path id="Trazado_160694" data-name="Trazado 160694" d="M103.227,194.083H98.472a1.628,1.628,0,0,1-1.628-1.628V187.7a1.628,1.628,0,0,1,1.628-1.628h4.755a1.628,1.628,0,0,1,1.628,1.628v4.755A1.628,1.628,0,0,1,103.227,194.083Z" transform="translate(-96.844 -186.072)" fill="#e8ae4d"/>
              <path id="Trazado_160695" data-name="Trazado 160695" d="M103.227,284.015H98.472a1.628,1.628,0,0,1-1.628-1.628v-4.755A1.628,1.628,0,0,1,98.472,276h4.755a1.628,1.628,0,0,1,1.628,1.628v4.755A1.628,1.628,0,0,1,103.227,284.015Z" transform="translate(-96.844 -262.714)" fill="#e8ae4d"/>
              <path id="Trazado_160696" data-name="Trazado 160696" d="M103.227,373.948H98.472a1.628,1.628,0,0,1-1.628-1.628v-4.755a1.628,1.628,0,0,1,1.628-1.628h4.755a1.628,1.628,0,0,1,1.628,1.628v4.755A1.628,1.628,0,0,1,103.227,373.948Z" transform="translate(-96.844 -339.357)" fill="#e8ae4d"/>
            </g>
          </g>
          <g id="Grupo_102643" data-name="Grupo 102643" transform="translate(27.869 5.219)">
            <ellipse id="Elipse_5031" data-name="Elipse 5031" cx="8.555" cy="8.555" rx="8.555" ry="8.555" fill="#bed8fb"/>
            <path id="Trazado_160697" data-name="Trazado 160697" d="M254.6,114.85a6.012,6.012,0,0,0-5.763,4.3,8.554,8.554,0,0,0,11.526,0,6.011,6.011,0,0,0-5.763-4.3Z" transform="translate(-246.042 -104.277)" fill="#4a80aa"/>
            <ellipse id="Elipse_5032" data-name="Elipse 5032" cx="3.027" cy="3.027" rx="3.027" ry="3.027" transform="translate(5.528 5.279)" fill="#365e7d"/>
          </g>
        </g>
        <g id="Grupo_102645" data-name="Grupo 102645" transform="translate(38.32 25.546)">
          <path id="Trazado_160698" data-name="Trazado 160698" d="M306.933,224,302,228.406a.8.8,0,0,1-1.335-.639l.343-6.608a3.088,3.088,0,0,1,.3-1.174l17.778-37.127a3.522,3.522,0,0,1,6.353,3.042L307.66,223.027A3.089,3.089,0,0,1,306.933,224Z" transform="translate(-300.664 -180.856)" fill="#407093"/>
          <path id="Trazado_160699" data-name="Trazado 160699" d="M306.933,449.652,302,454.062a.8.8,0,0,1-1.335-.639l.343-6.608a3.088,3.088,0,0,1,.3-1.174l6.353,3.042A3.09,3.09,0,0,1,306.933,449.652Z" transform="translate(-300.664 -406.512)" fill="#b9cbea"/>
          <path id="Trazado_160700" data-name="Trazado 160700" d="M0,0H4.011V7.044H0Z" transform="translate(15.248 8.647) rotate(-64.409)" fill="#f4fbff"/>
        </g>
      </g>
      <g id="Grupo_102647" data-name="Grupo 102647" transform="translate(0 0)">
        <path id="Trazado_160701" data-name="Trazado 160701" d="M210.438,190.608h-23.7a1.18,1.18,0,0,0,0,2.36h23.7a1.18,1.18,0,0,0,0-2.36Z" transform="translate(-163.068 -162.441)"/>
        <path id="Trazado_160702" data-name="Trazado 160702" d="M211.617,223.166a1.18,1.18,0,0,0-1.18-1.18h-23.7a1.18,1.18,0,0,0,0,2.36h23.7A1.18,1.18,0,0,0,211.617,223.166Z" transform="translate(-163.068 -189.182)"/>
        <path id="Trazado_160703" data-name="Trazado 160703" d="M209.686,280.617a1.18,1.18,0,0,0-1.18-1.18H186.738a1.18,1.18,0,0,0,0,2.36h21.768A1.18,1.18,0,0,0,209.686,280.617Z" transform="translate(-163.068 -238.143)"/>
        <path id="Trazado_160704" data-name="Trazado 160704" d="M207.465,311.993a1.18,1.18,0,0,0-1.18-1.18H186.738a1.18,1.18,0,0,0,0,2.36h19.548A1.18,1.18,0,0,0,207.465,311.993Z" transform="translate(-163.068 -264.883)"/>
        <path id="Trazado_160705" data-name="Trazado 160705" d="M186.738,368.264a1.18,1.18,0,0,0,0,2.36H202.22a1.18,1.18,0,0,0,0-2.36Z" transform="translate(-163.068 -313.844)"/>
        <path id="Trazado_160706" data-name="Trazado 160706" d="M200,399.64H186.738a1.18,1.18,0,0,0,0,2.36H200a1.18,1.18,0,1,0,0-2.36Z" transform="translate(-163.068 -340.583)"/>
        <path id="Trazado_160707" data-name="Trazado 160707" d="M317.488,173.341a4.708,4.708,0,0,0-6.272,2.21l-17.778,37.127a4.246,4.246,0,0,0-.413,1.622l-.343,6.608a1.982,1.982,0,0,0,3.3,1.58l4.089-3.655h5.741a5.3,5.3,0,0,0,5.3-5.3V197.548l8.589-17.936A4.708,4.708,0,0,0,317.488,173.341Zm-2.027,1.9a2.342,2.342,0,0,1,2.109,3.354l-.941,1.964-4.225-2.023.941-1.964A2.346,2.346,0,0,1,315.461,175.24Zm-.564,8.935-4.225-2.023.713-1.489,4.225,2.023Zm-14.6,30.481-4.225-2.023,13.577-28.352,4.225,2.023Zm-5.215,5.468.271-5.219,3.625,1.736Zm13.664-6.589a2.942,2.942,0,0,1-2.939,2.939h-3.764l6.7-14Z" transform="translate(-254.359 -147.333)"/>
        <path id="Trazado_160708" data-name="Trazado 160708" d="M67.939,69.14H38.664A2.942,2.942,0,0,1,35.725,66.2V16.055a2.973,2.973,0,0,1,.047-.526h9.389A3.738,3.738,0,0,0,48.894,11.8V2.407a2.973,2.973,0,0,1,.526-.047h35.4A2.942,2.942,0,0,1,87.755,5.3V27a1.18,1.18,0,1,0,2.36,0V5.3a5.3,5.3,0,0,0-5.3-5.3H49.42a5.264,5.264,0,0,0-3.747,1.552L34.917,12.309a5.264,5.264,0,0,0-1.552,3.747V66.2a5.3,5.3,0,0,0,5.3,5.3H67.939a1.18,1.18,0,0,0,0-2.36ZM46.535,4.028V11.8a1.375,1.375,0,0,1-1.374,1.373H37.394Z" transform="translate(-33.365 0)"/>
        <path id="Trazado_160709" data-name="Trazado 160709" d="M99.229,180.895a2.811,2.811,0,0,0-2.808-2.808H91.666a2.811,2.811,0,0,0-2.808,2.808v4.755a2.811,2.811,0,0,0,2.808,2.808h4.755a2.811,2.811,0,0,0,2.808-2.808Zm-2.36,4.755a.448.448,0,0,1-.448.448H91.666a.448.448,0,0,1-.448-.448v-4.755a.448.448,0,0,1,.448-.448h4.755a.449.449,0,0,1,.448.448Z" transform="translate(-80.658 -151.77)"/>
        <path id="Trazado_160710" data-name="Trazado 160710" d="M99.229,270.827a2.811,2.811,0,0,0-2.808-2.808H91.666a2.811,2.811,0,0,0-2.808,2.808v4.755a2.811,2.811,0,0,0,2.808,2.808h4.755a2.811,2.811,0,0,0,2.808-2.808Zm-2.36,4.755a.449.449,0,0,1-.448.448H91.666a.449.449,0,0,1-.448-.448v-4.755a.449.449,0,0,1,.448-.448h4.755a.449.449,0,0,1,.448.448Z" transform="translate(-80.658 -228.413)"/>
        <path id="Trazado_160711" data-name="Trazado 160711" d="M96.421,357.952H91.666a2.811,2.811,0,0,0-2.808,2.808v4.755a2.811,2.811,0,0,0,2.808,2.808h4.755a2.811,2.811,0,0,0,2.808-2.808V360.76a2.811,2.811,0,0,0-2.808-2.808Zm.448,7.563a.448.448,0,0,1-.448.448H91.666a.448.448,0,0,1-.448-.448V360.76a.448.448,0,0,1,.448-.448h4.755a.449.449,0,0,1,.448.448Z" transform="translate(-80.658 -305.056)"/>
        <path id="Trazado_160712" data-name="Trazado 160712" d="M225.219,52.315a9.718,9.718,0,0,0,12.949,0,1.181,1.181,0,0,0,.16-.146,9.735,9.735,0,1,0-13.271,0,1.163,1.163,0,0,0,.162.148ZM227.335,51a4.9,4.9,0,0,1,2.547-2.4,4.215,4.215,0,0,0,3.622,0,4.894,4.894,0,0,1,2.546,2.4,7.361,7.361,0,0,1-8.715,0Zm5.393-4.665-.005,0a1.855,1.855,0,1,1,.005,0Zm-1.035-8.657a7.372,7.372,0,0,1,6.076,11.552,7.136,7.136,0,0,0-2.419-2.344,4.207,4.207,0,1,0-7.313,0,7.137,7.137,0,0,0-2.419,2.344,7.372,7.372,0,0,1,6.076-11.552Z" transform="translate(-194.089 -30.097)"/>
      </g>
    </g>
  </g>
</svg>
