<svg xmlns="http://www.w3.org/2000/svg" width="108" height="108" viewBox="0 0 108 108">
  <g id="icon11" transform="translate(-447 -1931)">
    <circle id="Elipse_5082" data-name="Elipse 5082" cx="54" cy="54" r="54" transform="translate(447 1931)" fill="#36a3f7"/>
    <g id="Grupo_102779" data-name="Grupo 102779" transform="translate(0.025 -4.606)">
      <g id="Grupo_102778" data-name="Grupo 102778" transform="translate(468.975 1947.606)">
        <g id="medal" transform="translate(0)">
          <g id="Grupo_102777" data-name="Grupo 102777" transform="translate(0 0)">
            <g id="Grupo_102774" data-name="Grupo 102774" transform="translate(0 47.296)">
              <path id="Trazado_164057" data-name="Trazado 164057" d="M114.143,306.365l-6.476-11.489L95,298.534l12.089-29.556,19.147,7.831Z" transform="translate(-94.996 -268.978)" fill="#fffbd8" stroke="#000" stroke-width="1"/>
              <path id="Trazado_164058" data-name="Trazado 164058" d="M272.585,306.365l6.476-11.489,12.671,3.658-12.089-29.556L260.5,276.809Z" transform="translate(-227.465 -268.978)" fill="#fffbd8" stroke="#000" stroke-width="1"/>
            </g>
            <path id="Trazado_164059" data-name="Trazado 164059" d="M163.681,62.666a9.718,9.718,0,0,0-3.736-7.66,6.53,6.53,0,0,1-2.47-5.924,9.85,9.85,0,0,0,.075-1.217,9.726,9.726,0,0,0-10.916-9.656,6.563,6.563,0,0,1-5.954-2.466,9.719,9.719,0,0,0-15.328,0,6.563,6.563,0,0,1-5.954,2.466,9.726,9.726,0,0,0-10.916,9.656,9.886,9.886,0,0,0,.075,1.217,6.53,6.53,0,0,1-2.47,5.924,9.72,9.72,0,0,0,0,15.32,6.612,6.612,0,0,1,2.462,5.987,9.868,9.868,0,0,0-.067,1.13,9.736,9.736,0,0,0,10.959,9.676,6.512,6.512,0,0,1,5.914,2.473,9.72,9.72,0,0,0,15.325,0,6.512,6.512,0,0,1,5.914-2.473,9.738,9.738,0,0,0,10.891-10.806,6.611,6.611,0,0,1,2.462-5.987A9.719,9.719,0,0,0,163.681,62.666Z" transform="translate(-100.882 -32)" fill="#bbedff" stroke="#000" stroke-width="1"/>
            <g id="Grupo_102776" data-name="Grupo 102776" transform="translate(14.505 13.037)">
              <path id="Trazado_164061" data-name="Trazado 164061" d="M203.044,113.8H167.863c.032-.515.088-1.026.164-1.527a17.634,17.634,0,0,1,17.427-14.951h.114a17.631,17.631,0,0,1,17.312,14.95C202.956,112.776,203.012,113.286,203.044,113.8Z" transform="translate(-167.825 -97.323)" fill="#fec20a"/>
              <path id="Trazado_164063" data-name="Trazado 164063" d="M202.93,174.912a17.545,17.545,0,0,1-1.917,8c-.069.135-.139.268-.209.4H169.8c-.07-.132-.14-.265-.209-.4a17.544,17.544,0,0,1-1.917-8q0-.579.038-1.15c.032-.515.088-1.026.164-1.527h34.853c.076.5.132,1.012.164,1.527Q202.929,174.333,202.93,174.912Z" transform="translate(-167.673 -157.284)" fill="#134ea5"/>
              <path id="Trazado_164065" data-name="Trazado 164065" d="M208.7,225.742c-.069.135-.139.268-.209.4a17.636,17.636,0,0,1-31.005,0c-.07-.132-.141-.265-.209-.4Z" transform="translate(-175.359 -200.112)" fill="#e3134d"/>
            </g>
          </g>
        </g>
        <path id="Trazado_164066" data-name="Trazado 164066" d="M81.7,55.379A20.7,20.7,0,0,0,70.935,44.612,19.562,19.562,0,0,0,63.157,43a20,20,0,0,0-10.972,3.594.946.946,0,0,0,1.048,1.576,18.124,18.124,0,0,1,9.924-3.278A18.264,18.264,0,1,1,44.893,63.157a18.135,18.135,0,0,1,3.277-9.925.946.946,0,0,0-1.577-1.047A20.008,20.008,0,0,0,43,63.157a19.568,19.568,0,0,0,1.611,7.778A20.7,20.7,0,0,0,55.379,81.7a19.582,19.582,0,0,0,15.557,0A20.7,20.7,0,0,0,81.7,70.935a19.582,19.582,0,0,0,0-15.557Zm0,0" transform="translate(-31.459 -32.646)"/>
        <path id="Trazado_164067" data-name="Trazado 164067" d="M105.946,105a.946.946,0,1,0,.946.946A.947.947,0,0,0,105.946,105Zm0,0" transform="translate(-87.591 -88.778)"/>
      </g>
    </g>
  </g>
</svg>
