<svg xmlns="http://www.w3.org/2000/svg" width="60.005" height="60" viewBox="0 0 60.005 60">
  <g id="icon22" transform="translate(-2 -2)">
    <g id="Color">
      <path id="Trazado_179757" data-name="Trazado 179757" d="M47,61H3V3H37L47,13Z" fill="#48cae4"/>
      <path id="Trazado_179758" data-name="Trazado 179758" d="M47,13,35,15,37,3Z" fill="#00b4d8"/>
      <path id="Trazado_179759" data-name="Trazado 179759" d="M47,35V61H3V3H15V23A12,12,0,0,0,27,35Z" fill="#00b4d8"/>
      <path id="Trazado_179760" data-name="Trazado 179760" d="M47,13H37V3Z" fill="#ade8f4"/>
      <path id="Trazado_179761" data-name="Trazado 179761" d="M13.708,38.563A.988.988,0,0,0,15.373,38a.988.988,0,0,1,1.884-.248.987.987,0,0,0,1.754.115.987.987,0,0,1,1.835.491.988.988,0,0,0,1.577.777.988.988,0,0,1,1.508,1.157.988.988,0,0,0,1.159,1.322.987.987,0,0,1,.95,1.645.988.988,0,0,0,.565,1.665.988.988,0,0,1,.248,1.884.987.987,0,0,0-.115,1.754.987.987,0,0,1-.491,1.835.988.988,0,0,0-.777,1.577.988.988,0,0,1-1.157,1.507A.988.988,0,0,0,22.99,54.64a.988.988,0,0,1-1.645.95.988.988,0,0,0-1.665.566.988.988,0,0,1-1.88.244.987.987,0,0,0-1.754-.115.988.988,0,0,1-1.835-.492.988.988,0,0,0-1.577-.778.987.987,0,0,1-1.507-1.156.987.987,0,0,0-1.159-1.321.988.988,0,0,1-.95-1.646.988.988,0,0,0-.566-1.665A.988.988,0,0,1,8.2,47.346a.987.987,0,0,0,.115-1.754.988.988,0,0,1,.492-1.835.988.988,0,0,0,.778-1.577.988.988,0,0,1,1.156-1.508.987.987,0,0,0,1.321-1.159.988.988,0,0,1,1.646-.95Z" fill="#c62828"/>
      <path id="Trazado_179762" data-name="Trazado 179762" d="M18.467,54.258a3.009,3.009,0,0,0-2.822-.183,3,3,0,0,0-2.43-1.253h-.1A3,3,0,0,0,11.252,50.7a3,3,0,0,0-.908-2.677,3,3,0,0,0,.185-2.82,3.012,3.012,0,0,0,1.25-2.537,3.019,3.019,0,0,0,1.684-1.077A2.978,2.978,0,0,0,13.9,40.8a2.9,2.9,0,0,0,.486.04,2.98,2.98,0,0,0,2.194-.948,3,3,0,0,0,2.824.183,3,3,0,0,0,2.429,1.253h.1A3,3,0,0,0,23.8,43.455a3,3,0,0,0,.908,2.676,3.012,3.012,0,0,0-.185,2.821,3.008,3.008,0,0,0-1.25,2.536,3.022,3.022,0,0,0-1.684,1.077,2.991,2.991,0,0,0-.441.785,3.016,3.016,0,0,0-.486-.039,2.981,2.981,0,0,0-2.2.947Z" fill="#e53935"/>
      <circle id="Elipse_5123" data-name="Elipse 5123" cx="5" cy="5" r="5" transform="translate(12.526 42.077)" fill="#ef5350"/>
      <path id="Trazado_179763" data-name="Trazado 179763" d="M6.526,45.077h22v4h-22Z" transform="matrix(0.866, -0.5, 0.5, 0.866, -21.19, 15.07)" fill="#ff7373"/>
      <rect id="Rectángulo_34781" data-name="Rectángulo 34781" width="20" height="1.999" rx="0.999" transform="matrix(-0.866, 0.5, -0.5, -0.866, 26.687, 42.943)" fill="#ef5350"/>
      <path id="Trazado_179764" data-name="Trazado 179764" d="M35.5,46.938h16a4,4,0,0,1,4,4v2h-24v-2A4,4,0,0,1,35.5,46.938Z" transform="matrix(0.866, 0.5, -0.5, 0.866, 30.797, -15.059)" fill="#656b76"/>
      <path id="Trazado_179765" data-name="Trazado 179765" d="M31,52.268H51v4H31Z" transform="matrix(0.866, 0.5, -0.5, 0.866, 32.627, -13.229)" fill="#e53935"/>
      <path id="Trazado_179766" data-name="Trazado 179766" d="M39,43.608H53v4H39Z" transform="matrix(0.866, 0.5, -0.5, 0.866, 28.967, -16.889)" fill="#e9f1f2"/>
      <path id="Trazado_179767" data-name="Trazado 179767" d="M60.061,35.251a7,7,0,0,0-2.665-9.62,7.087,7.087,0,0,0-9.326,2.4A6.956,6.956,0,0,0,47,31.656a16.227,16.227,0,0,1-3.133,9.784l-.333.436,6.928,4,.2-.488A14.407,14.407,0,0,1,57.2,37.971a6.942,6.942,0,0,0,2.861-2.72Z" fill="#656b76"/>
      <path id="Trazado_179768" data-name="Trazado 179768" d="M60.06,35.25a6.918,6.918,0,0,1-2.86,2.72,14.389,14.389,0,0,0-6.53,7.42l-.21.49-6.93-4,.34-.44a14.433,14.433,0,0,0,1.95-3.46A15.976,15.976,0,0,0,59.86,27.92a7.021,7.021,0,0,1,.2,7.33Z" fill="#464a51"/>
      <path id="Trazado_179769" data-name="Trazado 179769" d="M53.06,47.38l-2,3.46-12.12-7,.62-1.07,7.04,4.07a3.987,3.987,0,0,0,4.67-.5Z" fill="#d0d8da"/>
      <path id="Trazado_179770" data-name="Trazado 179770" d="M53.39,56.8l-1,1.74-20.78-12,1-1.74a3.744,3.744,0,0,1,.59-.77l12.99,7.51a5.989,5.989,0,0,0,2.99.8,6.084,6.084,0,0,0,3.03-.81,3.98,3.98,0,0,1,1.18,5.27Z" fill="#464a51"/>
      <path id="Trazado_179771" data-name="Trazado 179771" d="M50.66,57.54l-2,3.46-2.29-1.32a2.981,2.981,0,0,0-1.31-3.64l-12.47-7.2.75-1.3Z" fill="#c62828"/>
      <path id="Trazado_179772" data-name="Trazado 179772" d="M12,19H24v8H12Z" fill="#ffea00"/>
      <path id="Trazado_179773" data-name="Trazado 179773" d="M15.69,27H12V19h3v4a11.8,11.8,0,0,0,.69,4Z" fill="#ffd000"/>
      <g id="Grupo_104738" data-name="Grupo 104738">
        <path id="Trazado_179774" data-name="Trazado 179774" d="M24,19h8v8H24Z" fill="#e9f1f2"/>
        <path id="Trazado_179775" data-name="Trazado 179775" d="M16,23h4v4H16Z" fill="#e9f1f2"/>
        <path id="Trazado_179776" data-name="Trazado 179776" d="M12,11H24v4H12Z" fill="#e9f1f2"/>
        <path id="Trazado_179777" data-name="Trazado 179777" d="M12,15H24v4H12Z" fill="#e9f1f2"/>
      </g>
      <path id="Trazado_179778" data-name="Trazado 179778" d="M20,7h4v4H20Z" fill="#ffea00"/>
      <path id="Trazado_179779" data-name="Trazado 179779" d="M16,7h4v4H16Z" fill="#ffea00"/>
      <path id="Trazado_179780" data-name="Trazado 179780" d="M8,15h4V27H8Z" fill="#ffb700"/>
      <path id="Trazado_179781" data-name="Trazado 179781" d="M12,15V27H8V25a2.006,2.006,0,0,0,2-2V15Z" fill="#ffa200"/>
      <path id="Trazado_179782" data-name="Trazado 179782" d="M24,15H12V11h7Z" fill="#d0d8da"/>
      <path id="Trazado_179783" data-name="Trazado 179783" d="M24,19H12V15h7Z" fill="#d0d8da"/>
      <path id="Trazado_179784" data-name="Trazado 179784" d="M12,11h3v4H12Z" fill="#93999a"/>
      <path id="Trazado_179785" data-name="Trazado 179785" d="M12,15h3v4H12Z" fill="#93999a"/>
      <path id="Trazado_179786" data-name="Trazado 179786" d="M24,10v1H20V7h1A3,3,0,0,0,24,10Z" fill="#ffd000"/>
      <path id="Trazado_179787" data-name="Trazado 179787" d="M20,10v1H16V7h1A3,3,0,0,0,20,10Z" fill="#ffd000"/>
      <path id="Trazado_179788" data-name="Trazado 179788" d="M30,23H24V19h2Z" fill="#d0d8da"/>
      <path id="Trazado_179789" data-name="Trazado 179789" d="M30,27H24V23h2Z" fill="#d0d8da"/>
      <path id="Trazado_179790" data-name="Trazado 179790" d="M16,23v4h4V23Zm3,3-2-2h2Z" fill="#d0d8da"/>
    </g>
    <g id="Outline_copy" data-name="Outline copy">
      <path id="Trazado_179791" data-name="Trazado 179791" d="M41,60H4V15a1,1,0,0,0-2,0V61a1,1,0,0,0,1,1H41a1,1,0,0,0,0-2Z" fill="#323232"/>
      <path id="Trazado_179792" data-name="Trazado 179792" d="M6.134,51.345a1,1,0,0,0,1.366.366l18.187-10.5,1,1.731L8.5,53.442a1,1,0,0,0,1,1.733l.642-.371a1.979,1.979,0,0,0,.688,1,1.925,1.925,0,0,0,2.376.008A1.971,1.971,0,0,0,14.68,57.7a1.927,1.927,0,0,0,2.2-.9A1.966,1.966,0,0,0,18.694,58a1.852,1.852,0,0,0,.267-.018,1.926,1.926,0,0,0,1.687-1.673,1.972,1.972,0,0,0,2.378.294,1.929,1.929,0,0,0,.918-2.192,1.975,1.975,0,0,0,2.309-.638,1.928,1.928,0,0,0,.009-2.376,1.969,1.969,0,0,0,1.889-1.473,1.928,1.928,0,0,0-.9-2.2,1.984,1.984,0,0,0,.662-3.18l.641-.37a1,1,0,0,0,.366-1.366l-2-3.464a1,1,0,0,0-1.366-.366l-.642.37a1.958,1.958,0,0,0-.688-1,1.929,1.929,0,0,0-2.376-.009,1.988,1.988,0,0,0-3.694-.989.989.989,0,1,0,1.694,1.02,1.979,1.979,0,0,0,1.108,1.752,1.913,1.913,0,0,0,2.046-.2,1.922,1.922,0,0,0-.126.6L20.51,41.89a5.967,5.967,0,0,0-8.968,5.177l-2.37,1.369a1.779,1.779,0,0,0-.576-.172,1.98,1.98,0,0,0,1.2-1.7,1.915,1.915,0,0,0-.97-1.813,1.98,1.98,0,0,0,1.753-1.108,1.917,1.917,0,0,0-.2-2.046,1.98,1.98,0,0,0,2.043-.354,1.914,1.914,0,0,0,.6-1.967,1.988,1.988,0,0,0,3.35-1.138.99.99,0,1,0-1.958-.3,1.973,1.973,0,0,0-2.378-.293,1.93,1.93,0,0,0-.918,2.191,1.971,1.971,0,0,0-2.309.639A1.928,1.928,0,0,0,8.8,42.75a1.971,1.971,0,0,0-1.9,1.48,1.929,1.929,0,0,0,.9,2.2,1.971,1.971,0,0,0-1.181,2.085,1.893,1.893,0,0,0,.54,1.085l-.659.381a1,1,0,0,0-.366,1.364Zm15.179-2.99A3.986,3.986,0,0,1,16.739,51Zm5.143-2.466a1.981,1.981,0,0,0-1.194,1.694,1.916,1.916,0,0,0,.969,1.814,1.981,1.981,0,0,0-1.752,1.108,1.915,1.915,0,0,0,.2,2.046,1.979,1.979,0,0,0-2.042.354,1.916,1.916,0,0,0-.6,1.968,1.979,1.979,0,0,0-2.023-.456,1.915,1.915,0,0,0-1.3,1.589,1.98,1.98,0,0,0-1.694-1.194,1.914,1.914,0,0,0-1.814.97A1.98,1.98,0,0,0,14.1,54.029a1.915,1.915,0,0,0-2.046.2,1.98,1.98,0,0,0,.126-.6l2.369-1.368a5.963,5.963,0,0,0,8.963-5.175l2.37-1.368a1.778,1.778,0,0,0,.574.171Zm-10.93-2.277a4,4,0,0,1,2.787-.454L13.739,45.8a4,4,0,0,1,1.787-2.188Z" fill="#323232"/>
      <path id="Trazado_179793" data-name="Trazado 179793" d="M61.708,29.616a7.939,7.939,0,0,0-3.827-4.859A8.1,8.1,0,0,0,48,26.475V13a1,1,0,0,0-.293-.707l-10-10A1,1,0,0,0,37,2H3A1,1,0,0,0,2,3v8a1,1,0,0,0,2,0V4H36v9a1,1,0,0,0,1,1h9V31.666a15.325,15.325,0,0,1-2.739,8.9l-1.824-1.054a1,1,0,0,0-1.367.366l-1.5,2.6a5,5,0,0,0-6.83,1.83l-1,1.732a1,1,0,0,0,.366,1.366L49.293,57.9l-1,1.732-16.455-9.5a1,1,0,1,0-1,1.732l17.321,10a1,1,0,0,0,1.366-.366l1.5-2.6.866.5a1,1,0,0,0,1.366-.366l1-1.732a5,5,0,0,0-1.83-6.83l1.5-2.6a1,1,0,0,0-.366-1.366L51.735,45.45a13.62,13.62,0,0,1,5.288-6.224A1,1,0,1,0,56,37.516a15.577,15.577,0,0,0-6,6.935l-5-2.886a17.353,17.353,0,0,0,3-9.85v-.048a5.98,5.98,0,0,1,.916-3.106A6.066,6.066,0,0,1,56.909,26.5,6,6,0,0,1,59.2,34.75c-.1.17-.213.324-.325.479l-.034.046a.977.977,0,0,0,.237,1.374,1.026,1.026,0,0,0,1.414-.243,7.548,7.548,0,0,0,.439-.655,7.937,7.937,0,0,0,.777-6.135ZM52.525,56.3l-.5.866-.865-.5L32.972,46.17l.5-.866a3,3,0,0,1,4.1-1.1l6.547,3.78a1,1,0,1,0,1-1.733L40.3,43.474l1-1.732,10.392,6-1,1.732-2.113-1.221a1,1,0,0,0-1,1.733l3.845,2.22a3,3,0,0,1,1.1,4.1ZM38,5.414,44.586,12H38Z" fill="#323232"/>
      <path id="Trazado_179794" data-name="Trazado 179794" d="M25,7a1,1,0,0,0-1-1H16a1,1,0,0,0-1,1v3H12a1,1,0,0,0-1,1v3H8a1,1,0,0,0-1,1V27a1,1,0,0,0,1,1H32a1,1,0,0,0,1-1V19a1,1,0,0,0-1-1H28a1,1,0,0,0,0,2h3v2H29a1,1,0,0,0,0,2h2v2H25ZM13,16H23v2H13Zm10-6H21V8h2ZM17,8h2v2H17Zm-4,4H23v2H13ZM9,16h2V26H9Zm4,4H23v6H21V23a1,1,0,0,0-1-1H16a1,1,0,0,0-1,1v3H13Zm4,6V24h2v2Z" fill="#323232"/>
      <path id="Trazado_179795" data-name="Trazado 179795" d="M15,31a1,1,0,0,0,1,1H42a1,1,0,0,0,0-2H16A1,1,0,0,0,15,31Z" fill="#323232"/>
      <path id="Trazado_179796" data-name="Trazado 179796" d="M43,35a1,1,0,0,0-1-1H23a1,1,0,0,0,0,2H42A1,1,0,0,0,43,35Z" fill="#323232"/>
      <path id="Trazado_179797" data-name="Trazado 179797" d="M30,38a1,1,0,0,0,0,2h7a1,1,0,0,0,0-2Z" fill="#323232"/>
      <path id="Trazado_179798" data-name="Trazado 179798" d="M36,27a1,1,0,0,0,1,1h6a1,1,0,0,0,0-2H37A1,1,0,0,0,36,27Z" fill="#323232"/>
      <path id="Trazado_179799" data-name="Trazado 179799" d="M43,24a1,1,0,0,0,0-2H39a1,1,0,0,0,0,2Z" fill="#323232"/>
      <path id="Trazado_179800" data-name="Trazado 179800" d="M8,32h4a1,1,0,0,0,0-2H8a1,1,0,0,0,0,2Z" fill="#323232"/>
      <path id="Trazado_179801" data-name="Trazado 179801" d="M8,36h4a1,1,0,0,0,0-2H8a1,1,0,0,0,0,2Z" fill="#323232"/>
    </g>
  </g>
</svg>
