<svg xmlns="http://www.w3.org/2000/svg" width="108" height="108" viewBox="0 0 108 108">
  <g id="icon10" transform="translate(-1052 -1490)">
    <circle id="Elipse_5080" data-name="Elipse 5080" cx="54" cy="54" r="54" transform="translate(1052 1490)" fill="#36a3f7"/>
    <g id="assignment" transform="translate(1018.674 1509)">
      <g id="Grupo_102763" data-name="Grupo 102763" transform="translate(61.36 1.035)">
        <g id="Grupo_102762" data-name="Grupo 102762" transform="translate(0)">
          <path id="Trazado_164034" data-name="Trazado 164034" d="M119.756,18.073V73.394a2.68,2.68,0,0,1-2.68,2.68H70.5a2.68,2.68,0,0,1-2.68-2.68V10.18A2.68,2.68,0,0,1,70.5,7.5h38.566Z" transform="translate(-67.825 -7.5)" fill="#f5f8f9"/>
        </g>
      </g>
      <g id="Grupo_102765" data-name="Grupo 102765" transform="translate(107.853 8.878)">
        <g id="Grupo_102764" data-name="Grupo 102764">
          <path id="Trazado_164035" data-name="Trazado 164035" d="M410.307,67.089V122.41a2.679,2.679,0,0,1-2.679,2.68h-2.759a2.679,2.679,0,0,0,2.679-2.68V64.359Z" transform="translate(-404.869 -64.359)" fill="#e8edf2"/>
        </g>
      </g>
      <g id="Grupo_102766" data-name="Grupo 102766" transform="translate(102.606 1.035)">
        <path id="Trazado_164036" data-name="Trazado 164036" d="M366.829,7.5v9.228a1.345,1.345,0,0,0,1.345,1.345h9.34Z" transform="translate(-366.829 -7.5)" fill="#d9e7ec"/>
      </g>
      <g id="Grupo_102767" data-name="Grupo 102767" transform="translate(102.606 7.661)">
        <path id="Trazado_164037" data-name="Trazado 164037" d="M377.514,59.486h-9.34a1.346,1.346,0,0,1-1.345-1.346v-2.6a1.346,1.346,0,0,0,1.25.847h6.3Z" transform="translate(-366.829 -55.539)" fill="#c5d3dd"/>
      </g>
      <g id="Grupo_102768" data-name="Grupo 102768" transform="translate(68.413 6.597)">
        <circle id="Elipse_5083" data-name="Elipse 5083" cx="6.034" cy="6.034" r="6.034" transform="translate(0)" fill="#dff6fd"/>
      </g>
      <g id="Grupo_102769" data-name="Grupo 102769" transform="translate(70.16 6.847)">
        <path id="Trazado_164038" data-name="Trazado 164038" d="M141.94,55.423a6.034,6.034,0,0,1-10.321,4.246,6.035,6.035,0,0,0,6.014-10.03,6.036,6.036,0,0,1,4.307,5.784Z" transform="translate(-131.619 -49.639)" fill="#c8effe"/>
      </g>
      <g id="Grupo_102770" data-name="Grupo 102770" transform="translate(93.343 51.289)">
        <path id="Trazado_164039" data-name="Trazado 164039" d="M312.575,377.976c0,.651-.911,1.15-1.1,1.737-.2.609.239,1.546-.13,2.053s-1.4.385-1.913.757-.7,1.389-1.31,1.586c-.587.191-1.342-.514-1.993-.514s-1.406.7-1.993.514c-.609-.2-.8-1.218-1.31-1.586s-1.541-.245-1.913-.757.068-1.444-.13-2.053c-.191-.587-1.1-1.086-1.1-1.737s.911-1.15,1.1-1.737c.2-.609-.239-1.546.13-2.053s1.4-.385,1.913-.757.7-1.389,1.31-1.586c.587-.191,1.342.514,1.993.514s1.406-.7,1.993-.514c.609.2.8,1.218,1.31,1.586s1.541.245,1.913.757-.068,1.444.13,2.053C311.664,376.826,312.575,377.325,312.575,377.976Z" transform="translate(-299.679 -371.809)" fill="#fe646f"/>
      </g>
      <g id="Grupo_102771" data-name="Grupo 102771" transform="translate(95.076 51.731)">
        <path id="Trazado_164040" data-name="Trazado 164040" d="M322.171,384.534c-.372.512-1.4.383-1.913.756s-.7,1.389-1.31,1.588c-.588.19-1.342-.515-1.993-.515s-1.406.7-1.992.515c-.61-.2-.8-1.218-1.31-1.588a5.685,5.685,0,0,0-1.413-.43,3.218,3.218,0,0,1,1.174-.381c.734,0,1.585.795,2.248.579.687-.222.906-1.374,1.479-1.789s1.738-.277,2.159-.854-.077-1.63.146-2.317c.215-.662,1.243-1.225,1.243-1.96s-1.028-1.3-1.243-1.96a2.991,2.991,0,0,1-.005-1.159,5.242,5.242,0,0,0,.818,1.177c.512.372,1.541.246,1.913.757s-.068,1.444.13,2.053c.192.588,1.1,1.087,1.1,1.738s-.91,1.149-1.1,1.737c-.2.61.24,1.546-.13,2.054Z" transform="translate(-312.239 -375.019)" fill="#fd4755"/>
      </g>
      <g id="Grupo_102772" data-name="Grupo 102772" transform="translate(60.326 0)">
        <path id="Trazado_164041" data-name="Trazado 164041" d="M113.292,54.28a1.035,1.035,0,0,0-1.035,1.035V66.929a1.647,1.647,0,0,1-1.645,1.645H64.04A1.647,1.647,0,0,1,62.4,66.929V3.714A1.647,1.647,0,0,1,64.04,2.069h3.626a1.035,1.035,0,0,0,0-2.069H64.04a3.718,3.718,0,0,0-3.714,3.714V66.929a3.718,3.718,0,0,0,3.714,3.714h46.572a3.718,3.718,0,0,0,3.714-3.714V55.315a1.035,1.035,0,0,0-1.035-1.035Z" transform="translate(-60.326 0)"/>
        <path id="Trazado_164042" data-name="Trazado 164042" d="M183.794,11.57a1.04,1.04,0,0,0-.306-.7L172.8.3a1.045,1.045,0,0,0-.132-.109,1.1,1.1,0,0,0-.6-.19H141.946a1.035,1.035,0,1,0,0,2.069H171.04v8.193a2.382,2.382,0,0,0,2.38,2.38h8.306V50.506a1.035,1.035,0,0,0,2.069,0v-38.9c0-.013,0-.025,0-.038Zm-10.374-1a.311.311,0,0,1-.311-.311V3.514l7.134,7.059H173.42Z" transform="translate(-129.795 0)"/>
        <path id="Trazado_164043" data-name="Trazado 164043" d="M118.52,40.324a7.069,7.069,0,1,0,7.069,7.069,7.077,7.077,0,0,0-7.069-7.069Zm0,12.069a5,5,0,1,1,5-5A5.005,5.005,0,0,1,118.52,52.393Z" transform="translate(-104.399 -34.762)"/>
        <path id="Trazado_164044" data-name="Trazado 164044" d="M306.29,373.212a2.128,2.128,0,0,0,0-3.406,3.083,3.083,0,0,1-.3-.358,2.921,2.921,0,0,1,.03-.5,2.092,2.092,0,0,0-1.973-2.7,2.971,2.971,0,0,1-.474-.122,3.006,3.006,0,0,1-.256-.406,2.531,2.531,0,0,0-1.345-1.327,2.5,2.5,0,0,0-1.83.276,2.821,2.821,0,0,1-.477.187,2.547,2.547,0,0,1-.488-.187,2.5,2.5,0,0,0-1.83-.276A2.53,2.53,0,0,0,296,365.719a3.018,3.018,0,0,1-.256.406,2.97,2.97,0,0,1-.474.122,2.092,2.092,0,0,0-1.973,2.7,3.03,3.03,0,0,1,.031.494,3,3,0,0,1-.3.36,2.128,2.128,0,0,0,0,3.406,3.083,3.083,0,0,1,.3.358,2.937,2.937,0,0,1-.03.5,2.092,2.092,0,0,0,1.973,2.705.656.656,0,0,1,.73.528,2.532,2.532,0,0,0,1.345,1.328,1.716,1.716,0,0,0,.533.083,3.184,3.184,0,0,0,1.3-.36,2.824,2.824,0,0,1,.477-.187,2.553,2.553,0,0,1,.488.187,2.5,2.5,0,0,0,1.83.276,2.532,2.532,0,0,0,1.345-1.328,3.024,3.024,0,0,1,.256-.406,2.986,2.986,0,0,1,.474-.122,2.092,2.092,0,0,0,1.973-2.7.652.652,0,0,1,.27-.855Zm-1.527-1.4a3.075,3.075,0,0,0-.74,1.111,3.22,3.22,0,0,0-.06,1.364c.012.111.028.259.032.37-.108.031-.257.062-.368.085a3.187,3.187,0,0,0-1.273.475,3.12,3.12,0,0,0-.836,1.058c-.056.1-.132.233-.2.327-.1-.038-.233-.1-.332-.141a2.588,2.588,0,0,0-2.663,0c-.1.044-.23.1-.332.141-.063-.094-.139-.228-.2-.327a3.118,3.118,0,0,0-.836-1.058,3.187,3.187,0,0,0-1.273-.475c-.111-.023-.26-.054-.368-.085,0-.111.02-.26.032-.37a3.218,3.218,0,0,0-.06-1.364,3.075,3.075,0,0,0-.74-1.111c-.083-.091-.2-.214-.266-.307.07-.092.183-.216.266-.307a3.078,3.078,0,0,0,.741-1.111,3.221,3.221,0,0,0,.059-1.363c-.012-.111-.028-.259-.032-.37.108-.031.257-.062.368-.085a3.189,3.189,0,0,0,1.273-.475,3.116,3.116,0,0,0,.836-1.058c.056-.1.132-.233.2-.327.1.038.233.1.332.141a2.588,2.588,0,0,0,2.663,0c.1-.044.23-.1.331-.141.063.094.139.228.2.327a3.116,3.116,0,0,0,.836,1.058,3.187,3.187,0,0,0,1.273.475c.111.023.26.054.368.085,0,.111-.02.26-.032.37a3.217,3.217,0,0,0,.06,1.364,3.076,3.076,0,0,0,.74,1.111c.083.09.2.214.266.307C304.959,371.6,304.846,371.726,304.763,371.816Z" transform="translate(-260.195 -314.054)"/>
        <path id="Trazado_164045" data-name="Trazado 164045" d="M233.877,129.882h20.667a1.035,1.035,0,1,0,0-2.069H233.877a1.035,1.035,0,1,0,0,2.069Z" transform="translate(-209.045 -110.182)"/>
        <path id="Trazado_164046" data-name="Trazado 164046" d="M233.877,95.98h12.068a1.035,1.035,0,1,0,0-2.069H233.877a1.035,1.035,0,1,0,0,2.069Z" transform="translate(-209.045 -80.957)"/>
        <path id="Trazado_164047" data-name="Trazado 164047" d="M172.349,207.588a1.035,1.035,0,0,0,1.035,1.035H186.4a1.035,1.035,0,1,0,0-2.069H173.384A1.035,1.035,0,0,0,172.349,207.588Z" transform="translate(-156.896 -178.06)"/>
        <path id="Trazado_164048" data-name="Trazado 164048" d="M112.486,208.622h3.622a1.035,1.035,0,0,0,0-2.069h-3.622a1.035,1.035,0,0,0,0,2.069Z" transform="translate(-104.399 -178.06)"/>
        <path id="Trazado_164049" data-name="Trazado 164049" d="M231.252,247.991a1.035,1.035,0,0,0,0-2.069h-5.845a1.035,1.035,0,0,0,0,2.069Z" transform="translate(-201.744 -211.999)"/>
        <path id="Trazado_164050" data-name="Trazado 164050" d="M112.486,247.991H123.2a1.035,1.035,0,0,0,0-2.069H112.486a1.035,1.035,0,0,0,0,2.069Z" transform="translate(-104.399 -211.999)"/>
        <path id="Trazado_164051" data-name="Trazado 164051" d="M150.933,286.326a1.035,1.035,0,0,0-1.035-1.035H112.486a1.035,1.035,0,0,0,0,2.069H149.9A1.035,1.035,0,0,0,150.933,286.326Z" transform="translate(-104.399 -245.937)"/>
        <path id="Trazado_164052" data-name="Trazado 164052" d="M308.216,324.66H296.137a1.035,1.035,0,1,0,0,2.069h12.079a1.035,1.035,0,0,0,0-2.069Z" transform="translate(-262.716 -279.875)"/>
        <path id="Trazado_164053" data-name="Trazado 164053" d="M134.054,325.695a1.035,1.035,0,0,0-1.035-1.035H112.486a1.035,1.035,0,1,0,0,2.069h20.534A1.035,1.035,0,0,0,134.054,325.695Z" transform="translate(-104.399 -279.875)"/>
        <path id="Trazado_164054" data-name="Trazado 164054" d="M122.015,365.659a3.564,3.564,0,0,0-.729-4.139,3.042,3.042,0,0,0-3.717-.148,5.671,5.671,0,0,0-2.182,3.416,16.709,16.709,0,0,0-.579,3.565q-.012.226-.018.441c-.642.221-1.285.408-1.9.572-.214.057-.425.109-.628.154a1.035,1.035,0,1,0,.447,2.02,19.579,19.579,0,0,0,2.209-.611,5.832,5.832,0,0,0,1.453,3.3,3.525,3.525,0,0,0,2.775,1.008,3.2,3.2,0,0,0,1.584-.578,1.966,1.966,0,0,0,.189.261,2.113,2.113,0,0,0,1.743.756,2.765,2.765,0,0,0,1.67-.752q.044.057.092.111a1.782,1.782,0,0,0,1.346.6h.01a2.442,2.442,0,0,0,1.58-.656q.066.088.141.174a3.075,3.075,0,0,0,2.331.969h.007a3.022,3.022,0,0,0,2.288-.941,4.422,4.422,0,0,0,.971-2,1.035,1.035,0,0,0-2.02-.447,2.428,2.428,0,0,1-.5,1.081,1.034,1.034,0,0,1-.74.241,1.083,1.083,0,0,1-.778-.263c-.5-.57.187-1.756.414-2.321l0-.008a1.035,1.035,0,0,0-1.929-.748c-.039.1-.081.2-.124.312-.05.124-.1.258-.159.4a5.7,5.7,0,0,1-1.074,1.815c-.611.63-.2-.56-.1-.833.146-.333.285-.7.42-1.1a1.035,1.035,0,1,0-1.963-.654c-.112.336-.251.648-.374.977a5.264,5.264,0,0,1-.621,1.07c-.2.266-.481.727-.812.848-.373.137-.294-.268-.223-.528a5.071,5.071,0,0,1,.4-.932l0-.006a1.035,1.035,0,1,0-1.84-.947c-.555,1.073-1.494,2.006-2.052,2.038a1.457,1.457,0,0,1-1.195-.408,4.4,4.4,0,0,1-.921-2.581,9.517,9.517,0,0,0,5.106-4.521Zm-1.884-.856a6.819,6.819,0,0,1-3.215,3.093c.185-1.981.774-4.168,1.739-4.763a1.5,1.5,0,0,1,.751-.254.751.751,0,0,1,.511.193A1.506,1.506,0,0,1,120.132,364.8Z" transform="translate(-104.398 -311.042)"/>
      </g>
    </g>
  </g>
</svg>
