<svg xmlns="http://www.w3.org/2000/svg" xmlns:xlink="http://www.w3.org/1999/xlink" width="505" height="346" viewBox="0 0 505 346">
  <defs>
    <clipPath id="clip-path">
      <rect id="Rectángulo_34047" data-name="Rectángulo 34047" width="505" height="262" transform="translate(0 0)" fill="#36a3f7"/>
    </clipPath>
  </defs>
  <g id="img14" transform="translate(-915 -383)">
    <g id="Grupo_102541" data-name="Grupo 102541" transform="translate(735 -9338)">
      <rect id="Rectángulo_34103" data-name="Rectángulo 34103" width="505" height="346" transform="translate(180 9721)" fill="#36a3f7" opacity="0.086"/>
      <g id="Grupo_101801" data-name="Grupo 101801" transform="translate(180 9805)">
        <g id="Grupo_88470" data-name="Grupo 88470" transform="translate(0 0)">
          <rect id="Rectángulo_33714" data-name="Rectángulo 33714" width="505" height="207" transform="translate(0 55)" fill="none" opacity="0.07"/>
          <g id="Enmascarar_grupo_61" data-name="Enmascarar grupo 61" transform="translate(0 0)" opacity="0.24" clip-path="url(#clip-path)">
            <path id="Trazado_122678" data-name="Trazado 122678" d="M20.742,1.243,599.9,54.156c11.942,1.091,22.506,9.033,23.6,17.74l48.734,388.923c1.091,8.707-7.705,14.88-19.646,13.789L73.427,421.7c-11.941-1.091-22.506-9.033-23.6-17.74L1.1,15.033C0,6.326,8.8.152,20.742,1.243Z" transform="translate(590.03 453.495) rotate(163)" fill="#36a3f7"/>
          </g>
        </g>
      </g>
    </g>
    <g id="Documents-amico" transform="translate(919.595 344.5)">
      <g id="freepik--filing-cabinets--inject-68" transform="translate(45.19 140.831)">
        <path id="Trazado_163897" data-name="Trazado 163897" d="M71.153,306.6,45.19,291.618V235.93l25.963,15Z" transform="translate(-45.19 -155.622)" fill="#e0e0e0"/>
        <path id="Trazado_163898" data-name="Trazado 163898" d="M73.62,250.315,110.715,228.9v55.679L73.62,305.994Z" transform="translate(-47.657 -155.012)" fill="#ebebeb"/>
        <path id="Trazado_163899" data-name="Trazado 163899" d="M108.248,227.475,71.153,248.89l-25.963-15L82.285,212.48Z" transform="translate(-45.19 -153.587)" fill="#f5f5f5"/>
        <path id="Trazado_163900" data-name="Trazado 163900" d="M77.689,253.062l29.67-17.132.685.393v20.63l-29.68,17.132-.685-.393Z" transform="translate(-48.01 -155.622)" fill="#e0e0e0"/>
        <path id="Trazado_163901" data-name="Trazado 163901" d="M78.43,253.5l29.68-17.141v20.63L78.43,274.121Z" transform="translate(-48.075 -155.659)" fill="#f5f5f5"/>
        <path id="Trazado_163902" data-name="Trazado 163902" d="M91.057,251.3l5.05-2.913c.648-.384,1.178-.21,1.178.384a2.365,2.365,0,0,1-1.178,1.753l-5.05,2.913c-.658.384-1.187.21-1.187-.384A2.356,2.356,0,0,1,91.057,251.3Z" transform="translate(-49.068 -156.686)" fill="#e0e0e0"/>
        <path id="Trazado_163903" data-name="Trazado 163903" d="M76.94,281.642l29.67-17.132v20.63l.685.393-29.68,17.132-.676-.393Z" transform="translate(-47.945 -158.102)" fill="#e0e0e0"/>
        <path id="Trazado_163904" data-name="Trazado 163904" d="M77.68,282.072l29.68-17.132v20.63L77.68,302.7Z" transform="translate(-48.01 -158.139)" fill="#f5f5f5"/>
        <path id="Trazado_163905" data-name="Trazado 163905" d="M90.312,279.885l5.1-2.9c.658-.384,1.187-.21,1.187.384a2.356,2.356,0,0,1-1.187,1.753l-5.05,2.913c-.658.384-1.187.21-1.187-.384A2.356,2.356,0,0,1,90.312,279.885Z" transform="translate(-49.007 -159.167)" fill="#e0e0e0"/>
        <path id="Trazado_163906" data-name="Trazado 163906" d="M71.153,242.114,45.19,227.119V171.44l25.963,14.986Z" transform="translate(-45.19 -150.025)" fill="#e0e0e0"/>
        <path id="Trazado_163907" data-name="Trazado 163907" d="M73.62,185.815,110.715,164.4v55.688L73.62,241.5Z" transform="translate(-47.657 -149.414)" fill="#ebebeb"/>
        <path id="Trazado_163908" data-name="Trazado 163908" d="M108.248,162.976,71.153,184.391,45.19,169.4,82.285,147.99Z" transform="translate(-45.19 -147.99)" fill="#f5f5f5"/>
        <path id="Trazado_163909" data-name="Trazado 163909" d="M77.68,188.572l29.68-17.132.685.393v20.63l-29.68,17.132-.685-.4Z" transform="translate(-48.01 -150.025)" fill="#e0e0e0"/>
        <path id="Trazado_163910" data-name="Trazado 163910" d="M91.057,186.8l5.041-2.913c.658-.374,1.187-.2,1.187.393a2.374,2.374,0,0,1-1.187,1.753l-5.041,2.913c-.658.374-1.187.21-1.187-.384a2.383,2.383,0,0,1,1.187-1.763Z" transform="translate(-49.068 -151.089)" fill="#e0e0e0"/>
        <path id="Trazado_163911" data-name="Trazado 163911" d="M76.94,217.152l29.67-17.132v20.62l.685.393-29.68,17.132-.676-.393Z" transform="translate(-47.945 -152.505)" fill="#e0e0e0"/>
        <path id="Trazado_163912" data-name="Trazado 163912" d="M77.68,217.582l29.68-17.132v20.62L77.68,238.2Z" transform="translate(-48.01 -152.543)" fill="#f5f5f5"/>
        <path id="Trazado_163913" data-name="Trazado 163913" d="M90.307,215.384l5.1-2.913c.648-.374,1.187-.2,1.187.393a2.411,2.411,0,0,1-1.187,1.753l-5.1,2.886c-.658.374-1.187.2-1.187-.384a2.384,2.384,0,0,1,1.187-1.735Z" transform="translate(-49.002 -153.569)" fill="#e0e0e0"/>
        <path id="Trazado_163914" data-name="Trazado 163914" d="M77.68,188.572l29.68-17.132v20.62L77.68,209.192Z" transform="translate(-48.01 -150.025)" fill="#e0e0e0"/>
        <path id="Trazado_163915" data-name="Trazado 163915" d="M124.886,181.709,108.64,172.33V190.5l16.246,9.37Z" transform="translate(-50.696 -150.102)" fill="#e0e0e0"/>
        <path id="Trazado_163916" data-name="Trazado 163916" d="M89.87,212.336V186.629l6.365-3.689,1.05,1.552,18.547-10.712v23.561Z" transform="translate(-49.068 -150.228)" fill="#ebebeb"/>
        <path id="Trazado_163917" data-name="Trazado 163917" d="M89.87,212.438l1.854-22.492,25.963-14.986-1.854,22.483Z" transform="translate(-49.068 -150.331)" fill="#f5f5f5"/>
        <path id="Trazado_163918" data-name="Trazado 163918" d="M92.585,200.583,78.43,192.41v18.173l14.155,8.164Z" transform="translate(-48.075 -151.845)" fill="#ebebeb"/>
        <path id="Trazado_163919" data-name="Trazado 163919" d="M93.93,197.952l29.68-17.132v20.62L93.93,218.572Z" transform="translate(-49.42 -150.839)" fill="#f5f5f5"/>
        <path id="Trazado_163920" data-name="Trazado 163920" d="M106.557,195.754l5.041-2.913c.658-.374,1.187-.2,1.187.393a2.383,2.383,0,0,1-1.187,1.753l-5.041,2.913c-.658.374-1.187.2-1.187-.384A2.383,2.383,0,0,1,106.557,195.754Z" transform="translate(-50.413 -151.865)" fill="#e0e0e0"/>
        <path id="Trazado_163921" data-name="Trazado 163921" d="M93.836,199.526l-.986-.566v20.62l.986.566Z" transform="translate(-49.326 -152.413)" fill="#e0e0e0"/>
        <path id="Trazado_163922" data-name="Trazado 163922" d="M92.85,197.331l29.67-17.141,1,.575L93.836,197.9Z" transform="translate(-49.326 -150.784)" fill="#ebebeb"/>
        <path id="Trazado_163923" data-name="Trazado 163923" d="M407.032,269.664l-25.972-15V198.99l25.972,14.986Z" transform="translate(-74.338 -152.416)" fill="#e0e0e0"/>
        <path id="Trazado_163924" data-name="Trazado 163924" d="M409.5,213.365l37.095-21.415v55.688L409.5,269.053Z" transform="translate(-76.806 -151.805)" fill="#ebebeb"/>
        <path id="Trazado_163925" data-name="Trazado 163925" d="M444.127,190.525,407.032,211.94,381.06,196.954l37.1-21.424Z" transform="translate(-74.338 -150.38)" fill="#f5f5f5"/>
        <path id="Trazado_163926" data-name="Trazado 163926" d="M413.56,216.122l29.68-17.132.685.393L443.915,220l-29.67,17.132-.685-.393Z" transform="translate(-77.159 -152.416)" fill="#e0e0e0"/>
        <path id="Trazado_163927" data-name="Trazado 163927" d="M414.31,216.552l29.68-17.132-.009,20.62-29.67,17.132Z" transform="translate(-77.224 -152.453)" fill="#f5f5f5"/>
        <path id="Trazado_163928" data-name="Trazado 163928" d="M426.937,214.354l5.041-2.913c.658-.374,1.187-.2,1.187.384a2.383,2.383,0,0,1-1.187,1.763l-5.041,2.913c-.658.374-1.187.2-1.187-.384a2.384,2.384,0,0,1,1.187-1.763Z" transform="translate(-78.217 -153.479)" fill="#e0e0e0"/>
        <path id="Trazado_163929" data-name="Trazado 163929" d="M412.81,244.7l29.68-17.141v20.63l.685.393-29.68,17.132-.685-.393Z" transform="translate(-77.094 -154.895)" fill="#e0e0e0"/>
        <path id="Trazado_163930" data-name="Trazado 163930" d="M413.56,245.132,443.24,228v20.62l-29.68,17.132Z" transform="translate(-77.159 -154.934)" fill="#f5f5f5"/>
        <path id="Trazado_163931" data-name="Trazado 163931" d="M426.187,242.934l5.05-2.913c.648-.374,1.178-.2,1.178.384a2.4,2.4,0,0,1-1.178,1.762l-5.05,2.913c-.658.374-1.187.2-1.187-.393a2.384,2.384,0,0,1,1.187-1.753Z" transform="translate(-78.152 -155.96)" fill="#e0e0e0"/>
      </g>
      <g id="freepik--Plants--inject-68" transform="translate(99.272 255.074)">
        <path id="Trazado_163932" data-name="Trazado 163932" d="M137.137,335.756s.1-14.484-9.032-25.342c-8.082-9.616-12.383-15.716-9.835-18.529s8.027-3.488,15.415,4.292,7.963,29.332,6.94,34.209Z" transform="translate(-105.551 -274.552)" fill="#8369b0"/>
        <path id="Trazado_163933" data-name="Trazado 163933" d="M137.137,335.756s.1-14.484-9.032-25.342c-8.082-9.616-12.383-15.716-9.835-18.529s8.027-3.488,15.415,4.292,7.963,29.332,6.94,34.209Z" transform="translate(-105.551 -274.552)" opacity="0.2"/>
        <path id="Trazado_163934" data-name="Trazado 163934" d="M139.1,320.4a.457.457,0,0,1-.447-.356c-3.2-14.949-11.4-23.214-16.009-26.812a.457.457,0,0,1-.082-.639.466.466,0,0,1,.648-.082c4.7,3.653,13.077,12.109,16.337,27.342a.447.447,0,0,1-.347.539Z" transform="translate(-105.978 -274.767)" fill="#fff"/>
        <path id="Trazado_163935" data-name="Trazado 163935" d="M135.651,342.815l-3.717,2.146a6.721,6.721,0,0,0-5-4.283c-4.064-.913-8.283-.758-11.132-4.283s.621-7.361,0-9.954-1.023-3.342-6.119-5.936-7.1-6.895-3.269-9.808,10.045-.776,13.808,1.826c3.342,2.283,6.52,2.886,10.255,3.352s9.817,2.539,8.886,11.214A68.363,68.363,0,0,1,135.651,342.815Z" transform="translate(-104.411 -276.232)" fill="#8369b0"/>
        <path id="Trazado_163936" data-name="Trazado 163936" d="M122.956,333.325a.458.458,0,0,1-.137-.895c.329-.1,8.219-2.6,11.57.082a.457.457,0,0,1-.566.712c-2.959-2.374-10.648.055-10.73.082Z" transform="translate(-105.981 -278.139)" fill="#fff"/>
        <path id="Trazado_163937" data-name="Trazado 163937" d="M136.582,342.414a.447.447,0,0,1-.447-.4c-2.036-19.232-25.2-28.355-25.433-28.447a.457.457,0,0,1-.265-.594.466.466,0,0,1,.584-.265c.247.1,23.926,9.415,26.018,29.223a.457.457,0,0,1-.4.5Z" transform="translate(-104.932 -276.525)" fill="#fff"/>
        <path id="Trazado_163938" data-name="Trazado 163938" d="M385.624,327.043c.1-.32,4.018-20.483,0-34.784-3.653-13.114-8.42-17.954-15.214-19.022s-9.744,3.826-6.137,10.456,12.292,15.424,14.42,30.237c.913,6.1,1.607,11.4,1.607,11.4Z" transform="translate(-126.829 -273.089)" fill="#8369b0"/>
        <path id="Trazado_163939" data-name="Trazado 163939" d="M385.624,327.043c.1-.32,4.018-20.483,0-34.784-3.653-13.114-8.42-17.954-15.214-19.022s-9.744,3.826-6.137,10.456,12.292,15.424,14.42,30.237c.913,6.1,1.607,11.4,1.607,11.4Z" transform="translate(-126.829 -273.089)" opacity="0.2"/>
        <path id="Trazado_163940" data-name="Trazado 163940" d="M383.9,315.75h0a.457.457,0,0,1-.429-.484c.913-16.328-4.42-30.9-13.981-38.054a.457.457,0,0,1-.091-.639.466.466,0,0,1,.639-.091c9.8,7.306,15.3,22.209,14.337,38.839A.457.457,0,0,1,383.9,315.75Z" transform="translate(-127.4 -273.376)" fill="#fff"/>
        <path id="Trazado_163941" data-name="Trazado 163941" d="M397.931,338.371c-.521-3.753,1.635-9.379,6.758-10.712s7.406-4.274,5.561-7.488-1.415-6.164,3.233-7.5,8.721-3.653,6.045-8.566c-1.945-3.552-2.374-5.854,2.393-12.849,3.954-5.808.721-9.214-4.228-8.575s-8.009,6.539-11.1,7.525-3.808-4.274-7.89-1.918-3.836,8.392-3.963,12.6-.4,5.16-4.091,4.648-7.306.091-7.224,9.013c.064,7.653,4.146,17.132,4.146,17.132Z" transform="translate(-128.625 -273.915)" fill="#8369b0"/>
        <path id="Trazado_163942" data-name="Trazado 163942" d="M392.176,332.958h-.046a.466.466,0,0,1-.411-.511c2.575-23,22.319-42.41,27.469-46.346a.459.459,0,0,1,.557.731c-5.087,3.881-24.575,23.031-27.113,45.716a.466.466,0,0,1-.457.411Z" transform="translate(-129.345 -274.21)" fill="#fff"/>
        <path id="Trazado_163943" data-name="Trazado 163943" d="M402.037,310.24a.466.466,0,0,1-.429-.292.475.475,0,0,1,.274-.594c7.361-2.74,15.707-1.443,16.063-1.388a.457.457,0,0,1,.374.521.475.475,0,0,1-.521.384c-.082,0-8.466-1.315-15.6,1.342A.523.523,0,0,1,402.037,310.24Z" transform="translate(-130.201 -276.085)" fill="#fff"/>
        <path id="Trazado_163944" data-name="Trazado 163944" d="M394.3,324.379a.457.457,0,0,1-.338-.155,26.921,26.921,0,0,1-6.018-12.484.457.457,0,1,1,.9-.137,26.392,26.392,0,0,0,5.8,12.009.466.466,0,0,1-.347.767Z" transform="translate(-129.017 -276.398)" fill="#fff"/>
      </g>
      <g id="freepik--folder-2--inject-68" transform="translate(130.512 109.645)">
        <path id="Trazado_163945" data-name="Trazado 163945" d="M138.62,184.514V325.861l144.672-83.523-.009-128.5L175.715,175.948,172,165.236Z" transform="translate(-138.62 -113.84)" fill="#8369b0"/>
        <path id="Trazado_163946" data-name="Trazado 163946" d="M138.62,184.514V325.861l144.672-83.523-.009-128.5L175.715,175.948,172,165.236Z" transform="translate(-138.62 -113.84)" opacity="0.7"/>
        <path id="Trazado_163947" data-name="Trazado 163947" d="M138.62,325.861l7.415-128.5L290.707,113.84l-7.415,128.5Z" transform="translate(-138.62 -113.84)" fill="#e0e0e0"/>
        <path id="Trazado_163948" data-name="Trazado 163948" d="M138.62,326.064l11.123-126.353L294.415,116.18,283.292,242.542Z" transform="translate(-138.62 -114.043)" fill="#8369b0"/>
        <path id="Trazado_163949" data-name="Trazado 163949" d="M138.62,326.064l11.123-126.353L294.415,116.18,283.292,242.542Z" transform="translate(-138.62 -114.043)" opacity="0.7"/>
      </g>
      <g id="freepik--folder-1--inject-68" transform="translate(152.767 122.494)">
        <path id="Trazado_163950" data-name="Trazado 163950" d="M162.99,198.584V339.94l144.672-83.532V127.91L200.085,190.018l-3.708-10.712Z" transform="translate(-162.99 -127.91)" fill="#8369b0"/>
        <path id="Trazado_163951" data-name="Trazado 163951" d="M162.99,198.584V339.94l144.672-83.532V127.91L200.085,190.018l-3.708-10.712Z" transform="translate(-162.99 -127.91)" opacity="0.5"/>
        <path id="Trazado_163952" data-name="Trazado 163952" d="M162.99,339.94l7.415-128.508L315.077,127.91l-7.415,128.5Z" transform="translate(-162.99 -127.91)" fill="#e0e0e0"/>
        <path id="Trazado_163953" data-name="Trazado 163953" d="M162.99,340.143l11.123-126.362L318.785,130.25,307.662,256.612Z" transform="translate(-162.99 -128.113)" fill="#8369b0"/>
        <path id="Trazado_163954" data-name="Trazado 163954" d="M162.99,340.143l11.123-126.362L318.785,130.25,307.662,256.612Z" transform="translate(-162.99 -128.113)" opacity="0.5"/>
      </g>
      <g id="freepik--Documents--inject-68" transform="translate(178.73 65.5)">
        <path id="Trazado_163955" data-name="Trazado 163955" d="M291.2,402.715c-25.972-15-50.062-31.3-61.058-50.419L263.564,333Z" transform="translate(-194.78 -88.715)" fill="#e0e0e0"/>
        <path id="Trazado_163956" data-name="Trazado 163956" d="M191.42,215V356.351l144.672-83.523V144.33L228.515,206.438l-3.708-10.712Z" transform="translate(-191.42 -72.341)" fill="#8369b0"/>
        <path id="Trazado_163957" data-name="Trazado 163957" d="M191.42,215V356.351l144.672-83.523V144.33L228.515,206.438l-3.708-10.712Z" transform="translate(-191.42 -72.341)" opacity="0.2"/>
        <path id="Trazado_163958" data-name="Trazado 163958" d="M237.02,250c-.365,0-.42-.42-.42-.667V128.786a3.032,3.032,0,0,1,1.352-2.338L342.369,66.176a.968.968,0,0,1,.475-.146c.365,0,.42.42.42.667V187.241a3.041,3.041,0,0,1-1.352,2.347L237.495,249.86A1,1,0,0,1,237.02,250Z" transform="translate(-195.341 -65.546)" fill="#fff"/>
        <path id="Trazado_163959" data-name="Trazado 163959" d="M342.746,66.4a.914.914,0,0,1,0,.2V187.149a2.621,2.621,0,0,1-1.123,1.954L237.206,249.376l-.183.082a.557.557,0,0,1,0-.2V128.713a2.621,2.621,0,0,1,1.123-1.945L342.564,66.5a.512.512,0,0,1,.192-.082m.055-.913a1.425,1.425,0,0,0-.7.21L237.69,125.982a3.516,3.516,0,0,0-1.58,2.74V249.266c0,.712.356,1.123.913,1.123a1.406,1.406,0,0,0,.7-.21l104.417-60.272a3.479,3.479,0,0,0,1.58-2.74V66.623c0-.712-.356-1.132-.913-1.123Z" transform="translate(-195.298 -65.5)" fill="#8369b0"/>
        <path id="Trazado_163960" data-name="Trazado 163960" d="M342.746,66.4a.914.914,0,0,1,0,.2V187.149a2.621,2.621,0,0,1-1.123,1.954L237.206,249.376l-.183.082a.557.557,0,0,1,0-.2V128.713a2.621,2.621,0,0,1,1.123-1.945L342.564,66.5a.512.512,0,0,1,.192-.082m.055-.913a1.425,1.425,0,0,0-.7.21L237.69,125.982a3.516,3.516,0,0,0-1.58,2.74V249.266c0,.712.356,1.123.913,1.123a1.406,1.406,0,0,0,.7-.21l104.417-60.272a3.479,3.479,0,0,0,1.58-2.74V66.623c0-.712-.356-1.132-.913-1.123Z" transform="translate(-195.298 -65.5)" fill="#fff" opacity="0.7"/>
        <path id="Trazado_163961" data-name="Trazado 163961" d="M248.29,137.725l37.095-21.415v42.83L248.29,180.555Z" transform="translate(-196.355 -69.909)" fill="#8369b0"/>
        <path id="Trazado_163962" data-name="Trazado 163962" d="M248.29,137.725l37.095-21.415v42.83L248.29,180.555Z" transform="translate(-196.355 -69.909)" fill="#fff" opacity="0.8"/>
        <path id="Trazado_163963" data-name="Trazado 163963" d="M280.354,128v12.876l-1.169.648v-3.936c0-2.173-1.763-2.913-3.954-1.653l-15.716,9.086a8.19,8.19,0,0,0-3.954,6.219v3.936l-1.16.694V143.022Z" transform="translate(-196.886 -70.924)" fill="#fff"/>
        <path id="Trazado_163964" data-name="Trazado 163964" d="M273.564,161.7c-1.9,1.1-3.443-.055-3.443-2.584V138.5l-4.776,2.594v20.776c0,2.52-1.543,5.479-3.443,6.548l-3.452,1.991v1.37L277,161.066V159.7Z" transform="translate(-197.237 -71.835)" fill="#fff"/>
        <path id="Trazado_163965" data-name="Trazado 163965" d="M297,111.646c0,1.187,1.068,1.525,2.374.776l36.09-20.867a4.767,4.767,0,0,0,2.374-3.516c0-1.178-1.069-1.525-2.374-.767L299.4,108.093a4.749,4.749,0,0,0-2.4,3.552Z" transform="translate(-200.583 -67.354)" fill="#455a64"/>
        <path id="Trazado_163966" data-name="Trazado 163966" d="M297,125.65c0,1.187,1.068,1.534,2.374.776L335.437,105.6a4.767,4.767,0,0,0,2.374-3.516c0-1.178-1.069-1.525-2.374-.767l-36.063,20.821A4.767,4.767,0,0,0,297,125.65Z" transform="translate(-200.583 -68.574)" fill="#455a64"/>
        <path id="Trazado_163967" data-name="Trazado 163967" d="M297,139.75c0,1.187,1.068,1.534,2.374.776L335.437,119.7a4.767,4.767,0,0,0,2.374-3.507c0-1.187-1.068-1.534-2.374-.776l-36.063,20.821A4.767,4.767,0,0,0,297,139.75Z" transform="translate(-200.583 -69.797)" fill="#455a64"/>
        <path id="Trazado_163968" data-name="Trazado 163968" d="M297,153.82c0,1.187,1.068,1.534,2.374.776l36.063-20.821a4.767,4.767,0,0,0,2.374-3.507c0-1.187-1.068-1.534-2.374-.776l-36.063,20.821A4.767,4.767,0,0,0,297,153.82Z" transform="translate(-200.583 -71.019)" fill="#455a64"/>
        <path id="Trazado_163969" data-name="Trazado 163969" d="M248.29,193.593c0,1.187,1.059,1.534,2.374.776L331.237,147.8a4.749,4.749,0,0,0,2.374-3.507c0-1.187-1.068-1.525-2.374-.776l-80.573,46.574A4.74,4.74,0,0,0,248.29,193.593Z" transform="translate(-196.355 -72.236)" fill="#455a64"/>
        <path id="Trazado_163970" data-name="Trazado 163970" d="M248.29,207.668c0,1.187,1.059,1.534,2.374.776l80.573-46.519a4.767,4.767,0,0,0,2.374-3.516c0-1.178-1.069-1.525-2.374-.767l-80.573,46.519A4.74,4.74,0,0,0,248.29,207.668Z" transform="translate(-196.355 -73.461)" fill="#455a64"/>
        <path id="Trazado_163971" data-name="Trazado 163971" d="M248.29,221.747c0,1.178,1.059,1.525,2.374.767l80.573-46.519a4.767,4.767,0,0,0,2.374-3.516c0-1.178-1.069-1.525-2.374-.767l-80.573,46.519A4.74,4.74,0,0,0,248.29,221.747Z" transform="translate(-196.355 -74.683)" fill="#455a64"/>
        <path id="Trazado_163972" data-name="Trazado 163972" d="M191.42,357.775l25.963-113.5L362.054,160.74,336.092,274.253Z" transform="translate(-191.42 -73.765)" fill="#8369b0"/>
        <path id="Trazado_163973" data-name="Trazado 163973" d="M230.18,260.109V344.3l33.387-19.278V240.84Z" transform="translate(-194.784 -80.717)" fill="#8369b0"/>
        <path id="Trazado_163974" data-name="Trazado 163974" d="M230.18,260.109V344.3l33.387-19.278V240.84Z" transform="translate(-194.784 -80.717)" opacity="0.2"/>
        <path id="Trazado_163975" data-name="Trazado 163975" d="M291.47,390.343c-2.84-2.119-30.218-23.04-44.136-52.966-14.812-31.816-14.794-68.93-14.794-82.893v-.438l99.248-57.3c0,14.091,0,51.259,14.876,83.185,13.6,29.223,39.926,49.88,44.1,53.04Z" transform="translate(-194.989 -76.89)" fill="#fff"/>
        <path id="Trazado_163976" data-name="Trazado 163976" d="M331.285,197.5c0,14.685.283,51.14,14.922,82.591,13.141,28.218,38.127,48.51,43.688,52.793L291.45,389.721c-3.845-2.895-30.191-23.47-43.743-52.574-14.794-31.725-14.794-68.765-14.794-82.71v-.174l98.335-56.775m.913-1.58L232,253.743c0,13.141-.274,51.323,14.84,83.788,14.876,31.862,44.519,53.286,44.519,53.286l100.189-57.843s-29.68-21.424-44.51-53.286c-15.123-32.465-14.84-70.646-14.84-83.788Z" transform="translate(-194.942 -76.817)" fill="#8369b0"/>
        <path id="Trazado_163977" data-name="Trazado 163977" d="M331.285,197.5c0,14.685.283,51.14,14.922,82.591,13.141,28.218,38.127,48.51,43.688,52.793L291.45,389.721c-3.845-2.895-30.191-23.47-43.743-52.574-14.794-31.725-14.794-68.765-14.794-82.71v-.174l98.335-56.775m.913-1.58L232,253.743c0,13.141-.274,51.323,14.84,83.788,14.876,31.862,44.519,53.286,44.519,53.286l100.189-57.843s-29.68-21.424-44.51-53.286c-15.123-32.465-14.84-70.646-14.84-83.788Z" transform="translate(-194.942 -76.817)" fill="#fff" opacity="0.7"/>
        <path id="Trazado_163978" data-name="Trazado 163978" d="M326.082,217.111l-31.67,18.264a4.493,4.493,0,0,0-2.3,3.461c.046,1.16,1.151,1.489,2.457.731L326.246,221.3a4.493,4.493,0,0,0,2.292-3.415C328.483,216.682,327.4,216.353,326.082,217.111Z" transform="translate(-200.158 -78.622)" fill="#455a64"/>
        <path id="Trazado_163979" data-name="Trazado 163979" d="M326.83,230.761l-31.67,18.264a4.219,4.219,0,0,0-2.21,3.415c.1,1.123,1.251,1.425,2.557.667l31.679-18.264a4.164,4.164,0,0,0,2.183-3.406C329.278,230.3,328.145,230.031,326.83,230.761Z" transform="translate(-200.231 -79.807)" fill="#455a64"/>
        <path id="Trazado_163980" data-name="Trazado 163980" d="M328.228,244.03l-31.679,18.264a3.928,3.928,0,0,0-2.1,3.352c.155,1.087,1.352,1.37,2.667.612l31.679-18.264a3.863,3.863,0,0,0,2.073-3.342C330.7,243.564,329.534,243.272,328.228,244.03Z" transform="translate(-200.36 -80.957)" fill="#455a64"/>
        <path id="Trazado_163981" data-name="Trazado 163981" d="M330.317,256.9l-31.679,18.264c-1.306.758-2.21,2.237-1.991,3.3s1.461,1.3,2.74.539l31.67-18.264c1.315-.758,2.192-2.228,1.973-3.288S331.669,256.14,330.317,256.9Z" transform="translate(-200.549 -82.072)" fill="#455a64"/>
        <path id="Trazado_163982" data-name="Trazado 163982" d="M333.149,269.337,301.47,287.6c-1.306.758-2.155,2.2-1.826,3.215s1.58,1.242,2.886.484l31.679-18.264c1.315-.758,2.137-2.192,1.826-3.215S334.455,268.579,333.149,269.337Z" transform="translate(-200.806 -83.151)" fill="#455a64"/>
        <path id="Trazado_163983" data-name="Trazado 163983" d="M332.489,281.325l-77.2,44.574c-1.306.758-2.1,2.164-1.744,3.141s1.717,1.16,3.023.4l77.2-44.574c1.315-.758,2.073-2.155,1.717-3.141S333.75,280.567,332.489,281.325Z" transform="translate(-196.804 -84.189)" fill="#455a64"/>
        <path id="Trazado_163984" data-name="Trazado 163984" d="M336.95,292.774l-77.194,44.574c-1.315.758-2.036,2.128-1.6,3.059s1.826,1.078,3.16.32l77.2-44.574c1.315-.758,2.018-2.128,1.58-3.059S338.265,292.025,336.95,292.774Z" transform="translate(-197.201 -85.182)" fill="#455a64"/>
        <path id="Trazado_163985" data-name="Trazado 163985" d="M342.509,303.682l-77.2,44.574c-1.315.758-1.963,2.091-1.443,2.977s2.009.977,3.324.219l77.148-44.574c1.306-.749,1.936-2.073,1.415-2.959S343.788,302.924,342.509,303.682Z" transform="translate(-197.691 -86.127)" fill="#455a64"/>
        <path id="Trazado_163986" data-name="Trazado 163986" d="M348.988,314l-77.194,44.565c-1.315.758-1.9,2.064-1.306,2.895s2.155.913,3.47.146l77.194-44.574c1.315-.758,1.881-2.046,1.288-2.886S350.3,313.242,348.988,314Z" transform="translate(-198.262 -87.02)" fill="#455a64"/>
        <path id="Trazado_163987" data-name="Trazado 163987" d="M356.375,323.807l-77.2,44.565c-1.306.758-1.826,2.027-1.169,2.822s2.274.831,3.589.073l77.2-44.592c1.306-.758,1.826-2.009,1.151-2.8S357.69,323.021,356.375,323.807Z" transform="translate(-198.909 -87.868)" fill="#455a64"/>
        <path id="Trazado_163988" data-name="Trazado 163988" d="M364.531,333.146l-77.176,44.565c-1.315.758-1.826,2-1.059,2.74a3.3,3.3,0,0,0,3.7,0l77.2-44.574c1.315-.758,1.772-1.982,1.041-2.74S365.864,332.4,364.531,333.146Z" transform="translate(-199.623 -88.678)" fill="#455a64"/>
        <path id="Trazado_163989" data-name="Trazado 163989" d="M373.537,342.074l-77.2,44.565c-1.306.758-1.735,1.973-.913,2.694s2.5.694,3.817-.064L376.377,344.7c1.306-.758,1.717-1.945.913-2.676S374.815,341.316,373.537,342.074Z" transform="translate(-200.409 -89.451)" fill="#455a64"/>
        <path id="Trazado_163990" data-name="Trazado 163990" d="M278.6,244.44l-36.419,21c.4,13.2,1.909,32.227,7.424,51.4l36.428-21C280.508,276.667,279,257.627,278.6,244.44Z" transform="translate(-195.825 -81.029)" fill="#8369b0"/>
        <path id="Trazado_163991" data-name="Trazado 163991" d="M278.6,244.44l-36.419,21c.4,13.2,1.909,32.227,7.424,51.4l36.428-21C280.508,276.667,279,257.627,278.6,244.44Z" transform="translate(-195.825 -81.029)" fill="#fff" opacity="0.8"/>
        <path id="Trazado_163992" data-name="Trazado 163992" d="M257.029,263.821a6.018,6.018,0,0,0-1.772-4.621l-13.077,7.543c.11,3.488.292,7.388.612,11.589a8.575,8.575,0,0,0,4.94-.913C252.874,275.063,257.029,268.953,257.029,263.821Z" transform="translate(-195.825 -82.31)" fill="#8369b0"/>
        <path id="Trazado_163993" data-name="Trazado 163993" d="M257.029,263.821a6.018,6.018,0,0,0-1.772-4.621l-13.077,7.543c.11,3.488.292,7.388.612,11.589a8.575,8.575,0,0,0,4.94-.913C252.874,275.063,257.029,268.953,257.029,263.821Z" transform="translate(-195.825 -82.31)" fill="#fff" opacity="0.6"/>
        <path id="Trazado_163994" data-name="Trazado 163994" d="M284.265,285.292h0c-2.429-3.059-7.37-12.511-9.479-16.63a.913.913,0,0,0-1.689.155,100.227,100.227,0,0,0-3.945,23.972,34.7,34.7,0,0,1-7.735-8.6.813.813,0,0,0-1.452.256,89.566,89.566,0,0,0-1.982,30.419h0l29.378-16.968C286.137,293.657,285.123,289.438,284.265,285.292Z" transform="translate(-197.153 -83.088)" fill="#8369b0"/>
        <path id="Trazado_163995" data-name="Trazado 163995" d="M284.265,285.292h0c-2.429-3.059-7.37-12.511-9.479-16.63a.913.913,0,0,0-1.689.155,100.227,100.227,0,0,0-3.945,23.972,34.7,34.7,0,0,1-7.735-8.6.813.813,0,0,0-1.452.256,89.566,89.566,0,0,0-1.982,30.419h0l29.378-16.968C286.137,293.657,285.123,289.438,284.265,285.292Z" transform="translate(-197.153 -83.088)" fill="#fff" opacity="0.6"/>
      </g>
    </g>
  </g>
</svg>
