<svg xmlns="http://www.w3.org/2000/svg" width="101" height="101" viewBox="0 0 101 101">
  <g id="icon3" transform="translate(-637 -1611)">
    <path id="Trazado_179623" data-name="Trazado 179623" d="M50.5,0A50.5,50.5,0,1,1,0,50.5,50.5,50.5,0,0,1,50.5,0Z" transform="translate(637 1611)" fill="#6dc5db"/>
    <g id="icon3-2" data-name="icon3" transform="translate(650 1624)">
      <g id="Grupo_102649" data-name="Grupo 102649" transform="translate(1.261 1.261)">
        <ellipse id="Elipse_5033" data-name="Elipse 5033" cx="34.047" cy="36.569" rx="34.047" ry="36.569" transform="translate(5.044)" fill="#a4c2f7"/>
        <ellipse id="Elipse_5034" data-name="Elipse 5034" cx="34.047" cy="36.569" rx="34.047" ry="36.569" fill="#fff"/>
        <g id="Grupo_102648" data-name="Grupo 102648" transform="translate(3.783)">
          <ellipse id="Elipse_5035" data-name="Elipse 5035" cx="32.786" cy="36.569" rx="32.786" ry="36.569" fill="#e3e7f2"/>
          <path id="Trazado_160713" data-name="Trazado 160713" d="M165.444,105.951l-3.417-3.417a5.05,5.05,0,0,0-3.569-1.475H144.511a5.023,5.023,0,0,0-2.938.933c-1.652,1.211-3.266,2.5-4.83,3.833a22.273,22.273,0,0,0-5.977,6.772,6.283,6.283,0,0,0-.088,6.028A5.676,5.676,0,0,0,131.7,119.9l.2.063a4.051,4.051,0,0,0-.164,2.144c.013.063.025.113.038.177a3.944,3.944,0,0,0,1.665,2.3,5.414,5.414,0,0,0,1.475.643,6.567,6.567,0,0,0-.555,3.052,3.239,3.239,0,0,0,.05.479,4.005,4.005,0,0,0,1.816,2.762,5.593,5.593,0,0,0,1.122.593l-2.282,3.064-4.061,5.473a2.554,2.554,0,0,0-.176,2.762,3.482,3.482,0,0,0,3.909,1.753h.038a5.331,5.331,0,0,0,3.14-2.043l7.175-9.369.1-.126.3.227.908.265,3.632,1.034a7.582,7.582,0,0,0,7.44-1.929l7.97-7.982a5.049,5.049,0,0,0,1.475-3.569V109.52A5.05,5.05,0,0,0,165.444,105.951Zm-14.06,21.677a7.145,7.145,0,0,1-.845-.088l-.429-.328,4.376-5.712a10.824,10.824,0,0,1,.643,1.248C156.037,124.778,156.731,128.107,151.384,127.628Z" transform="translate(-115.647 -87.238)" fill="#e3e7f2"/>
        </g>
        <path id="Trazado_160714" data-name="Trazado 160714" d="M286.378,109.52v12.144a5.049,5.049,0,0,1-1.475,3.569l-7.97,7.982a7.586,7.586,0,0,1-6.809,2.081,7.692,7.692,0,0,0,3.859-2.081l7.969-7.982a5.048,5.048,0,0,0,1.475-3.569V109.52a5.049,5.049,0,0,0-1.475-3.569l-3.417-3.417a5.05,5.05,0,0,0-3.569-1.475h2.951a5.049,5.049,0,0,1,3.569,1.475l3.417,3.417A5.05,5.05,0,0,1,286.378,109.52Z" transform="translate(-231.322 -87.238)" fill="#a4c2f7"/>
      </g>
      <g id="Grupo_102650" data-name="Grupo 102650" transform="translate(0)">
        <path id="Trazado_160715" data-name="Trazado 160715" d="M39.838,0A37.956,37.956,0,0,0,2.365,32.614a1.261,1.261,0,1,0,2.5.345,35.308,35.308,0,1,1,0,9.743,1.261,1.261,0,1,0-2.5.345A37.832,37.832,0,1,0,39.838,0Z" transform="translate(-2.008)" fill="#428dff"/>
        <ellipse id="Elipse_5036" data-name="Elipse 5036" cx="1.261" cy="1.261" rx="1.261" ry="1.261" transform="translate(0 36.569)" fill="#428dff"/>
        <path id="Trazado_160716" data-name="Trazado 160716" d="M139.246,128.927l4.105,1.174a8.836,8.836,0,0,0,8.678-2.251L160,119.869a6.35,6.35,0,0,0,1.845-4.46V103.266A6.35,6.35,0,0,0,160,98.805l-3.417-3.417a6.348,6.348,0,0,0-4.46-1.845H138.173a6.249,6.249,0,0,0-3.683,1.177c-1.635,1.2-3.284,2.508-4.9,3.893a23.462,23.462,0,0,0-6.293,7.182,7.256,7.256,0,0,0,.855,8.381,4.73,4.73,0,0,0,.077,2.2,5.211,5.211,0,0,0,2.781,3.333,7.122,7.122,0,0,0-.178,3,5.268,5.268,0,0,0,2.3,3.571l-5.479,7.366a3.824,3.824,0,0,0-.248,4.143,4.637,4.637,0,0,0,4.154,2.463c.051,0,.106-.014.158-.015.029,0,.052.016.081.016h25.22a1.261,1.261,0,0,0,0-2.522H132.488c.029-.036.064-.064.092-.1Zm-13.656,7.6a1.286,1.286,0,0,1,.09-1.39l14.488-19.481a1.261,1.261,0,1,0-2.022-1.506l-7.51,10.1a2.806,2.806,0,0,1-1.32-1.962,5.133,5.133,0,0,1,.422-2.83,17.91,17.91,0,0,1,5.214-6.078,1.261,1.261,0,0,0-1.477-2.044,21.613,21.613,0,0,0-5.5,6.024,2.584,2.584,0,0,1-1.214-3.257c.9-2.73,4.475-5.626,4.511-5.655a1.261,1.261,0,0,0-1.579-1.967,21.847,21.847,0,0,0-4.417,4.923,5.346,5.346,0,0,1,.288-4.51,21.525,21.525,0,0,1,5.663-6.365c1.57-1.344,3.17-2.613,4.745-3.768a3.743,3.743,0,0,1,2.2-.7h13.947a3.81,3.81,0,0,1,2.677,1.107l3.417,3.417a3.81,3.81,0,0,1,1.106,2.677v12.143a3.808,3.808,0,0,1-1.107,2.678l-7.969,7.981a6.317,6.317,0,0,1-6.2,1.609l-3.15-.9,3.242-4.23a13.943,13.943,0,0,0,1.877.143,4.528,4.528,0,0,0,4.092-1.7c1.186-1.786.262-4.24-.494-5.694a1.244,1.244,0,0,0-.388-1.468,1.259,1.259,0,0,0-1.766.244l-16.881,22.025a4.067,4.067,0,0,1-2.371,1.57A2.238,2.238,0,0,1,125.59,136.528Zm22.53-17.246a.883.883,0,0,1-.115.308.669.669,0,0,1-.066.079c-.015.016-.036.033-.056.05s-.035.029-.054.043a1.191,1.191,0,0,1-.111.073l-.04.021a2.45,2.45,0,0,1-.7.226c-.04.008-.079.016-.123.022-.084.013-.178.023-.274.032s-.209.016-.324.021c-.065,0-.128.006-.2.007l-.09,0,1.923-2.511c.012.035.02.067.031.1.049.152.092.3.125.442.015.063.025.122.037.183.022.116.039.227.049.333.005.057.01.113.012.166a1.889,1.889,0,0,1-.013.286C148.129,119.2,148.128,119.245,148.12,119.282Z" transform="translate(-104.266 -79.719)" fill="#428dff"/>
      </g>
    </g>
  </g>
</svg>
