<svg xmlns="http://www.w3.org/2000/svg" width="108" height="108" viewBox="0 0 108 108">
  <g id="icon1" transform="translate(-474.066 -1275)">
    <circle id="Elipse_5011" data-name="Elipse 5011" cx="54" cy="54" r="54" transform="translate(474.066 1275)" fill="#36a3f7"/>
    <g id="packages" transform="translate(487.065 1280.024)">
      <g id="Grupo_104029" data-name="Grupo 104029" transform="translate(7.724 50.636)">
        <path id="Trazado_173185" data-name="Trazado 173185" d="M112,271.928h20.6v15.449H112Z" transform="translate(-101.701 -271.928)" fill="#f3a451"/>
        <path id="Trazado_173186" data-name="Trazado 173186" d="M216,271.928h3.862v15.449H216Z" transform="translate(-188.965 -271.928)" fill="#d9694b"/>
        <path id="Trazado_173187" data-name="Trazado 173187" d="M160,271.928h5.15v7.724H160Z" transform="translate(-141.977 -271.928)" fill="#f05475"/>
        <g id="Grupo_104026" data-name="Grupo 104026" transform="translate(12.874 9.092)">
          <path id="Trazado_173188" data-name="Trazado 173188" d="M128,328.427h2.575v2.414H128Z" transform="translate(-128 -328.427)" fill="#fff"/>
        </g>
        <path id="Trazado_173189" data-name="Trazado 173189" d="M48,367.928H68.6v15.448H48Z" transform="translate(-48 -352.48)" fill="#f3a451"/>
        <path id="Trazado_173190" data-name="Trazado 173190" d="M152,367.928h3.862v15.448H152Z" transform="translate(-135.264 -352.48)" fill="#d9694b"/>
        <path id="Trazado_173191" data-name="Trazado 173191" d="M96,367.928h5.15v7.724H96Z" transform="translate(-88.276 -352.48)" fill="#f05475"/>
        <g id="Grupo_104027" data-name="Grupo 104027" transform="translate(2.575 24.54)">
          <path id="Trazado_173192" data-name="Trazado 173192" d="M64,424.427h2.575v2.414H64Z" transform="translate(-64 -424.427)" fill="#fff"/>
        </g>
        <path id="Trazado_173193" data-name="Trazado 173193" d="M176,367.928h20.6v15.448H176Z" transform="translate(-155.402 -352.48)" fill="#f3a451"/>
        <path id="Trazado_173194" data-name="Trazado 173194" d="M280,367.928h3.862v15.448H280Z" transform="translate(-242.666 -352.48)" fill="#d9694b"/>
        <path id="Trazado_173195" data-name="Trazado 173195" d="M224,367.928h5.15v7.724H224Z" transform="translate(-195.678 -352.48)" fill="#f05475"/>
        <g id="Grupo_104028" data-name="Grupo 104028" transform="translate(23.173 24.54)">
          <path id="Trazado_173196" data-name="Trazado 173196" d="M192,424.427h2.575v2.414H192Z" transform="translate(-192 -424.427)" fill="#fff"/>
        </g>
      </g>
      <g id="Grupo_104031" data-name="Grupo 104031" transform="translate(54.07 66.085)">
        <path id="Trazado_173197" data-name="Trazado 173197" d="M336,367.928h20.6v15.448H336Z" transform="translate(-336 -367.928)" fill="#f3a451"/>
        <path id="Trazado_173198" data-name="Trazado 173198" d="M440,367.928h3.862v15.448H440Z" transform="translate(-423.264 -367.928)" fill="#d9694b"/>
        <path id="Trazado_173199" data-name="Trazado 173199" d="M384,367.928h5.15v7.724H384Z" transform="translate(-376.276 -367.928)" fill="#f05475"/>
        <g id="Grupo_104030" data-name="Grupo 104030" transform="translate(2.575 9.092)">
          <path id="Trazado_173200" data-name="Trazado 173200" d="M352,424.427h2.575v2.414H352Z" transform="translate(-352 -424.427)" fill="#fff"/>
        </g>
      </g>
      <path id="Trazado_173201" data-name="Trazado 173201" d="M304,197.077l15.449,15.449,5.149-5.15L309.15,191.928" transform="translate(-255.08 -154.165)" fill="#8ad8f6"/>
      <path id="Trazado_173202" data-name="Trazado 173202" d="M320,194.5l15.448,15.449,2.575-2.575-15.448-15.449" transform="translate(-268.505 -154.165)" fill="#3ca6e6"/>
      <circle id="Elipse_5097" data-name="Elipse 5097" cx="15.449" cy="15.449" r="15.449" transform="translate(19.345 30.04) rotate(-45)" fill="#8ad8f6"/>
      <path id="Trazado_173203" data-name="Trazado 173203" d="M245.931,47.928a15.607,15.607,0,0,0-1.931.12,15.45,15.45,0,0,1,0,30.657,15.607,15.607,0,0,0,1.931.12,15.449,15.449,0,1,0,0-30.9Z" transform="translate(-204.735 -33.338)" fill="#3ca6e6"/>
      <circle id="Elipse_5098" data-name="Elipse 5098" cx="10.299" cy="10.299" r="10.299" transform="translate(30.897 19.739)" fill="#fff"/>
      <path id="Trazado_173204" data-name="Trazado 173204" d="M249.287,79.928a10.365,10.365,0,0,0-1.287.083,10.3,10.3,0,0,1,0,20.432,10.3,10.3,0,1,0,1.287-20.515Z" transform="translate(-208.091 -60.189)" fill="#c4e2f6"/>
      <g id="Grupo_104032" data-name="Grupo 104032" transform="translate(0 13.383)">
        <path id="Trazado_173205" data-name="Trazado 173205" d="M169.155,73.739a16.553,16.553,0,0,0,7.837-1.962l15.336,15.336,6.856-6.856L183.847,64.92a16.653,16.653,0,1,0-14.693,8.819Zm26.616,6.517L192.327,83.7,179.079,70.451a16.8,16.8,0,0,0,3.443-3.443ZM169.155,42.842a14.242,14.242,0,1,1-14.242,14.242A14.258,14.258,0,0,1,169.155,42.842Z" transform="translate(-127.959 -40.428)"/>
        <path id="Trazado_173206" data-name="Trazado 173206" d="M196,95.439a11.507,11.507,0,0,0,5.754-21.472l-1.209,2.089a9.047,9.047,0,1,1-2.271-.929l.6-2.338A11.507,11.507,0,1,0,196,95.439Z" transform="translate(-154.808 -67.278)"/>
        <path id="Trazado_173207" data-name="Trazado 173207" d="M75.875,295.348V279.877H52.863v15.472H50.127V279.877H19.23V266.842h5.31v7.724H32.1v-7.724h5.31v10.379h2.414V264.428H16.816v15.449H6.517V292.67H8.931V282.29h5.31v7.724H21.8V282.29h5.31v13.058H0v2.414H82.392v-2.414Zm-46.185-23.2H26.954v-5.31H29.69ZM63,282.29h2.736v5.31H63Zm-7.724,0h5.31v7.724H68.15V282.29h5.31v13.058H55.277Zm-18.023,0h2.736v5.31H37.253ZM19.391,287.6H16.655v-5.31h2.736Zm10.138-5.31h5.31v7.724H42.4V282.29h5.31v13.058H29.529Z" transform="translate(0 -228.381)"/>
        <path id="Trazado_173208" data-name="Trazado 173208" d="M216,136.427h2.575v2.414H216Z" transform="translate(-181.241 -120.979)"/>
        <path id="Trazado_173209" data-name="Trazado 173209" d="M248,136.427h2.575v2.414H248Z" transform="translate(-208.091 -120.979)"/>
        <path id="Trazado_173210" data-name="Trazado 173210" d="M280,136.427h2.575v2.414H280Z" transform="translate(-234.942 -120.979)"/>
      </g>
    </g>
  </g>
</svg>
