<svg xmlns="http://www.w3.org/2000/svg" width="108" height="108" viewBox="0 0 108 108">
  <g id="icon23" transform="translate(-746 -9539)">
    <circle id="Elipse_5010" data-name="Elipse 5010" cx="54" cy="54" r="54" transform="translate(746 9539)" fill="#36a3f7"/>
    <g id="logistics" transform="translate(763 9555.145)">
      <circle id="Elipse_5095" data-name="Elipse 5095" cx="28.362" cy="28.362" r="28.362" transform="translate(9.272 9.298)" fill="#69d6f4"/>
      <path id="Trazado_167905" data-name="Trazado 167905" d="M32.725,54.727h4.727v1.182a12.15,12.15,0,0,1-.4,1.158h-.012c.012.012.012.024,0,.024a11.387,11.387,0,0,1-10.553,7.09H13.4A11.4,11.4,0,0,1,2,52.777V50h9.454l2.363,4.727Z" transform="translate(0.182 8.931)" fill="#ccd1d9"/>
      <path id="Trazado_167906" data-name="Trazado 167906" d="M27.271,42a2.37,2.37,0,0,1,2.363,2.363,2.381,2.381,0,0,1-2.363,2.363H8.363A2.37,2.37,0,0,1,6,44.363,2.381,2.381,0,0,1,8.363,42H27.271Z" transform="translate(0.909 7.477)" fill="#fcd770"/>
      <path id="Trazado_167907" data-name="Trazado 167907" d="M26.908,46l4.727,9.454H12.727l-2.363-4.727H8V46Z" transform="translate(1.272 8.204)" fill="#ffeaa7"/>
      <path id="Trazado_167908" data-name="Trazado 167908" d="M63.271,44H44.363A2.37,2.37,0,0,0,42,46.363V62.908a2.37,2.37,0,0,0,2.363,2.363H63.271a2.37,2.37,0,0,0,2.363-2.363V46.363A2.37,2.37,0,0,0,63.271,44Z" transform="translate(7.451 7.841)" fill="#d3a06c"/>
      <path id="Trazado_167909" data-name="Trazado 167909" d="M57.454,44v4.727H48V44h9.454Z" transform="translate(8.541 7.841)" fill="#b27946"/>
      <path id="Trazado_167910" data-name="Trazado 167910" d="M23.271,12.884v.083a10.7,10.7,0,0,1-1.784,5.9l-2.943,4.408-4.077,6.11a2.2,2.2,0,0,1-3.663,0l-.378-.555L3.784,18.863A10.7,10.7,0,0,1,2,12.966v-.331a10.636,10.636,0,1,1,21.271,0Z" transform="translate(0.182 0.208)" fill="#ff826e"/>
      <circle id="Elipse_5096" data-name="Elipse 5096" cx="5.909" cy="5.909" r="5.909" transform="translate(6.909 6.935)" fill="#fcd770"/>
      <path id="Trazado_167911" data-name="Trazado 167911" d="M46.805,23.621c-.355.177-.709.343-1.075.5a2.12,2.12,0,0,1-.768.154c-.532,0-1.016-.213-1.8-1.182a1.923,1.923,0,0,1-.165-.78,2.12,2.12,0,0,1,.154-.768c.154-.366.319-.721.5-1.075A37.976,37.976,0,0,1,45.777,16.4c.366-.638.756-1.253,1.17-1.867A39.6,39.6,0,0,1,50.209,10.2c.756-.91,1.56-1.784,2.411-2.635l2.2-2.2.9-.9a5.014,5.014,0,0,1,7.09,7.09l-.9.9-2.2,2.2c-.851.851-1.725,1.654-2.635,2.411a39.6,39.6,0,0,1-4.337,3.262c-.615.414-1.229.8-1.867,1.17a37.975,37.975,0,0,1-4.065,2.127Z" transform="translate(7.633 0.39)" fill="#e6e9ed"/>
      <g id="Grupo_103362" data-name="Grupo 103362" transform="translate(44.724 2.208)">
        <path id="Trazado_167912" data-name="Trazado 167912" d="M59.743,11l3.545,10.636-1.182,1.182-7.2-7.2v-.012c.91-.756,1.784-1.56,2.635-2.411Z" transform="translate(-34.927 -0.364)" fill="#fcd770"/>
        <path id="Trazado_167913" data-name="Trazado 167913" d="M54.817,5.545l-2.2,2.2c-.851.851-1.654,1.725-2.411,2.635H50.2L43,3.182,44.182,2Z" transform="translate(-37.091 -2)" fill="#fcd770"/>
        <path id="Trazado_167914" data-name="Trazado 167914" d="M40.363,13l6.322,1.584a37.976,37.976,0,0,0-2.127,4.065l-6.05-3.025L38,15.363l.307-.307Z" transform="translate(-38 -0.001)" fill="#fcd770"/>
        <path id="Trazado_167915" data-name="Trazado 167915" d="M50.285,18.65l1.584,6.322-2.363,2.363L46.22,20.777a37.975,37.975,0,0,0,4.065-2.127Z" transform="translate(-36.506 1.026)" fill="#fcd770"/>
      </g>
      <path id="Trazado_167916" data-name="Trazado 167916" d="M19.181,12.09a7.09,7.09,0,1,0-7.09,7.09A7.1,7.1,0,0,0,19.181,12.09Zm-11.817,0a4.727,4.727,0,1,1,4.727,4.727A4.732,4.732,0,0,1,7.363,12.09Z" transform="translate(0.727 0.753)"/>
      <path id="Trazado_167917" data-name="Trazado 167917" d="M0,0H2.363V2.363H0Z" transform="translate(61.319 12.3) rotate(-45)"/>
      <path id="Trazado_167918" data-name="Trazado 167918" d="M0,0H2.363V2.363H0Z" transform="translate(64.662 8.959) rotate(-45)"/>
      <path id="Trazado_167919" data-name="Trazado 167919" d="M0,0H2.244V2.363H0Z" transform="translate(58.062 15.558) rotate(-45)"/>
      <path id="Trazado_167920" data-name="Trazado 167920" d="M70.722,50.659H64.167a29.573,29.573,0,0,0,3.01-13,29.264,29.264,0,0,0-5.154-16.634q1.338-.934,2.61-1.963l7.27,7.269L74.438,23.8,70.892,13.161l.378-.378a6.2,6.2,0,0,0-8.761-8.763l-.381.381L51.494.856,48.962,3.39l7.27,7.27q-1.032,1.269-1.963,2.609A29.492,29.492,0,0,0,24.506,11.19,11.811,11.811,0,0,0,1,12.843v.325a11.783,11.783,0,0,0,1.985,6.555l6.342,9.513a29.462,29.462,0,0,0,.74,19.059h-.8A3.537,3.537,0,0,0,8.09,55.168v2.581H1v3.958A12.6,12.6,0,0,0,13.587,74.293H26.667a12.65,12.65,0,0,0,11.322-7.1A29.309,29.309,0,0,0,48.27,65.226v5.522a3.55,3.55,0,0,0,3.545,3.545H70.723a3.55,3.55,0,0,0,3.545-3.545V54.2A3.551,3.551,0,0,0,70.722,50.659Zm-13,2.363h7.09v2.363h-7.09Zm-5.909-2.363H48.286a68.816,68.816,0,0,0,1.153-11.817H64.774a27.137,27.137,0,0,1-3.282,11.817ZM38.779,64.6l.037-2.125H33.637l-3.769-7.538a3.54,3.54,0,0,0,1.639-1.916H45.347C43.749,59.387,41.262,63.594,38.779,64.6ZM31.508,50.659A3.544,3.544,0,0,0,29,48.4a68.5,68.5,0,0,1-.793-9.558H47.076a65.907,65.907,0,0,1-1.2,11.817ZM10.5,36.478a27.189,27.189,0,0,1,.7-5.143,3.383,3.383,0,0,0,4.442-1.093l3.72-5.581h7.623a68.815,68.815,0,0,0-1.153,11.817ZM29.4,24.661H45.886a66.819,66.819,0,0,1,1.181,11.817H28.2A65.914,65.914,0,0,1,29.4,24.661ZM37.634,10.48c2.1,0,4.26,2.378,5.994,6.516l-.9.9,1.541.77c.4,1.14.767,2.349,1.087,3.633H29.928C31.775,14.958,34.8,10.48,37.634,10.48Zm13.094,8.771-4.008-2,.731-.73L51.6,17.554C51.3,18.112,51.01,18.679,50.727,19.251ZM49.735,21.4l-.03.064a3.08,3.08,0,0,0-.214.837H47.782c-.175-.741-.365-1.458-.566-2.159ZM64.767,36.478H49.43a69.577,69.577,0,0,0-1.144-11.817h1.872a3.114,3.114,0,0,0,3.674.928l.065-.03,3.5,7.005,4-4L59.866,22.45c.064-.039.125-.082.189-.122A26.894,26.894,0,0,1,64.767,36.478ZM57.74,23.691l1.038,4.153-.731.73-2-4.008C56.615,24.284,57.182,24,57.74,23.691Zm13.824-1.041-5.126-5.126c.594-.535,1.178-1.084,1.745-1.652l.84-.84ZM66.89,4.571a3.831,3.831,0,0,1,2.71,6.541L66.512,14.2A43.291,43.291,0,0,1,52.9,23.415a.78.78,0,0,1-1.026-1.023A43.307,43.307,0,0,1,61.092,8.781l3.087-3.088h0A3.813,3.813,0,0,1,66.89,4.571ZM52.645,3.73l7.617,2.54-.84.841c-.568.568-1.117,1.152-1.652,1.745Zm.2,11.7L46.726,13.9l-1.3,1.3A18.623,18.623,0,0,0,42.868,11a26.84,26.84,0,0,1,10.1,4.238c-.041.065-.084.126-.123.19Zm-28.256-1.6a27.08,27.08,0,0,1,7.889-2.848c-2.085,2.47-3.813,6.411-4.987,11.32H20.933l1.716-2.574A11.759,11.759,0,0,0,24.586,13.825ZM3.363,13.168v-.325a9.454,9.454,0,0,1,18.908,0v.325a9.426,9.426,0,0,1-1.588,5.245L13.671,28.93a1.064,1.064,0,0,1-1.708,0L4.951,18.413a9.432,9.432,0,0,1-1.587-5.245Zm7.121,25.673H25.84a71.371,71.371,0,0,0,.753,9.454H12.624a26.917,26.917,0,0,1-2.139-9.454ZM9.272,50.659H28.18a1.182,1.182,0,1,1,0,2.363H9.272a1.182,1.182,0,1,1,0-2.363Zm1.182,4.727h17l3.545,7.09H14.729l-2.363-4.727H10.454ZM26.667,71.93H13.587A10.235,10.235,0,0,1,3.363,61.707V60.113h7.542l2.363,4.727H36.4A10.27,10.27,0,0,1,26.667,71.93Zm16.124-7.587c2.085-2.47,3.815-6.412,4.988-11.321h.708a3.505,3.505,0,0,0-.217,1.182v8.465A26.75,26.75,0,0,1,42.791,64.343Zm29.113,6.4a1.183,1.183,0,0,1-1.182,1.182H51.814a1.183,1.183,0,0,1-1.182-1.182V54.2a1.183,1.183,0,0,1,1.182-1.182H55.36v4.727H67.177V53.022h3.545A1.183,1.183,0,0,1,71.9,54.2Z"/>
      <path id="Trazado_167921" data-name="Trazado 167921" d="M57,57h2.363v2.363H57Z" transform="translate(10.177 10.203)"/>
      <path id="Trazado_167922" data-name="Trazado 167922" d="M53,57h2.363v2.363H53Z" transform="translate(9.45 10.203)"/>
      <path id="Trazado_167923" data-name="Trazado 167923" d="M13,49h2.363v2.363H13Z" transform="translate(2.181 8.749)"/>
      <path id="Trazado_167924" data-name="Trazado 167924" d="M17,49h2.363v2.363H17Z" transform="translate(2.908 8.749)"/>
      <path id="Trazado_167925" data-name="Trazado 167925" d="M21,49h2.363v2.363H21Z" transform="translate(3.635 8.749)"/>
      <path id="Trazado_167926" data-name="Trazado 167926" d="M27,35h2.363v2.363H27Z" transform="translate(4.725 6.205)"/>
      <path id="Trazado_167927" data-name="Trazado 167927" d="M31,35h2.363v2.363H31Z" transform="translate(5.452 6.205)"/>
      <path id="Trazado_167928" data-name="Trazado 167928" d="M35,35h2.363v2.363H35Z" transform="translate(6.179 6.205)"/>
      <path id="Trazado_167929" data-name="Trazado 167929" d="M31,27h2.363v2.363H31Z" transform="translate(5.452 4.751)"/>
      <path id="Trazado_167930" data-name="Trazado 167930" d="M27,27h2.363v2.363H27Z" transform="translate(4.725 4.751)"/>
      <path id="Trazado_167931" data-name="Trazado 167931" d="M35,27h2.363v2.363H35Z" transform="translate(6.179 4.751)"/>
    </g>
  </g>
</svg>
