<svg xmlns="http://www.w3.org/2000/svg" width="58.345" height="62.512" viewBox="0 0 58.345 62.512">
  <g id="icon13" transform="translate(-48 -16)">
    <rect id="Rectángulo_34770" data-name="Rectángulo 34770" width="47.605" height="51.088" rx="23.802" transform="translate(49.161 17.161)" fill="#e3e4e2"/>
    <path id="Trazado_179712" data-name="Trazado 179712" d="M100.8,24H59.126A3.126,3.126,0,0,0,56,27.126v5.209h47.926V27.126A3.126,3.126,0,0,0,100.8,24Z" transform="translate(-6.958 -6.958)" fill="#0093b9"/>
    <path id="Trazado_179713" data-name="Trazado 179713" d="M294.1,324.25H282.643V305.5h-8.172a2.247,2.247,0,0,1-.35-4.467l15.166-2.395a3.126,3.126,0,0,1,3.493,2.229L294.1,305.5Z" transform="translate(-195.022 -245.792)" fill="#f5be9a"/>
    <path id="Trazado_179714" data-name="Trazado 179714" d="M242.352,351.578H213.239l-1.645,1.1h-2.552a1.042,1.042,0,0,0,0,2.084h2.716l1.48.987h29.172a2.084,2.084,0,0,0,2.081-2.184A2.123,2.123,0,0,0,242.352,351.578Z" transform="translate(-139.163 -291.874)" fill="#0093b9"/>
    <path id="Trazado_179715" data-name="Trazado 179715" d="M460.392,353.662a2.084,2.084,0,0,0-2.084-2.084h-2.084v4.167h2.084A2.084,2.084,0,0,0,460.392,353.662Z" transform="translate(-355.059 -291.874)" fill="#e3e4e2"/>
    <path id="Trazado_179716" data-name="Trazado 179716" d="M289.605,364.08l-2.307-.923a4.617,4.617,0,0,1-2.9-4.286l-3.519-3.52a2.21,2.21,0,0,1,1.563-3.773h.394a2.21,2.21,0,0,1,.988.233l7.869,3.934,3.126,3.126Z" transform="translate(-201.985 -291.874)" fill="#f5be9a"/>
    <path id="Trazado_179717" data-name="Trazado 179717" d="M96,128h16.67v16.67H96Z" transform="translate(-41.749 -97.414)" fill="#0093b9"/>
    <circle id="Elipse_5122" data-name="Elipse 5122" cx="3.193" cy="3.193" r="3.193" transform="translate(59.611 34.577)" fill="#f6bc1b"/>
    <path id="Trazado_179718" data-name="Trazado 179718" d="M128,214.251v-2.084a4.167,4.167,0,0,1,8.335,0v2.084Z" transform="translate(-69.581 -166.995)" fill="#f6bc1b"/>
    <path id="Trazado_179719" data-name="Trazado 179719" d="M50.084,64.968V26.419H95.926V50.382H98.01V20.167A4.172,4.172,0,0,0,93.842,16H52.167A4.172,4.172,0,0,0,48,20.167v44.8a4.172,4.172,0,0,0,4.167,4.167h25V67.052h-25a2.086,2.086,0,0,1-2.084-2.084Zm2.084-46.884H93.842a2.086,2.086,0,0,1,2.084,2.084v4.167H50.084V20.167A2.086,2.086,0,0,1,52.167,18.084Z"/>
    <path id="Trazado_179720" data-name="Trazado 179720" d="M80,48h2.084v2.084H80Z" transform="translate(-27.833 -27.833)"/>
    <path id="Trazado_179721" data-name="Trazado 179721" d="M112,48h2.084v2.084H112Z" transform="translate(-55.665 -27.833)"/>
    <path id="Trazado_179722" data-name="Trazado 179722" d="M144,48h2.084v2.084H144Z" transform="translate(-83.498 -27.833)"/>
    <path id="Trazado_179723" data-name="Trazado 179723" d="M242.382,297.921H239l-1.108-3.877a4.172,4.172,0,0,0-4.657-2.972l-15.166,2.395a3.287,3.287,0,0,0-2.546,4.454h-2.313a1.042,1.042,0,0,0-.578.175L209.768,300H208v2.084h1.768L212.631,304a1.042,1.042,0,0,0,.578.175h4.778l2.533,2.533a5.628,5.628,0,0,0,3.539,4.8l1.652.661v5.546H227.8v-6.251a1.042,1.042,0,0,0-.655-.967l-2.307-.923a3.557,3.557,0,0,1-2.247-3.319,1.042,1.042,0,0,0-.305-.737l-3.52-3.52a1.168,1.168,0,0,1,.826-1.994h.394a1.173,1.173,0,0,1,.522.123l7.717,3.859,3.006,3.006,1.473-1.473-1.347-1.347h5.82v13.544h2.084V304.172h3.126a3.126,3.126,0,0,0,0-6.251Zm-30.42,3.126L213.525,300h3.028a3.255,3.255,0,0,0-.087,2.084h-2.941Zm7.625-3.126h-1a1.205,1.205,0,0,1-.188-2.4l15.166-2.395a2.085,2.085,0,0,1,2.328,1.486l.944,3.305h-5.48l1.347-1.347-1.473-1.473-2.82,2.82Zm9.5,4.167L224.916,300h14.34v2.084Zm13.3,0H241.34V300h1.042a1.042,1.042,0,0,1,0,2.084Z" transform="translate(-139.163 -239.204)"/>
    <path id="Trazado_179724" data-name="Trazado 179724" d="M106.754,137.712v-16.67A1.042,1.042,0,0,0,105.712,120H89.042A1.042,1.042,0,0,0,88,121.042v16.67a1.042,1.042,0,0,0,1.042,1.042h16.67A1.042,1.042,0,0,0,106.754,137.712ZM97.377,132.5a3.129,3.129,0,0,1,3.126,3.126v1.042H94.251v-1.042A3.129,3.129,0,0,1,97.377,132.5Zm-2.084-4.167a2.084,2.084,0,1,1,2.084,2.084A2.084,2.084,0,0,1,95.293,128.335Zm9.377,8.335h-2.084v-1.042a5.209,5.209,0,0,0-2.3-4.317,4.167,4.167,0,1,0-5.826,0,5.209,5.209,0,0,0-2.3,4.317v1.042H90.084V122.084H104.67Z" transform="translate(-34.791 -90.456)"/>
    <path id="Trazado_179725" data-name="Trazado 179725" d="M128,280h12.5v2.084H128Z" transform="translate(-69.581 -229.618)"/>
    <path id="Trazado_179726" data-name="Trazado 179726" d="M96,280h2.084v2.084H96Z" transform="translate(-41.749 -229.618)"/>
    <path id="Trazado_179727" data-name="Trazado 179727" d="M296,136h12.5v2.084H296Z" transform="translate(-215.702 -104.372)"/>
    <path id="Trazado_179728" data-name="Trazado 179728" d="M264,168h16.67v2.084H264Z" transform="translate(-187.87 -132.204)"/>
    <path id="Trazado_179729" data-name="Trazado 179729" d="M264,200h16.67v2.084H264Z" transform="translate(-187.87 -160.037)"/>
    <path id="Trazado_179730" data-name="Trazado 179730" d="M264,232h16.67v2.084H264Z" transform="translate(-187.87 -187.87)"/>
    <path id="Trazado_179731" data-name="Trazado 179731" d="M264,136h2.084v2.084H264Z" transform="translate(-187.87 -104.372)"/>
    <path id="Trazado_179732" data-name="Trazado 179732" d="M448,56h2.084V76.837H448Z" transform="translate(-347.906 -34.791)"/>
    <path id="Trazado_179733" data-name="Trazado 179733" d="M448,232h2.084v2.084H448Z" transform="translate(-347.906 -187.87)"/>
    <path id="Trazado_179734" data-name="Trazado 179734" d="M82.01,337.779l-1.438,3.594,1.935.774,1.222-3.055.65,1.3a1.823,1.823,0,0,0,2.642.7l1.678-1.119,1.251,1.251a1.811,1.811,0,0,0,1.289.534h3.844v-2.084H91.348l-1.325-1.326a1.828,1.828,0,0,0-2.3-.228L86.111,339.2l-.778-1.555a1.823,1.823,0,0,0-3.324.138Z" transform="translate(-28.33 -278.876)"/>
  </g>
</svg>
