<svg xmlns="http://www.w3.org/2000/svg" width="93.014" height="93.023" viewBox="0 0 93.014 93.023">
  <g id="iconW" transform="translate(0.002 -0.011)">
    <g id="Grupo_103341" data-name="Grupo 103341" transform="translate(1.307 1.166)">
      <g id="Grupo_103340" data-name="Grupo 103340">
        <path id="Trazado_167521" data-name="Trazado 167521" d="M92.261,46.939v1.308A45.223,45.223,0,0,1,79.545,78.473a20.592,20.592,0,0,1-1.816,1.744,45.2,45.2,0,0,1-61.324,0c-.654-.581-1.235-1.163-1.816-1.744A45.1,45.1,0,0,1,1.8,48.247V45.631A45.223,45.223,0,0,1,14.515,15.405c.581-.581,1.163-1.235,1.816-1.816a45.2,45.2,0,0,1,61.324,0,21.426,21.426,0,0,1,1.816,1.816A44.882,44.882,0,0,1,92.188,45.631C92.188,46.067,92.261,46.5,92.261,46.939Z" transform="translate(-1.8 -1.6)" fill="#4bb9ec"/>
        <path id="Trazado_167522" data-name="Trazado 167522" d="M92.261,46.939v1.308A45.223,45.223,0,0,1,79.545,78.473a20.592,20.592,0,0,1-1.816,1.744,45.2,45.2,0,0,1-61.324,0c-.654-.581-1.235-1.163-1.816-1.744A45.1,45.1,0,0,1,1.8,48.247V45.631A45.223,45.223,0,0,1,14.515,15.405c.581-.581,1.163-1.235,1.816-1.816a45.2,45.2,0,0,1,61.324,0,21.426,21.426,0,0,1,1.816,1.816A44.882,44.882,0,0,1,92.188,45.631C92.188,46.067,92.261,46.5,92.261,46.939Z" transform="translate(-1.8 -1.6)" fill="#4bb9ec"/>
      </g>
      <path id="Trazado_167524" data-name="Trazado 167524" d="M19.9,47H83.985V71.7H19.9Z" transform="translate(-6.749 -14.013)" fill="#f4f5ef"/>
    </g>
    <g id="Grupo_103342" data-name="Grupo 103342" transform="translate(-0.002 0.011)">
      <path id="Trazado_167525" data-name="Trazado 167525" d="M79.125,13.445a46.472,46.472,0,1,0-.145,66.338h0a53.18,53.18,0,0,0,5.595-6.539,1.2,1.2,0,0,0-.291-1.744,1.258,1.258,0,0,0-1.744.291,45.279,45.279,0,0,1-4.5,5.377A45.454,45.454,0,0,0,66.41,69.32,77.5,77.5,0,0,0,68.3,60.237H78.544a1.3,1.3,0,0,0,1.308-1.308V47.813H90.46a42.746,42.746,0,0,1-3.924,16.93,1.25,1.25,0,0,0,.654,1.671,1.283,1.283,0,0,0,1.671-.581,46.546,46.546,0,0,0-9.736-52.387Zm-2.906.654a43.639,43.639,0,0,1-10.536,7.193c-2.47-8.138-6.176-14.314-10.536-17.874A44.168,44.168,0,0,1,76.219,14.1ZM46.5,2.546c6.83,0,13.151,7.7,16.857,19.836A44.7,44.7,0,0,1,46.5,25.724a44.7,44.7,0,0,1-16.857-3.342C33.35,10.248,39.671,2.546,46.5,2.546ZM27.319,21.292A45.1,45.1,0,0,1,16.784,14.1,44.168,44.168,0,0,1,37.855,3.418C33.5,6.978,29.79,13.154,27.319,21.292ZM14.967,15.915a45.454,45.454,0,0,0,11.625,7.847A77.5,77.5,0,0,0,24.7,32.845H14.459a1.34,1.34,0,0,0-1.308,1.235V45.2H2.543A44.125,44.125,0,0,1,14.967,15.915ZM2.543,47.813H13.151V58.857a1.3,1.3,0,0,0,1.308,1.308H24.7a77.5,77.5,0,0,0,1.889,9.082,48.12,48.12,0,0,0-11.625,7.847A44.125,44.125,0,0,1,2.543,47.813Zm14.241,31.1A42.313,42.313,0,0,1,27.247,71.79C29.79,79.855,33.423,86.1,37.782,89.664a45.038,45.038,0,0,1-21-10.754ZM46.5,90.464c-6.83,0-13.151-7.7-16.857-19.836a44.4,44.4,0,0,1,33.714,0C59.653,82.762,53.331,90.464,46.5,90.464ZM76.219,78.911a44.256,44.256,0,0,1-21,10.681c4.287-3.56,7.992-9.736,10.463-17.874A43.639,43.639,0,0,1,76.219,78.911ZM64.085,68.23a46.559,46.559,0,0,0-35.094,0,79.509,79.509,0,0,1-1.671-8.065H65.756C65.32,62.853,64.739,65.542,64.085,68.23ZM77.236,57.622H15.767V35.388H31.752a1.308,1.308,0,1,0,0-2.616H27.319a79.51,79.51,0,0,1,1.671-8.065,47.046,47.046,0,0,0,17.583,3.415,47.046,47.046,0,0,0,17.583-3.415,79.51,79.51,0,0,1,1.671,8.065H54.348a1.308,1.308,0,1,0,0,2.616h22.96V57.622Zm1.308-24.777H68.3a77.5,77.5,0,0,0-1.889-9.082,48.12,48.12,0,0,0,11.625-7.847A43.475,43.475,0,0,1,90.46,45.27H79.852V34.153a1.351,1.351,0,0,0-1.308-1.308Z" transform="translate(0.002 -0.011)"/>
      <path id="Trazado_167526" data-name="Trazado 167526" d="M57.108,47.716H59.36a1.308,1.308,0,0,0,0-2.616H57.108A1.3,1.3,0,0,0,55.8,46.408,1.351,1.351,0,0,0,57.108,47.716Z" transform="translate(-15.255 -12.339)"/>
      <path id="Trazado_167527" data-name="Trazado 167527" d="M56.261,66.627a1.29,1.29,0,0,0,2.4-.145l2.252-5.3,2.252,5.449a1.275,1.275,0,0,0,2.4-.145l3.415-8.138a1.268,1.268,0,0,0-.8-1.671,1.329,1.329,0,0,0-1.6.654l-2.252,5.522-2.252-5.377a1.288,1.288,0,0,0-2.4-.073l-2.252,5.522-2.252-5.449a1.289,1.289,0,0,0-2.4.945Z" transform="translate(-14.408 -15.483)"/>
      <path id="Trazado_167528" data-name="Trazado 167528" d="M83.273,66.654a1.275,1.275,0,0,0,2.4-.145l2.252-5.3,2.252,5.449a1.275,1.275,0,0,0,2.4-.145l3.415-8.138a1.275,1.275,0,0,0-.8-1.6,1.329,1.329,0,0,0-1.6.654l-2.252,5.522-2.252-5.377a1.288,1.288,0,0,0-2.4-.073l-2.252,5.522-2.252-5.449a1.269,1.269,0,1,0-2.325,1.017Z" transform="translate(-21.802 -15.51)"/>
      <path id="Trazado_167529" data-name="Trazado 167529" d="M31.786,66.536l2.252-5.3,2.252,5.522a1.29,1.29,0,0,0,2.4-.145L42.1,58.471a1.237,1.237,0,0,0-.727-1.6,1.3,1.3,0,0,0-1.6.654l-2.252,5.522-2.252-5.377a1.288,1.288,0,0,0-2.4-.073l-2.252,5.522-2.252-5.449a1.349,1.349,0,0,0-1.671-.727,1.319,1.319,0,0,0-.727,1.671L29.461,66.9a1.291,1.291,0,0,0,2.325-.363Z" transform="translate(-7.08 -15.538)"/>
    </g>
  </g>
</svg>
