<svg xmlns="http://www.w3.org/2000/svg" width="86" height="86" viewBox="0 0 86 86">
  <g id="icon2" transform="translate(-580 -3641)">
    <g id="Grupo_53259" data-name="Grupo 53259" transform="translate(579.563 3641)">
      <circle id="Elipse_3951" data-name="Elipse 3951" cx="38.5" cy="38.5" r="38.5" transform="translate(5.437 5)" fill="#36a3f7"/>
      <g id="Elipse_3952" data-name="Elipse 3952" transform="translate(0.437)" fill="none" stroke="#d1d1d1" stroke-width="1">
        <circle cx="43" cy="43" r="43" stroke="none"/>
        <circle cx="43" cy="43" r="42.5" fill="none"/>
      </g>
    </g>
    <g id="decree" transform="translate(580 3642.417)">
      <g id="Grupo_104041" data-name="Grupo 104041" transform="translate(17.962 15.55)">
        <path id="Trazado_173310" data-name="Trazado 173310" d="M48.679,102.476a5.066,5.066,0,0,1-5.066,5.066h31.13a5.073,5.073,0,0,0,5.073-5.073H48.679Z" transform="translate(-29.899 -54.973)" fill="#8b7a7a"/>
        <path id="Trazado_173311" data-name="Trazado 173311" d="M62.17,16.336h-26.9v47.78a4.789,4.789,0,0,0,4.789,4.789H71a6.694,6.694,0,0,1-4.038-6.145V21.127a4.789,4.789,0,0,0-4.789-4.791Z" transform="translate(-26.155 -16.336)" fill="#bfb1b0"/>
        <path id="Trazado_173312" data-name="Trazado 173312" d="M49.881,21.4a5.066,5.066,0,0,1,5.068-5.066H23.817a5.073,5.073,0,0,0-5.073,5.073H49.882Z" transform="translate(-18.744 -16.336)" fill="#e9e1e0"/>
        <circle id="Elipse_5099" data-name="Elipse 5099" cx="8.088" cy="8.088" r="8.088" transform="translate(16.869 11.613)" fill="#ff9f01"/>
        <path id="Trazado_173313" data-name="Trazado 173313" d="M60.06,42.836l1.5,3.035,3.349.487L62.484,48.72l.572,3.336-3-1.575-3,1.575.572-3.336-2.424-2.362,3.349-.487Z" transform="translate(-35.103 -28.223)" fill="#ffd236"/>
        <g id="Grupo_104040" data-name="Grupo 104040" transform="translate(13.745 31.537)">
          <path id="Trazado_173314" data-name="Trazado 173314" d="M44.635,75.457H65.13a.965.965,0,1,0,0-1.93H44.635a.965.965,0,1,0,0,1.93Z" transform="translate(-43.67 -73.527)" fill="#e9e1e0"/>
          <path id="Trazado_173315" data-name="Trazado 173315" d="M65.13,81.194H44.635a.965.965,0,0,0,0,1.93H65.13a.965.965,0,1,0,0-1.93Z" transform="translate(-43.67 -76.966)" fill="#e9e1e0"/>
          <path id="Trazado_173316" data-name="Trazado 173316" d="M65.13,88.86H44.635a.965.965,0,0,0,0,1.93H65.13a.965.965,0,0,0,0-1.93Z" transform="translate(-43.67 -80.405)" fill="#e9e1e0"/>
        </g>
      </g>
      <g id="Grupo_104042" data-name="Grupo 104042" transform="translate(17 14.583)">
        <path id="Trazado_173317" data-name="Trazado 173317" d="M75.279,69.11H69.808a.965.965,0,0,0,0,1.93H74.2a4.11,4.11,0,0,1-3.792,3.132A5.724,5.724,0,0,1,67.138,69V59.3a.965.965,0,0,0-1.93,0V69a7.656,7.656,0,0,0,2.016,5.181H39.267a3.829,3.829,0,0,1-3.824-3.825V31.215a.965.965,0,0,0-1.93,0V70.356a5.761,5.761,0,0,0,5.754,5.755H70.208a6.043,6.043,0,0,0,6.036-6.036.965.965,0,0,0-.965-.965Z" transform="translate(-24.407 -21.611)"/>
        <path id="Trazado_173318" data-name="Trazado 173318" d="M91.952,73.524a.966.966,0,0,0-.965.965v.584a.965.965,0,1,0,1.93,0v-.584A.965.965,0,0,0,91.952,73.524Z" transform="translate(-50.188 -41.022)"/>
        <path id="Trazado_173319" data-name="Trazado 173319" d="M41.882,16.513h.735a.965.965,0,1,0,0-1.93h-.735a.965.965,0,1,0,0,1.93Z" transform="translate(-27.728 -14.583)" fill="#6a0000"/>
        <path id="Trazado_173320" data-name="Trazado 173320" d="M50.062,20.619V20.6a4.1,4.1,0,0,1,4.007-4.081,3.826,3.826,0,0,1,3.73,3.82V44.37a.965.965,0,1,0,1.93,0V20.338A5.757,5.757,0,0,0,54.353,14.6a.944.944,0,0,0-.19-.019h-18.1a.965.965,0,0,0,0,1.93H49.744a6.019,6.019,0,0,0-1.536,3.143H19.04a4.113,4.113,0,0,1,3.991-3.143h4.038a.965.965,0,1,0,0-1.93H23.033A6.043,6.043,0,0,0,17,20.619a.965.965,0,0,0,.965.965H49.1a.965.965,0,0,0,.965-.965Z" transform="translate(-17 -14.583)"/>
        <path id="Trazado_173321" data-name="Trazado 173321" d="M65.689,44.695a9.053,9.053,0,1,0-9.053,9.053,9.053,9.053,0,0,0,9.053-9.053Zm-16.176,0a7.123,7.123,0,1,1,7.123,7.123A7.123,7.123,0,0,1,49.513,44.695Z" transform="translate(-30.719 -24.029)"/>
        <path id="Trazado_173322" data-name="Trazado 173322" d="M61.82,52.121a.966.966,0,1,0,.9-1.709l-3-1.575a.968.968,0,0,0-.9,0l-1.268.665.242-1.408a.964.964,0,0,0-.276-.854l-1.024-1,1.415-.206a.963.963,0,0,0,.727-.528l.634-1.278.632,1.282a.963.963,0,0,0,.727.528l1.415.206-1.024,1a.965.965,0,1,0,1.347,1.382L64.8,46.261a.965.965,0,0,0-.535-1.646L61.414,44.2l-1.274-2.58a.964.964,0,0,0-1.73,0L57.136,44.2l-2.847.414a.965.965,0,0,0-.535,1.646l2.061,2.009-.486,2.836a.965.965,0,0,0,1.4,1.015l2.547-1.337Z" transform="translate(-33.356 -26.47)" fill="#6a0000"/>
        <path id="Trazado_173323" data-name="Trazado 173323" d="M65.126,73.524H44.632a.965.965,0,0,0,0,1.93H65.126a.965.965,0,0,0,0-1.93Z" transform="translate(-28.962 -41.022)" fill="#6a0000"/>
        <path id="Trazado_173324" data-name="Trazado 173324" d="M65.126,81.191H44.632a.965.965,0,0,0,0,1.93H65.126a.965.965,0,0,0,0-1.93Z" transform="translate(-28.962 -44.461)" fill="#6a0000"/>
        <path id="Trazado_173325" data-name="Trazado 173325" d="M65.126,88.857H44.632a.965.965,0,0,0,0,1.93H65.126a.965.965,0,1,0,0-1.93Z" transform="translate(-28.962 -47.9)" fill="#6a0000"/>
      </g>
    </g>
  </g>
</svg>
