<svg xmlns="http://www.w3.org/2000/svg" width="108" height="108" viewBox="0 0 108 108">
  <g id="icon5" transform="translate(-447 -887)">
    <circle id="Elipse_4723" data-name="Elipse 4723" cx="54" cy="54" r="54" transform="translate(447 887)" fill="#36a3f7"/>
    <g id="bill" transform="translate(466.379 905.327)">
      <path id="Trazado_163996" data-name="Trazado 163996" d="M291.135,8.39A16.5,16.5,0,1,1,275.31,20.18,16.5,16.5,0,0,1,291.135,8.39Zm0,0" transform="translate(-231.675 -6.75)" fill="#00efd1"/>
      <path id="Trazado_163997" data-name="Trazado 163997" d="M118.626,134.337v.017a8.567,8.567,0,0,1-8.566,8.559h-.027c-.2,0-.394-.008-.588-.02a8.567,8.567,0,0,1-7.971-8.556V128.8H72.761v-.075l.3-44.991h31.93l.023.008a16.522,16.522,0,0,0,13.609,21.084ZM84.742,99.5a2.629,2.629,0,1,0-2.754-2.626A2.691,2.691,0,0,0,84.742,99.5Zm0,10.876a2.629,2.629,0,1,0-2.754-2.627A2.692,2.692,0,0,0,84.742,110.376Zm0,10.873a2.629,2.629,0,1,0-2.754-2.626A2.69,2.69,0,0,0,84.742,121.249Zm0,0" transform="translate(-61.382 -70.309)" fill="#fedb41"/>
      <path id="Trazado_163998" data-name="Trazado 163998" d="M54.988,386v.02H16.777a8.567,8.567,0,0,1-8.566-8.559V371.9H47.018v5.541A8.567,8.567,0,0,0,54.988,386Zm0,0" transform="translate(-6.926 -313.415)" fill="#451991"/>
      <path id="Trazado_163999" data-name="Trazado 163999" d="M137.268,153.608a2.756,2.756,0,1,1-2.752-2.627A2.691,2.691,0,0,1,137.268,153.608Zm0,0" transform="translate(-111.156 -127.041)" fill="#00efd1"/>
      <path id="Trazado_164000" data-name="Trazado 164000" d="M137.268,223.149a2.756,2.756,0,1,1-2.752-2.626A2.692,2.692,0,0,1,137.268,223.149Zm0,0" transform="translate(-111.156 -185.71)" fill="#00efd1"/>
      <path id="Trazado_164001" data-name="Trazado 164001" d="M137.268,292.688a2.756,2.756,0,1,1-2.752-2.626A2.69,2.69,0,0,1,137.268,292.688Zm0,0" transform="translate(-111.156 -244.374)" fill="#00efd1"/>
      <g id="Grupo_102757" data-name="Grupo 102757" transform="translate(0 0.388)">
        <path id="Trazado_164002" data-name="Trazado 164002" d="M351.028,44.121l.031,0a1.185,1.185,0,0,0,.139-.009,2.8,2.8,0,0,1,2.773,2.794,1.251,1.251,0,1,0,2.5,0,5.3,5.3,0,0,0-4.163-5.173v-1.2a1.251,1.251,0,1,0-2.5,0V41.79a5.3,5.3,0,0,0,1.368,10.416A2.794,2.794,0,1,1,348.381,55a1.251,1.251,0,1,0-2.5,0,5.306,5.306,0,0,0,3.929,5.117v1.371a1.251,1.251,0,1,0,2.5,0V60.173a5.3,5.3,0,0,0-1.134-10.47,2.793,2.793,0,0,1-.149-5.582Zm0,0" transform="translate(-291.789 -33.199)" fill="#083863"/>
        <path id="Trazado_164003" data-name="Trazado 164003" d="M59.46.389A17.574,17.574,0,0,0,48.749,3.945,18.346,18.346,0,0,0,42.735,12.1H11.682a1.308,1.308,0,0,0-1.251,1.308l-.3,43.888H1.285A1.23,1.23,0,0,0,0,58.488v5.559a9.868,9.868,0,0,0,9.383,9.8v.028H48.011v-.036c.313.012.453.036.64.036h.027a9.837,9.837,0,0,0,9.811-9.827V35.885c.313.017.646.028.968.028a17.762,17.762,0,0,0,0-35.525ZM2.5,64.046V59.8H38.784v4.229a10.025,10.025,0,0,0,3.339,7.343H9.851A7.366,7.366,0,0,1,2.5,64.046Zm46.165,7.325H48.65c-.156,0-.35-.014-.53-.026a7.368,7.368,0,0,1-6.834-7.317V58.488A1.155,1.155,0,0,0,40.091,57.3H12.638L12.925,14.6H42.042a19.421,19.421,0,0,0-.344,3.552,18.51,18.51,0,0,0,1.519,7.238H31.39a1.251,1.251,0,1,0,0,2.5H44.575a17.576,17.576,0,0,0,11.411,7.678V64.044a7.334,7.334,0,0,1-7.319,7.326ZM59.46,33.411a15.2,15.2,0,0,1-2.048-.137h0a15.265,15.265,0,1,1,2.049.137Zm0,0" transform="translate(0 -0.388)" fill="#083863"/>
        <path id="Trazado_164004" data-name="Trazado 164004" d="M127.767,212.523a3.88,3.88,0,1,0,4,3.877,3.947,3.947,0,0,0-4-3.877Zm0,5.253a1.381,1.381,0,1,1,1.5-1.376A1.445,1.445,0,0,1,127.767,217.776Zm0,0" transform="translate(-104.407 -179.348)" fill="#083863"/>
        <path id="Trazado_164005" data-name="Trazado 164005" d="M210.649,229.281H193.97a1.251,1.251,0,1,0,0,2.5h16.679a1.251,1.251,0,1,0,0-2.5Zm0,0" transform="translate(-162.581 -193.486)" fill="#083863"/>
        <path id="Trazado_164006" data-name="Trazado 164006" d="M127.767,142.98a3.88,3.88,0,1,0,4,3.878A3.947,3.947,0,0,0,127.767,142.98Zm0,5.253a1.381,1.381,0,1,1,1.5-1.374A1.444,1.444,0,0,1,127.767,148.233Zm0,0" transform="translate(-104.407 -120.681)" fill="#083863"/>
        <path id="Trazado_164007" data-name="Trazado 164007" d="M127.767,282.063a3.879,3.879,0,1,0,4,3.877A3.947,3.947,0,0,0,127.767,282.063Zm0,5.251a1.38,1.38,0,1,1,1.5-1.374A1.444,1.444,0,0,1,127.767,287.314Zm0,0" transform="translate(-104.407 -238.013)" fill="#083863"/>
        <path id="Trazado_164008" data-name="Trazado 164008" d="M210.649,299.281H193.97a1.251,1.251,0,1,0,0,2.5h16.679a1.251,1.251,0,1,0,0-2.5Zm0,0" transform="translate(-162.581 -252.539)" fill="#083863"/>
      </g>
    </g>
  </g>
</svg>
