<svg xmlns="http://www.w3.org/2000/svg" width="101" height="101" viewBox="0 0 101 101">
  <g id="icon2" transform="translate(-637 -1384)">
    <circle id="Elipse_1147" data-name="Elipse 1147" cx="50.5" cy="50.5" r="50.5" transform="translate(637 1384)" fill="#6dc5db"/>
    <g id="icon2-2" data-name="icon2" transform="translate(650 1397)">
      <g id="Grupo_102664" data-name="Grupo 102664" transform="translate(1.108 1.108)">
        <ellipse id="Elipse_5037" data-name="Elipse 5037" cx="36.722" cy="36.722" rx="36.722" ry="36.722" fill="#cbe2ff"/>
        <path id="Trazado_160717" data-name="Trazado 160717" d="M229.078,7.5a37.064,37.064,0,0,0-4.668.294,36.726,36.726,0,0,1,0,72.856A36.724,36.724,0,1,0,229.078,7.5Z" transform="translate(-192.356 -7.5)" fill="#bed8fb"/>
        <g id="Grupo_102663" data-name="Grupo 102663" transform="translate(10.046 10.511)">
          <g id="Grupo_102662" data-name="Grupo 102662">
            <g id="Grupo_102661" data-name="Grupo 102661">
              <path id="Trazado_160718" data-name="Trazado 160718" d="M185.61,82.027a3.4,3.4,0,0,0-3.4-3.4h-11.7a7.816,7.816,0,0,0-7.816,7.816v8.677h27.572V86.57a3.4,3.4,0,0,0-3.4-3.4h-.114A1.147,1.147,0,0,1,185.61,82.027Z" transform="translate(-149.808 -78.631)" fill="#365e7d"/>
              <path id="Trazado_160719" data-name="Trazado 160719" d="M292.035,83.175h-.114a1.147,1.147,0,0,1-1.147-1.147,3.4,3.4,0,0,0-3.4-3.4H286.1V95.125h9.336V86.571a3.4,3.4,0,0,0-3.4-3.4Z" transform="translate(-254.972 -78.632)" fill="#2b4d66"/>
              <path id="Trazado_160720" data-name="Trazado 160720" d="M128.833,342.856a8.159,8.159,0,0,0-5.7-7.779L113.111,331.9l-10.952-.385L91.2,331.9l-10.026,3.174a8.16,8.16,0,0,0-5.7,7.779v2.739a36.619,36.619,0,0,0,26.611,11.485,39.276,39.276,0,0,0,4.422-.256,36.629,36.629,0,0,0,22.32-11.23v-2.739Z" transform="translate(-75.481 -294.148)" fill="#4a80aa"/>
              <path id="Trazado_160721" data-name="Trazado 160721" d="M255.8,374.407v-2.739a8.158,8.158,0,0,0-3.027-6.342A36.753,36.753,0,0,1,224.469,385.6a37.042,37.042,0,0,0,4.594.3,39.276,39.276,0,0,0,4.422-.256A36.63,36.63,0,0,0,255.8,374.407Z" transform="translate(-202.452 -322.96)" fill="#407093"/>
              <g id="Grupo_102651" data-name="Grupo 102651" transform="translate(19.193 34.826)">
                <path id="Trazado_160722" data-name="Trazado 160722" d="M220.033,317.1l-7.187-2.8-7.194,2.8c-1.724,8.174,4.668,21.479,6.633,25.3.164,0,.328.007.492.007.208,0,.415-.006.622-.01C215.368,338.571,221.757,325.269,220.033,317.1Z" transform="translate(-205.361 -314.3)" fill="#e4f6ff"/>
              </g>
              <path id="Trazado_160723" data-name="Trazado 160723" d="M227.7,399.54l-2.907,11.433,3.655,4.069c.643.013,1.282.011,1.926-.007L234.025,411l-2.914-11.464H227.7Z" transform="translate(-202.73 -352.118)" fill="#e28086"/>
              <path id="Trazado_160724" data-name="Trazado 160724" d="M245.412,492.6c.3.008.6.013.9.014.347,0,.692-.007,1.036-.016l1.851-2.046a36.438,36.438,0,0,1-4.491,1.259Z" transform="translate(-219.696 -429.676)" fill="#dd636e"/>
              <g id="Grupo_102659" data-name="Grupo 102659" transform="translate(12.888 9.201)">
                <g id="Grupo_102658" data-name="Grupo 102658" transform="translate(7.648 20.899)">
                  <g id="Grupo_102657" data-name="Grupo 102657">
                    <g id="Grupo_102656" data-name="Grupo 102656">
                      <g id="Grupo_102655" data-name="Grupo 102655">
                        <g id="Grupo_102654" data-name="Grupo 102654">
                          <g id="Grupo_102653" data-name="Grupo 102653">
                            <g id="Grupo_102652" data-name="Grupo 102652">
                              <path id="Trazado_160725" data-name="Trazado 160725" d="M226.724,288.787v-6.465H214.448v6.465c0,3.39,6.138,7.093,6.138,7.093S226.724,292.176,226.724,288.787Z" transform="translate(-214.448 -282.322)" fill="#ffddce"/>
                            </g>
                          </g>
                        </g>
                      </g>
                    </g>
                  </g>
                </g>
                <path id="Trazado_160726" data-name="Trazado 160726" d="M190.267,147.049H187.92a2.363,2.363,0,0,1-2.363-2.363v-1.293a2.5,2.5,0,0,0-3.277-2.369,18.477,18.477,0,0,1-11.594,0h0a2.494,2.494,0,0,0-3.277,2.369v1.294a2.363,2.363,0,0,1-2.363,2.363H162.7v3.864a1.788,1.788,0,0,0,1.788,1.788.588.588,0,0,1,.585.555,11.436,11.436,0,0,0,22.826,0,.588.588,0,0,1,.585-.555,1.788,1.788,0,0,0,1.788-1.788v-3.864Z" transform="translate(-162.695 -140.896)" fill="#ffddce"/>
                <path id="Trazado_160727" data-name="Trazado 160727" d="M260.22,147.052a2.363,2.363,0,0,1-2.363-2.363V143.4a2.5,2.5,0,0,0-3.277-2.369q-.669.221-1.349.388v12.763a11.433,11.433,0,0,1-5.7,9.72,11.424,11.424,0,0,0,12.662-10.639.588.588,0,0,1,.585-.555,1.788,1.788,0,0,0,1.788-1.788v-3.864H260.22Z" transform="translate(-234.995 -140.899)" fill="#ffcbbe"/>
              </g>
              <g id="Grupo_102660" data-name="Grupo 102660" transform="translate(15.722 34.826)">
                <path id="Trazado_160728" data-name="Trazado 160728" d="M186.687,314.3l-4.814,3.911,5.048,6.242a1.672,1.672,0,0,0,2.238.085l3.8-3.171Z" transform="translate(-181.873 -314.3)" fill="#f4fbff"/>
                <path id="Trazado_160729" data-name="Trazado 160729" d="M262.88,314.3l-6.009,7.067,3.568,3.051a1.672,1.672,0,0,0,2.245-.065l5.012-6.142Z" transform="translate(-245.788 -314.3)" fill="#f4fbff"/>
              </g>
            </g>
            <path id="Trazado_160730" data-name="Trazado 160730" d="M169.015,314.3l-7.066,3.471a1.07,1.07,0,0,0-.479,1.451l1.384,2.684a1.8,1.8,0,0,1-.327,2.1l-.861.86a1.793,1.793,0,0,0-.44,1.827c1.671,5.095,9.715,12.886,12.759,15.7q.307.008.615.011C172.392,338.111,164.57,321.8,169.015,314.3Z" transform="translate(-148.479 -279.474)" fill="#365e7d"/>
            <path id="Trazado_160731" data-name="Trazado 160731" d="M271.825,324a1.8,1.8,0,0,1-.327-2.1l1.384-2.684a1.07,1.07,0,0,0-.479-1.451l-7.066-3.471c4.444,7.5-3.373,23.8-5.583,28.1q.311-.005.622-.016c3.05-2.825,11.081-10.606,12.751-15.7a1.793,1.793,0,0,0-.44-1.827Z" transform="translate(-232.523 -279.474)" fill="#365e7d"/>
            <path id="Trazado_160732" data-name="Trazado 160732" d="M235.313,362.124l-3.738,3.122,1.9,2.407h3.409l1.9-2.549Z" transform="translate(-208.508 -320.231)" fill="#dd636e"/>
          </g>
        </g>
      </g>
      <path id="Trazado_160733" data-name="Trazado 160733" d="M75.661,37.83A37.83,37.83,0,1,0,37.223,75.653c.356.016,1.128,0,1.143,0h.039A37.82,37.82,0,0,0,75.661,37.83ZM37.83,2.217a35.616,35.616,0,0,1,27.78,57.9,9.231,9.231,0,0,0-6.466-8.625l-7.17-2.27c-.406-.347-.3-.2-6.9-3.468V42.682a12.533,12.533,0,0,0,5.237-8.989,2.9,2.9,0,0,0,2.411-2.855V19.558a4.509,4.509,0,0,0-4.5-4.5H48.1a.039.039,0,0,1-.039-.039,4.509,4.509,0,0,0-4.5-4.5h-11.7a8.934,8.934,0,0,0-8.924,8.924,1.108,1.108,0,1,0,2.217,0,6.715,6.715,0,0,1,6.707-6.707h11.7a2.29,2.29,0,0,1,2.288,2.288A2.258,2.258,0,0,0,48.1,17.271h.114a2.29,2.29,0,0,1,2.288,2.288v6.307H49.267a1.256,1.256,0,0,1-1.255-1.255V23.318A3.6,3.6,0,0,0,43.279,19.9a17.488,17.488,0,0,1-10.9,0,3.6,3.6,0,0,0-4.733,3.421v1.294a1.256,1.256,0,0,1-1.255,1.255H25.151V24.558a1.108,1.108,0,1,0-2.217,0v6.281a2.9,2.9,0,0,0,2.411,2.855,12.533,12.533,0,0,0,5.237,8.989v3.073c-6.587,3.264-6.5,3.127-6.9,3.468l-7.167,2.269a9.231,9.231,0,0,0-6.466,8.625,35.616,35.616,0,0,1,27.78-57.9ZM25.124,57.792l.861-.86a2.9,2.9,0,0,0,.529-3.388l-1.366-2.649,4.478-2.2a18.478,18.478,0,0,0-.232,6.237v0c.573,5.119,2.663,10.926,4.751,15.634-3.439-3.461-8.035-8.552-9.193-12.081a.681.681,0,0,1,.17-.7Zm.027-29.709h1.238a3.475,3.475,0,0,0,3.471-3.471V23.317A1.385,1.385,0,0,1,31.686,22a19.717,19.717,0,0,0,12.289,0A1.385,1.385,0,0,1,45.8,23.318v1.293a3.475,3.475,0,0,0,3.471,3.471h1.238v2.756a.68.68,0,0,1-.68.679,1.7,1.7,0,0,0-1.691,1.593,10.328,10.328,0,0,1-20.614,0,1.7,1.7,0,0,0-1.691-1.593.68.68,0,0,1-.679-.679V28.082ZM37.829,73.191c-.719-1.443-1.69-3.5-2.662-5.882l1.82-7.158h1.686l1.819,7.156C39.519,69.7,38.546,71.753,37.829,73.191Zm-1.457-19.8-2.92,2.439a.562.562,0,0,1-.718,0l-1.171-1.448a14.77,14.77,0,0,1,.432-5.93Zm-3.282,4.789a2.772,2.772,0,0,0,.838-.132l.988,1.249L33.8,63.69a51.824,51.824,0,0,1-1.639-5.67A2.773,2.773,0,0,0,33.091,58.183Zm5.889-.25H36.662l-.9-1.14,2.191-1.83,1.982,1.694Zm3.268-2.212L39.52,53.389,43.677,48.5a14.781,14.781,0,0,1,.423,5.844l-1.133,1.388A.562.562,0,0,1,42.248,55.721ZM37.828,45a12.467,12.467,0,0,0,5.03-1.057v2.1l-4.916,5.782-5.143-5.8V43.941A12.465,12.465,0,0,0,37.828,45Zm4.031,18.688-1.12-4.405,1.007-1.347a2.718,2.718,0,0,0,1.772-.013A51.45,51.45,0,0,1,41.859,63.687Zm-29.6-1.068v-2.29a7.025,7.025,0,0,1,4.923-6.722l5.909-1.871c.059.138,0,0,1.451,2.825a.686.686,0,0,1-.125.8l-.861.86a2.887,2.887,0,0,0-.71,2.957c1.415,4.312,6.98,10.284,10.8,14.021A35.34,35.34,0,0,1,12.262,62.618ZM42.011,73.2a84.18,84.18,0,0,0,6.8-7.4,1.108,1.108,0,1,0-1.735-1.38,77.121,77.121,0,0,1-5.568,6.162C43.6,65.86,45.7,60.034,46.267,54.9v-.006a18.438,18.438,0,0,0-.236-6.2l4.478,2.2-1.366,2.649a2.9,2.9,0,0,0,.529,3.388l.861.86a.682.682,0,0,1,.17.7,11.046,11.046,0,0,1-.785,1.767,1.108,1.108,0,0,0,1.95,1.053,13.228,13.228,0,0,0,.941-2.13,2.887,2.887,0,0,0-.71-2.957l-.861-.86a.687.687,0,0,1-.125-.8c1.442-2.8,1.392-2.689,1.451-2.826l5.911,1.871A7.025,7.025,0,0,1,63.4,60.328v2.29A35.338,35.338,0,0,1,42.011,73.2Z"/>
    </g>
  </g>
</svg>
