<svg xmlns="http://www.w3.org/2000/svg" width="108" height="108" viewBox="0 0 108 108">
  <g id="icon9" transform="translate(-447 -1490)">
    <circle id="Elipse_5079" data-name="Elipse 5079" cx="54" cy="54" r="54" transform="translate(447 1490)" fill="#36a3f7"/>
    <g id="check" transform="translate(461 1502)">
      <path id="Trazado_164017" data-name="Trazado 164017" d="M150.113,16.426c-17.683,4.224-31.445,20.606-31.445,39.305s13.762,35.081,31.446,39.305c17.682-4.224,31.445-20.606,31.445-39.305S167.8,20.65,150.113,16.426Zm0,0" transform="translate(-99.199 -13.731)" fill="#e8bef0"/>
      <path id="Trazado_164018" data-name="Trazado 164018" d="M173.933,177.442a4.92,4.92,0,0,1,0,6.96l-19.687,19.688a4.92,4.92,0,0,1-6.96,0l-9.844-9.844a4.921,4.921,0,0,1,6.96-6.96l6.364,6.364,16.208-16.208a4.92,4.92,0,0,1,6.96,0Zm0,0" transform="translate(-113.688 -147.125)" fill="#fff"/>
      <path id="Trazado_164019" data-name="Trazado 164019" d="M80.616,25.866A43.653,43.653,0,0,0,58.134,3.384a40.155,40.155,0,0,0-32.268,0A43.653,43.653,0,0,0,3.384,25.866a40.155,40.155,0,0,0,0,32.268A43.653,43.653,0,0,0,25.866,80.616a40.155,40.155,0,0,0,32.268,0A43.653,43.653,0,0,0,80.616,58.134a40.155,40.155,0,0,0,0-32.268ZM42,80.719C21.012,80.719,3.281,62.988,3.281,42S21.012,3.281,42,3.281,80.719,21.012,80.719,42,62.988,80.719,42,80.719Zm0,0" transform="translate(0 0)"/>
      <path id="Trazado_164020" data-name="Trazado 164020" d="M110.1,64.46A35.891,35.891,0,0,0,91.431,45.794,33.915,33.915,0,0,0,77.946,43a34.676,34.676,0,0,0-19.022,6.231,1.641,1.641,0,0,0,1.816,2.733,31.422,31.422,0,0,1,17.206-5.683A32.088,32.088,0,0,1,109.61,77.946,32.088,32.088,0,0,1,77.946,109.61,32.088,32.088,0,0,1,46.282,77.946a31.441,31.441,0,0,1,5.681-17.207,1.641,1.641,0,0,0-2.733-1.815A34.687,34.687,0,0,0,43,77.946a33.925,33.925,0,0,0,2.793,13.485A35.891,35.891,0,0,0,64.461,110.1a33.949,33.949,0,0,0,26.97,0A35.891,35.891,0,0,0,110.1,91.431a33.949,33.949,0,0,0,0-26.97Zm0,0" transform="translate(-35.946 -35.946)"/>
      <path id="Trazado_164021" data-name="Trazado 164021" d="M127.923,187.046l9.844,9.844a6.56,6.56,0,0,0,9.28,0L166.733,177.2a6.562,6.562,0,1,0-9.279-9.28L142.406,182.97l-5.2-5.2a6.562,6.562,0,1,0-9.28,9.28Zm2.32-6.96a3.28,3.28,0,0,1,4.64,0l7.524,7.524,17.367-17.368a3.281,3.281,0,1,1,4.64,4.64L144.726,194.57a3.28,3.28,0,0,1-4.64,0l-9.844-9.844a3.279,3.279,0,0,1,0-4.639Zm0,0" transform="translate(-105.328 -138.766)"/>
      <path id="Trazado_164022" data-name="Trazado 164022" d="M106.641,105a1.641,1.641,0,1,0,1.641,1.641A1.641,1.641,0,0,0,106.641,105Zm0,0" transform="translate(-87.773 -87.774)"/>
    </g>
  </g>
</svg>
