<svg xmlns="http://www.w3.org/2000/svg" width="62.559" height="63.314" viewBox="0 0 62.559 63.314">
  <g id="icon16" transform="translate(-30 -27.375)">
    <path id="Trazado_179828" data-name="Trazado 179828" d="M440.113,274.624a3.488,3.488,0,0,0-4.831-1l-.292.191,3.831,5.832.292-.191a3.487,3.487,0,0,0,1-4.833Z" transform="translate(-348.958 -211.686)" fill="#6addc7"/>
    <path id="Trazado_179829" data-name="Trazado 179829" d="M77.484,58H40.128A4.088,4.088,0,0,0,36,62.1v49.946a4.176,4.176,0,0,0,4.128,4.2H77.484a4.215,4.215,0,0,0,4.173-4.2V62.1A4.127,4.127,0,0,0,77.484,58ZM45.42,66.133a2.3,2.3,0,1,1,2.3-2.3,2.3,2.3,0,0,1-2.3,2.3Zm8.65,0a2.3,2.3,0,1,1,2.3-2.3,2.3,2.3,0,0,1-2.3,2.3Zm8.651,0a2.3,2.3,0,1,1,1.625-.673,2.3,2.3,0,0,1-1.625.673Zm8.65,0a2.3,2.3,0,1,1,2.3-2.3,2.3,2.3,0,0,1-2.3,2.3Z" transform="translate(-5.17 -26.387)" fill="#cae6ee"/>
    <path id="Trazado_179830" data-name="Trazado 179830" d="M298.468,311.374l-8.9,5.845L287.65,314.3l22.3-14.645,1.915,2.915Z" transform="translate(-222.003 -234.613)" fill="#e75163"/>
    <path id="Trazado_179831" data-name="Trazado 179831" d="M298.017,281.5l-22.3,14.645-1.916-2.917,12.734-8.362,9.567-6.283Z" transform="translate(-210.069 -216.45)" fill="#fb6771"/>
    <path id="Trazado_179832" data-name="Trazado 179832" d="M253.973,384.43l-.089.166-3.095,5.85,7.016-.184Z" transform="translate(-190.243 -307.655)" fill="#c79a83"/>
    <path id="Trazado_179833" data-name="Trazado 179833" d="M78.284,162.9a4.8,4.8,0,1,1-4.8,4.8,4.8,4.8,0,0,1,4.8-4.8Z" transform="translate(-37.464 -116.775)" fill="#81c83d"/>
    <path id="Trazado_179834" data-name="Trazado 179834" d="M78.284,262.9a4.8,4.8,0,1,1-4.8,4.8,4.8,4.8,0,0,1,4.8-4.8Z" transform="translate(-37.464 -202.939)" fill="#81c83d"/>
    <path id="Trazado_179835" data-name="Trazado 179835" d="M78.284,362.9a4.8,4.8,0,1,1-4.8,4.8,4.8,4.8,0,0,1,4.8-4.8Z" transform="translate(-37.464 -289.104)" fill="#81c83d"/>
    <path id="Trazado_179836" data-name="Trazado 179836" d="M40.151,112.044V62.1A4.088,4.088,0,0,1,44.279,58H40.128A4.088,4.088,0,0,0,36,62.1v49.946a4.176,4.176,0,0,0,4.128,4.2h4.151A4.176,4.176,0,0,1,40.151,112.044Z" transform="translate(-5.17 -26.387)" fill="#aac8ce"/>
    <g id="Grupo_104740" data-name="Grupo 104740" transform="translate(30 27.375)">
      <path id="Trazado_179837" data-name="Trazado 179837" d="M173.03,181.66h20.753a.83.83,0,0,0,0-1.66H173.03a.83.83,0,0,0,0,1.66Z" transform="translate(-152.526 -158.884)" fill="#284268"/>
      <path id="Trazado_179838" data-name="Trazado 179838" d="M92.643,183.456,90.8,185.219l-.748-.748a.83.83,0,1,0-1.174,1.174l1.322,1.322a.83.83,0,0,0,1.161.013l2.431-2.324a.83.83,0,1,0-1.147-1.2Z" transform="translate(-80.522 -161.663)" fill="#284268"/>
      <path id="Trazado_179839" data-name="Trazado 179839" d="M73.112,156.9a5.634,5.634,0,1,0,5.634,5.634A5.634,5.634,0,0,0,73.112,156.9Zm0,9.608a3.974,3.974,0,1,1,3.974-3.974,3.974,3.974,0,0,1-3.974,3.974Z" transform="translate(-62.293 -138.98)" fill="#284268"/>
      <path id="Trazado_179840" data-name="Trazado 179840" d="M173.03,281.66h20.753a.83.83,0,1,0,0-1.66H173.03a.83.83,0,1,0,0,1.66Z" transform="translate(-152.526 -245.048)" fill="#284268"/>
      <path id="Trazado_179841" data-name="Trazado 179841" d="M92.643,283.456,90.8,285.219l-.748-.748a.83.83,0,1,0-1.174,1.174l1.322,1.322a.83.83,0,0,0,1.161.013l2.431-2.324a.83.83,0,1,0-1.147-1.2Z" transform="translate(-80.522 -247.828)" fill="#284268"/>
      <path id="Trazado_179842" data-name="Trazado 179842" d="M73.112,256.9a5.634,5.634,0,1,0,5.634,5.634A5.634,5.634,0,0,0,73.112,256.9Zm0,9.608a3.974,3.974,0,1,1,3.974-3.974,3.974,3.974,0,0,1-3.974,3.974Z" transform="translate(-62.293 -225.144)" fill="#284268"/>
      <path id="Trazado_179843" data-name="Trazado 179843" d="M92.643,383.456,90.8,385.219l-.748-.748a.83.83,0,1,0-1.174,1.174l1.322,1.322a.83.83,0,0,0,1.161.013l2.431-2.324a.83.83,0,1,0-1.147-1.2Z" transform="translate(-80.522 -333.992)" fill="#284268"/>
      <path id="Trazado_179844" data-name="Trazado 179844" d="M73.112,356.9a5.634,5.634,0,1,0,5.634,5.634A5.634,5.634,0,0,0,73.112,356.9Zm0,9.608a3.974,3.974,0,1,1,3.974-3.974,3.974,3.974,0,0,1-3.974,3.974Z" transform="translate(-62.293 -311.309)" fill="#284268"/>
      <path id="Trazado_179845" data-name="Trazado 179845" d="M173.03,201.66H184.1a.83.83,0,1,0,0-1.66H173.03a.83.83,0,0,0,0,1.66Z" transform="translate(-152.526 -176.117)" fill="#284268"/>
      <path id="Trazado_179846" data-name="Trazado 179846" d="M173.03,301.66H184.1a.83.83,0,1,0,0-1.66H173.03a.83.83,0,0,0,0,1.66Z" transform="translate(-152.526 -262.281)" fill="#284268"/>
      <path id="Trazado_179847" data-name="Trazado 179847" d="M53.83,94.1a.83.83,0,0,0-.83.83V95.8a.83.83,0,0,0,1.66,0V94.93A.83.83,0,0,0,53.83,94.1Z" transform="translate(-49.818 -84.868)" fill="#284268"/>
      <path id="Trazado_179848" data-name="Trazado 179848" d="M53.83,119.391a.83.83,0,0,0-.83.83v8.025a.83.83,0,0,0,1.66,0v-8.025A.83.83,0,0,0,53.83,119.391Z" transform="translate(-49.818 -106.66)" fill="#284268"/>
      <path id="Trazado_179849" data-name="Trazado 179849" d="M89.115,60.625a4.292,4.292,0,0,0-3.247.62l-8.55,5.615V35.711a4.962,4.962,0,0,0-5-4.929H67.079V28.205a.83.83,0,1,0-1.66,0v2.577H58.363V28.205a.83.83,0,1,0-1.66,0v2.577H49.785V28.205a.83.83,0,0,0-1.66,0v2.577H41.068V28.205a.83.83,0,1,0-1.66,0v2.577h-4.45A4.923,4.923,0,0,0,30,35.711V85.657a5.012,5.012,0,0,0,4.958,5.033H72.314a5.05,5.05,0,0,0,5-5.033V77.194l13.294-8.73a4.319,4.319,0,0,0-1.5-7.839ZM66.2,35.98a1.468,1.468,0,1,1-1.468,1.468A1.468,1.468,0,0,1,66.2,35.98Zm-8.65,0a1.468,1.468,0,1,1-1.468,1.468,1.468,1.468,0,0,1,1.468-1.468Zm-8.651,0a1.468,1.468,0,1,1-1.468,1.468A1.468,1.468,0,0,1,48.9,35.98Zm-8.65,0a1.468,1.468,0,1,1-1.468,1.468A1.468,1.468,0,0,1,40.251,35.98ZM75.657,85.657a3.388,3.388,0,0,1-3.343,3.372H34.958a3.349,3.349,0,0,1-3.3-3.372V35.711a3.261,3.261,0,0,1,3.3-3.269h4.45v1.991a3.222,3.222,0,0,0-2.292,3.016,3.127,3.127,0,1,0,6.255,0,3.069,3.069,0,0,0-2.3-3.016V32.442h7.056v1.991A3.089,3.089,0,0,0,45.8,37.449a3.132,3.132,0,1,0,6.263,0,3.21,3.21,0,0,0-2.278-3.016V32.442H56.7v1.991a3.219,3.219,0,0,0-2.289,3.016,3.127,3.127,0,0,0,6.254,0,3.071,3.071,0,0,0-2.3-3.016V32.442h7.056v1.991A3.085,3.085,0,0,0,63.1,37.449a3.131,3.131,0,0,0,6.262,0,3.213,3.213,0,0,0-2.28-3.016V32.442h5.235a3.3,3.3,0,0,1,3.343,3.269V67.95L72.539,70a.83.83,0,1,0,.911,1.387l12.344-8.106,1,1.528L65.885,78.542l-1-1.528,3.929-2.58a.83.83,0,0,0-.911-1.388l-4.62,3.033-.025.019c-.021.015-.042.03-.062.047l-.019.018H50.5a.83.83,0,1,0,0,1.66H62.238l-.588,1.111c-.026,0-.051,0-.078,0H50.5a.83.83,0,0,0,0,1.66H60.773l-.96,1.813a.83.83,0,0,0,.733,1.218h.022l7.016-.184c.017,0,.034,0,.051,0s.036,0,.054-.005.043-.009.065-.014.032-.006.047-.011a.824.824,0,0,0,.106-.04.257.257,0,0,0,.025-.014.828.828,0,0,0,.078-.043l.008,0,7.639-5.016Zm-9.607-3.84-4.1.107L63.808,78.4Zm1.751-.359-.064-.1L66.8,79.93,87.709,66.2l1,1.528ZM90.077,66.775,87.206,62.4a2.679,2.679,0,0,1,2.224.067,2.376,2.376,0,0,1,.55.366,2.667,2.667,0,0,1,.1,3.937Z" transform="translate(-30 -27.375)" fill="#284268"/>
    </g>
  </g>
</svg>
