<svg xmlns="http://www.w3.org/2000/svg" width="87" height="87" viewBox="0 0 87 87">
  <g id="icon7" transform="translate(-390 -8096)">
    <circle id="Elipse_5102" data-name="Elipse 5102" cx="43.5" cy="43.5" r="43.5" transform="translate(390 8096)" fill="#36a3f7"/>
    <g id="worldwide" transform="translate(400 8106)">
      <g id="Grupo_104685" data-name="Grupo 104685" transform="translate(3.624 3.438)">
        <path id="Trazado_179663" data-name="Trazado 179663" d="M301.573,41.127l-3.327,2.218L292.7,42.236l-3.327-1.109-4.436,1.109-3.327-1.109,2.218-4.436h4.436l4.347-2.174A31.811,31.811,0,0,1,301.573,41.127Z" transform="translate(-248.63 -33.475)" fill="#03aa6f"/>
        <path id="Trazado_179664" data-name="Trazado 179664" d="M55.318,29.715l-1.109,3.327-3.327,1.109L47.555,39.7,42.01,43.023l-7.763,1.109v3.327l2.218,2.218v4.436L33.138,51.9l-3.327-2.218-1.93-5.8A32.141,32.141,0,0,1,45.514,26.5l3.15,2.107Z" transform="translate(-27.881 -26.499)" fill="#03aa6f"/>
        <path id="Trazado_179665" data-name="Trazado 179665" d="M100.142,223.323l-1.109,5.545L94.6,233.3v3.327l-4.436,3.327V245.5l-3.327-1.109-2.218-5.545v-11.09l-5.545-1.109-2.218-4.436v-3.327l2.218-2.218,3.327-3.327,2.218,4.436h7.763l3.327,5.545Z" transform="translate(-70.487 -189.055)" fill="#03aa6f"/>
        <path id="Trazado_179666" data-name="Trazado 179666" d="M298.92,121.524a32.13,32.13,0,0,1-1.774,34.235l-2.994-2.994v-4.436l-2.218-4.436-2.218-4.436v-4.436l-3.327-2.218-4.436,1.109-7.763-3.327-1.109-7.763,3.327-3.327h6.654l2.218,3.327,6.654,1.109,6.654-2.218Z" transform="translate(-241.208 -107.407)" fill="#03aa6f"/>
      </g>
      <path id="Trazado_179667" data-name="Trazado 179667" d="M47.444,19.674l4.436-1.109,3.327,1.109,5.545,1.109,3.327-2.218a31.672,31.672,0,0,1,4.769,6.465l-.333.188-6.654,2.218-6.654-1.109L52.989,23H46.335l-3.327,3.327,1.109,7.763,7.763,3.327,4.436-1.109,3.327,2.218v4.436L61.861,47.4l2.218,4.436v4.436l2.994,2.994A32.161,32.161,0,0,1,11.135,28.291l1.93,5.8,3.327,2.218,3.327,2.218L17.5,40.745v3.327l2.218,4.436,5.545,1.109v11.09l2.218,5.545,3.327,1.109V61.816l4.436-3.327V55.162l4.436-4.436,1.109-5.545H36.354l-3.327-5.545H25.264L23.046,35.2l-3.327,3.327V34.091L17.5,31.873V28.546l7.763-1.109,5.545-3.327,3.327-5.545,3.327-1.109,1.109-3.327L31.918,13.02l-3.15-2.107a32.163,32.163,0,0,1,26.35,1.042l-4.347,2.174H46.335l-2.218,4.436Z" transform="translate(-7.511 -7.475)" fill="#86daf1"/>
      <path id="Trazado_179668" data-name="Trazado 179668" d="M33.278,66.591A33.27,33.27,0,1,0,2.7,20.226l-.415.138.161.482A33.251,33.251,0,0,0,33.278,66.591ZM59.387,50.1l-1.711-1.71V44.411a1.111,1.111,0,0,0-.111-.5L53.24,35.277V31.1a1.11,1.11,0,0,0-.494-.923L49.42,27.962a1.11,1.11,0,0,0-.887-.153l-4.074,1.018-6.844-2.937-.941-6.6,2.609-2.608h5.6l1.885,2.833A1.108,1.108,0,0,0,47.51,20l6.654,1.109a1.1,1.1,0,0,0,.532-.042l6.128-2.043A30.942,30.942,0,0,1,59.383,50.1h0ZM54.81,10.979l-1.8,1.2L47.98,11.175,44.719,10.09a1.09,1.09,0,0,0-.619-.024L39.976,11.1l-1.808-.6,1.34-2.679h3.751a1.115,1.115,0,0,0,.5-.116l3.837-1.919A31.164,31.164,0,0,1,54.81,10.979ZM21.131,4.745,23.793,6.52a1.115,1.115,0,0,0,.434.171l5.374.9-.524,1.569-2.8.935a1.11,1.11,0,0,0-.6.48l-3.185,5.308-5.116,3.07L9.834,20.025a1.109,1.109,0,0,0-.954,1.1v3.327a1.106,1.106,0,0,0,.325.784L11.1,27.126v1.905L6.485,25.955l-1.673-5.02A31.23,31.23,0,0,1,21.131,4.745ZM17.974,41.106l-5.013-1L11.1,36.386V33.78l4.132-4.132,1.529,3.06a1.109,1.109,0,0,0,.993.613h7.135l3,5.007a1.109,1.109,0,0,0,.95.538h3.083l-.776,3.889-4.2,4.2a1.107,1.107,0,0,0-.326.784V50.51L22.632,53.5a1.108,1.108,0,0,0-.444.887V58.4l-1.38-.457L18.861,53.07V42.193A1.109,1.109,0,0,0,17.974,41.106ZM3.581,24.254,4.5,27.017a1.109,1.109,0,0,0,.436.572l5.528,3.685L9.205,32.537a1.106,1.106,0,0,0-.325.784v3.327a1.115,1.115,0,0,0,.116.5l2.218,4.436a1.109,1.109,0,0,0,.776.591l4.658.93V53.283a1.112,1.112,0,0,0,.079.411l2.218,5.545a1.11,1.11,0,0,0,.68.64l3.327,1.109a1.072,1.072,0,0,0,.345.058,1.109,1.109,0,0,0,1.109-1.109v-4.99L28.4,51.952a1.108,1.108,0,0,0,.444-.887V48.2l4.111-4.111a1.116,1.116,0,0,0,.3-.567l1.109-5.545a1.11,1.11,0,0,0-.871-1.305,1.091,1.091,0,0,0-.216-.021H29.47l-3-5.007a1.109,1.109,0,0,0-.95-.538H18.438L16.533,27.28a1.107,1.107,0,0,0-.815-.6,1.087,1.087,0,0,0-.962.311l-1.439,1.434V26.667a1.106,1.106,0,0,0-.325-.784L11.1,23.99V22.083l6.811-.973a1.1,1.1,0,0,0,.414-.148l5.545-3.327a1.109,1.109,0,0,0,.379-.379l3.116-5.193,2.938-.98a1.1,1.1,0,0,0,.7-.7l1.109-3.327a1.109,1.109,0,0,0-.705-1.4,1.18,1.18,0,0,0-.164-.041l-6.419-1.07L23.7,3.792a30.966,30.966,0,0,1,21.328.793L43,5.6H38.823a1.108,1.108,0,0,0-1,.613l-2.218,4.436a1.109,1.109,0,0,0,.5,1.487,1.167,1.167,0,0,0,.144.06L39.576,13.3a1.09,1.09,0,0,0,.619.024l4.123-1.03L47.339,13.3a.794.794,0,0,0,.133.035l5.545,1.109a1.1,1.1,0,0,0,.833-.164L56.374,12.6a31.321,31.321,0,0,1,3.336,4.457l-5.456,1.819-5.908-.985-1.952-2.928a1.109,1.109,0,0,0-.917-.494H38.823a1.106,1.106,0,0,0-.784.325L34.712,18.12a1.107,1.107,0,0,0-.314.941l1.109,7.763a1.108,1.108,0,0,0,.665.862l7.763,3.327a1.093,1.093,0,0,0,.705.057l3.96-.99L51.022,31.7v3.843a1.111,1.111,0,0,0,.111.5l4.325,8.638v4.174a1.106,1.106,0,0,0,.325.784l2.32,2.321a31.044,31.044,0,0,1-54.522-27.7Z" transform="translate(0 -0.051)" fill="#0e2990"/>
    </g>
  </g>
</svg>
