<svg xmlns="http://www.w3.org/2000/svg" width="610" height="392.803" viewBox="0 0 610 392.803">
  <g id="img12" transform="translate(-65.13 -64.477)">
    <g id="freepik--background-complete--inject-18" transform="translate(89.623 64.477)">
      <path id="Trazado_163579" data-name="Trazado 163579" d="M602.9,159.474h62.737s-5.547-10.1-21.7-8.623c-15.421,1.406-16.2-4.971-24.044-5.752S605.508,150.323,602.9,159.474Z" transform="translate(-102.202 -66.361)" fill="#f5f5f5"/>
      <path id="Trazado_163580" data-name="Trazado 163580" d="M353.33,89.4H461.655s-9.581-17.432-37.463-14.893c-26.632,2.442-27.99-8.545-41.525-9.913S357.891,73.631,353.33,89.4Z" transform="translate(-96.365 -64.477)" fill="#ebebeb"/>
      <circle id="Elipse_5071" data-name="Elipse 5071" cx="10.743" cy="10.743" r="10.743" transform="translate(447.503 24.755) rotate(-41.73)" fill="#ebebeb"/>
      <path id="Trazado_163581" data-name="Trazado 163581" d="M563.854,111.852a45.687,45.687,0,0,1-.215-6.231,45.559,45.559,0,0,1,.215-6.231,45.569,45.569,0,0,1,.215,6.231,45.686,45.686,0,0,1-.215,6.231Z" transform="translate(-101.283 -65.293)" fill="#ebebeb"/>
      <path id="Trazado_163582" data-name="Trazado 163582" d="M584.419,90.695a98.111,98.111,0,0,1-12.979,0,98.111,98.111,0,0,1,12.979,0Z" transform="translate(-101.466 -65.085)" fill="#ebebeb"/>
      <path id="Trazado_163583" data-name="Trazado 163583" d="M563.994,72.08a38.4,38.4,0,0,1,.215,5.713,38.219,38.219,0,0,1-.215,5.7,38.219,38.219,0,0,1-.215-5.7,38.416,38.416,0,0,1,.215-5.713Z" transform="translate(-101.287 -64.655)" fill="#ebebeb"/>
      <path id="Trazado_163584" data-name="Trazado 163584" d="M557.74,91.485a110.426,110.426,0,0,1-13.77,0A110.42,110.42,0,0,1,557.74,91.485Z" transform="translate(-100.824 -65.103)" fill="#ebebeb"/>
      <path id="Trazado_163585" data-name="Trazado 163585" d="M558.821,87a32.657,32.657,0,0,1-3.906-3.565,31.653,31.653,0,0,1-3.565-3.906,32.65,32.65,0,0,1,3.906,3.565A32.644,32.644,0,0,1,558.821,87Z" transform="translate(-100.996 -64.829)" fill="#ebebeb"/>
      <path id="Trazado_163586" data-name="Trazado 163586" d="M575.512,79.7a19.454,19.454,0,0,1-2.725,3.076,19.621,19.621,0,0,1-3.047,2.783,20.171,20.171,0,0,1,2.734-3.086,20.047,20.047,0,0,1,3.037-2.774Z" transform="translate(-101.427 -64.833)" fill="#ebebeb"/>
      <path id="Trazado_163587" data-name="Trazado 163587" d="M576.267,103.127a31.157,31.157,0,0,1-3.76-3.447,29.3,29.3,0,0,1-3.447-3.76,29.3,29.3,0,0,1,3.76,3.447,30.188,30.188,0,0,1,3.447,3.76Z" transform="translate(-101.411 -65.212)" fill="#ebebeb"/>
      <path id="Trazado_163588" data-name="Trazado 163588" d="M561.323,95.1a53.537,53.537,0,0,1-4.61,4.932,55.866,55.866,0,0,1-4.883,4.619,50.986,50.986,0,0,1,4.6-4.883,55.292,55.292,0,0,1,4.893-4.668Z" transform="translate(-101.008 -65.193)" fill="#ebebeb"/>
      <path id="Trazado_163589" data-name="Trazado 163589" d="M159.34,175.769h52.737s-4.668-8.487-18.253-7.256c-12.969,1.182-13.673-4.17-20.226-4.834S161.537,168.073,159.34,175.769Z" transform="translate(-91.827 -66.796)" fill="#ebebeb"/>
      <path id="Trazado_163590" data-name="Trazado 163590" d="M586.59,444.07a1.857,1.857,0,0,1-.225.225l-.693.605c-.322.254-.732.537-1.221.879a17.58,17.58,0,0,1-1.807.977,20.07,20.07,0,0,1-5.391,1.631,30.752,30.752,0,0,1-7.452.215,58.869,58.869,0,0,1-8.887-1.592c-3.154-.752-6.494-1.66-10.069-2.276a34.709,34.709,0,0,0-11.309-.205,87.894,87.894,0,0,0-11.9,2.813,85.671,85.671,0,0,1-11.973,2.793,35.55,35.55,0,0,1-11.456-.283,101.194,101.194,0,0,1-10.059-2.461c-3.115-.9-6.016-1.709-8.7-2.315A46.639,46.639,0,0,0,478.138,444c-1.094,0-2.11,0-3.037.049a24.326,24.326,0,0,0-2.529.3l-1.953.43-1.416.488-.869.293a2.094,2.094,0,0,1-.313.088,1.308,1.308,0,0,1,.293-.137l.85-.342c.381-.146.85-.342,1.416-.537l1.953-.479a24.027,24.027,0,0,1,2.549-.352c.977-.117,1.953-.049,3.067-.088a45.562,45.562,0,0,1,7.383.977c2.7.586,5.616,1.377,8.731,2.256a97.784,97.784,0,0,0,10.04,2.4,35.16,35.16,0,0,0,11.3.264,86.421,86.421,0,0,0,11.9-2.793A86.792,86.792,0,0,1,539.469,444a35.031,35.031,0,0,1,11.456.244c3.6.625,6.944,1.553,10.088,2.324a59.276,59.276,0,0,0,8.789,1.651,30.949,30.949,0,0,0,7.383-.147,20.618,20.618,0,0,0,5.342-1.523,18.557,18.557,0,0,0,4.063-2.481Z" transform="translate(-99.047 -73.346)" fill="#e0e0e0"/>
      <path id="Trazado_163591" data-name="Trazado 163591" d="M208.79,460.121a1.483,1.483,0,0,1-.225.215l-.693.615q-.479.371-1.231.879a18.5,18.5,0,0,1-7.188,2.617,30.752,30.752,0,0,1-7.452.215,58.946,58.946,0,0,1-8.887-1.6c-3.154-.752-6.494-1.66-10.079-2.266a34.639,34.639,0,0,0-11.3-.215,89.355,89.355,0,0,0-11.9,2.813,85.742,85.742,0,0,1-11.983,2.8A35.537,35.537,0,0,1,126.4,465.9a98.536,98.536,0,0,1-10.059-2.461c-3.115-.889-6.016-1.709-8.7-2.3a44.392,44.392,0,0,0-7.325-1.074c-1.084,0-2.1-.059-3.027,0a23.838,23.838,0,0,0-2.529.312l-1.953.43-1.416.479-.879.3a1.278,1.278,0,0,1-.3.078l.283-.127.859-.342c.381-.146.85-.342,1.406-.537l1.953-.479a21.734,21.734,0,0,1,2.549-.352c.977-.117,1.953-.059,3.067-.088a43.482,43.482,0,0,1,7.383.977c2.7.576,5.615,1.377,8.731,2.256a97.576,97.576,0,0,0,10.03,2.4,35.226,35.226,0,0,0,11.309.254,86.421,86.421,0,0,0,11.924-2.705,86.749,86.749,0,0,1,11.964-2.813,34.973,34.973,0,0,1,11.446.234c3.613.635,6.953,1.563,10.1,2.324A59.041,59.041,0,0,0,192,464.32a30.889,30.889,0,0,0,7.373-.137,20.568,20.568,0,0,0,5.352-1.533,18.681,18.681,0,0,0,4.063-2.529Z" transform="translate(-90.21 -73.722)" fill="#e0e0e0"/>
      <path id="Trazado_163592" data-name="Trazado 163592" d="M383.294,448.7a13.217,13.217,0,0,0-1.8-1.289,13.8,13.8,0,0,0-5.674-1.807,27.578,27.578,0,0,0-8.858.664c-3.291.674-6.9,1.738-10.86,1.953s-7.637-.908-10.9-1.7a40.555,40.555,0,0,0-4.678-.977,18.421,18.421,0,0,0-4.131-.059,11.466,11.466,0,0,0-5.586,1.953,16.268,16.268,0,0,0-1.641,1.475,6.369,6.369,0,0,1,1.524-1.631,11.25,11.25,0,0,1,5.664-2.158,18.409,18.409,0,0,1,4.219,0,38.083,38.083,0,0,1,4.746.908c3.281.781,6.885,1.885,10.743,1.65a77.23,77.23,0,0,0,10.743-1.895,27.256,27.256,0,0,1,8.995-.566,13.34,13.34,0,0,1,5.733,2,8.194,8.194,0,0,1,1.289,1.035,2.871,2.871,0,0,1,.469.44Z" transform="translate(-95.799 -73.378)" fill="#e0e0e0"/>
      <rect id="Rectángulo_34533" data-name="Rectángulo 34533" width="1.914" height="69.466" transform="translate(495.6 181.086)" fill="#e0e0e0"/>
      <rect id="Rectángulo_34534" data-name="Rectángulo 34534" width="1.914" height="69.466" transform="translate(500.19 181.086)" fill="#e0e0e0"/>
      <rect id="Rectángulo_34535" data-name="Rectángulo 34535" width="1.914" height="69.466" transform="translate(517.691 181.086)" fill="#e0e0e0"/>
      <rect id="Rectángulo_34536" data-name="Rectángulo 34536" width="1.914" height="69.466" transform="translate(477.64 181.086)" fill="#e0e0e0"/>
      <rect id="Rectángulo_34537" data-name="Rectángulo 34537" width="19.864" height="1.963" transform="translate(477.64 181.086)" fill="#e0e0e0"/>
      <rect id="Rectángulo_34538" data-name="Rectángulo 34538" width="135.71" height="2.266" transform="translate(407.178 185.813)" fill="#e0e0e0"/>
      <rect id="Rectángulo_34539" data-name="Rectángulo 34539" width="41.008" height="2.119" transform="translate(478.597 215.814)" fill="#e0e0e0"/>
      <rect id="Rectángulo_34540" data-name="Rectángulo 34540" width="1.699" height="32.502" transform="translate(517.594 188.329) rotate(31.67)" fill="#e0e0e0"/>
      <rect id="Rectángulo_34541" data-name="Rectángulo 34541" width="1.699" height="32.502" transform="translate(495.655 187.5) rotate(31.67)" fill="#e0e0e0"/>
      <rect id="Rectángulo_34542" data-name="Rectángulo 34542" width="30.431" height="9.62" transform="translate(498.413 176.203)" fill="#e0e0e0"/>
      <path id="Trazado_163593" data-name="Trazado 163593" d="M539.179,255.294l47.971-36.721,17.081,28.546.645-.381-17.52-29.259-.332.254L538.73,254.708Z" transform="translate(-100.701 -68.056)" fill="#e0e0e0"/>
      <path id="Trazado_163594" data-name="Trazado 163594" d="M578.82,255.321l9.346-38.8L599.2,256.854Zm.928-.674,18.468,1.406-10-36.545Z" transform="translate(-101.639 -68.033)" fill="#e0e0e0"/>
      <rect id="Rectángulo_34543" data-name="Rectángulo 34543" width="206.289" height="12.637" transform="translate(379.217 249.058)" fill="#e0e0e0"/>
      <path id="Trazado_163595" data-name="Trazado 163595" d="M532.41,293h20.108v26.281H532.41Zm19.337.742H533.191v24.8h18.556Z" transform="translate(-100.553 -69.822)" fill="#e0e0e0"/>
      <rect id="Rectángulo_34544" data-name="Rectángulo 34544" width="16.075" height="27.033" transform="translate(451.565 223.52)" fill="#e0e0e0"/>
      <rect id="Rectángulo_34545" data-name="Rectángulo 34545" width="3.34" height="121.402" transform="translate(334.86 233.696) rotate(180)" fill="#e0e0e0"/>
      <rect id="Rectángulo_34546" data-name="Rectángulo 34546" width="3.34" height="121.402" transform="translate(326.822 233.696) rotate(180)" fill="#e0e0e0"/>
      <rect id="Rectángulo_34547" data-name="Rectángulo 34547" width="3.34" height="121.402" transform="translate(296.245 233.696) rotate(180)" fill="#e0e0e0"/>
      <rect id="Rectángulo_34548" data-name="Rectángulo 34548" width="3.34" height="121.402" transform="translate(366.238 233.696) rotate(180)" fill="#e0e0e0"/>
      <rect id="Rectángulo_34549" data-name="Rectángulo 34549" width="34.718" height="3.428" transform="translate(366.238 115.722) rotate(180)" fill="#e0e0e0"/>
      <rect id="Rectángulo_34550" data-name="Rectángulo 34550" width="237.17" height="3.955" transform="translate(489.379 124.511) rotate(180)" fill="#e0e0e0"/>
      <rect id="Rectángulo_34551" data-name="Rectángulo 34551" width="71.664" height="3.692" transform="translate(364.568 176.691) rotate(180)" fill="#e0e0e0"/>
      <rect id="Rectángulo_34552" data-name="Rectángulo 34552" width="2.979" height="56.8" transform="translate(326.241 173.281) rotate(148.33)" fill="#e0e0e0"/>
      <rect id="Rectángulo_34553" data-name="Rectángulo 34553" width="2.984" height="56.896" transform="matrix(-0.849, 0.529, -0.529, -0.849, 364.199, 174.222)" fill="#e0e0e0"/>
      <rect id="Rectángulo_34554" data-name="Rectángulo 34554" width="53.186" height="16.807" transform="translate(329.947 120.556) rotate(180)" fill="#e0e0e0"/>
      <path id="Trazado_163596" data-name="Trazado 163596" d="M532.55,188.9l-83.822-64.183L418.854,174.6l-1.1-.664,30.607-51.126.576.439,84.408,64.622Z" transform="translate(-97.871 -65.841)" fill="#e0e0e0"/>
      <path id="Trazado_163597" data-name="Trazado 163597" d="M429.57,191.612l19.288-70.482,16.339,67.8Zm19.21-65.3L431.3,190.186l32.277-2.432Z" transform="translate(-98.148 -65.802)" fill="#e0e0e0"/>
    </g>
    <g id="freepik--Sea--inject-18" transform="translate(67.933 369.686)">
      <path id="Trazado_163598" data-name="Trazado 163598" d="M183.355,419.8s-.693-.352-1.953-.977a14.854,14.854,0,0,0-5.537-1.69,18.917,18.917,0,0,0-4.014.313c-1.445.225-2.93.5-4.58.869a53.73,53.73,0,0,1-10.586,1.738c-3.858.068-7.4-1.084-10.577-1.836a35.435,35.435,0,0,0-4.561-.869,18.357,18.357,0,0,0-4.014,0,11.358,11.358,0,0,0-5.41,1.953,18.621,18.621,0,0,0-1.592,1.426,1.953,1.953,0,0,1,.322-.449A6.309,6.309,0,0,1,132,419.142a11.026,11.026,0,0,1,5.479-2.178,17.852,17.852,0,0,1,4.112-.068,33.722,33.722,0,0,1,4.619.83c3.2.742,6.69,1.856,10.459,1.787a55.773,55.773,0,0,0,10.5-1.69c1.611-.352,3.164-.615,4.619-.83a18.681,18.681,0,0,1,4.092-.254,14.3,14.3,0,0,1,5.606,1.875c.615.342,1.074.615,1.387.82A1.953,1.953,0,0,1,183.355,419.8Z" transform="translate(-69.463 -377.925)" fill="#263238"/>
      <path id="Trazado_163599" data-name="Trazado 163599" d="M676.085,380.643a12.228,12.228,0,0,0-1.8-1.289,13.6,13.6,0,0,0-5.664-1.816,27.345,27.345,0,0,0-8.858.674c-3.3.664-6.9,1.729-10.86,1.953s-7.647-.908-10.9-1.709a40.276,40.276,0,0,0-4.688-.977,18.974,18.974,0,0,0-4.131-.049,11.328,11.328,0,0,0-5.577,1.953A20.39,20.39,0,0,0,622,380.906a6.456,6.456,0,0,1,1.533-1.621,11.113,11.113,0,0,1,5.654-2.168,18.445,18.445,0,0,1,4.219,0,39.828,39.828,0,0,1,4.746.9c3.281.781,6.836,1.885,10.743,1.66s7.471-1.25,10.792-1.895a26.749,26.749,0,0,1,8.995-.566,13.165,13.165,0,0,1,5.733,2,8.532,8.532,0,0,1,1.3,1.025C675.967,380.486,676.1,380.623,676.085,380.643Z" transform="translate(-80.958 -376.996)" fill="#263238"/>
      <path id="Trazado_163600" data-name="Trazado 163600" d="M122.163,390.482c0,.049-.586-.537-1.8-1.289a13.75,13.75,0,0,0-5.664-1.807,27.56,27.56,0,0,0-8.858.664c-3.3.674-6.914,1.738-10.86,1.953s-7.647-.908-10.909-1.7a40.149,40.149,0,0,0-4.678-.977,18.419,18.419,0,0,0-4.131-.059,11.466,11.466,0,0,0-5.586,1.953,17.84,17.84,0,0,0-1.68,1.5,6.367,6.367,0,0,1,1.524-1.631,11.25,11.25,0,0,1,5.664-2.158,18.405,18.405,0,0,1,4.219,0,38.089,38.089,0,0,1,4.746.908c3.281.781,6.836,1.885,10.743,1.65a77.966,77.966,0,0,0,10.792-1.895,27.257,27.257,0,0,1,8.995-.566,13.291,13.291,0,0,1,5.733,2,8.357,8.357,0,0,1,1.3,1.035A3.078,3.078,0,0,1,122.163,390.482Z" transform="translate(-68 -377.226)" fill="#263238"/>
      <path id="Trazado_163601" data-name="Trazado 163601" d="M632.636,421.936a5.222,5.222,0,0,1-.83-.215c-.547-.147-1.338-.4-2.354-.723-2.041-.645-4.951-1.719-8.633-2.744a40.869,40.869,0,0,0-6.1-1.221,30.432,30.432,0,0,0-7.11,0c-5.01.547-10.391,2.08-16.212,2.822a30.618,30.618,0,0,1-8.555,0c-2.744-.371-5.352-.928-7.813-1.445-4.932-1.064-9.444-1.807-13.253-1.611a22.012,22.012,0,0,0-8.711,2.012,20.986,20.986,0,0,0-2.119,1.23,5.673,5.673,0,0,1-.723.479,12.47,12.47,0,0,1,2.754-1.885,21.486,21.486,0,0,1,8.79-2.2c3.906-.244,8.428.479,13.37,1.514s10.44,2.3,16.231,1.4c5.762-.742,11.153-2.256,16.212-2.793a30.709,30.709,0,0,1,7.217,0,41.991,41.991,0,0,1,6.153,1.289c3.682,1.084,6.573,2.207,8.594,2.93l2.324.811a4.21,4.21,0,0,1,.772.352Z" transform="translate(-79.279 -377.916)" fill="#263238"/>
    </g>
    <g id="freepik--Crane--inject-18" transform="translate(65.13 70.662)">
      <rect id="Rectángulo_34555" data-name="Rectángulo 34555" width="377.186" height="23.107" transform="translate(0 236.632)" fill="#263238"/>
      <path id="Trazado_163602" data-name="Trazado 163602" d="M200.22,312.469H163.89V264.81h36.33Zm-35.353-.977h34.377V265.787H164.867Z" transform="translate(-67.44 -75.348)" fill="#263238"/>
      <rect id="Rectángulo_34556" data-name="Rectángulo 34556" width="29.396" height="49.426" transform="translate(132.291 189.951)" fill="#263238"/>
      <rect id="Rectángulo_34557" data-name="Rectángulo 34557" width="3.496" height="181.054" transform="translate(212.803 58.85)" fill="#263238"/>
      <rect id="Rectángulo_34558" data-name="Rectángulo 34558" width="3.496" height="181.054" transform="translate(221.202 58.85)" fill="#263238"/>
      <rect id="Rectángulo_34559" data-name="Rectángulo 34559" width="3.496" height="181.054" transform="translate(253.205 58.85)" fill="#263238"/>
      <rect id="Rectángulo_34560" data-name="Rectángulo 34560" width="3.496" height="181.054" transform="translate(179.97 58.85)" fill="#263238"/>
      <rect id="Rectángulo_34561" data-name="Rectángulo 34561" width="36.32" height="3.594" transform="translate(179.97 58.85)" fill="#263238"/>
      <rect id="Rectángulo_34562" data-name="Rectángulo 34562" width="248.137" height="4.131" transform="translate(51.135 67.503)" fill="#263238"/>
      <rect id="Rectángulo_34563" data-name="Rectángulo 34563" width="74.984" height="3.867" transform="translate(181.718 122.359)" fill="#263238"/>
      <rect id="Rectángulo_34564" data-name="Rectángulo 34564" width="3.115" height="59.427" transform="translate(253.038 72.069) rotate(31.67)" fill="#263238"/>
      <rect id="Rectángulo_34565" data-name="Rectángulo 34565" width="3.115" height="59.427" transform="translate(212.844 70.607) rotate(31.67)" fill="#263238"/>
      <rect id="Rectángulo_34566" data-name="Rectángulo 34566" width="55.647" height="17.589" transform="translate(217.94 49.914)" fill="#263238"/>
      <path id="Trazado_163603" data-name="Trazado 163603" d="M175.956,140.794l-.6-.772L264.1,72.08l31.916,53.313-.83.508L263.831,73.525Z" transform="translate(-67.708 -70.84)" fill="#263238"/>
      <path id="Trazado_163604" data-name="Trazado 163604" d="M285.579,143.6l-36.789-2.774L265.656,70.81Zm-35.607-3.662,34.259,2.578L265.676,74.736Z" transform="translate(-69.426 -70.81)" fill="#263238"/>
      <path id="Trazado_163605" data-name="Trazado 163605" d="M100.3,210.75l2.959-16.055,18.282-54.924.928.313L104.2,194.938l-2.725,14.815,60.735-1.064-23.78-68.607.928-.322,24.22,69.876Z" transform="translate(-65.953 -72.423)" fill="#263238"/>
      <rect id="Rectángulo_34567" data-name="Rectángulo 34567" width="23.741" height="28.839" transform="translate(19.229 123.287)" fill="#263238"/>
      <rect id="Rectángulo_34568" data-name="Rectángulo 34568" width="66.39" height="28.839" transform="translate(42.981 123.287)" fill="#263238"/>
      <path id="Trazado_163606" data-name="Trazado 163606" d="M97.484,225.9c-.146,0-.254-6.407-.254-14.3s.107-14.3.254-14.3.254,6.4.254,14.3S97.621,225.9,97.484,225.9Z" transform="translate(-65.881 -73.769)" fill="#455a64"/>
      <path id="Trazado_163607" data-name="Trazado 163607" d="M109.134,225.9c-.137,0-.254-6.407-.254-14.3s.117-14.3.254-14.3.254,6.4.254,14.3S109.271,225.9,109.134,225.9Z" transform="translate(-66.153 -73.769)" fill="#455a64"/>
      <path id="Trazado_163608" data-name="Trazado 163608" d="M171.861,222.673v-1.553c0-1.025,0-2.49-.049-4.375,0-3.809-.049-9.3-.088-16.143l.166.176-59.827.078c-.234.234.3-.3.254-.244h0v22.052l-.322-.2,42.8.117,12.481.068h4.238a1.873,1.873,0,0,1,.3,0h-4.4l-12.432.068-42.971.117h-.254V200.534h0l.264-.264,59.827.088h.176v.166c0,6.836-.068,12.413-.1,16.251v5.449a1.553,1.553,0,0,1-.068.449Z" transform="translate(-66.221 -73.838)" fill="#455a64"/>
      <path id="Trazado_163609" data-name="Trazado 163609" d="M116.764,222.681c-.146,0-.254-4.942-.254-11.036s.107-11.036.254-11.036.254,4.942.254,11.036S116.9,222.681,116.764,222.681Z" transform="translate(-66.332 -73.846)" fill="#455a64"/>
      <path id="Trazado_163610" data-name="Trazado 163610" d="M122.524,222.681c-.146,0-.254-4.942-.254-11.036s.107-11.036.254-11.036.254,4.942.254,11.036S122.661,222.681,122.524,222.681Z" transform="translate(-66.467 -73.846)" fill="#455a64"/>
      <path id="Trazado_163611" data-name="Trazado 163611" d="M128.284,222.681c-.137,0-.254-4.942-.254-11.036s.117-11.036.254-11.036.254,4.942.254,11.036S128.421,222.681,128.284,222.681Z" transform="translate(-66.601 -73.846)" fill="#455a64"/>
      <path id="Trazado_163612" data-name="Trazado 163612" d="M134.044,222.681c-.137,0-.254-4.942-.254-11.036s.117-11.036.254-11.036.254,4.942.254,11.036S134.19,222.681,134.044,222.681Z" transform="translate(-66.736 -73.846)" fill="#455a64"/>
      <path id="Trazado_163613" data-name="Trazado 163613" d="M139.8,222.681c-.137,0-.254-4.942-.254-11.036s.117-11.036.254-11.036.254,4.942.254,11.036S139.989,222.681,139.8,222.681Z" transform="translate(-66.871 -73.846)" fill="#455a64"/>
      <path id="Trazado_163614" data-name="Trazado 163614" d="M145.574,222.681c-.146,0-.264-4.942-.264-11.036s.117-11.036.264-11.036.254,4.942.254,11.036S145.71,222.681,145.574,222.681Z" transform="translate(-67.005 -73.846)" fill="#455a64"/>
      <path id="Trazado_163615" data-name="Trazado 163615" d="M151.334,222.681c-.146,0-.254-4.942-.254-11.036s.107-11.036.254-11.036.254,4.942.254,11.036S151.471,222.681,151.334,222.681Z" transform="translate(-67.14 -73.846)" fill="#455a64"/>
      <path id="Trazado_163616" data-name="Trazado 163616" d="M157.094,222.681c-.146,0-.254-4.942-.254-11.036s.107-11.036.254-11.036.254,4.942.254,11.036S157.231,222.681,157.094,222.681Z" transform="translate(-67.275 -73.846)" fill="#455a64"/>
      <path id="Trazado_163617" data-name="Trazado 163617" d="M162.854,222.681c-.137,0-.254-4.942-.254-11.036s.117-11.036.254-11.036.254,4.942.254,11.036S162.991,222.681,162.854,222.681Z" transform="translate(-67.41 -73.846)" fill="#455a64"/>
      <path id="Trazado_163618" data-name="Trazado 163618" d="M168.614,222.681c-.137,0-.254-4.942-.254-11.036s.117-11.036.254-11.036.254,4.942.254,11.036S168.76,222.681,168.614,222.681Z" transform="translate(-67.545 -73.846)" fill="#455a64"/>
    </g>
    <g id="freepik--Container--inject-18" transform="translate(121.186 234.254)">
      <path id="Trazado_163619" data-name="Trazado 163619" d="M514.987,288.341H505.24V271.7h6.885Z" transform="translate(-131.48 -239.101)" fill="#90caf9"/>
      <rect id="Rectángulo_34569" data-name="Rectángulo 34569" width="23.741" height="28.839" transform="translate(153.662 57.513)" fill="#90caf9"/>
      <rect id="Rectángulo_34570" data-name="Rectángulo 34570" width="23.741" height="28.839" transform="translate(153.662 57.513)" fill="#fff" opacity="0.4"/>
      <rect id="Rectángulo_34571" data-name="Rectángulo 34571" width="66.39" height="28.839" transform="translate(177.413 57.513)" fill="#90caf9"/>
      <rect id="Rectángulo_34572" data-name="Rectángulo 34572" width="66.39" height="28.839" transform="translate(177.413 57.513)" fill="#fff" opacity="0.2"/>
      <path id="Trazado_163620" data-name="Trazado 163620" d="M292.524,326.055c-.137,0-.254-6.407-.254-14.3s.117-14.288.254-14.288.254,6.4.254,14.288S292.67,326.055,292.524,326.055Z" transform="translate(-126.498 -239.704)" fill="#263238"/>
      <path id="Trazado_163621" data-name="Trazado 163621" d="M366.913,322.834a3.562,3.562,0,0,1,0-.4v-5.528c0-3.809-.059-9.3-.1-16.134l.176.166-59.827.088c-.234.225.3-.312.244-.254h0v22.062l-.244-.244,42.8.107,12.491.068h.117l-12.442.068-42.971.117h-.244V300.772h0c-.059.049.488-.488.264-.254l59.827.078h.176v.176c0,6.836-.078,12.4-.1,16.241v5.449a2.549,2.549,0,0,1-.176.371Z" transform="translate(-126.841 -239.773)" fill="#263238"/>
      <path id="Trazado_163622" data-name="Trazado 163622" d="M311.8,322.842c-.137,0-.254-4.942-.254-11.036s.117-11.026.254-11.026.254,4.932.254,11.026S311.989,322.842,311.8,322.842Z" transform="translate(-126.949 -239.781)" fill="#263238"/>
      <path id="Trazado_163623" data-name="Trazado 163623" d="M317.574,322.842c-.146,0-.264-4.942-.264-11.036s.117-11.026.264-11.026.254,4.932.254,11.026S317.71,322.842,317.574,322.842Z" transform="translate(-127.084 -239.781)" fill="#263238"/>
      <path id="Trazado_163624" data-name="Trazado 163624" d="M323.334,322.842c-.146,0-.254-4.942-.254-11.036s.107-11.026.254-11.026.254,4.932.254,11.026S323.471,322.842,323.334,322.842Z" transform="translate(-127.219 -239.781)" fill="#263238"/>
      <path id="Trazado_163625" data-name="Trazado 163625" d="M329.094,322.842c-.146,0-.254-4.942-.254-11.036s.107-11.026.254-11.026.254,4.932.254,11.026S329.231,322.842,329.094,322.842Z" transform="translate(-127.354 -239.781)" fill="#263238"/>
      <path id="Trazado_163626" data-name="Trazado 163626" d="M334.854,322.842c-.137,0-.254-4.942-.254-11.036s.117-11.026.254-11.026.254,4.932.254,11.026S334.991,322.842,334.854,322.842Z" transform="translate(-127.489 -239.781)" fill="#263238"/>
      <path id="Trazado_163627" data-name="Trazado 163627" d="M340.614,322.842c-.137,0-.254-4.942-.254-11.036s.117-11.026.254-11.026.254,4.932.254,11.026S340.76,322.842,340.614,322.842Z" transform="translate(-127.623 -239.781)" fill="#263238"/>
      <path id="Trazado_163628" data-name="Trazado 163628" d="M346.374,322.842c-.137,0-.254-4.942-.254-11.036s.117-11.026.254-11.026.254,4.932.254,11.026S346.52,322.842,346.374,322.842Z" transform="translate(-127.758 -239.781)" fill="#263238"/>
      <path id="Trazado_163629" data-name="Trazado 163629" d="M352.144,322.842c-.146,0-.254-4.942-.254-11.036s.107-11.026.254-11.026.254,4.932.254,11.026S352.281,322.842,352.144,322.842Z" transform="translate(-127.893 -239.781)" fill="#263238"/>
      <path id="Trazado_163630" data-name="Trazado 163630" d="M357.9,322.842c-.146,0-.254-4.942-.254-11.036s.107-11.026.254-11.026.254,4.932.254,11.026S358.041,322.842,357.9,322.842Z" transform="translate(-128.028 -239.781)" fill="#263238"/>
      <path id="Trazado_163631" data-name="Trazado 163631" d="M363.664,322.842c-.137,0-.254-4.942-.254-11.036s.117-11.026.254-11.026.254,4.932.254,11.026S363.8,322.842,363.664,322.842Z" transform="translate(-128.163 -239.781)" fill="#263238"/>
      <rect id="Rectángulo_34573" data-name="Rectángulo 34573" width="23.741" height="28.839" transform="translate(232.113)" fill="#90caf9"/>
      <rect id="Rectángulo_34574" data-name="Rectángulo 34574" width="23.741" height="28.839" transform="translate(232.113)" fill="#fff" opacity="0.4"/>
      <rect id="Rectángulo_34575" data-name="Rectángulo 34575" width="66.39" height="28.839" transform="translate(255.854)" fill="#90caf9"/>
      <rect id="Rectángulo_34576" data-name="Rectángulo 34576" width="66.39" height="28.839" transform="translate(255.854)" fill="#fff" opacity="0.2"/>
      <path id="Trazado_163632" data-name="Trazado 163632" d="M372.854,267.165c-.137,0-.254-6.407-.254-14.3s.117-14.3.254-14.3.254,6.407.254,14.3S372.991,267.165,372.854,267.165Z" transform="translate(-128.377 -238.326)" fill="#263238"/>
      <path id="Trazado_163633" data-name="Trazado 163633" d="M447.243,263.944a1.955,1.955,0,0,1,0-.4v-5.528c0-3.809-.059-9.3-.1-16.134l.176.166-59.837.088.254-.254h0v22.052l-.244-.244,42.8.107,12.491.068h.107l-12.432.068-42.971.117h-.244V241.892h0c-.059.049.479-.488.254-.264l59.837.088h.166v.176c0,6.836-.068,12.4-.088,16.241,0,1.865,0,3.32-.049,4.336v1.113A.43.43,0,0,1,447.243,263.944Z" transform="translate(-128.72 -238.396)" fill="#263238"/>
      <path id="Trazado_163634" data-name="Trazado 163634" d="M392.134,263.952c-.137,0-.254-4.942-.254-11.036s.117-11.026.254-11.026.254,4.932.254,11.026S392.271,263.952,392.134,263.952Z" transform="translate(-128.828 -238.404)" fill="#263238"/>
      <path id="Trazado_163635" data-name="Trazado 163635" d="M397.894,263.952c-.137,0-.254-4.942-.254-11.036s.117-11.026.254-11.026.254,4.932.254,11.026S397.992,263.952,397.894,263.952Z" transform="translate(-128.963 -238.404)" fill="#263238"/>
      <path id="Trazado_163636" data-name="Trazado 163636" d="M403.654,263.952c-.137,0-.254-4.942-.254-11.036s.117-11.026.254-11.026.254,4.932.254,11.026S403.8,263.952,403.654,263.952Z" transform="translate(-129.098 -238.404)" fill="#263238"/>
      <path id="Trazado_163637" data-name="Trazado 163637" d="M409.414,263.952c-.137,0-.254-4.942-.254-11.036s.117-11.026.254-11.026.264,4.932.264,11.026S409.56,263.952,409.414,263.952Z" transform="translate(-129.233 -238.404)" fill="#263238"/>
      <path id="Trazado_163638" data-name="Trazado 163638" d="M415.184,263.952c-.146,0-.254-4.942-.254-11.036s.107-11.026.254-11.026.254,4.932.254,11.026S415.321,263.952,415.184,263.952Z" transform="translate(-129.368 -238.404)" fill="#263238"/>
      <path id="Trazado_163639" data-name="Trazado 163639" d="M420.994,263.952c-.146,0-.254-4.942-.254-11.036s.107-11.026.254-11.026.254,4.932.254,11.026S421.082,263.952,420.994,263.952Z" transform="translate(-129.503 -238.404)" fill="#263238"/>
      <path id="Trazado_163640" data-name="Trazado 163640" d="M426.7,263.952c-.137,0-.254-4.942-.254-11.036s.117-11.026.254-11.026.254,4.932.254,11.026S426.841,263.952,426.7,263.952Z" transform="translate(-129.637 -238.404)" fill="#263238"/>
      <path id="Trazado_163641" data-name="Trazado 163641" d="M432.464,263.952c-.137,0-.254-4.942-.254-11.036s.117-11.026.254-11.026.254,4.932.254,11.026S432.61,263.952,432.464,263.952Z" transform="translate(-129.772 -238.404)" fill="#263238"/>
      <path id="Trazado_163642" data-name="Trazado 163642" d="M438.224,263.952c-.137,0-.254-4.942-.254-11.036s.117-11.026.254-11.026.254,4.932.254,11.026S438.37,263.952,438.224,263.952Z" transform="translate(-129.907 -238.404)" fill="#263238"/>
      <path id="Trazado_163643" data-name="Trazado 163643" d="M443.994,263.952c-.146,0-.264-4.942-.264-11.036s.117-11.026.264-11.026.254,4.932.254,11.026S444.13,263.952,443.994,263.952Z" transform="translate(-130.041 -238.404)" fill="#263238"/>
      <rect id="Rectángulo_34577" data-name="Rectángulo 34577" width="23.741" height="28.839" transform="translate(27.718 72.103)" fill="#90caf9"/>
      <rect id="Rectángulo_34578" data-name="Rectángulo 34578" width="23.741" height="28.839" transform="translate(27.718 72.103)" fill="#fff" opacity="0.4"/>
      <rect id="Rectángulo_34579" data-name="Rectángulo 34579" width="66.39" height="28.839" transform="translate(51.459 72.103)" fill="#90caf9"/>
      <rect id="Rectángulo_34580" data-name="Rectángulo 34580" width="66.39" height="28.839" transform="translate(51.459 72.103)" fill="#fff" opacity="0.2"/>
      <path id="Trazado_163644" data-name="Trazado 163644" d="M163.564,341c-.137,0-.254-6.4-.254-14.3s.117-14.288.254-14.288.254,6.4.254,14.288S163.7,341,163.564,341Z" transform="translate(-123.482 -240.053)" fill="#263238"/>
      <path id="Trazado_163645" data-name="Trazado 163645" d="M237.953,337.774a1.955,1.955,0,0,1,0-.4v-5.528c0-3.809-.059-9.3-.1-16.134l.176.166-59.837.088.254-.254h0v22.062l-.244-.244,42.8.117,12.491.068h.107l-12.432.068L178.2,337.9h-.244V315.712h0c-.059,0,.479-.488.254-.254l59.837.078h.166v.176c0,6.836-.068,12.4-.088,16.241,0,1.865,0,3.32-.049,4.336V337.4A.464.464,0,0,1,237.953,337.774Z" transform="translate(-123.825 -240.123)" fill="#263238"/>
      <path id="Trazado_163646" data-name="Trazado 163646" d="M182.844,337.782c-.146,0-.254-4.942-.254-11.036s.107-11.026.254-11.026.254,4.883.254,11.026S182.99,337.782,182.844,337.782Z" transform="translate(-123.933 -240.13)" fill="#263238"/>
      <path id="Trazado_163647" data-name="Trazado 163647" d="M188.6,337.782c-.137,0-.254-4.942-.254-11.036s.117-11.026.254-11.026.254,4.883.254,11.026S188.741,337.782,188.6,337.782Z" transform="translate(-124.068 -240.13)" fill="#263238"/>
      <path id="Trazado_163648" data-name="Trazado 163648" d="M194.364,337.782c-.137,0-.254-4.942-.254-11.036s.117-11.026.254-11.026.254,4.883.254,11.026S194.51,337.782,194.364,337.782Z" transform="translate(-124.202 -240.13)" fill="#263238"/>
      <path id="Trazado_163649" data-name="Trazado 163649" d="M200.124,337.782c-.137,0-.254-4.942-.254-11.036s.117-11.026.254-11.026.254,4.883.254,11.026S200.27,337.782,200.124,337.782Z" transform="translate(-124.337 -240.13)" fill="#263238"/>
      <path id="Trazado_163650" data-name="Trazado 163650" d="M205.894,337.782c-.146,0-.254-4.942-.254-11.036s.107-11.026.254-11.026.254,4.883.254,11.026S205.992,337.782,205.894,337.782Z" transform="translate(-124.472 -240.13)" fill="#263238"/>
      <path id="Trazado_163651" data-name="Trazado 163651" d="M211.654,337.782c-.146,0-.254-4.942-.254-11.036s.107-11.026.254-11.026.254,4.883.254,11.026S211.791,337.782,211.654,337.782Z" transform="translate(-124.607 -240.13)" fill="#263238"/>
      <path id="Trazado_163652" data-name="Trazado 163652" d="M217.414,337.782c-.137,0-.254-4.942-.254-11.036s.117-11.026.254-11.026.254,4.883.254,11.026S217.551,337.782,217.414,337.782Z" transform="translate(-124.742 -240.13)" fill="#263238"/>
      <path id="Trazado_163653" data-name="Trazado 163653" d="M223.174,337.782c-.137,0-.254-4.942-.254-11.036s.117-11.026.254-11.026.254,4.883.254,11.026S223.311,337.782,223.174,337.782Z" transform="translate(-124.876 -240.13)" fill="#263238"/>
      <path id="Trazado_163654" data-name="Trazado 163654" d="M228.934,337.782c-.137,0-.254-4.942-.254-11.036s.117-11.026.254-11.026.254,4.883.254,11.026S229.08,337.782,228.934,337.782Z" transform="translate(-125.011 -240.13)" fill="#263238"/>
      <path id="Trazado_163655" data-name="Trazado 163655" d="M234.694,337.782c-.137,0-.254-4.942-.254-11.036s.117-11.026.254-11.026.254,4.883.254,11.026S234.84,337.782,234.694,337.782Z" transform="translate(-125.146 -240.13)" fill="#263238"/>
      <rect id="Rectángulo_34581" data-name="Rectángulo 34581" width="23.741" height="28.839" transform="translate(180.792 28.996)" fill="#263238"/>
      <rect id="Rectángulo_34582" data-name="Rectángulo 34582" width="66.39" height="28.839" transform="translate(204.543 28.996)" fill="#263238"/>
      <path id="Trazado_163656" data-name="Trazado 163656" d="M320.3,296.845c-.137,0-.254-6.4-.254-14.288s.117-14.3.254-14.3.254,6.4.254,14.3S320.45,296.845,320.3,296.845Z" transform="translate(-127.148 -239.02)" fill="#455a64"/>
      <path id="Trazado_163657" data-name="Trazado 163657" d="M331.994,296.845c-.146,0-.254-6.4-.254-14.288s.107-14.3.254-14.3.254,6.4.254,14.3S332.1,296.845,331.994,296.845Z" transform="translate(-127.422 -239.02)" fill="#455a64"/>
      <path id="Trazado_163658" data-name="Trazado 163658" d="M394.691,293.626a3.158,3.158,0,0,1,0-.4c0-.283,0-.654,0-1.143V287.7c0-3.809-.059-9.3-.1-16.134l.176.176-59.827.078c-.234.225.3-.313.244-.254h0v22.042l-.244-.244,42.8.117,12.491.068h.039l-12.432.068-42.971.107h-.244v-22.14h0l.264-.254,59.827.078h.176v.176c0,6.885-.078,12.413-.1,16.241v5.459a2.311,2.311,0,0,1-.107.342Z" transform="translate(-127.489 -239.092)" fill="#455a64"/>
      <path id="Trazado_163659" data-name="Trazado 163659" d="M339.584,293.632c-.137,0-.254-4.942-.254-11.026s.117-11.036.254-11.036.254,4.942.254,11.036S339.73,293.632,339.584,293.632Z" transform="translate(-127.599 -239.098)" fill="#455a64"/>
      <path id="Trazado_163660" data-name="Trazado 163660" d="M345.344,293.632c-.137,0-.254-4.942-.254-11.026s.117-11.036.254-11.036.254,4.942.254,11.036S345.49,293.632,345.344,293.632Z" transform="translate(-127.734 -239.098)" fill="#455a64"/>
      <path id="Trazado_163661" data-name="Trazado 163661" d="M351.114,293.632c-.146,0-.254-4.942-.254-11.026s.107-11.036.254-11.036.254,4.942.254,11.036S351.251,293.632,351.114,293.632Z" transform="translate(-127.869 -239.098)" fill="#455a64"/>
      <path id="Trazado_163662" data-name="Trazado 163662" d="M356.874,293.632c-.146,0-.254-4.942-.254-11.026s.107-11.036.254-11.036.254,4.942.254,11.036S356.991,293.632,356.874,293.632Z" transform="translate(-128.004 -239.098)" fill="#455a64"/>
      <path id="Trazado_163663" data-name="Trazado 163663" d="M362.634,293.632c-.137,0-.254-4.942-.254-11.026s.117-11.036.254-11.036.254,4.942.254,11.036S362.771,293.632,362.634,293.632Z" transform="translate(-128.138 -239.098)" fill="#455a64"/>
      <path id="Trazado_163664" data-name="Trazado 163664" d="M368.394,293.632c-.137,0-.254-4.942-.254-11.026s.117-11.036.254-11.036.254,4.942.254,11.036S368.54,293.632,368.394,293.632Z" transform="translate(-128.273 -239.098)" fill="#455a64"/>
      <path id="Trazado_163665" data-name="Trazado 163665" d="M374.154,293.632c-.137,0-.254-4.942-.254-11.026s.117-11.036.254-11.036.254,4.942.254,11.036S374.3,293.632,374.154,293.632Z" transform="translate(-128.408 -239.098)" fill="#455a64"/>
      <path id="Trazado_163666" data-name="Trazado 163666" d="M379.914,293.632c-.137,0-.254-4.942-.254-11.026s.117-11.036.254-11.036.264,4.942.264,11.036S380.06,293.632,379.914,293.632Z" transform="translate(-128.543 -239.098)" fill="#455a64"/>
      <path id="Trazado_163667" data-name="Trazado 163667" d="M385.684,293.632c-.146,0-.254-4.942-.254-11.026s.107-11.036.254-11.036.254,4.942.254,11.036S385.821,293.632,385.684,293.632Z" transform="translate(-128.678 -239.098)" fill="#455a64"/>
      <path id="Trazado_163668" data-name="Trazado 163668" d="M391.444,293.632c-.146,0-.254-4.942-.254-11.026s.107-11.036.254-11.036.254,4.942.254,11.036S391.581,293.632,391.444,293.632Z" transform="translate(-128.812 -239.098)" fill="#455a64"/>
      <rect id="Rectángulo_34583" data-name="Rectángulo 34583" width="23.741" height="28.839" transform="translate(123.357 87.28)" fill="#90caf9"/>
      <rect id="Rectángulo_34584" data-name="Rectángulo 34584" width="66.39" height="28.839" transform="translate(147.109 87.28)" fill="#90caf9"/>
      <rect id="Rectángulo_34585" data-name="Rectángulo 34585" width="66.39" height="28.839" transform="translate(147.109 87.28)" opacity="0.4"/>
      <path id="Trazado_163669" data-name="Trazado 163669" d="M261.5,356.535c-.146,0-.254-6.4-.254-14.3s.107-14.288.254-14.288.254,6.4.254,14.288S261.641,356.535,261.5,356.535Z" transform="translate(-125.773 -240.417)" fill="#263238"/>
      <path id="Trazado_163670" data-name="Trazado 163670" d="M335.88,353.311v-1.543c0-.977,0-2.5-.049-4.385,0-3.809-.049-9.3-.088-16.134l.166.166-59.827.088.254-.254h0v22.062l-.244-.244,42.8.117,12.481.068h4.238a1.874,1.874,0,0,1,.3,0h-4.5l-12.432.068-42.971.117h-.254V331.122h0c-.049.049.488-.488.264-.254l59.827.078h.176v.176c0,6.836-.068,12.4-.1,16.241v5.449A1.484,1.484,0,0,1,335.88,353.311Z" transform="translate(-126.112 -240.483)" fill="#263238"/>
      <path id="Trazado_163671" data-name="Trazado 163671" d="M280.784,353.322c-.146,0-.254-4.942-.254-11.036s.107-11.026.254-11.026.254,4.932.254,11.026S280.921,353.322,280.784,353.322Z" transform="translate(-126.224 -240.494)" fill="#263238"/>
      <path id="Trazado_163672" data-name="Trazado 163672" d="M286.544,353.322c-.146,0-.254-4.942-.254-11.036s.107-11.026.254-11.026.254,4.932.254,11.026S286.681,353.322,286.544,353.322Z" transform="translate(-126.359 -240.494)" fill="#263238"/>
      <path id="Trazado_163673" data-name="Trazado 163673" d="M292.3,353.322c-.137,0-.254-4.942-.254-11.036s.117-11.026.254-11.026.254,4.932.254,11.026S292.441,353.322,292.3,353.322Z" transform="translate(-126.493 -240.494)" fill="#263238"/>
      <path id="Trazado_163674" data-name="Trazado 163674" d="M298.064,353.322c-.137,0-.254-4.942-.254-11.036s.117-11.026.254-11.026.254,4.932.254,11.026S298.21,353.322,298.064,353.322Z" transform="translate(-126.628 -240.494)" fill="#263238"/>
      <path id="Trazado_163675" data-name="Trazado 163675" d="M303.824,353.322c-.137,0-.254-4.942-.254-11.036s.117-11.026.254-11.026.254,4.932.254,11.026S303.99,353.322,303.824,353.322Z" transform="translate(-126.763 -240.494)" fill="#263238"/>
      <path id="Trazado_163676" data-name="Trazado 163676" d="M309.584,353.322c-.137,0-.254-4.942-.254-11.036s.117-11.026.254-11.026.264,4.932.264,11.026S309.73,353.322,309.584,353.322Z" transform="translate(-126.898 -240.494)" fill="#263238"/>
      <path id="Trazado_163677" data-name="Trazado 163677" d="M315.354,353.322c-.146,0-.254-4.942-.254-11.036s.107-11.026.254-11.026.254,4.932.254,11.026S315.491,353.322,315.354,353.322Z" transform="translate(-127.033 -240.494)" fill="#263238"/>
      <path id="Trazado_163678" data-name="Trazado 163678" d="M321.114,353.322c-.146,0-.254-4.942-.254-11.036s.107-11.026.254-11.026.254,4.932.254,11.026S321.251,353.322,321.114,353.322Z" transform="translate(-127.167 -240.494)" fill="#263238"/>
      <path id="Trazado_163679" data-name="Trazado 163679" d="M326.874,353.322c-.137,0-.254-4.942-.254-11.036s.117-11.026.254-11.026.254,4.932.254,11.026S326.991,353.322,326.874,353.322Z" transform="translate(-127.302 -240.494)" fill="#263238"/>
      <path id="Trazado_163680" data-name="Trazado 163680" d="M332.634,353.322c-.137,0-.254-4.942-.254-11.036s.117-11.026.254-11.026.254,4.932.254,11.026S332.78,353.322,332.634,353.322Z" transform="translate(-127.437 -240.494)" fill="#263238"/>
      <rect id="Rectángulo_34586" data-name="Rectángulo 34586" width="23.741" height="28.839" transform="translate(199.24 86.342)" fill="#263238"/>
      <rect id="Rectángulo_34587" data-name="Rectángulo 34587" width="66.39" height="28.839" transform="translate(222.981 86.342)" fill="#263238"/>
      <path id="Trazado_163681" data-name="Trazado 163681" d="M339.194,355.575c-.146,0-.254-6.407-.254-14.3s.107-14.3.254-14.3.254,6.4.254,14.3S339.331,355.575,339.194,355.575Z" transform="translate(-127.59 -240.394)" fill="#455a64"/>
      <path id="Trazado_163682" data-name="Trazado 163682" d="M350.844,355.575c-.137,0-.254-6.407-.254-14.3s.117-14.3.254-14.3.254,6.4.254,14.3S350.99,355.575,350.844,355.575Z" transform="translate(-127.863 -240.394)" fill="#455a64"/>
      <path id="Trazado_163683" data-name="Trazado 163683" d="M413.562,352.354V350.8c0-1.025,0-2.49-.049-4.375,0-3.809-.049-9.3-.088-16.143l.166.176-59.827.088.254-.254h0v22.052l-.244-.244,42.8.107,12.481.068h.117l-12.432.068-42.971.117h-.244V330.3h0c-.059.049.479-.488.254-.264l59.827.088h.176v.166c0,6.836-.068,12.413-.1,16.251v5.449a1.551,1.551,0,0,1-.127.361Z" transform="translate(-127.931 -240.464)" fill="#455a64"/>
      <path id="Trazado_163684" data-name="Trazado 163684" d="M358.474,352.361c-.146,0-.254-4.942-.254-11.036s.107-11.036.254-11.036.254,4.942.254,11.036S358.611,352.361,358.474,352.361Z" transform="translate(-128.041 -240.471)" fill="#455a64"/>
      <path id="Trazado_163685" data-name="Trazado 163685" d="M364.234,352.361c-.146,0-.254-4.942-.254-11.036s.107-11.036.254-11.036.254,4.942.254,11.036S364.371,352.361,364.234,352.361Z" transform="translate(-128.176 -240.471)" fill="#455a64"/>
      <path id="Trazado_163686" data-name="Trazado 163686" d="M369.994,352.361c-.137,0-.254-4.942-.254-11.036s.117-11.036.254-11.036.254,4.942.254,11.036S370.131,352.361,369.994,352.361Z" transform="translate(-128.311 -240.471)" fill="#455a64"/>
      <path id="Trazado_163687" data-name="Trazado 163687" d="M375.754,352.361c-.137,0-.254-4.942-.254-11.036s.117-11.036.254-11.036.254,4.942.254,11.036S375.9,352.361,375.754,352.361Z" transform="translate(-128.445 -240.471)" fill="#455a64"/>
      <path id="Trazado_163688" data-name="Trazado 163688" d="M381.514,352.361c-.137,0-.254-4.942-.254-11.036s.117-11.036.254-11.036.254,4.942.254,11.036S381.66,352.361,381.514,352.361Z" transform="translate(-128.58 -240.471)" fill="#455a64"/>
      <path id="Trazado_163689" data-name="Trazado 163689" d="M387.284,352.361c-.146,0-.254-4.942-.254-11.036s.107-11.036.254-11.036.254,4.942.254,11.036S387.421,352.361,387.284,352.361Z" transform="translate(-128.715 -240.471)" fill="#455a64"/>
      <path id="Trazado_163690" data-name="Trazado 163690" d="M393.044,352.361c-.146,0-.254-4.942-.254-11.036s.107-11.036.254-11.036.254,4.942.254,11.036S393.181,352.361,393.044,352.361Z" transform="translate(-128.85 -240.471)" fill="#455a64"/>
      <path id="Trazado_163691" data-name="Trazado 163691" d="M398.8,352.361c-.137,0-.254-4.942-.254-11.036s.117-11.036.254-11.036.254,4.942.254,11.036S398.989,352.361,398.8,352.361Z" transform="translate(-128.984 -240.471)" fill="#455a64"/>
      <path id="Trazado_163692" data-name="Trazado 163692" d="M404.564,352.361c-.137,0-.254-4.942-.254-11.036s.117-11.036.254-11.036.254,4.942.254,11.036S404.7,352.361,404.564,352.361Z" transform="translate(-129.119 -240.471)" fill="#455a64"/>
      <path id="Trazado_163693" data-name="Trazado 163693" d="M410.324,352.361c-.137,0-.254-4.942-.254-11.036s.117-11.036.254-11.036.254,4.942.254,11.036S410.47,352.361,410.324,352.361Z" transform="translate(-129.254 -240.471)" fill="#455a64"/>
      <rect id="Rectángulo_34588" data-name="Rectángulo 34588" width="23.741" height="28.839" transform="translate(217.903 29.113)" fill="#455a64"/>
      <rect id="Rectángulo_34589" data-name="Rectángulo 34589" width="66.39" height="28.839" transform="translate(241.644 29.113)" fill="#455a64"/>
      <path id="Trazado_163694" data-name="Trazado 163694" d="M358.3,296.975c-.137,0-.254-6.407-.254-14.3s.117-14.3.254-14.3.254,6.407.254,14.3S358.45,296.975,358.3,296.975Z" transform="translate(-128.037 -239.023)" fill="#263238"/>
      <path id="Trazado_163695" data-name="Trazado 163695" d="M369.994,296.975c-.137,0-.254-6.407-.254-14.3s.117-14.3.254-14.3.254,6.407.254,14.3S370.1,296.975,369.994,296.975Z" transform="translate(-128.311 -239.023)" fill="#263238"/>
      <path id="Trazado_163696" data-name="Trazado 163696" d="M432.693,293.756a3.57,3.57,0,0,1,0-.4c0-.283,0-.664,0-1.152v-4.375c0-3.809-.059-9.3-.1-16.134l.176.166-59.837.088.254-.254h0v22.062l-.244-.244,42.8.107,12.491.068h.107l-12.432.068-42.971.117H372.7V271.694h0l.254-.254,59.837.078h.176v.176c-.049,6.836-.078,12.4-.1,16.241v5.449A.415.415,0,0,1,432.693,293.756Z" transform="translate(-128.38 -239.095)" fill="#263238"/>
      <path id="Trazado_163697" data-name="Trazado 163697" d="M377.584,293.762c-.137,0-.254-4.942-.254-11.036s.117-11.026.254-11.026.254,4.932.254,11.026S377.721,293.762,377.584,293.762Z" transform="translate(-128.488 -239.101)" fill="#263238"/>
      <path id="Trazado_163698" data-name="Trazado 163698" d="M383.344,293.762c-.137,0-.254-4.942-.254-11.036s.117-11.026.254-11.026.254,4.932.254,11.026S383.49,293.762,383.344,293.762Z" transform="translate(-128.623 -239.101)" fill="#263238"/>
      <path id="Trazado_163699" data-name="Trazado 163699" d="M389.1,293.762c-.137,0-.254-4.942-.254-11.036s.117-11.026.254-11.026.254,4.932.254,11.026S389.25,293.762,389.1,293.762Z" transform="translate(-128.758 -239.101)" fill="#263238"/>
      <path id="Trazado_163700" data-name="Trazado 163700" d="M394.874,293.762c-.146,0-.254-4.942-.254-11.036s.107-11.026.254-11.026.254,4.932.254,11.026S394.991,293.762,394.874,293.762Z" transform="translate(-128.893 -239.101)" fill="#263238"/>
      <path id="Trazado_163701" data-name="Trazado 163701" d="M400.634,293.762c-.146,0-.254-4.942-.254-11.036s.107-11.026.254-11.026.254,4.932.254,11.026S400.771,293.762,400.634,293.762Z" transform="translate(-129.027 -239.101)" fill="#263238"/>
      <path id="Trazado_163702" data-name="Trazado 163702" d="M406.394,293.762c-.137,0-.254-4.942-.254-11.036s.117-11.026.254-11.026.254,4.932.254,11.026S406.531,293.762,406.394,293.762Z" transform="translate(-129.162 -239.101)" fill="#263238"/>
      <path id="Trazado_163703" data-name="Trazado 163703" d="M412.154,293.762c-.137,0-.254-4.942-.254-11.036s.117-11.026.254-11.026.254,4.932.254,11.026S412.3,293.762,412.154,293.762Z" transform="translate(-129.297 -239.101)" fill="#263238"/>
      <path id="Trazado_163704" data-name="Trazado 163704" d="M417.914,293.762c-.137,0-.254-4.942-.254-11.036s.117-11.026.254-11.026.254,4.932.254,11.026S418.06,293.762,417.914,293.762Z" transform="translate(-129.431 -239.101)" fill="#263238"/>
      <path id="Trazado_163705" data-name="Trazado 163705" d="M423.684,293.762c-.146,0-.264-4.942-.264-11.036s.117-11.026.264-11.026.254,4.932.254,11.026S423.82,293.762,423.684,293.762Z" transform="translate(-129.566 -239.101)" fill="#263238"/>
      <path id="Trazado_163706" data-name="Trazado 163706" d="M429.444,293.762c-.146,0-.254-4.942-.254-11.036s.107-11.026.254-11.026.254,4.932.254,11.026S429.581,293.762,429.444,293.762Z" transform="translate(-129.701 -239.101)" fill="#263238"/>
      <rect id="Rectángulo_34590" data-name="Rectángulo 34590" width="23.741" height="28.839" transform="translate(182.364 57.513)" fill="#90caf9"/>
      <rect id="Rectángulo_34591" data-name="Rectángulo 34591" width="66.39" height="28.839" transform="translate(206.115 57.513)" fill="#90caf9"/>
      <rect id="Rectángulo_34592" data-name="Rectángulo 34592" width="66.39" height="28.839" transform="translate(206.115 57.513)" opacity="0.4"/>
      <path id="Trazado_163707" data-name="Trazado 163707" d="M321.914,326.055c-.137,0-.254-6.407-.254-14.3s.117-14.288.254-14.288.264,6.4.264,14.288S322.06,326.055,321.914,326.055Z" transform="translate(-127.186 -239.704)" fill="#263238"/>
      <path id="Trazado_163708" data-name="Trazado 163708" d="M396.3,322.834v-5.928c0-3.809-.059-9.3-.1-16.134l.176.166-59.827.088c-.234.225.3-.312.244-.254h0v22.062l-.244-.244,42.8.107,12.491.068h.117l-12.442.068-42.971.117h-.244V300.772h0c0,.049.488-.488.264-.254l59.827.078h.176v.176c0,6.836-.078,12.4-.1,16.241v5.449a2.546,2.546,0,0,1-.176.371Z" transform="translate(-127.529 -239.773)" fill="#263238"/>
      <path id="Trazado_163709" data-name="Trazado 163709" d="M341.194,322.842c-.137,0-.254-4.942-.254-11.036s.117-11.026.254-11.026.254,4.932.254,11.026S341.34,322.842,341.194,322.842Z" transform="translate(-127.637 -239.781)" fill="#263238"/>
      <path id="Trazado_163710" data-name="Trazado 163710" d="M346.994,322.842c-.146,0-.254-4.942-.254-11.036s.107-11.026.254-11.026.254,4.932.254,11.026S347.1,322.842,346.994,322.842Z" transform="translate(-127.773 -239.781)" fill="#263238"/>
      <path id="Trazado_163711" data-name="Trazado 163711" d="M352.724,322.842c-.146,0-.254-4.942-.254-11.036s.107-11.026.254-11.026.254,4.932.254,11.026S352.861,322.842,352.724,322.842Z" transform="translate(-127.907 -239.781)" fill="#263238"/>
      <path id="Trazado_163712" data-name="Trazado 163712" d="M358.484,322.842c-.137,0-.254-4.942-.254-11.036s.117-11.026.254-11.026.254,4.932.254,11.026S358.621,322.842,358.484,322.842Z" transform="translate(-128.041 -239.781)" fill="#263238"/>
      <path id="Trazado_163713" data-name="Trazado 163713" d="M364.244,322.842c-.137,0-.254-4.942-.254-11.036s.117-11.026.254-11.026.254,4.932.254,11.026S364.381,322.842,364.244,322.842Z" transform="translate(-128.176 -239.781)" fill="#263238"/>
      <path id="Trazado_163714" data-name="Trazado 163714" d="M369.994,322.842c-.137,0-.254-4.942-.254-11.036s.117-11.026.254-11.026.254,4.932.254,11.026S370.15,322.842,369.994,322.842Z" transform="translate(-128.311 -239.781)" fill="#263238"/>
      <path id="Trazado_163715" data-name="Trazado 163715" d="M375.764,322.842c-.137,0-.254-4.942-.254-11.036s.117-11.026.254-11.026.264,4.932.264,11.026S375.91,322.842,375.764,322.842Z" transform="translate(-128.446 -239.781)" fill="#263238"/>
      <path id="Trazado_163716" data-name="Trazado 163716" d="M381.534,322.842c-.147,0-.254-4.942-.254-11.036s.107-11.026.254-11.026.254,4.932.254,11.026S381.671,322.842,381.534,322.842Z" transform="translate(-128.581 -239.781)" fill="#263238"/>
      <path id="Trazado_163717" data-name="Trazado 163717" d="M387.294,322.842c-.146,0-.254-4.942-.254-11.036s.107-11.026.254-11.026.254,4.932.254,11.026S387.431,322.842,387.294,322.842Z" transform="translate(-128.715 -239.781)" fill="#263238"/>
      <path id="Trazado_163718" data-name="Trazado 163718" d="M393.054,322.842c-.137,0-.254-4.942-.254-11.036s.117-11.026.254-11.026.254,4.932.254,11.026S393.191,322.842,393.054,322.842Z" transform="translate(-128.85 -239.781)" fill="#263238"/>
      <rect id="Rectángulo_34593" data-name="Rectángulo 34593" width="23.741" height="28.839" transform="translate(249.096 57.395)" fill="#455a64"/>
      <rect id="Rectángulo_34594" data-name="Rectángulo 34594" width="66.39" height="28.839" transform="translate(272.837 57.395)" fill="#455a64"/>
      <path id="Trazado_163719" data-name="Trazado 163719" d="M390.244,325.925c-.137,0-.254-6.4-.254-14.288s.117-14.3.254-14.3.254,6.4.254,14.3S390.381,325.925,390.244,325.925Z" transform="translate(-128.784 -239.701)" fill="#263238"/>
      <path id="Trazado_163720" data-name="Trazado 163720" d="M401.894,325.925c-.137,0-.254-6.4-.254-14.288s.117-14.3.254-14.3.254,6.4.254,14.3S402.04,325.925,401.894,325.925Z" transform="translate(-129.057 -239.701)" fill="#263238"/>
      <path id="Trazado_163721" data-name="Trazado 163721" d="M464.633,322.706a1.805,1.805,0,0,1,0-.4c0-.283,0-.654,0-1.143v-4.375c0-3.819-.059-9.307-.1-16.143l.176.176-59.837.078.254-.254h0V322.7l-.244-.244,42.8.117,12.491.068h.107l-12.432.068-42.971.107h-.244V300.664h0l.254-.254,59.837.078h.166v.176c0,6.885-.068,12.413-.088,16.241v5.459C464.809,322.638,464.633,322.716,464.633,322.706Z" transform="translate(-129.127 -239.772)" fill="#263238"/>
      <path id="Trazado_163722" data-name="Trazado 163722" d="M409.524,322.712c-.137,0-.254-4.942-.254-11.026s.117-11.036.254-11.036.254,4.942.254,11.036S409.661,322.712,409.524,322.712Z" transform="translate(-129.235 -239.778)" fill="#263238"/>
      <path id="Trazado_163723" data-name="Trazado 163723" d="M415.284,322.712c-.137,0-.254-4.942-.254-11.026s.117-11.036.254-11.036.254,4.942.254,11.036S415.421,322.712,415.284,322.712Z" transform="translate(-129.37 -239.778)" fill="#263238"/>
      <path id="Trazado_163724" data-name="Trazado 163724" d="M421.044,322.712c-.137,0-.254-4.942-.254-11.026s.117-11.036.254-11.036.254,4.942.254,11.036S421.19,322.712,421.044,322.712Z" transform="translate(-129.505 -239.778)" fill="#263238"/>
      <path id="Trazado_163725" data-name="Trazado 163725" d="M426.8,322.712c-.137,0-.254-4.942-.254-11.026s.117-11.036.254-11.036.254,4.942.254,11.036S426.989,322.712,426.8,322.712Z" transform="translate(-129.639 -239.778)" fill="#263238"/>
      <path id="Trazado_163726" data-name="Trazado 163726" d="M432.574,322.712c-.146,0-.254-4.942-.254-11.026s.107-11.036.254-11.036.254,4.942.254,11.036S432.711,322.712,432.574,322.712Z" transform="translate(-129.774 -239.778)" fill="#263238"/>
      <path id="Trazado_163727" data-name="Trazado 163727" d="M438.334,322.712c-.146,0-.254-4.942-.254-11.026s.107-11.036.254-11.036.254,4.942.254,11.036S438.471,322.712,438.334,322.712Z" transform="translate(-129.909 -239.778)" fill="#263238"/>
      <path id="Trazado_163728" data-name="Trazado 163728" d="M444.094,322.712c-.137,0-.254-4.942-.254-11.026s.117-11.036.254-11.036.254,4.942.254,11.036S444.231,322.712,444.094,322.712Z" transform="translate(-130.044 -239.778)" fill="#263238"/>
      <path id="Trazado_163729" data-name="Trazado 163729" d="M449.854,322.712c-.137,0-.254-4.942-.254-11.026s.117-11.036.254-11.036.254,4.942.254,11.036S449.991,322.712,449.854,322.712Z" transform="translate(-130.179 -239.778)" fill="#263238"/>
      <path id="Trazado_163730" data-name="Trazado 163730" d="M455.614,322.712c-.137,0-.254-4.942-.254-11.026s.117-11.036.254-11.036.254,4.942.254,11.036S455.76,322.712,455.614,322.712Z" transform="translate(-130.313 -239.778)" fill="#263238"/>
      <path id="Trazado_163731" data-name="Trazado 163731" d="M461.374,322.712c-.137,0-.254-4.942-.254-11.026s.117-11.036.254-11.036.264,4.942.264,11.036S461.52,322.712,461.374,322.712Z" transform="translate(-130.448 -239.778)" fill="#263238"/>
      <rect id="Rectángulo_34595" data-name="Rectángulo 34595" width="23.741" height="28.839" transform="translate(39.584 13.76)" fill="#455a64"/>
      <rect id="Rectángulo_34596" data-name="Rectángulo 34596" width="66.39" height="28.839" transform="translate(63.335 13.76)" fill="#455a64"/>
      <path id="Trazado_163732" data-name="Trazado 163732" d="M175.724,281.245c-.146,0-.254-6.4-.254-14.288s.107-14.3.254-14.3.254,6.4.254,14.3S175.861,281.245,175.724,281.245Z" transform="translate(-123.766 -238.655)" fill="#263238"/>
      <path id="Trazado_163733" data-name="Trazado 163733" d="M187.374,281.245c-.137,0-.254-6.4-.254-14.288s.117-14.3.254-14.3.254,6.4.254,14.3S187.511,281.245,187.374,281.245Z" transform="translate(-124.039 -238.655)" fill="#263238"/>
      <path id="Trazado_163734" data-name="Trazado 163734" d="M250.1,278.025v-5.918c0-3.809-.049-9.307-.088-16.143l.166.176-59.827.078.254-.254h0v22.042l-.244-.244,42.8.117,12.481.068h4.541a1.29,1.29,0,0,1-.273,0h-4.151l-12.432.068-42.971.107H190v-22.13h0c0,.059.488-.479.264-.254l59.827.088h.176v.166c0,6.836-.068,12.413-.1,16.241v5.459a1.357,1.357,0,0,1-.068.332Z" transform="translate(-124.106 -238.726)" fill="#263238"/>
      <path id="Trazado_163735" data-name="Trazado 163735" d="M194.994,278.032c-.146,0-.254-4.932-.254-11.026s.107-11.036.254-11.036.254,4.942.254,11.036S195.14,278.032,194.994,278.032Z" transform="translate(-124.217 -238.733)" fill="#263238"/>
      <path id="Trazado_163736" data-name="Trazado 163736" d="M200.764,278.032c-.146,0-.254-4.932-.254-11.026s.107-11.036.254-11.036.254,4.942.254,11.036S200.9,278.032,200.764,278.032Z" transform="translate(-124.352 -238.733)" fill="#263238"/>
      <path id="Trazado_163737" data-name="Trazado 163737" d="M206.524,278.032c-.137,0-.254-4.932-.254-11.026s.117-11.036.254-11.036.254,4.942.254,11.036S206.661,278.032,206.524,278.032Z" transform="translate(-124.487 -238.733)" fill="#263238"/>
      <path id="Trazado_163738" data-name="Trazado 163738" d="M212.284,278.032c-.137,0-.254-4.932-.254-11.026s.117-11.036.254-11.036.254,4.942.254,11.036S212.43,278.032,212.284,278.032Z" transform="translate(-124.622 -238.733)" fill="#263238"/>
      <path id="Trazado_163739" data-name="Trazado 163739" d="M218.044,278.032c-.137,0-.254-4.932-.254-11.026s.117-11.036.254-11.036.254,4.942.254,11.036S218.19,278.032,218.044,278.032Z" transform="translate(-124.756 -238.733)" fill="#263238"/>
      <path id="Trazado_163740" data-name="Trazado 163740" d="M223.814,278.032c-.146,0-.264-4.932-.264-11.026s.117-11.036.264-11.036.254,4.942.254,11.036S223.989,278.032,223.814,278.032Z" transform="translate(-124.891 -238.733)" fill="#263238"/>
      <path id="Trazado_163741" data-name="Trazado 163741" d="M229.574,278.032c-.146,0-.254-4.932-.254-11.026s.107-11.036.254-11.036.254,4.942.254,11.036S229.711,278.032,229.574,278.032Z" transform="translate(-125.026 -238.733)" fill="#263238"/>
      <path id="Trazado_163742" data-name="Trazado 163742" d="M235.334,278.032c-.146,0-.254-4.932-.254-11.026s.107-11.036.254-11.036.254,4.942.254,11.036S235.471,278.032,235.334,278.032Z" transform="translate(-125.161 -238.733)" fill="#263238"/>
      <path id="Trazado_163743" data-name="Trazado 163743" d="M241.094,278.032c-.137,0-.254-4.932-.254-11.026s.117-11.036.254-11.036.254,4.942.254,11.036S241.231,278.032,241.094,278.032Z" transform="translate(-125.295 -238.733)" fill="#263238"/>
      <path id="Trazado_163744" data-name="Trazado 163744" d="M246.854,278.032c-.137,0-.254-4.932-.254-11.026s.117-11.036.254-11.036.254,4.942.254,11.036S246.991,278.032,246.854,278.032Z" transform="translate(-125.43 -238.733)" fill="#263238"/>
      <rect id="Rectángulo_34597" data-name="Rectángulo 34597" width="23.741" height="28.839" transform="translate(250.61 28.185)" fill="#263238"/>
      <rect id="Rectángulo_34598" data-name="Rectángulo 34598" width="66.39" height="28.839" transform="translate(274.351 28.185)" fill="#263238"/>
      <path id="Trazado_163745" data-name="Trazado 163745" d="M391.794,296.015c-.146,0-.254-6.4-.254-14.288s.107-14.3.254-14.3.254,6.4.254,14.3S391.931,296.015,391.794,296.015Z" transform="translate(-128.82 -239.001)" fill="#455a64"/>
      <path id="Trazado_163746" data-name="Trazado 163746" d="M403.444,296.015c-.137,0-.254-6.4-.254-14.288s.117-14.3.254-14.3.254,6.4.254,14.3S403.581,296.015,403.444,296.015Z" transform="translate(-129.093 -239.001)" fill="#455a64"/>
      <path id="Trazado_163747" data-name="Trazado 163747" d="M466.172,292.794v-1.543c0-1.025,0-2.49-.049-4.375,0-3.809,0-9.307-.088-16.143l.166.176-59.827.078c-.225.234.3-.3.254-.244h0v22.052l-.244-.244,42.8.117,12.491.068h4.531a.772.772,0,0,1-.273,0h-4.151l-12.432.068-42.971.117h-.244V270.752h0c-.059.049.479-.488.254-.264l59.827.088h.176v.166c0,6.885-.068,12.413-.088,16.241,0,1.875,0,3.33-.049,4.346v1.113a1.362,1.362,0,0,1-.088.352Z" transform="translate(-129.162 -239.071)" fill="#455a64"/>
      <path id="Trazado_163748" data-name="Trazado 163748" d="M411.074,292.8c-.146,0-.254-4.932-.254-11.026s.107-11.036.254-11.036.254,4.942.254,11.036S411.211,292.8,411.074,292.8Z" transform="translate(-129.271 -239.078)" fill="#455a64"/>
      <path id="Trazado_163749" data-name="Trazado 163749" d="M416.834,292.8c-.137,0-.254-4.932-.254-11.026s.117-11.036.254-11.036.254,4.942.254,11.036S416.99,292.8,416.834,292.8Z" transform="translate(-129.406 -239.078)" fill="#455a64"/>
      <path id="Trazado_163750" data-name="Trazado 163750" d="M422.594,292.8c-.137,0-.254-4.932-.254-11.026s.117-11.036.254-11.036.254,4.942.254,11.036S422.731,292.8,422.594,292.8Z" transform="translate(-129.541 -239.078)" fill="#455a64"/>
      <path id="Trazado_163751" data-name="Trazado 163751" d="M428.354,292.8c-.137,0-.254-4.932-.254-11.026s.117-11.036.254-11.036.254,4.942.254,11.036S428.5,292.8,428.354,292.8Z" transform="translate(-129.676 -239.078)" fill="#455a64"/>
      <path id="Trazado_163752" data-name="Trazado 163752" d="M434.114,292.8c-.137,0-.254-4.932-.254-11.026s.117-11.036.254-11.036.254,4.942.254,11.036S434.26,292.8,434.114,292.8Z" transform="translate(-129.81 -239.078)" fill="#455a64"/>
      <path id="Trazado_163753" data-name="Trazado 163753" d="M439.884,292.8c-.146,0-.254-4.932-.254-11.026s.107-11.036.254-11.036.254,4.942.254,11.036S439.991,292.8,439.884,292.8Z" transform="translate(-129.945 -239.078)" fill="#455a64"/>
      <path id="Trazado_163754" data-name="Trazado 163754" d="M445.644,292.8c-.146,0-.254-4.932-.254-11.026s.107-11.036.254-11.036.254,4.942.254,11.036S445.781,292.8,445.644,292.8Z" transform="translate(-130.08 -239.078)" fill="#455a64"/>
      <path id="Trazado_163755" data-name="Trazado 163755" d="M451.4,292.8c-.137,0-.254-4.932-.254-11.026s.117-11.036.254-11.036.254,4.942.254,11.036S451.541,292.8,451.4,292.8Z" transform="translate(-130.215 -239.078)" fill="#455a64"/>
      <path id="Trazado_163756" data-name="Trazado 163756" d="M457.164,292.8c-.137,0-.254-4.932-.254-11.026s.117-11.036.254-11.036.254,4.942.254,11.036S457.31,292.8,457.164,292.8Z" transform="translate(-130.35 -239.078)" fill="#455a64"/>
      <path id="Trazado_163757" data-name="Trazado 163757" d="M462.924,292.8c-.137,0-.254-4.932-.254-11.026s.117-11.036.254-11.036.254,4.942.254,11.036S463.07,292.8,462.924,292.8Z" transform="translate(-130.484 -239.078)" fill="#455a64"/>
      <rect id="Rectángulo_34599" data-name="Rectángulo 34599" width="23.741" height="28.839" transform="translate(254.33 86.225)" fill="#90caf9"/>
      <rect id="Rectángulo_34600" data-name="Rectángulo 34600" width="66.39" height="28.839" transform="translate(278.082 86.225)" fill="#90caf9"/>
      <rect id="Rectángulo_34601" data-name="Rectángulo 34601" width="66.39" height="28.839" transform="translate(278.082 86.225)" opacity="0.4"/>
      <path id="Trazado_163758" data-name="Trazado 163758" d="M395.614,355.455c-.146,0-.254-6.407-.254-14.3s.107-14.3.254-14.3.254,6.407.254,14.3S395.751,355.455,395.614,355.455Z" transform="translate(-128.91 -240.391)" fill="#263238"/>
      <path id="Trazado_163759" data-name="Trazado 163759" d="M469.993,352.234v-5.928c0-3.809-.049-9.3-.088-16.134l.166.166-59.827.088.254-.254h0v22.062l-.254-.244,42.815.107,12.481.068h.117l-12.432.068-42.971.117h-.244V330.172h0c0,.049.488-.488.264-.254L470.1,330h.176v.176c0,6.836-.068,12.4-.1,16.241v5.449a1.485,1.485,0,0,1-.185.371Z" transform="translate(-129.253 -240.461)" fill="#263238"/>
      <path id="Trazado_163760" data-name="Trazado 163760" d="M414.894,352.242c-.146,0-.254-4.942-.254-11.036s.107-11.026.254-11.026.254,4.932.254,11.026S414.992,352.242,414.894,352.242Z" transform="translate(-129.361 -240.469)" fill="#263238"/>
      <path id="Trazado_163761" data-name="Trazado 163761" d="M420.654,352.242c-.146,0-.254-4.942-.254-11.036s.107-11.026.254-11.026.254,4.932.254,11.026S420.791,352.242,420.654,352.242Z" transform="translate(-129.496 -240.469)" fill="#263238"/>
      <path id="Trazado_163762" data-name="Trazado 163762" d="M426.414,352.242c-.137,0-.254-4.942-.254-11.036s.117-11.026.254-11.026.254,4.932.254,11.026S426.551,352.242,426.414,352.242Z" transform="translate(-129.63 -240.469)" fill="#263238"/>
      <path id="Trazado_163763" data-name="Trazado 163763" d="M432.174,352.242c-.137,0-.254-4.942-.254-11.036s.117-11.026.254-11.026.254,4.932.254,11.026S432.311,352.242,432.174,352.242Z" transform="translate(-129.765 -240.469)" fill="#263238"/>
      <path id="Trazado_163764" data-name="Trazado 163764" d="M437.934,352.242c-.137,0-.254-4.942-.254-11.036s.117-11.026.254-11.026.254,4.932.254,11.026S438.08,352.242,437.934,352.242Z" transform="translate(-129.9 -240.469)" fill="#263238"/>
      <path id="Trazado_163765" data-name="Trazado 163765" d="M443.694,352.242c-.137,0-.254-4.942-.254-11.036s.117-11.026.254-11.026.264,4.932.264,11.026S443.84,352.242,443.694,352.242Z" transform="translate(-130.034 -240.469)" fill="#263238"/>
      <path id="Trazado_163766" data-name="Trazado 163766" d="M449.464,352.242c-.146,0-.254-4.942-.254-11.036s.107-11.026.254-11.026.254,4.932.254,11.026S449.6,352.242,449.464,352.242Z" transform="translate(-130.169 -240.469)" fill="#263238"/>
      <path id="Trazado_163767" data-name="Trazado 163767" d="M455.224,352.242c-.146,0-.254-4.942-.254-11.036s.107-11.026.254-11.026.254,4.932.254,11.026S455.361,352.242,455.224,352.242Z" transform="translate(-130.304 -240.469)" fill="#263238"/>
      <path id="Trazado_163768" data-name="Trazado 163768" d="M460.994,352.242c-.137,0-.254-4.942-.254-11.036s.117-11.026.254-11.026.254,4.932.254,11.026S461.121,352.242,460.994,352.242Z" transform="translate(-130.439 -240.469)" fill="#263238"/>
      <path id="Trazado_163769" data-name="Trazado 163769" d="M466.744,352.242c-.137,0-.254-4.942-.254-11.036s.117-11.026.254-11.026.254,4.932.254,11.026S466.89,352.242,466.744,352.242Z" transform="translate(-130.574 -240.469)" fill="#263238"/>
      <path id="Trazado_163770" data-name="Trazado 163770" d="M368.42,346.993h-1.309l-3.731.049-13.741.078-45.315.078c-23.439,0-43.947-.049-54.885-.127l.127-.127c0,2.93,0,5.235-.059,6.836v0c0-1.6,0-3.906-.059-6.836v-.127h.137c10.967-.078,31.457-.127,54.885-.127l45.315.078,13.741.078,3.731.049h.977Z" transform="translate(-125.497 -240.855)" fill="#263238"/>
      <path id="Trazado_163771" data-name="Trazado 163771" d="M361.164,355.166a32.4,32.4,0,0,1,0-8.1A32.394,32.394,0,0,1,361.164,355.166Z" transform="translate(-128.104 -240.864)" fill="#263238"/>
      <path id="Trazado_163772" data-name="Trazado 163772" d="M344.144,355.166a32.394,32.394,0,0,1,0-8.1A32.4,32.4,0,0,1,344.144,355.166Z" transform="translate(-127.706 -240.864)" fill="#263238"/>
      <path id="Trazado_163773" data-name="Trazado 163773" d="M327.124,355.166a32.4,32.4,0,0,1,0-8.1A32.4,32.4,0,0,1,327.124,355.166Z" transform="translate(-127.308 -240.864)" fill="#263238"/>
      <path id="Trazado_163774" data-name="Trazado 163774" d="M310.094,355.166a32.4,32.4,0,0,1,0-8.1A32.4,32.4,0,0,1,310.094,355.166Z" transform="translate(-126.909 -240.864)" fill="#263238"/>
      <path id="Trazado_163775" data-name="Trazado 163775" d="M293.074,355.166a32.4,32.4,0,0,1,0-8.1A32.394,32.394,0,0,1,293.074,355.166Z" transform="translate(-126.511 -240.864)" fill="#263238"/>
      <path id="Trazado_163776" data-name="Trazado 163776" d="M276.054,355.166a31.249,31.249,0,0,1,0-8.1A32.394,32.394,0,0,1,276.054,355.166Z" transform="translate(-126.113 -240.864)" fill="#263238"/>
      <path id="Trazado_163777" data-name="Trazado 163777" d="M258.994,355.166a32.4,32.4,0,0,1,0-8.1A32.4,32.4,0,0,1,258.994,355.166Z" transform="translate(-125.714 -240.864)" fill="#263238"/>
      <path id="Trazado_163778" data-name="Trazado 163778" d="M490.241,354.859a3.273,3.273,0,0,1,0-.508q0-.537,0-1.494c0-1.358,0-3.311-.059-5.86l.117.127c-10.459.078-31.447.127-55.569.127l-44.836-.068L376.31,347.1h-4.678a1.355,1.355,0,0,1-.322,0h1.3l3.7-.049,13.585-.078,44.836-.078c24.122,0,45.11.059,55.569.137h.127v7.325a3.28,3.28,0,0,1-.186.508Z" transform="translate(-128.347 -240.86)" fill="#263238"/>
      <path id="Trazado_163779" data-name="Trazado 163779" d="M448.994,355.2a32.4,32.4,0,0,1,0-8.1A32.394,32.394,0,0,1,448.994,355.2Z" transform="translate(-130.158 -240.864)" fill="#263238"/>
      <path id="Trazado_163780" data-name="Trazado 163780" d="M431.924,355.2a32.4,32.4,0,0,1,0-8.1,32.4,32.4,0,0,1,0,8.1Z" transform="translate(-129.759 -240.864)" fill="#263238"/>
      <path id="Trazado_163781" data-name="Trazado 163781" d="M414.894,355.2a32.4,32.4,0,0,1,0-8.1A31.249,31.249,0,0,1,414.894,355.2Z" transform="translate(-129.361 -240.864)" fill="#263238"/>
      <path id="Trazado_163782" data-name="Trazado 163782" d="M397.874,355.2a32.4,32.4,0,0,1,0-8.1,32.394,32.394,0,0,1,0,8.1Z" transform="translate(-128.963 -240.864)" fill="#263238"/>
      <path id="Trazado_163783" data-name="Trazado 163783" d="M380.854,355.2a32.394,32.394,0,0,1,0-8.1,32.4,32.4,0,0,1,0,8.1Z" transform="translate(-128.565 -240.864)" fill="#263238"/>
      <path id="Trazado_163784" data-name="Trazado 163784" d="M244.422,342.326a3.433,3.433,0,0,1,0-.508q0-.547,0-1.494c0-1.357,0-3.311-.059-5.86l.117.117c-11.045.078-33.869.137-60.169.137-25.284,0-47.336-.049-58.8-.127l.127-.127c0,2.93,0,5.254-.059,6.836v2.383a5.791,5.791,0,0,1,0-.605c0-.43,0-.977,0-1.777,0-1.582,0-3.906-.059-6.836v-.127h.127c11.465-.078,33.517-.127,58.8-.127,26.3,0,49.123.059,60.169.137h.117v7.471a2.6,2.6,0,0,1-.312.508Z" transform="translate(-122.598 -240.563)" fill="#263238"/>
      <path id="Trazado_163785" data-name="Trazado 163785" d="M237.174,342.656a32.394,32.394,0,0,1,0-8.1A32.4,32.4,0,0,1,237.174,342.656Z" transform="translate(-125.204 -240.571)" fill="#263238"/>
      <path id="Trazado_163786" data-name="Trazado 163786" d="M220.154,342.656a32.394,32.394,0,0,1,0-8.1,32.393,32.393,0,0,1,0,8.1Z" transform="translate(-124.806 -240.571)" fill="#263238"/>
      <path id="Trazado_163787" data-name="Trazado 163787" d="M203.124,342.656a32.394,32.394,0,0,1,0-8.1,32.393,32.393,0,0,1,0,8.1Z" transform="translate(-124.407 -240.571)" fill="#263238"/>
      <path id="Trazado_163788" data-name="Trazado 163788" d="M186.1,342.656a32.393,32.393,0,0,1,0-8.1,32.393,32.393,0,0,1,0,8.1Z" transform="translate(-124.009 -240.571)" fill="#263238"/>
      <path id="Trazado_163789" data-name="Trazado 163789" d="M169.084,342.656a32.393,32.393,0,0,1,0-8.1,32.394,32.394,0,0,1,0,8.1Z" transform="translate(-123.611 -240.571)" fill="#263238"/>
      <path id="Trazado_163790" data-name="Trazado 163790" d="M152.054,342.656a32.394,32.394,0,0,1,0-8.1,32.4,32.4,0,0,1,0,8.1Z" transform="translate(-123.213 -240.571)" fill="#263238"/>
      <path id="Trazado_163791" data-name="Trazado 163791" d="M134.994,342.656a32.394,32.394,0,0,1,0-8.1,32.394,32.394,0,0,1,0,8.1Z" transform="translate(-122.814 -240.571)" fill="#263238"/>
      <rect id="Rectángulo_34602" data-name="Rectángulo 34602" width="23.741" height="28.839" transform="translate(39.584 42.6)" fill="#90caf9"/>
      <rect id="Rectángulo_34603" data-name="Rectángulo 34603" width="66.39" height="28.839" transform="translate(63.335 42.6)" fill="#90caf9"/>
      <rect id="Rectángulo_34604" data-name="Rectángulo 34604" width="66.39" height="28.839" transform="translate(63.335 42.6)" opacity="0.4"/>
      <path id="Trazado_163792" data-name="Trazado 163792" d="M175.724,310.785c-.146,0-.254-6.407-.254-14.3s.107-14.3.254-14.3.254,6.407.254,14.3S175.861,310.785,175.724,310.785Z" transform="translate(-123.766 -239.346)" fill="#263238"/>
      <path id="Trazado_163793" data-name="Trazado 163793" d="M250.1,307.561v-5.928c0-3.809-.049-9.3-.088-16.134l.166.166-59.827.088.254-.254h0v22.062l-.244-.244,42.8.107,12.481.068h4.238a1.871,1.871,0,0,1,.3,0h-4.424l-12.432.068-42.971.117H190V285.362h0c0,.049.488-.488.264-.254l59.827.078h.176v.176c0,6.836-.068,12.4-.1,16.241v5.45A1.485,1.485,0,0,1,250.1,307.561Z" transform="translate(-124.106 -239.413)" fill="#263238"/>
      <path id="Trazado_163794" data-name="Trazado 163794" d="M194.994,307.572c-.146,0-.254-4.942-.254-11.036s.107-11.026.254-11.026.254,4.932.254,11.026S195.14,307.572,194.994,307.572Z" transform="translate(-124.217 -239.424)" fill="#263238"/>
      <path id="Trazado_163795" data-name="Trazado 163795" d="M200.764,307.572c-.146,0-.254-4.942-.254-11.036s.107-11.026.254-11.026.254,4.932.254,11.026S200.9,307.572,200.764,307.572Z" transform="translate(-124.352 -239.424)" fill="#263238"/>
      <path id="Trazado_163796" data-name="Trazado 163796" d="M206.524,307.572c-.137,0-.254-4.942-.254-11.036s.117-11.026.254-11.026.254,4.932.254,11.026S206.661,307.572,206.524,307.572Z" transform="translate(-124.487 -239.424)" fill="#263238"/>
      <path id="Trazado_163797" data-name="Trazado 163797" d="M212.284,307.572c-.137,0-.254-4.942-.254-11.036s.117-11.026.254-11.026.254,4.932.254,11.026S212.43,307.572,212.284,307.572Z" transform="translate(-124.622 -239.424)" fill="#263238"/>
      <path id="Trazado_163798" data-name="Trazado 163798" d="M218.044,307.572c-.137,0-.254-4.942-.254-11.036s.117-11.026.254-11.026.254,4.932.254,11.026S218.19,307.572,218.044,307.572Z" transform="translate(-124.756 -239.424)" fill="#263238"/>
      <path id="Trazado_163799" data-name="Trazado 163799" d="M223.814,307.572c-.146,0-.264-4.942-.264-11.036s.117-11.026.264-11.026.254,4.932.254,11.026S223.989,307.572,223.814,307.572Z" transform="translate(-124.891 -239.424)" fill="#263238"/>
      <path id="Trazado_163800" data-name="Trazado 163800" d="M229.574,307.572c-.146,0-.254-4.942-.254-11.036s.107-11.026.254-11.026.254,4.932.254,11.026S229.711,307.572,229.574,307.572Z" transform="translate(-125.026 -239.424)" fill="#263238"/>
      <path id="Trazado_163801" data-name="Trazado 163801" d="M235.334,307.572c-.146,0-.254-4.942-.254-11.036s.107-11.026.254-11.026.254,4.932.254,11.026S235.471,307.572,235.334,307.572Z" transform="translate(-125.161 -239.424)" fill="#263238"/>
      <path id="Trazado_163802" data-name="Trazado 163802" d="M241.094,307.572c-.137,0-.254-4.942-.254-11.036s.117-11.026.254-11.026.254,4.932.254,11.026S241.231,307.572,241.094,307.572Z" transform="translate(-125.295 -239.424)" fill="#263238"/>
      <path id="Trazado_163803" data-name="Trazado 163803" d="M246.854,307.572c-.137,0-.254-4.942-.254-11.036s.117-11.026.254-11.026.254,4.932.254,11.026S246.991,307.572,246.854,307.572Z" transform="translate(-125.43 -239.424)" fill="#263238"/>
      <path id="Trazado_163804" data-name="Trazado 163804" d="M493.95,354.236V288.12h65.56v66.722" transform="translate(-131.216 -239.485)" fill="#455a64"/>
      <rect id="Rectángulo_34605" data-name="Rectángulo 34605" width="3.653" height="7.95" transform="translate(407.15 106.802)" fill="#263238"/>
      <rect id="Rectángulo_34606" data-name="Rectángulo 34606" width="2.295" height="5.674" transform="translate(368.037 96.089)" fill="#263238"/>
      <rect id="Rectángulo_34607" data-name="Rectángulo 34607" width="2.295" height="5.674" transform="translate(368.037 106.138)" fill="#263238"/>
      <rect id="Rectángulo_34608" data-name="Rectángulo 34608" width="2.295" height="5.674" transform="translate(381.212 96.089)" fill="#263238"/>
      <rect id="Rectángulo_34609" data-name="Rectángulo 34609" width="2.295" height="5.674" transform="translate(381.212 106.05)" fill="#263238"/>
      <rect id="Rectángulo_34610" data-name="Rectángulo 34610" width="2.295" height="5.674" transform="translate(394.386 96.089)" fill="#263238"/>
      <rect id="Rectángulo_34611" data-name="Rectángulo 34611" width="2.295" height="5.674" transform="translate(394.386 105.972)" fill="#263238"/>
      <rect id="Rectángulo_34612" data-name="Rectángulo 34612" width="2.295" height="5.674" transform="translate(407.56 96.089)" fill="#263238"/>
      <rect id="Rectángulo_34613" data-name="Rectángulo 34613" width="2.295" height="5.674" transform="translate(420.725 96.089)" fill="#263238"/>
      <rect id="Rectángulo_34614" data-name="Rectángulo 34614" width="2.295" height="5.674" transform="translate(420.725 105.64)" fill="#263238"/>
      <rect id="Rectángulo_34615" data-name="Rectángulo 34615" width="3.653" height="7.95" transform="translate(406.877 70.785)" fill="#263238"/>
      <rect id="Rectángulo_34616" data-name="Rectángulo 34616" width="2.295" height="5.674" transform="translate(368.037 55.559)" fill="#263238"/>
      <rect id="Rectángulo_34617" data-name="Rectángulo 34617" width="2.295" height="5.674" transform="translate(368.037 65.609)" fill="#263238"/>
      <rect id="Rectángulo_34618" data-name="Rectángulo 34618" width="2.295" height="5.674" transform="translate(381.212 55.559)" fill="#263238"/>
      <rect id="Rectángulo_34619" data-name="Rectángulo 34619" width="2.295" height="5.674" transform="translate(381.212 65.521)" fill="#263238"/>
      <rect id="Rectángulo_34620" data-name="Rectángulo 34620" width="2.295" height="5.674" transform="translate(394.386 55.559)" fill="#263238"/>
      <rect id="Rectángulo_34621" data-name="Rectángulo 34621" width="2.295" height="5.674" transform="translate(394.386 65.443)" fill="#263238"/>
      <rect id="Rectángulo_34622" data-name="Rectángulo 34622" width="2.295" height="5.674" transform="translate(407.56 55.559)" fill="#263238"/>
      <rect id="Rectángulo_34623" data-name="Rectángulo 34623" width="2.295" height="5.674" transform="translate(420.725 55.559)" fill="#263238"/>
      <rect id="Rectángulo_34624" data-name="Rectángulo 34624" width="2.295" height="5.674" transform="translate(420.725 65.111)" fill="#263238"/>
      <path id="Trazado_163805" data-name="Trazado 163805" d="M183.168,418.061s10.254-37.58-26.818-46.135c-34.67-8-33.82-29.406-33.82-29.406H246.735v12.989h326.9s-1.777,42.1-32.453,62.552" transform="translate(-122.528 -240.757)" fill="#455a64"/>
      <path id="Trazado_163806" data-name="Trazado 163806" d="M185.489,401.81H560.116s-10.352,14-17.481,17.638H184.62a96.754,96.754,0,0,0,.869-17.638Z" transform="translate(-123.98 -242.144)" fill="#263238"/>
      <path id="Trazado_163807" data-name="Trazado 163807" d="M557.536,318.867a3.31,3.31,0,0,1-.049-.732v-2.1l.1.1c-5.576.1-19.015.156-34.7.156s-29.132-.059-34.709-.156l.1-.1c0,.879,0,1.582-.049,2.1a3.313,3.313,0,0,1-.049.732,6.187,6.187,0,0,1-.049-.732c0-.518,0-1.221-.049-2.1V316h.1c5.576-.088,19.015-.156,34.709-.156s29.122.068,34.7.156h.1v2.1a4.3,4.3,0,0,1-.146.772Z" transform="translate(-131.079 -240.133)" fill="#263238"/>
      <path id="Trazado_163808" data-name="Trazado 163808" d="M496.994,319.631c-.137,0-.254-.83-.254-1.865s.117-1.865.254-1.865.254.84.254,1.865A4.121,4.121,0,0,1,496.994,319.631Z" transform="translate(-131.281 -240.135)" fill="#263238"/>
      <path id="Trazado_163809" data-name="Trazado 163809" d="M506.354,319.631c-.137,0-.254-.83-.254-1.865s.117-1.865.254-1.865.254.84.254,1.865S506.5,319.631,506.354,319.631Z" transform="translate(-131.5 -240.135)" fill="#263238"/>
      <path id="Trazado_163810" data-name="Trazado 163810" d="M515.764,319.631c-.146,0-.254-.83-.254-1.865s.107-1.865.254-1.865.254.84.254,1.865S515.9,319.631,515.764,319.631Z" transform="translate(-131.72 -240.135)" fill="#263238"/>
      <path id="Trazado_163811" data-name="Trazado 163811" d="M525.164,319.631c-.147,0-.254-.83-.254-1.865s.107-1.865.254-1.865.254.84.254,1.865S525.3,319.631,525.164,319.631Z" transform="translate(-131.94 -240.135)" fill="#263238"/>
      <path id="Trazado_163812" data-name="Trazado 163812" d="M534.564,319.631c-.137,0-.254-.83-.254-1.865s.117-1.865.254-1.865.254.84.254,1.865S534.7,319.631,534.564,319.631Z" transform="translate(-132.16 -240.135)" fill="#263238"/>
      <path id="Trazado_163813" data-name="Trazado 163813" d="M543.994,319.631c-.137,0-.254-.83-.254-1.865s.117-1.865.254-1.865.254.84.254,1.865A3.97,3.97,0,0,1,543.994,319.631Z" transform="translate(-132.381 -240.135)" fill="#263238"/>
      <path id="Trazado_163814" data-name="Trazado 163814" d="M553.364,319.631c-.137,0-.254-.83-.254-1.865s.117-1.865.254-1.865.254.84.254,1.865S553.51,319.631,553.364,319.631Z" transform="translate(-132.6 -240.135)" fill="#263238"/>
      <rect id="Rectángulo_34625" data-name="Rectángulo 34625" width="72.601" height="7.246" transform="translate(355.683 78.734)" fill="#263238"/>
      <path id="Trazado_163815" data-name="Trazado 163815" d="M505.24,277.75h7.9l.869,5.02h-8.77Z" transform="translate(-131.48 -239.242)" fill="#fff" opacity="0.4"/>
      <path id="Trazado_163816" data-name="Trazado 163816" d="M581.894,354.86a4.257,4.257,0,0,1,0-.518v-1.524c0-1.367,0-3.32-.068-5.791l.137.137c-8.789.078-24.591.117-42.57.117l-35.646-.068-10.84-.088h-3.692a.92.92,0,0,1-.264,0h1.025l2.93-.049,10.8-.078,35.646-.078c17.979,0,33.761.049,42.57.117h.137V347c0,2.471,0,4.424-.068,5.791v1.524A2.654,2.654,0,0,1,581.894,354.86Z" transform="translate(-131.099 -240.86)" fill="#263238"/>
      <path id="Trazado_163817" data-name="Trazado 163817" d="M573.994,355.2a32.394,32.394,0,0,1,0-8.1,32.389,32.389,0,0,1,0,8.1Z" transform="translate(-133.082 -240.864)" fill="#263238"/>
      <path id="Trazado_163818" data-name="Trazado 163818" d="M556.994,355.2a31.254,31.254,0,0,1,0-8.1,32.389,32.389,0,0,1,0,8.1Z" transform="translate(-132.684 -240.864)" fill="#263238"/>
      <path id="Trazado_163819" data-name="Trazado 163819" d="M539.994,355.2a32.394,32.394,0,0,1,0-8.1,32.389,32.389,0,0,1,0,8.1Z" transform="translate(-132.287 -240.864)" fill="#263238"/>
      <path id="Trazado_163820" data-name="Trazado 163820" d="M522.994,355.2a32.4,32.4,0,0,1,0-8.1A32.4,32.4,0,0,1,522.994,355.2Z" transform="translate(-131.889 -240.864)" fill="#263238"/>
      <path id="Trazado_163821" data-name="Trazado 163821" d="M505.924,355.2a32.4,32.4,0,0,1,0-8.1A31.252,31.252,0,0,1,505.924,355.2Z" transform="translate(-131.49 -240.864)" fill="#263238"/>
      <path id="Trazado_163822" data-name="Trazado 163822" d="M488.9,355.2a32.394,32.394,0,0,1,0-8.1,32.4,32.4,0,0,1,0,8.1Z" transform="translate(-131.092 -240.864)" fill="#263238"/>
      <path id="Trazado_163823" data-name="Trazado 163823" d="M471.884,355.2a32.4,32.4,0,0,1,0-8.1,32.4,32.4,0,0,1,0,8.1Z" transform="translate(-130.694 -240.864)" fill="#263238"/>
    </g>
  </g>
</svg>
