<svg xmlns="http://www.w3.org/2000/svg" xmlns:xlink="http://www.w3.org/1999/xlink" width="505.164" height="318.001" viewBox="0 0 505.164 318.001">
  <defs>
    <clipPath id="clip-path">
      <rect id="Rectángulo_34047" data-name="Rectángulo 34047" width="505.164" height="314" fill="#dc9ce8"/>
    </clipPath>
    <clipPath id="clip-path-2">
      <path id="Trazado_167835" data-name="Trazado 167835" d="M293.221,348.92h-14.7c-7.654,0-13.838,11.1-13.838,24.788s6.2,24.779,13.838,24.779h14.7c7.654,0,13.838-11.1,13.838-24.779S300.876,348.92,293.221,348.92Z" transform="translate(-264.68 -348.92)" fill="#263238"/>
    </clipPath>
  </defs>
  <g id="img19" transform="translate(-180 -8329.5)">
    <g id="Grupo_102551" data-name="Grupo 102551" transform="translate(180 8330.5)">
      <rect id="Rectángulo_33714" data-name="Rectángulo 33714" width="505.164" height="317" fill="#f739a8" opacity="0.07"/>
      <g id="Enmascarar_grupo_61" data-name="Enmascarar grupo 61" transform="translate(0 3)" opacity="0.24" clip-path="url(#clip-path)">
        <path id="Trazado_122678" data-name="Trazado 122678" d="M21.417.706l586.634,30.65c12.1.632,22.413,9.431,23.045,19.652l28.229,456.606c.632,10.222-8.661,18-20.757,17.364L51.935,494.328c-12.1-.632-22.413-9.431-23.045-19.652L.66,18.07C.028,7.848,9.321.074,21.417.706Z" transform="translate(591.156 543.61) rotate(163)" fill="#dc9ce8"/>
      </g>
    </g>
    <g id="Logistics-rafiki_1_" data-name="Logistics-rafiki (1)" transform="translate(216 8274.5)">
      <g id="freepik--background-complete--inject-24" transform="translate(0 55)">
        <rect id="Rectángulo_34692" data-name="Rectángulo 34692" width="432.444" height="0.216" transform="translate(0 283.164)" fill="#ebebeb"/>
        <rect id="Rectángulo_34693" data-name="Rectángulo 34693" width="20.048" height="0.216" transform="translate(129.768 288.682)" fill="#ebebeb"/>
        <rect id="Rectángulo_34694" data-name="Rectángulo 34694" width="49.013" height="0.216" transform="translate(347.771 293.318)" fill="#ebebeb"/>
        <rect id="Rectángulo_34695" data-name="Rectángulo 34695" width="49.013" height="0.216" transform="translate(36.948 293.318)" fill="#ebebeb"/>
        <path id="Trazado_167827" data-name="Trazado 167827" d="M210.141,299.59h-167a4.939,4.939,0,0,1-4.93-4.938V59.9A4.939,4.939,0,0,1,43.14,55h167a4.939,4.939,0,0,1,4.939,4.939h0V294.652A4.939,4.939,0,0,1,210.141,299.59ZM43.14,55.173A4.722,4.722,0,0,0,38.426,59.9V294.652a4.722,4.722,0,0,0,4.714,4.722h167a4.74,4.74,0,0,0,4.722-4.722V59.9a4.74,4.74,0,0,0-4.722-4.722Z" transform="translate(-5.163 -55)" fill="#ebebeb"/>
        <path id="Trazado_167828" data-name="Trazado 167828" d="M426.448,299.59H259.439a4.956,4.956,0,0,1-4.939-4.938V59.9a4.947,4.947,0,0,1,4.939-4.9h167.01a4.939,4.939,0,0,1,4.921,4.9V294.652a4.93,4.93,0,0,1-4.921,4.938ZM259.439,55.173a4.74,4.74,0,0,0-4.722,4.722V294.652a4.74,4.74,0,0,0,4.722,4.722h167.01a4.74,4.74,0,0,0,4.722-4.722V59.9a4.74,4.74,0,0,0-4.722-4.722Z" transform="translate(-34.386 -55)" fill="#ebebeb"/>
        <path id="Trazado_167829" data-name="Trazado 167829" d="M97.846,130.41h72.045a5.509,5.509,0,0,1,5.518,5.518V348.154H92.38V135.919a5.518,5.518,0,0,1,5.466-5.509Z" transform="translate(-12.482 -65.189)" fill="#451991" opacity="0.18"/>
        <rect id="Rectángulo_34696" data-name="Rectángulo 34696" width="10.707" height="23.836" transform="translate(86.748 78.082)" fill="#ebebeb"/>
        <rect id="Rectángulo_34697" data-name="Rectángulo 34697" width="10.707" height="23.836" transform="translate(145.301 78.082)" fill="#ebebeb"/>
        <rect id="Rectángulo_34698" data-name="Rectángulo 34698" width="10.707" height="23.836" transform="translate(106.26 78.082)" fill="#ebebeb"/>
        <rect id="Rectángulo_34699" data-name="Rectángulo 34699" width="10.707" height="23.836" transform="translate(125.781 78.082)" fill="#ebebeb"/>
        <rect id="Rectángulo_34700" data-name="Rectángulo 34700" width="10.707" height="23.836" transform="translate(86.748 115.713)" fill="#ebebeb"/>
        <rect id="Rectángulo_34701" data-name="Rectángulo 34701" width="10.707" height="23.836" transform="translate(145.301 115.713)" fill="#ebebeb"/>
        <rect id="Rectángulo_34702" data-name="Rectángulo 34702" width="10.707" height="23.836" transform="translate(106.26 115.713)" fill="#ebebeb"/>
        <rect id="Rectángulo_34703" data-name="Rectángulo 34703" width="10.707" height="23.836" transform="translate(125.781 115.713)" fill="#ebebeb"/>
        <rect id="Rectángulo_34704" data-name="Rectángulo 34704" width="10.707" height="23.836" transform="translate(86.748 153.336)" fill="#ebebeb"/>
        <rect id="Rectángulo_34705" data-name="Rectángulo 34705" width="10.707" height="23.836" transform="translate(145.301 153.336)" fill="#ebebeb"/>
        <rect id="Rectángulo_34706" data-name="Rectángulo 34706" width="10.707" height="23.836" transform="translate(106.26 153.336)" fill="#ebebeb"/>
        <rect id="Rectángulo_34707" data-name="Rectángulo 34707" width="10.707" height="23.836" transform="translate(125.781 153.336)" fill="#ebebeb"/>
        <rect id="Rectángulo_34708" data-name="Rectángulo 34708" width="10.707" height="23.836" transform="translate(86.748 190.967)" fill="#ebebeb"/>
        <rect id="Rectángulo_34709" data-name="Rectángulo 34709" width="10.707" height="23.836" transform="translate(145.301 190.967)" fill="#ebebeb"/>
        <rect id="Rectángulo_34710" data-name="Rectángulo 34710" width="10.707" height="23.836" transform="translate(106.26 190.967)" fill="#ebebeb"/>
        <rect id="Rectángulo_34711" data-name="Rectángulo 34711" width="10.707" height="23.836" transform="translate(125.781 190.967)" fill="#ebebeb"/>
        <rect id="Rectángulo_34712" data-name="Rectángulo 34712" width="10.707" height="23.836" transform="translate(86.748 228.59)" fill="#ebebeb"/>
        <rect id="Rectángulo_34713" data-name="Rectángulo 34713" width="10.707" height="23.836" transform="translate(145.301 228.59)" fill="#ebebeb"/>
        <rect id="Rectángulo_34714" data-name="Rectángulo 34714" width="10.707" height="23.836" transform="translate(106.26 228.59)" fill="#ebebeb"/>
        <rect id="Rectángulo_34715" data-name="Rectángulo 34715" width="10.707" height="23.836" transform="translate(125.781 228.59)" fill="#ebebeb"/>
        <rect id="Rectángulo_34716" data-name="Rectángulo 34716" width="9.73" height="21.665" transform="translate(343.94 96.703)" fill="#ebebeb"/>
        <rect id="Rectángulo_34717" data-name="Rectángulo 34717" width="9.73" height="21.665" transform="translate(361.687 96.703)" fill="#ebebeb"/>
        <rect id="Rectángulo_34719" data-name="Rectángulo 34719" width="9.73" height="21.665" transform="translate(343.94 130.909)" fill="#ebebeb"/>
        <rect id="Rectángulo_34720" data-name="Rectángulo 34720" width="9.73" height="21.665" transform="translate(361.687 130.909)" fill="#ebebeb"/>
        <rect id="Rectángulo_34722" data-name="Rectángulo 34722" width="9.73" height="21.665" transform="translate(343.94 165.124)" fill="#ebebeb"/>
        <rect id="Rectángulo_34723" data-name="Rectángulo 34723" width="9.73" height="21.665" transform="translate(361.687 165.124)" fill="#ebebeb"/>
        <rect id="Rectángulo_34725" data-name="Rectángulo 34725" width="9.73" height="21.665" transform="translate(343.94 199.322)" fill="#ebebeb"/>
        <rect id="Rectángulo_34726" data-name="Rectángulo 34726" width="9.73" height="21.665" transform="translate(361.687 199.322)" fill="#ebebeb"/>
        <rect id="Rectángulo_34728" data-name="Rectángulo 34728" width="9.73" height="21.665" transform="translate(343.94 233.537)" fill="#ebebeb"/>
        <rect id="Rectángulo_34729" data-name="Rectángulo 34729" width="9.73" height="21.665" transform="translate(361.687 233.537)" fill="#ebebeb"/>
        <path id="Trazado_167831" data-name="Trazado 167831" d="M256.309,89.26H340.1a6.417,6.417,0,0,1,6.418,6.417V342.594H249.9V95.677a6.417,6.417,0,0,1,6.409-6.417Z" transform="translate(-33.765 -59.629)" fill="#451991" opacity="0.18"/>
        <rect id="Rectángulo_34731" data-name="Rectángulo 34731" width="12.454" height="27.728" transform="translate(224.153 44.602)" fill="#ebebeb"/>
        <rect id="Rectángulo_34732" data-name="Rectángulo 34732" width="12.454" height="27.728" transform="translate(292.271 44.602)" fill="#ebebeb"/>
        <rect id="Rectángulo_34733" data-name="Rectángulo 34733" width="12.454" height="27.728" transform="translate(246.856 44.602)" fill="#ebebeb"/>
        <rect id="Rectángulo_34734" data-name="Rectángulo 34734" width="12.454" height="27.728" transform="translate(269.568 44.602)" fill="#ebebeb"/>
        <rect id="Rectángulo_34735" data-name="Rectángulo 34735" width="12.454" height="27.728" transform="translate(224.153 88.383)" fill="#ebebeb"/>
        <rect id="Rectángulo_34736" data-name="Rectángulo 34736" width="12.454" height="27.728" transform="translate(292.271 88.383)" fill="#ebebeb"/>
        <rect id="Rectángulo_34737" data-name="Rectángulo 34737" width="12.454" height="27.728" transform="translate(246.856 88.383)" fill="#ebebeb"/>
        <rect id="Rectángulo_34738" data-name="Rectángulo 34738" width="12.454" height="27.728" transform="translate(269.568 88.383)" fill="#ebebeb"/>
        <rect id="Rectángulo_34739" data-name="Rectángulo 34739" width="12.454" height="27.728" transform="translate(224.153 132.163)" fill="#ebebeb"/>
        <rect id="Rectángulo_34740" data-name="Rectángulo 34740" width="12.454" height="27.728" transform="translate(292.271 132.163)" fill="#ebebeb"/>
        <rect id="Rectángulo_34741" data-name="Rectángulo 34741" width="12.454" height="27.728" transform="translate(246.856 132.163)" fill="#ebebeb"/>
        <rect id="Rectángulo_34742" data-name="Rectángulo 34742" width="12.454" height="27.728" transform="translate(269.568 132.163)" fill="#ebebeb"/>
        <rect id="Rectángulo_34743" data-name="Rectángulo 34743" width="12.454" height="27.728" transform="translate(224.153 175.935)" fill="#ebebeb"/>
        <rect id="Rectángulo_34744" data-name="Rectángulo 34744" width="12.454" height="27.728" transform="translate(292.271 175.935)" fill="#ebebeb"/>
        <rect id="Rectángulo_34745" data-name="Rectángulo 34745" width="12.454" height="27.728" transform="translate(246.856 175.935)" fill="#ebebeb"/>
        <rect id="Rectángulo_34746" data-name="Rectángulo 34746" width="12.454" height="27.728" transform="translate(269.568 175.935)" fill="#ebebeb"/>
        <rect id="Rectángulo_34747" data-name="Rectángulo 34747" width="12.454" height="27.728" transform="translate(224.153 219.707)" fill="#ebebeb"/>
        <rect id="Rectángulo_34748" data-name="Rectángulo 34748" width="12.454" height="27.728" transform="translate(292.271 219.707)" fill="#ebebeb"/>
        <rect id="Rectángulo_34749" data-name="Rectángulo 34749" width="12.454" height="27.728" transform="translate(246.856 219.707)" fill="#ebebeb"/>
        <rect id="Rectángulo_34750" data-name="Rectángulo 34750" width="12.454" height="27.728" transform="translate(269.568 219.707)" fill="#ebebeb"/>
        <rect id="Rectángulo_34751" data-name="Rectángulo 34751" width="53.225" height="162.607" transform="translate(162.902 120.366)" fill="#e6e6e6"/>
        <rect id="Rectángulo_34752" data-name="Rectángulo 34752" width="23.516" height="145.189" transform="translate(312.761 137.777)" fill="#e6e6e6"/>
        <path id="Trazado_167832" data-name="Trazado 167832" d="M85.043,369.1H38.46V301.218L85.043,285.46Z" transform="translate(-5.196 -86.138)" fill="#e6e6e6"/>
      </g>
      <g id="freepik--Truck--inject-24" transform="translate(29 149.878)">
        <path id="Trazado_167833" data-name="Trazado 167833" d="M293.221,348.92h-14.7c-7.654,0-13.838,11.1-13.838,24.788s6.2,24.779,13.838,24.779h14.7c7.654,0,13.838-11.1,13.838-24.779S300.876,348.92,293.221,348.92Z" transform="translate(-64.761 -189.59)" fill="#263238"/>
        <g id="Grupo_103360" data-name="Grupo 103360" transform="translate(199.919 159.33)" clip-path="url(#clip-path-2)">
          <path id="Trazado_167834" data-name="Trazado 167834" d="M313.221,348.92h-14.7c-7.654,0-13.838,11.1-13.838,24.788s6.2,24.779,13.838,24.779h14.7c7.654,0,13.838-11.1,13.838-24.779S320.876,348.92,313.221,348.92Z" transform="translate(-267.382 -348.92)" fill="#fff" opacity="0.05"/>
        </g>
        <path id="Trazado_167836" data-name="Trazado 167836" d="M395.168,329.34,137.7,329.158V164.7H395.168Z" transform="translate(-47.605 -164.7)" fill="#90caf9"/>
        <rect id="Rectángulo_34753" data-name="Rectángulo 34753" width="174.5" height="164.631" transform="translate(173.064)" fill="#263238" opacity="0.3"/>
        <rect id="Rectángulo_34754" data-name="Rectángulo 34754" width="82.969" height="167.883" transform="translate(90.095)" fill="#fff" opacity="0.2"/>
        <line id="Línea_337" data-name="Línea 337" x2="256.846" transform="translate(90.718 7.646)" fill="none" stroke="#fff" stroke-linecap="round" stroke-linejoin="round" stroke-width="2" opacity="0.1"/>
        <line id="Línea_338" data-name="Línea 338" x2="256.846" transform="translate(90.718 14.764)" fill="none" stroke="#fff" stroke-linecap="round" stroke-linejoin="round" stroke-width="2" opacity="0.1"/>
        <line id="Línea_339" data-name="Línea 339" x2="256.846" transform="translate(90.718 21.873)" fill="none" stroke="#fff" stroke-linecap="round" stroke-linejoin="round" stroke-width="2" opacity="0.1"/>
        <line id="Línea_340" data-name="Línea 340" x2="256.846" transform="translate(90.718 28.982)" fill="none" stroke="#fff" stroke-linecap="round" stroke-linejoin="round" stroke-width="2" opacity="0.1"/>
        <line id="Línea_341" data-name="Línea 341" x2="256.846" transform="translate(90.718 36.1)" fill="none" stroke="#fff" stroke-linecap="round" stroke-linejoin="round" stroke-width="2" opacity="0.1"/>
        <line id="Línea_342" data-name="Línea 342" x2="256.846" transform="translate(90.718 43.21)" fill="none" stroke="#fff" stroke-linecap="round" stroke-linejoin="round" stroke-width="2" opacity="0.1"/>
        <line id="Línea_343" data-name="Línea 343" x2="256.846" transform="translate(90.718 50.319)" fill="none" stroke="#fff" stroke-linecap="round" stroke-linejoin="round" stroke-width="2" opacity="0.1"/>
        <line id="Línea_344" data-name="Línea 344" x2="256.846" transform="translate(90.718 57.429)" fill="none" stroke="#fff" stroke-linecap="round" stroke-linejoin="round" stroke-width="2" opacity="0.1"/>
        <line id="Línea_345" data-name="Línea 345" x2="256.846" transform="translate(90.718 64.547)" fill="none" stroke="#fff" stroke-linecap="round" stroke-linejoin="round" stroke-width="2" opacity="0.1"/>
        <line id="Línea_346" data-name="Línea 346" x2="256.846" transform="translate(90.718 71.656)" fill="none" stroke="#fff" stroke-linecap="round" stroke-linejoin="round" stroke-width="2" opacity="0.1"/>
        <line id="Línea_347" data-name="Línea 347" x2="256.846" transform="translate(90.718 78.765)" fill="none" stroke="#fff" stroke-linecap="round" stroke-linejoin="round" stroke-width="2" opacity="0.1"/>
        <line id="Línea_348" data-name="Línea 348" x2="256.846" transform="translate(90.718 85.883)" fill="none" stroke="#fff" stroke-linecap="round" stroke-linejoin="round" stroke-width="2" opacity="0.1"/>
        <line id="Línea_349" data-name="Línea 349" x2="256.846" transform="translate(90.718 92.993)" fill="none" stroke="#fff" stroke-linecap="round" stroke-linejoin="round" stroke-width="2" opacity="0.1"/>
        <line id="Línea_350" data-name="Línea 350" x2="256.846" transform="translate(90.718 100.102)" fill="none" stroke="#fff" stroke-linecap="round" stroke-linejoin="round" stroke-width="2" opacity="0.1"/>
        <line id="Línea_351" data-name="Línea 351" x2="256.846" transform="translate(90.718 107.211)" fill="none" stroke="#fff" stroke-linecap="round" stroke-linejoin="round" stroke-width="2" opacity="0.1"/>
        <line id="Línea_352" data-name="Línea 352" x2="256.846" transform="translate(90.718 114.329)" fill="none" stroke="#fff" stroke-linecap="round" stroke-linejoin="round" stroke-width="2" opacity="0.1"/>
        <line id="Línea_353" data-name="Línea 353" x2="256.846" transform="translate(90.718 121.439)" fill="none" stroke="#fff" stroke-linecap="round" stroke-linejoin="round" stroke-width="2" opacity="0.1"/>
        <line id="Línea_354" data-name="Línea 354" x2="256.846" transform="translate(90.718 128.548)" fill="none" stroke="#fff" stroke-linecap="round" stroke-linejoin="round" stroke-width="2" opacity="0.1"/>
        <line id="Línea_355" data-name="Línea 355" x2="256.846" transform="translate(90.718 135.666)" fill="none" stroke="#fff" stroke-linecap="round" stroke-linejoin="round" stroke-width="2" opacity="0.1"/>
        <line id="Línea_356" data-name="Línea 356" x2="256.846" transform="translate(90.718 142.776)" fill="none" stroke="#fff" stroke-linecap="round" stroke-linejoin="round" stroke-width="2" opacity="0.1"/>
        <line id="Línea_357" data-name="Línea 357" x2="256.846" transform="translate(90.718 149.885)" fill="none" stroke="#fff" stroke-linecap="round" stroke-linejoin="round" stroke-width="2" opacity="0.1"/>
        <line id="Línea_358" data-name="Línea 358" x2="256.846" transform="translate(90.718 157.003)" fill="none" stroke="#fff" stroke-linecap="round" stroke-linejoin="round" stroke-width="2" opacity="0.1"/>
        <path id="Trazado_167837" data-name="Trazado 167837" d="M78.94,352.66h-13.6c-7.092,0-12.835,10.275-12.835,22.954s5.743,22.945,12.835,22.945h13.6c7.092,0,12.835-10.275,12.835-22.945S86.032,352.66,78.94,352.66Z" transform="translate(-36.093 -190.096)" fill="#263238"/>
        <path id="Trazado_167838" data-name="Trazado 167838" d="M98.948,352.66H85.335c-7.092,0-12.835,10.275-12.835,22.954s5.743,22.945,12.835,22.945H98.948c7.083,0,12.835-10.275,12.835-22.945S106.032,352.66,98.948,352.66Z" transform="translate(-38.795 -190.096)" fill="#fff" opacity="0.05"/>
        <path id="Trazado_167839" data-name="Trazado 167839" d="M72.949,296.683H66.515c-1.263.043-2.3-1.306-2.327-3.018a2.785,2.785,0,0,1,0-.536l1.73-19.434c.216-2,1.453-3.46,2.941-3.555h6.5c1.254,0,2.292,1.323,2.318,3.036v.519l-1.73,19.434C75.682,295.1,74.4,296.632,72.949,296.683Z" transform="translate(-37.671 -178.946)" fill="#263238"/>
        <path id="Trazado_167840" data-name="Trazado 167840" d="M79.821,224.593,67.41,291.526l135.121,52.931-.943-131.913-29.718-.865h-81.4C85.573,211.637,81.257,216.9,79.821,224.593Z" transform="translate(-38.108 -171.048)" fill="#36a3f7"/>
        <path id="Trazado_167841" data-name="Trazado 167841" d="M191.436,239.059c-5.042-.225-9.566,3.909-11.045,10.076l-10.223,42.829H150.492l-1.072,56.5h64.72" transform="translate(-49.188 -174.746)" fill="#36a3f7"/>
        <path id="Trazado_167842" data-name="Trazado 167842" d="M83.441,287.934c-1.981,0-3.581-2.543-3.581-5.674a8.425,8.425,0,0,1,.156-1.626l7.429-39.3c.623-3.261,2.525-5.492,4.679-5.483H163.2c.77,0,1.4.986,1.4,2.214a3.232,3.232,0,0,1-.061.649c-1.557,8.1-6.616,34.915-8.554,45.173-.45,2.4-1.851,4.048-3.46,4.048Z" transform="translate(-39.79 -174.313)" fill="#263238"/>
        <path id="Trazado_167843" data-name="Trazado 167843" d="M143.027,314.566a14.88,14.88,0,0,1-.147,2.058l-.372,2.534-.216,1.5L140.7,331.587l-2.595,17.773-.718,4.939H36.81V349.36l.069-17.773.1-10.629v-4.324c-.865-5.708,1.894-11.244,6.1-12.394a5.638,5.638,0,0,1,1.514-.2h90.692C139.559,304.005,143.027,308.745,143.027,314.566Z" transform="translate(-33.973 -183.527)" fill="#36a3f7"/>
        <path id="Trazado_167844" data-name="Trazado 167844" d="M213.977,241.129v42.129c0,2.551-1.306,4.627-2.923,4.636h-24.58c-1.617,0-2.923-2.076-2.923-4.636a7.411,7.411,0,0,1,.1-1.245l7.576-43.071c.363-2.067,1.574-3.46,2.923-3.382l17,.934C212.731,236.589,213.977,238.639,213.977,241.129Z" transform="translate(-53.8 -174.274)" fill="#263238"/>
        <path id="Trazado_167845" data-name="Trazado 167845" d="M127.383,235.85H113.8L98.21,287.934H111.8Z" transform="translate(-42.269 -174.313)" fill="#fff" opacity="0.1"/>
        <path id="Trazado_167846" data-name="Trazado 167846" d="M140.712,235.85h-6.487L118.64,287.934h6.478Z" transform="translate(-45.029 -174.313)" fill="#fff" opacity="0.1"/>
        <path id="Trazado_167847" data-name="Trazado 167847" d="M169.089,335.89v17.773H36.83L36.9,335.89Z" transform="translate(-33.976 -187.83)"/>
        <path id="Trazado_167848" data-name="Trazado 167848" d="M163.1,335.89h-12.23L128.88,348.811v4.852h52.646V335.89Z" transform="translate(-46.413 -187.83)" fill="#fff"/>
        <path id="Trazado_167849" data-name="Trazado 167849" d="M59.628,348.811v4.852H36.83L36.9,335.89h.744Z" transform="translate(-33.976 -187.83)" fill="#fff"/>
        <path id="Trazado_167850" data-name="Trazado 167850" d="M214.612,344.768l-1-132.224-18.163-.865c-4.532-.225-9.765,5.042-11.088,11.148l-13.164,68.7h-5.129c-5.76,0-9.7,4.195-9.7,8.649l.078,44.611h58.164" transform="translate(-50.127 -171.047)" fill="#263238" opacity="0.3"/>
        <path id="Trazado_167851" data-name="Trazado 167851" d="M142.715,322.055a1.168,1.168,0,0,1-.4.865,1.133,1.133,0,0,1-.778.3H37V320.87H141.565a1.176,1.176,0,0,1,.995.554,1.194,1.194,0,0,1,.156.631Z" transform="translate(-33.999 -185.801)" fill="#fff"/>
        <path id="Trazado_167852" data-name="Trazado 167852" d="M55.434,320.88v2.353H36.96l.009-2.353Z" transform="translate(-33.993 -185.802)" fill="#263238"/>
        <path id="Trazado_167853" data-name="Trazado 167853" d="M155.085,322.055a1.168,1.168,0,0,1-.4.865,1.133,1.133,0,0,1-.778.3H128.55V320.87h25.359a1.176,1.176,0,0,1,.995.554A1.194,1.194,0,0,1,155.085,322.055Z" transform="translate(-46.368 -185.801)" fill="#263238"/>
        <path id="Trazado_167854" data-name="Trazado 167854" d="M385.712,359.324v.467a4.324,4.324,0,0,1-4.324,4.324H37.854a4.324,4.324,0,0,1-4.324-4.324v-.467A4.324,4.324,0,0,1,37.854,355H381.388A4.324,4.324,0,0,1,385.712,359.324Z" transform="translate(-33.53 -190.412)" fill="#263238"/>
        <rect id="Rectángulo_34755" data-name="Rectángulo 34755" width="51.201" height="2.5" transform="translate(29.302 168.143)"/>
        <path id="Trazado_167855" data-name="Trazado 167855" d="M51.214,360.327a1.427,1.427,0,1,1-.421-1.012,1.427,1.427,0,0,1,.421,1.012Z" transform="translate(-35.534 -190.939)" fill="#fff"/>
        <path id="Trazado_167856" data-name="Trazado 167856" d="M140.3,360.327a1.427,1.427,0,1,1-1.427-1.427A1.427,1.427,0,0,1,140.3,360.327Z" transform="translate(-47.571 -190.939)" fill="#fff"/>
        <path id="Trazado_167857" data-name="Trazado 167857" d="M186.282,373.037c0-13.76,6.236-24.917,13.933-24.917H185.435c-7.689,0-13.925,11.157-13.925,24.917s6.236,24.909,13.925,24.909h14.781C192.518,397.972,186.282,386.824,186.282,373.037Z" transform="translate(-52.173 -189.482)"/>
        <path id="Trazado_167858" data-name="Trazado 167858" d="M186.282,373.037c0-13.76,6.236-24.917,13.933-24.917H185.435c-7.689,0-13.925,11.157-13.925,24.917s6.236,24.909,13.925,24.909h14.781C192.518,397.972,186.282,386.824,186.282,373.037Z" transform="translate(-52.173 -189.482)" fill="#263238" opacity="0.7"/>
        <ellipse id="Elipse_5087" data-name="Elipse 5087" cx="13.933" cy="24.917" rx="13.933" ry="24.917" transform="translate(134.109 158.664)" fill="#263238"/>
        <ellipse id="Elipse_5088" data-name="Elipse 5088" cx="9.877" cy="19.425" rx="9.877" ry="19.425" transform="translate(139.281 164.156)" fill="#fff"/>
        <ellipse id="Elipse_5089" data-name="Elipse 5089" cx="9.453" cy="16.813" rx="9.453" ry="16.813" transform="translate(138.806 166.768)" fill="#263238"/>
        <ellipse id="Elipse_5090" data-name="Elipse 5090" cx="6.902" cy="12.273" rx="6.902" ry="12.273" transform="translate(139.281 171.308)"/>
        <path id="Trazado_167859" data-name="Trazado 167859" d="M412.748,359.324v.467a4.324,4.324,0,0,1-4.324,4.324H233.63V355H408.424A4.324,4.324,0,0,1,412.748,359.324Z" transform="translate(-60.566 -190.412)" opacity="0.5"/>
        <path id="Trazado_167860" data-name="Trazado 167860" d="M375.611,373.037c0-13.76,6.236-24.917,13.925-24.917H374.763c-7.7,0-13.933,11.157-13.933,24.917s6.236,24.909,13.933,24.909h14.755C381.847,397.972,375.611,386.824,375.611,373.037Z" transform="translate(-77.752 -189.482)"/>
        <path id="Trazado_167861" data-name="Trazado 167861" d="M375.611,373.037c0-13.76,6.236-24.917,13.925-24.917H374.763c-7.7,0-13.933,11.157-13.933,24.917s6.236,24.909,13.933,24.909h14.755C381.847,397.972,375.611,386.824,375.611,373.037Z" transform="translate(-77.752 -189.482)" fill="#263238" opacity="0.7"/>
        <ellipse id="Elipse_5091" data-name="Elipse 5091" cx="13.933" cy="24.917" rx="13.933" ry="24.917" transform="translate(297.85 158.664)" fill="#263238"/>
        <ellipse id="Elipse_5092" data-name="Elipse 5092" cx="9.877" cy="19.425" rx="9.877" ry="19.425" transform="translate(303.031 164.156)" fill="#fff"/>
        <ellipse id="Elipse_5093" data-name="Elipse 5093" cx="9.453" cy="16.813" rx="9.453" ry="16.813" transform="translate(302.546 166.768)" fill="#263238"/>
        <ellipse id="Elipse_5094" data-name="Elipse 5094" cx="6.902" cy="12.273" rx="6.902" ry="12.273" transform="translate(303.022 171.308)"/>
      </g>
      <g id="freepik--Character--inject-24" transform="translate(250.506 166.721)">
        <path id="Trazado_167862" data-name="Trazado 167862" d="M325.394,235.938c-.173,3.33-.476,6.547-.969,9.825a54.808,54.808,0,0,1-2.214,9.972,16.867,16.867,0,0,1-1.237,2.733,7.787,7.787,0,0,1-1.245,1.609l-.242.225-.138.1-.069.061-.294.2-.579.406a31.455,31.455,0,0,1-4.618,2.448,52.892,52.892,0,0,1-9.453,3.131l-1.124-3.079c2.75-1.522,5.57-3.079,8.139-4.7a36.135,36.135,0,0,0,3.615-2.534l.381-.32.19-.164h0s.078-.13.173-.337a11.694,11.694,0,0,0,.623-1.73,38.551,38.551,0,0,0,.925-4.324c.268-1.5.484-3.036.666-4.593.355-3.088.657-6.253.865-9.332Z" transform="translate(-291.474 -191.115)" fill="#ce7a63"/>
        <path id="Trazado_167863" data-name="Trazado 167863" d="M304.75,267.743l-5.31-1.643.995,6.426s3.46-.432,5.189-2.37Z" transform="translate(-290.964 -195.244)" fill="#ce7a63"/>
        <path id="Trazado_167864" data-name="Trazado 167864" d="M291.979,270.234l.294.865a2.335,2.335,0,0,0,2.327,1.565l2.707-.121-1-6.443-2.975,1.168A2.352,2.352,0,0,0,291.979,270.234Z" transform="translate(-289.938 -195.244)" fill="#ce7a63"/>
        <path id="Trazado_167865" data-name="Trazado 167865" d="M333.9,228c0,2.007-.969,5.968-1.8,8.943-.614,2.136-1.124,3.762-1.124,3.762l-1.219-.3-10.05-2.543c-.156-5.189.043-10.837,5.189-14.227C328.112,221.5,333.872,224.423,333.9,228Z" transform="translate(-293.698 -189.408)" fill="#263238"/>
        <path id="Trazado_167866" data-name="Trazado 167866" d="M334.331,229.106c-.657-.692-2.145-.813-5.388.216-4.644,1.47-5.942,6.556-6,10.007l7.256,1.834.623.164.6.138s.251-.813.614-2.05h0c.147-.5.329-1.09.5-1.73a47,47,0,0,0,1.8-8.58Z" transform="translate(-294.139 -190.173)" opacity="0.3"/>
        <path id="Trazado_167867" data-name="Trazado 167867" d="M311.312,413.06l-6.132-2.145,3.857-13.285,6.123,2.154Z" transform="translate(-291.74 -213.015)" fill="#ce7a63"/>
        <path id="Trazado_167868" data-name="Trazado 167868" d="M404.625,395.653l-4.99,3.719L389.42,389.019l4.99-3.719Z" transform="translate(-303.122 -211.349)" fill="#ce7a63"/>
        <path id="Trazado_167869" data-name="Trazado 167869" d="M398.1,399.105l5.388-4.454a.5.5,0,0,1,.657,0l4.134,3.754a.995.995,0,0,1,0,1.41l-.086.078c-1.9,1.522-2.906,2.162-5.276,4.117-1.453,1.2-4.506,4.082-6.521,5.743s-3.762-.234-3.07-1.107c3.088-3.909,3.806-6.487,4.169-8.6a1.669,1.669,0,0,1,.605-.943Z" transform="translate(-303.628 -212.596)" fill="#263238"/>
        <path id="Trazado_167870" data-name="Trazado 167870" d="M302.767,410.747l6.815,2.845a.614.614,0,0,1,.363.64l-.77,6.011a.917.917,0,0,1-1.021.8.864.864,0,0,1-.259-.069c-2.413-.977-3.546-1.462-6.539-2.716l-9.185-3.849c-2.491-1.046-1.955-3.78-.865-3.581,5.042.917,8.294.614,10.284-.138a1.531,1.531,0,0,1,1.176.061Z" transform="translate(-289.742 -214.767)" fill="#263238"/>
        <path id="Trazado_167871" data-name="Trazado 167871" d="M309.331,397.64l-1.981,6.841,5.968,2.7,2.145-7.395Z" transform="translate(-292.033 -213.016)" opacity="0.2"/>
        <path id="Trazado_167872" data-name="Trazado 167872" d="M394.419,385.3l-5,3.719,5.267,5.336,4.99-3.719Z" transform="translate(-303.122 -211.349)" opacity="0.2"/>
        <path id="Trazado_167873" data-name="Trazado 167873" d="M353.3,260.205l-25.255.363c-3.46-19.555-4.324-28.887-4.324-33.376a4.809,4.809,0,0,1,3.892-4.74c1.539-.3,3.46-.649,5.388-.917.657-.087,1.323-.173,1.981-.242a80.572,80.572,0,0,1,11.468-.164c.571,0,1.133.052,1.73.086,2.595.164,4.964.493,6.651.752a2.318,2.318,0,0,1,1.92,2.655.672.672,0,0,1,0,.13c-.744,3.46-1.349,6.53-1.834,9.263-.77,4.324-1.254,7.853-1.54,10.932a95.6,95.6,0,0,0-.078,15.257Z" transform="translate(-294.245 -189.15)" fill="#263238"/>
        <path id="Trazado_167874" data-name="Trazado 167874" d="M357.858,246.488c-1.271-3.814-1.2-11.728.164-14.288l1.392,3.347C358.628,239.9,358.143,243.409,357.858,246.488Z" transform="translate(-298.734 -190.663)" opacity="0.1"/>
        <path id="Trazado_167875" data-name="Trazado 167875" d="M325.734,266.722s-4.324,36.766-8.225,59.677c-3.088,17.938-10.889,55.275-10.889,55.275l10.128,3.589s11.6-38.92,13.631-55.543c8.173-23.966,14.054-63.18,14.054-63.18Z" transform="translate(-291.934 -195.303)" fill="#f739a8"/>
        <path id="Trazado_167876" data-name="Trazado 167876" d="M304.72,401.857l11.719,4.125L318,402.221l-12.714-4.861Z" transform="translate(-291.678 -212.979)" fill="#263238"/>
        <path id="Trazado_167877" data-name="Trazado 167877" d="M342.794,279.3l-3.788,7.256c-1.384,5.466-1.055,18.768.7,27.175,3.148-12.671,5.665-26.007,7.23-34.959Z" transform="translate(-296.194 -196.956)" opacity="0.1"/>
        <path id="Trazado_167878" data-name="Trazado 167878" d="M335.06,266.695s4.523,41.151,12.973,64c4.238,11.46,35.677,45.433,35.677,45.433l7.092-5.674s-19.936-34.275-28.654-43.244c-3.555-19.892.917-49.714-7.343-60.871Z" transform="translate(-295.777 -195.276)" fill="#f739a8"/>
        <path id="Trazado_167879" data-name="Trazado 167879" d="M391.526,394.448l8.32-6.815L397.6,383.94l-9.107,7.931Z" transform="translate(-302.996 -211.165)" fill="#263238"/>
        <path id="Trazado_167880" data-name="Trazado 167880" d="M354.251,264.59l1.168,2.24c.086.173-.112.363-.406.363l-26.5.381c-.233,0-.415-.112-.441-.251l-.251-2.257c0-.156.182-.294.424-.294l25.583-.372a.5.5,0,0,1,.424.19Z" transform="translate(-294.799 -195.014)" fill="#263238"/>
        <path id="Trazado_167881" data-name="Trazado 167881" d="M354.319,267.493h.7c.13,0,.234-.078.225-.156l-.372-2.941c0-.087-.121-.147-.259-.147h-.649c-.138,0-.242.078-.225.156l.363,2.932C354.06,267.407,354.189,267.493,354.319,267.493Z" transform="translate(-298.3 -194.994)" fill="#90caf9"/>
        <path id="Trazado_167882" data-name="Trazado 167882" d="M330.72,267.812h.692c.138,0,.234-.078.225-.164l-.355-2.932c0-.086-.138-.156-.277-.156h-.692c-.138,0-.242.078-.233.164l.363,2.932C330.46,267.743,330.582,267.812,330.72,267.812Z" transform="translate(-295.104 -195.036)" fill="#90caf9"/>
        <path id="Trazado_167883" data-name="Trazado 167883" d="M342.521,267.622h.692c.138,0,.242-.078.234-.164l-.363-2.932c0-.1-.13-.164-.268-.156h-.692c-.138,0-.233.078-.233.164l.363,2.932C342.245,267.57,342.383,267.622,342.521,267.622Z" transform="translate(-296.7 -195.01)" fill="#90caf9"/>
        <path id="Trazado_167884" data-name="Trazado 167884" d="M289.64,236.016l37.484-5.146,5.189,36.8-36.81,5.051Z" transform="translate(-289.64 -190.484)" fill="#90caf9"/>
        <path id="Trazado_167885" data-name="Trazado 167885" d="M289.64,236.016l37.484-5.146,5.189,36.8-36.81,5.051Z" transform="translate(-289.64 -190.484)" fill="#faf9ec" opacity="0.8"/>
        <rect id="Rectángulo_34756" data-name="Rectángulo 34756" width="10.111" height="38.349" transform="translate(27.989 40.025) rotate(-8.049)" fill="#90caf9" opacity="0.2"/>
        <path id="Trazado_167886" data-name="Trazado 167886" d="M344.459,267.742l-5.189-2.033.51,6.487s3.46-.173,5.319-1.981Z" transform="translate(-296.346 -195.191)" fill="#ce7a63"/>
        <path id="Trazado_167887" data-name="Trazado 167887" d="M361.274,230.72c1.392,3.892,2.595,7.784,3.615,11.762.519,2,1,4,1.392,6.054.19,1.038.355,2.093.476,3.191a22.192,22.192,0,0,1,.147,3.46,9.227,9.227,0,0,1-.346,2.223,6.418,6.418,0,0,1-1.392,2.4,11.044,11.044,0,0,1-3.243,2.4,28.775,28.775,0,0,1-6.262,2.188,65.782,65.782,0,0,1-12.325,1.652l-.406-3.261c1.894-.45,3.831-.951,5.717-1.479s3.762-1.116,5.561-1.773a28.054,28.054,0,0,0,4.947-2.257,5.743,5.743,0,0,0,1.5-1.271c.112-.173.112-.216.1-.216a5.708,5.708,0,0,0,0-.77,18.561,18.561,0,0,0-.268-2.5c-.138-.865-.329-1.834-.536-2.785-.432-1.851-.917-3.745-1.462-5.639-1.081-3.754-2.3-7.568-3.52-11.244Z" transform="translate(-296.84 -190.463)" fill="#ce7a63"/>
        <path id="Trazado_167888" data-name="Trazado 167888" d="M333.729,268.915l.406,1.5a2.292,2.292,0,0,0,2.154,1.73l2.785.078-.51-6.478-2.837.32a2.3,2.3,0,0,0-2.058,2.526A2.33,2.33,0,0,0,333.729,268.915Z" transform="translate(-295.587 -195.196)" fill="#ce7a63"/>
        <path id="Trazado_167889" data-name="Trazado 167889" d="M359.569,222.27c2.906,1.185,5.284,10.733,5.284,10.733l-8.026,6.27s-5.691-8.908-4.532-12.774C353.282,223.23,355.868,220.774,359.569,222.27Z" transform="translate(-298.085 -189.261)" fill="#263238"/>
        <path id="Trazado_167890" data-name="Trazado 167890" d="M396.46,402.634h-.1a.865.865,0,0,1-.7-.45.51.51,0,0,1-.043-.51c.355-.692,2.595-.969,2.837-.995a.138.138,0,0,1,.147.069.147.147,0,0,1,0,.164C398.129,401.544,397.221,402.582,396.46,402.634Zm1.687-1.617c-.865.13-2.084.415-2.257.8a.2.2,0,0,0,0,.216.536.536,0,0,0,.458.311,3.058,3.058,0,0,0,1.816-1.323Z" transform="translate(-303.952 -213.427)" fill="#263238"/>
        <path id="Trazado_167891" data-name="Trazado 167891" d="M398.366,400.727c-.752,0-2.257-.268-2.595-.865a.519.519,0,0,1,.121-.631.77.77,0,0,1,.605-.251c.908,0,2.058,1.392,2.093,1.47a.17.17,0,0,1-.112.234Zm-1.92-1.436a.51.51,0,0,0-.32.156c-.13.138-.1.225-.069.294.2.381,1.384.692,2.145.692a3.46,3.46,0,0,0-1.687-1.15Z" transform="translate(-303.972 -213.197)" fill="#263238"/>
        <path id="Trazado_167892" data-name="Trazado 167892" d="M300.463,410.3a2.439,2.439,0,0,1-1.2-.865.951.951,0,0,1-.069-.8.449.449,0,0,1,.329-.3c.8-.147,2.673,1.868,3.036,2.275a.156.156,0,0,1,0,.173.138.138,0,0,1-.156.069A9.955,9.955,0,0,1,300.463,410.3Zm-.6-1.626a.545.545,0,0,0-.285-.052s-.078,0-.112.1a.623.623,0,0,0,.052.554,4.089,4.089,0,0,0,2.508,1.194,9.012,9.012,0,0,0-2.145-1.8Z" transform="translate(-290.923 -214.461)" fill="#263238"/>
        <path id="Trazado_167893" data-name="Trazado 167893" d="M302.677,410.71h-.052c-.631-.631-1.661-2.525-1.306-3.131.078-.13.242-.268.614-.164,1.392.406.969,3.1.943,3.217a.113.113,0,0,1-.1.112A.1.1,0,0,1,302.677,410.71Zm-.692-3.018H301.9a.554.554,0,0,0-.277,0c-.208.355.458,1.782,1.064,2.543-.009-.666.078-2.2-.7-2.543Z" transform="translate(-291.208 -214.332)" fill="#263238"/>
        <path id="Trazado_167894" data-name="Trazado 167894" d="M332.794,191.23s-3.46,5.786-.865,8.32,3.356-6.452,3.356-6.452Z" transform="translate(-295.223 -185.128)" fill="#263238"/>
        <path id="Trazado_167895" data-name="Trazado 167895" d="M348.825,203.855s4.324-6.763,2.525-13.484-10.206-2.378-13.752-4.221a20.29,20.29,0,0,0-4.126-1.911,1.583,1.583,0,0,0-1.375.234c-.865.761.64,2.188,1.107,2.724a4.775,4.775,0,0,0-.986-.865c-.458-.3-1.072-.329-.865.441a3.805,3.805,0,0,0,1.8,1.9c-.337-.19-2.335-1.2-2.474-.571a.623.623,0,0,0,.112.432c1.3,2.422,3.909,5.466,6.919,5.527C341.335,194.117,344.794,204.314,348.825,203.855Z" transform="translate(-295.184 -184.175)" fill="#263238"/>
        <path id="Trazado_167896" data-name="Trazado 167896" d="M350.444,205.4c-.225,2.283-3.615,2.309-3.615,2.309a7.334,7.334,0,0,1-2.655,3.217,19.027,19.027,0,0,0,.138,4.134c.571,2.154,1.3,2.9,2.205,3.382h0l-.727.718a9.514,9.514,0,0,1-4.567,1.271l-.951-.554-1.245.2c-3.46-1.133-2.595-3.46-2.595-3.46a7,7,0,0,0,.1-4.939c-3.321-1.038-4.679-3.927-5.146-8.787s2.266-9.514,2.266-9.514c3.754,3.624,11.192,1.3,11.192,1.3-.32,6.815,2.863,9.332,2.863,9.332C348.749,203.075,350.66,203.127,350.444,205.4Z" transform="translate(-295.273 -185.418)" fill="#ce7a63"/>
        <path id="Trazado_167897" data-name="Trazado 167897" d="M339.207,207.682a3.823,3.823,0,0,0,2.171-1.591.285.285,0,0,0-.069-.389.277.277,0,0,0-.389.061,2.811,2.811,0,0,1-3.036,1.384.277.277,0,0,0-.346.182.285.285,0,0,0,.182.355A2.941,2.941,0,0,0,339.207,207.682Z" transform="translate(-296.11 -187.076)" fill="#263238"/>
        <path id="Trazado_167898" data-name="Trazado 167898" d="M340.443,201c0,.441-.173.822-.467.865s-.562-.32-.6-.761.182-.865.476-.865S340.409,200.551,340.443,201Z" transform="translate(-296.36 -186.345)" fill="#263238"/>
        <path id="Trazado_167899" data-name="Trazado 167899" d="M334.325,200.741c0,.441-.173.822-.467.865s-.554-.32-.588-.761.173-.822.467-.865S334.3,200.291,334.325,200.741Z" transform="translate(-295.534 -186.31)" fill="#263238"/>
        <path id="Trazado_167900" data-name="Trazado 167900" d="M335.852,205.31l-.061-3.2-1.591,2.7A1.989,1.989,0,0,0,335.852,205.31Z" transform="translate(-295.661 -186.598)" fill="#ba4d3c"/>
        <path id="Trazado_167901" data-name="Trazado 167901" d="M342.943,197.684a.3.3,0,0,0,.1-.052.363.363,0,0,0,.121-.51,3,3,0,0,0-2.828-1.453.363.363,0,0,0-.32.415.372.372,0,0,0,.415.32h0a2.283,2.283,0,0,1,2.1,1.107.372.372,0,0,0,.407.173Z" transform="translate(-296.446 -185.726)" fill="#263238"/>
        <path id="Trazado_167902" data-name="Trazado 167902" d="M332.479,197.345a.389.389,0,0,0,.233-.173,1.453,1.453,0,0,1,1.453-.631.363.363,0,0,0,.432-.294.372.372,0,0,0-.294-.432,2.162,2.162,0,0,0-2.231.986.381.381,0,0,0,.13.51A.389.389,0,0,0,332.479,197.345Z" transform="translate(-295.366 -185.742)" fill="#263238"/>
        <path id="Trazado_167903" data-name="Trazado 167903" d="M349.324,222.082l-1.859,1.816-3.312,3.252-1.245-1.981-1.237-1.955,4.324-5.155,3.148,3.806Z" transform="translate(-296.67 -188.753)" fill="#fff"/>
        <path id="Trazado_167904" data-name="Trazado 167904" d="M340.795,223.343l-.96,1.6-1.41,2.335-3.235-5.838,2.067-2.43Z" transform="translate(-295.794 -188.881)" fill="#fff"/>
      </g>
    </g>
  </g>
</svg>
