<svg xmlns="http://www.w3.org/2000/svg" width="217.232" height="208.802" viewBox="0 0 217.232 208.802">
  <g id="img4" transform="translate(-8 -21.984)">
    <g id="freepik--Floor--inject-107" transform="translate(8 105.312)">
      <ellipse id="freepik--floor--inject-107-2" data-name="freepik--floor--inject-107" cx="108.616" cy="62.737" rx="108.616" ry="62.737" fill="#36a3f7" opacity="0.21"/>
    </g>
    <g id="freepik--Shadows--inject-107" transform="translate(13.367 129.463)">
      <path id="freepik--Shadow--inject-107" d="M52.032,314.874,20.775,296.826a1.2,1.2,0,0,1,0-2.28l56.494-32.625a4.372,4.372,0,0,1,3.95,0l31.261,18.047a1.2,1.2,0,0,1,0,2.28l-56.5,32.625A4.345,4.345,0,0,1,52.032,314.874Z" transform="translate(-19.958 -261.45)" fill="#e0e0e0"/>
      <ellipse id="freepik--shadow--inject-107-2" data-name="freepik--shadow--inject-107" cx="27.275" cy="15.749" rx="27.275" ry="15.749" transform="translate(144.806 38.653)" fill="#36a3f7" opacity="0.47"/>
      <ellipse id="freepik--shadow--inject-107-3" data-name="freepik--shadow--inject-107" cx="27.275" cy="15.749" rx="27.275" ry="15.749" transform="translate(38.901 56.53)" fill="#36a3f7" opacity="0.47"/>
    </g>
    <g id="freepik--Gears--inject-107" transform="translate(15.555 21.984)">
      <g id="freepik--gears--inject-107-2" data-name="freepik--gears--inject-107">
        <path id="Trazado_161447" data-name="Trazado 161447" d="M111.279,25.883h0a.4.4,0,0,0-.449.067l-.862.651-.166.557a1.032,1.032,0,0,0,.314.983,5.051,5.051,0,0,1,.449.476.606.606,0,0,0,.853.13l2.042-1.517a.4.4,0,0,1,.426-.072Zm-2.724,7.935c-.408-1.688-1.548-2.464-2.949-2.244a4.421,4.421,0,0,1,.359.978c.642,2.693-.817,6.616-3.254,8.806a5.215,5.215,0,0,1-2.617,1.387c.965,1.755,3.11,1.8,5.211-.108,2.442-2.208,3.9-6.153,3.25-8.819Zm-.718-11.548h0a.633.633,0,0,0-.171-.054l-1.607-.224a.862.862,0,0,0-.871.449l-1.3,2.94a1.373,1.373,0,0,1-.305.4h0a1.6,1.6,0,0,1-.242.189l.566,1.517a.543.543,0,0,0,.772.292,6.989,6.989,0,0,1,.956-.386,1.661,1.661,0,0,0,.543-.332,1.176,1.176,0,0,0,.31-.4l1.3-2.94a.866.866,0,0,1,.871-.476l1.611.251a.615.615,0,0,1,.162.049Zm-2.644,27.787a.449.449,0,0,1-.166-.229l-.651-1.741a.534.534,0,0,0-.772-.292,7.311,7.311,0,0,1-.956.381,1.163,1.163,0,0,0-.3.153l.085.22a.449.449,0,0,0,.22.265h0ZM100.444,24.2a.382.382,0,0,0-.175-.031.449.449,0,0,0-.283.13l-2.244,2.024a.808.808,0,0,0-.085.09.315.315,0,0,0-.058.076,1.53,1.53,0,0,0-.184.386c0,.031,0,.067,0,.094h0a1.064,1.064,0,0,0-.036.386l.287,2.244a1.8,1.8,0,0,1-.3,1.118c-.359.489-.691,1.005-1.005,1.53a1.171,1.171,0,0,1-.494.449.961.961,0,0,1-.206.076.242.242,0,0,1-.1,0,.449.449,0,0,1-.135,0L93.9,32.8h-.036a.565.565,0,0,0-.126,0l-.108.031h0a.713.713,0,0,0-.121.054,1.207,1.207,0,0,0-.211.153.929.929,0,0,0-.224.328l-1.221,3.312a.61.61,0,0,0,.292.759L93.9,38.3a.785.785,0,0,1,.067.449,14.3,14.3,0,0,0-.166,1.548,1.9,1.9,0,0,1-.449,1.077l-.027.022-2,2.109a.489.489,0,0,0-.094.117h0a.552.552,0,0,0-.076.144,1.248,1.248,0,0,0-.108.776l.552,2.244a.449.449,0,0,0,.2.3l2.585,1.27a.449.449,0,0,1-.193-.292L93.653,45.8a1.032,1.032,0,0,1,0-.449,1.221,1.221,0,0,1,.287-.619l1.952-2.051h0a1.961,1.961,0,0,0,.449-1.077,13.436,13.436,0,0,1,.162-1.548.772.772,0,0,0-.48-.826l-1.266-.449a.615.615,0,0,1-.377-.794L95.6,34.675a.951.951,0,0,1,.224-.328.987.987,0,0,1,.619-.274h1.531a1.037,1.037,0,0,0,.449-.117,1.194,1.194,0,0,0,.5-.449c.31-.525.651-1.041,1.005-1.531a1.759,1.759,0,0,0,.3-1.118l-.292-2.244a1.1,1.1,0,0,1,.031-.395,1.315,1.315,0,0,1,.355-.646l2.244-2.024a.408.408,0,0,1,.449-.094Zm-1.97,24.21a1.059,1.059,0,0,0-.319-.987,4.486,4.486,0,0,1-.449-.476.615.615,0,0,0-.857-.135l-1.145.871-.718,2.419a.525.525,0,0,0,.256.628h0l2.6,1.279a.525.525,0,0,1-.256-.633Z" transform="translate(-61.321 -21.984)" fill="#451991"/>
        <path id="Trazado_161448" data-name="Trazado 161448" d="M111.279,25.883h0a.4.4,0,0,0-.449.067l-.862.651-.166.557a1.032,1.032,0,0,0,.314.983,5.051,5.051,0,0,1,.449.476.606.606,0,0,0,.853.13l2.042-1.517a.4.4,0,0,1,.426-.072Zm-2.724,7.935c-.408-1.688-1.548-2.464-2.949-2.244a4.421,4.421,0,0,1,.359.978c.642,2.693-.817,6.616-3.254,8.806a5.215,5.215,0,0,1-2.617,1.387c.965,1.755,3.11,1.8,5.211-.108,2.442-2.208,3.9-6.153,3.25-8.819Zm-.718-11.548h0a.633.633,0,0,0-.171-.054l-1.607-.224a.862.862,0,0,0-.871.449l-1.3,2.94a1.373,1.373,0,0,1-.305.4h0a1.6,1.6,0,0,1-.242.189l.566,1.517a.543.543,0,0,0,.772.292,6.989,6.989,0,0,1,.956-.386,1.661,1.661,0,0,0,.543-.332,1.176,1.176,0,0,0,.31-.4l1.3-2.94a.866.866,0,0,1,.871-.476l1.611.251a.615.615,0,0,1,.162.049Zm-2.644,27.787a.449.449,0,0,1-.166-.229l-.651-1.741a.534.534,0,0,0-.772-.292,7.311,7.311,0,0,1-.956.381,1.163,1.163,0,0,0-.3.153l.085.22a.449.449,0,0,0,.22.265h0ZM100.444,24.2a.382.382,0,0,0-.175-.031.449.449,0,0,0-.283.13l-2.244,2.024a.808.808,0,0,0-.085.09.315.315,0,0,0-.058.076,1.53,1.53,0,0,0-.184.386c0,.031,0,.067,0,.094h0a1.064,1.064,0,0,0-.036.386l.287,2.244a1.8,1.8,0,0,1-.3,1.118c-.359.489-.691,1.005-1.005,1.53a1.171,1.171,0,0,1-.494.449.961.961,0,0,1-.206.076.242.242,0,0,1-.1,0,.449.449,0,0,1-.135,0L93.9,32.8h-.036a.565.565,0,0,0-.126,0l-.108.031h0a.713.713,0,0,0-.121.054,1.207,1.207,0,0,0-.211.153.929.929,0,0,0-.224.328l-1.221,3.312a.61.61,0,0,0,.292.759L93.9,38.3a.785.785,0,0,1,.067.449,14.3,14.3,0,0,0-.166,1.548,1.9,1.9,0,0,1-.449,1.077l-.027.022-2,2.109a.489.489,0,0,0-.094.117h0a.552.552,0,0,0-.076.144,1.248,1.248,0,0,0-.108.776l.552,2.244a.449.449,0,0,0,.2.3l2.585,1.27a.449.449,0,0,1-.193-.292L93.653,45.8a1.032,1.032,0,0,1,0-.449,1.221,1.221,0,0,1,.287-.619l1.952-2.051h0a1.961,1.961,0,0,0,.449-1.077,13.436,13.436,0,0,1,.162-1.548.772.772,0,0,0-.48-.826l-1.266-.449a.615.615,0,0,1-.377-.794L95.6,34.675a.951.951,0,0,1,.224-.328.987.987,0,0,1,.619-.274h1.531a1.037,1.037,0,0,0,.449-.117,1.194,1.194,0,0,0,.5-.449c.31-.525.651-1.041,1.005-1.531a1.759,1.759,0,0,0,.3-1.118l-.292-2.244a1.1,1.1,0,0,1,.031-.395,1.315,1.315,0,0,1,.355-.646l2.244-2.024a.408.408,0,0,1,.449-.094Zm-1.97,24.21a1.059,1.059,0,0,0-.319-.987,4.486,4.486,0,0,1-.449-.476.615.615,0,0,0-.857-.135l-1.145.871-.718,2.419a.525.525,0,0,0,.256.628h0l2.6,1.279a.525.525,0,0,1-.256-.633Z" transform="translate(-61.321 -21.984)" fill="#fff" opacity="0.7"/>
        <path id="Trazado_161449" data-name="Trazado 161449" d="M111.279,25.883h0a.4.4,0,0,0-.449.067l-.862.651-.166.557a1.032,1.032,0,0,0,.314.983,5.051,5.051,0,0,1,.449.476.606.606,0,0,0,.853.13l2.042-1.517a.4.4,0,0,1,.426-.072Zm-2.724,7.935c-.408-1.688-1.548-2.464-2.949-2.244a4.421,4.421,0,0,1,.359.978c.642,2.693-.817,6.616-3.254,8.806a5.215,5.215,0,0,1-2.617,1.387c.965,1.755,3.11,1.8,5.211-.108,2.442-2.208,3.9-6.153,3.25-8.819Zm-.718-11.548h0a.633.633,0,0,0-.171-.054l-1.607-.224a.862.862,0,0,0-.871.449l-1.3,2.94a1.373,1.373,0,0,1-.305.4h0a1.6,1.6,0,0,1-.242.189l.566,1.517a.543.543,0,0,0,.772.292,6.989,6.989,0,0,1,.956-.386,1.661,1.661,0,0,0,.543-.332,1.176,1.176,0,0,0,.31-.4l1.3-2.94a.866.866,0,0,1,.871-.476l1.611.251a.615.615,0,0,1,.162.049Zm-2.644,27.787a.449.449,0,0,1-.166-.229l-.651-1.741a.534.534,0,0,0-.772-.292,7.311,7.311,0,0,1-.956.381,1.163,1.163,0,0,0-.3.153l.085.22a.449.449,0,0,0,.22.265h0ZM100.444,24.2a.382.382,0,0,0-.175-.031.449.449,0,0,0-.283.13l-2.244,2.024a.808.808,0,0,0-.085.09.315.315,0,0,0-.058.076,1.53,1.53,0,0,0-.184.386c0,.031,0,.067,0,.094h0a1.064,1.064,0,0,0-.036.386l.287,2.244a1.8,1.8,0,0,1-.3,1.118c-.359.489-.691,1.005-1.005,1.53a1.171,1.171,0,0,1-.494.449.961.961,0,0,1-.206.076.242.242,0,0,1-.1,0,.449.449,0,0,1-.135,0L93.9,32.8h-.036a.565.565,0,0,0-.126,0l-.108.031h0a.713.713,0,0,0-.121.054,1.207,1.207,0,0,0-.211.153.929.929,0,0,0-.224.328l-1.221,3.312a.61.61,0,0,0,.292.759L93.9,38.3a.785.785,0,0,1,.067.449,14.3,14.3,0,0,0-.166,1.548,1.9,1.9,0,0,1-.449,1.077l-.027.022-2,2.109a.489.489,0,0,0-.094.117h0a.552.552,0,0,0-.076.144,1.248,1.248,0,0,0-.108.776l.552,2.244a.449.449,0,0,0,.2.3l2.585,1.27a.449.449,0,0,1-.193-.292L93.653,45.8a1.032,1.032,0,0,1,0-.449,1.221,1.221,0,0,1,.287-.619l1.952-2.051h0a1.961,1.961,0,0,0,.449-1.077,13.436,13.436,0,0,1,.162-1.548.772.772,0,0,0-.48-.826l-1.266-.449a.615.615,0,0,1-.377-.794L95.6,34.675a.951.951,0,0,1,.224-.328.987.987,0,0,1,.619-.274h1.531a1.037,1.037,0,0,0,.449-.117,1.194,1.194,0,0,0,.5-.449c.31-.525.651-1.041,1.005-1.531a1.759,1.759,0,0,0,.3-1.118l-.292-2.244a1.1,1.1,0,0,1,.031-.395,1.315,1.315,0,0,1,.355-.646l2.244-2.024a.408.408,0,0,1,.449-.094Zm-1.97,24.21a1.059,1.059,0,0,0-.319-.987,4.486,4.486,0,0,1-.449-.476.615.615,0,0,0-.857-.135l-1.145.871-.718,2.419a.525.525,0,0,0,.256.628h0l2.6,1.279a.525.525,0,0,1-.256-.633Z" transform="translate(-61.321 -21.984)" opacity="0.05"/>
        <path id="Trazado_161450" data-name="Trazado 161450" d="M95.9,66.672l-1.952,2.051a1.221,1.221,0,0,0-.287.619l-2.59-1.275a1.63,1.63,0,0,1,.1-.337.552.552,0,0,1,.076-.144h0a.489.489,0,0,1,.094-.117L93.3,65.42Z" transform="translate(-61.341 -45.925)" fill="#451991"/>
        <path id="Trazado_161451" data-name="Trazado 161451" d="M101.157,47.212a1.037,1.037,0,0,1-.449.117H99.178a.987.987,0,0,0-.619.274L96,46.346a1.207,1.207,0,0,1,.211-.153.714.714,0,0,1,.121-.054h0l.108-.031a.565.565,0,0,1,.126,0H96.6l1.531-.027a.449.449,0,0,0,.135,0,.355.355,0,0,0,.1,0,1.221,1.221,0,0,0,.2-.081h0Z" transform="translate(-64.058 -35.221)" fill="#451991"/>
        <path id="Trazado_161452" data-name="Trazado 161452" d="M136.9,31.894a.413.413,0,0,0-.426.076L134.467,33.5a.61.61,0,0,1-.853-.135,4.521,4.521,0,0,0-.449-.476,1.041,1.041,0,0,1-.314-.987l.166-.548.862-.655a.408.408,0,0,1,.449-.072h0Z" transform="translate(-84.356 -26.726)" fill="#451991"/>
        <path id="Trazado_161453" data-name="Trazado 161453" d="M125.84,23.545a.615.615,0,0,0-.162-.049l-1.611-.251a.866.866,0,0,0-.871.476l-1.3,2.94a1.176,1.176,0,0,1-.31.4L119,25.785a1.373,1.373,0,0,0,.305-.4l1.3-2.94a.862.862,0,0,1,.866-.453l1.607.251a.633.633,0,0,1,.171.054h0Z" transform="translate(-76.735 -21.985)" fill="#451991"/>
        <path id="Trazado_161454" data-name="Trazado 161454" d="M110.837,28.17a.408.408,0,0,0-.449.094l-2.244,2.024a1.315,1.315,0,0,0-.355.646L105.2,29.66v-.094a1.53,1.53,0,0,1,.184-.386.314.314,0,0,1,.058-.076.807.807,0,0,1,.085-.09l2.244-2.024a.449.449,0,0,1,.283-.13.381.381,0,0,1,.175.031Z" transform="translate(-69.129 -24.671)" fill="#451991"/>
        <path id="Trazado_161455" data-name="Trazado 161455" d="M95.9,66.672l-1.952,2.051a1.221,1.221,0,0,0-.287.619l-2.59-1.275a1.63,1.63,0,0,1,.1-.337.552.552,0,0,1,.076-.144h0a.489.489,0,0,1,.094-.117L93.3,65.42Z" transform="translate(-61.341 -45.925)" fill="#fff" opacity="0.9"/>
        <path id="Trazado_161456" data-name="Trazado 161456" d="M101.157,47.212a1.037,1.037,0,0,1-.449.117H99.178a.987.987,0,0,0-.619.274L96,46.346a1.207,1.207,0,0,1,.211-.153.714.714,0,0,1,.121-.054h0l.108-.031a.565.565,0,0,1,.126,0H96.6l1.531-.027a.449.449,0,0,0,.135,0,.355.355,0,0,0,.1,0,1.221,1.221,0,0,0,.2-.081h0Z" transform="translate(-64.058 -35.221)" fill="#fff" opacity="0.9"/>
        <path id="Trazado_161457" data-name="Trazado 161457" d="M136.9,31.894a.413.413,0,0,0-.426.076L134.467,33.5a.61.61,0,0,1-.853-.135,4.521,4.521,0,0,0-.449-.476,1.041,1.041,0,0,1-.314-.987l.166-.548.862-.655a.408.408,0,0,1,.449-.072h0Z" transform="translate(-84.356 -26.726)" fill="#fff" opacity="0.9"/>
        <path id="Trazado_161458" data-name="Trazado 161458" d="M125.84,23.545a.615.615,0,0,0-.162-.049l-1.611-.251a.866.866,0,0,0-.871.476l-1.3,2.94a1.176,1.176,0,0,1-.31.4L119,25.785a1.373,1.373,0,0,0,.305-.4l1.3-2.94a.862.862,0,0,1,.866-.453l1.607.251a.633.633,0,0,1,.171.054h0Z" transform="translate(-76.735 -21.985)" fill="#fff" opacity="0.9"/>
        <path id="Trazado_161459" data-name="Trazado 161459" d="M110.837,28.17a.408.408,0,0,0-.449.094l-2.244,2.024a1.315,1.315,0,0,0-.355.646L105.2,29.66v-.094a1.53,1.53,0,0,1,.184-.386.314.314,0,0,1,.058-.076.807.807,0,0,1,.085-.09l2.244-2.024a.449.449,0,0,1,.283-.13.381.381,0,0,1,.175.031Z" transform="translate(-69.129 -24.671)" fill="#fff" opacity="0.9"/>
        <path id="Trazado_161460" data-name="Trazado 161460" d="M117.815,31.269,117.268,29a.381.381,0,0,0-.646-.233L114.611,30.3a.61.61,0,0,1-.853-.135,4.093,4.093,0,0,0-.449-.476,1.041,1.041,0,0,1-.314-.987l.9-2.967a.53.53,0,0,0-.449-.7l-1.607-.251a.866.866,0,0,0-.871.476l-1.3,2.94a1.566,1.566,0,0,1-.853.736,6.988,6.988,0,0,0-.956.386.543.543,0,0,1-.772-.292l-.651-1.746a.4.4,0,0,0-.687-.166L103.5,29.142a1.347,1.347,0,0,0-.386,1.037l.292,2.244a1.8,1.8,0,0,1-.3,1.118c-.359.489-.7,1.005-1.005,1.531a1.23,1.23,0,0,1-.943.579h-1.53a.983.983,0,0,0-.839.6l-1.225,3.312a.619.619,0,0,0,.377.794l1.266.449a.767.767,0,0,1,.48.821,13.337,13.337,0,0,0-.162,1.548,1.93,1.93,0,0,1-.449,1.077l-1.975,2.074a1.275,1.275,0,0,0-.283,1.059l.548,2.244a.377.377,0,0,0,.642.233l2.02-1.5a.61.61,0,0,1,.857.135,4.438,4.438,0,0,0,.449.449,1.05,1.05,0,0,1,.31.987l-.9,2.967a.53.53,0,0,0,.449.7l1.607.251a.866.866,0,0,0,.871-.476l1.293-2.908a1.575,1.575,0,0,1,.857-.736,7.181,7.181,0,0,0,.952-.386.548.548,0,0,1,.772.292l.66,1.728a.395.395,0,0,0,.682.166l2.244-2.024a1.347,1.347,0,0,0,.386-1.037l-.292-2.244a1.8,1.8,0,0,1,.3-1.118c.359-.489.7-1.005,1.005-1.531a1.248,1.248,0,0,1,.934-.557H115a1,1,0,0,0,.848-.633l1.243-3.294a.615.615,0,0,0-.373-.794l-1.27-.449a.763.763,0,0,1-.476-.821q.121-.79.162-1.548a1.934,1.934,0,0,1,.449-1.077l1.957-2.069A1.279,1.279,0,0,0,117.815,31.269Zm-9.331,12.908c-2.437,2.19-4.937,1.8-5.583-.866s.812-6.616,3.25-8.81,4.937-1.8,5.583.866S110.921,41.969,108.484,44.177Z" transform="translate(-64.5 -23.524)" fill="#451991"/>
        <path id="Trazado_161461" data-name="Trazado 161461" d="M117.815,31.269,117.268,29a.381.381,0,0,0-.646-.233L114.611,30.3a.61.61,0,0,1-.853-.135,4.093,4.093,0,0,0-.449-.476,1.041,1.041,0,0,1-.314-.987l.9-2.967a.53.53,0,0,0-.449-.7l-1.607-.251a.866.866,0,0,0-.871.476l-1.3,2.94a1.566,1.566,0,0,1-.853.736,6.988,6.988,0,0,0-.956.386.543.543,0,0,1-.772-.292l-.651-1.746a.4.4,0,0,0-.687-.166L103.5,29.142a1.347,1.347,0,0,0-.386,1.037l.292,2.244a1.8,1.8,0,0,1-.3,1.118c-.359.489-.7,1.005-1.005,1.531a1.23,1.23,0,0,1-.943.579h-1.53a.983.983,0,0,0-.839.6l-1.225,3.312a.619.619,0,0,0,.377.794l1.266.449a.767.767,0,0,1,.48.821,13.337,13.337,0,0,0-.162,1.548,1.93,1.93,0,0,1-.449,1.077l-1.975,2.074a1.275,1.275,0,0,0-.283,1.059l.548,2.244a.377.377,0,0,0,.642.233l2.02-1.5a.61.61,0,0,1,.857.135,4.438,4.438,0,0,0,.449.449,1.05,1.05,0,0,1,.31.987l-.9,2.967a.53.53,0,0,0,.449.7l1.607.251a.866.866,0,0,0,.871-.476l1.293-2.908a1.575,1.575,0,0,1,.857-.736,7.181,7.181,0,0,0,.952-.386.548.548,0,0,1,.772.292l.66,1.728a.395.395,0,0,0,.682.166l2.244-2.024a1.347,1.347,0,0,0,.386-1.037l-.292-2.244a1.8,1.8,0,0,1,.3-1.118c.359-.489.7-1.005,1.005-1.531a1.248,1.248,0,0,1,.934-.557H115a1,1,0,0,0,.848-.633l1.243-3.294a.615.615,0,0,0-.373-.794l-1.27-.449a.763.763,0,0,1-.476-.821q.121-.79.162-1.548a1.934,1.934,0,0,1,.449-1.077l1.957-2.069A1.279,1.279,0,0,0,117.815,31.269Zm-9.331,12.908c-2.437,2.19-4.937,1.8-5.583-.866s.812-6.616,3.25-8.81,4.937-1.8,5.583.866S110.921,41.969,108.484,44.177Z" transform="translate(-64.5 -23.524)" fill="#fff" opacity="0.75"/>
        <path id="Trazado_161462" data-name="Trazado 161462" d="M52.708,79.535h0a.561.561,0,0,0-.6.094l-1.189.9-.224.763a1.432,1.432,0,0,0,.449,1.346,6.557,6.557,0,0,1,.615.651.839.839,0,0,0,1.153.211l2.769-2.1a.579.579,0,0,1,.588-.1ZM48.951,90.464c-.561-2.32-2.132-3.393-4.039-3.106A5.871,5.871,0,0,1,45.4,88.7c.9,3.68-1.118,9.111-4.488,12.118a7.145,7.145,0,0,1-3.591,1.908c1.346,2.415,4.286,2.455,7.181-.148C47.833,99.575,49.84,94.14,48.951,90.464Zm-.987-15.9h0a.781.781,0,0,0-.238-.076l-2.213-.346a1.185,1.185,0,0,0-1.2.651l-1.8,4.039a1.8,1.8,0,0,1-.422.552h0a1.71,1.71,0,0,1-.337.256l.785,2.092a.745.745,0,0,0,1.059.4,9.823,9.823,0,0,1,1.315-.53,2.379,2.379,0,0,0,.754-.449,1.759,1.759,0,0,0,.426-.561l1.8-4.039a1.2,1.2,0,0,1,1.2-.655l2.217.35a.871.871,0,0,1,.224.063Zm-3.644,38.276a.66.66,0,0,1-.224-.319l-.9-2.4a.736.736,0,0,0-1.059-.4,10.382,10.382,0,0,1-1.32.53,1.571,1.571,0,0,0-.408.2l.117.31a.619.619,0,0,0,.305.359h0ZM37.762,77.215a.5.5,0,0,0-.242-.045.633.633,0,0,0-.39.18l-3.106,2.787a.826.826,0,0,0-.117.13.592.592,0,0,0-.081.1,2.244,2.244,0,0,0-.251.534.613.613,0,0,1-.031.13h0a1.5,1.5,0,0,0-.049.534l.4,3.1a2.455,2.455,0,0,1-.408,1.539c-.494.678-.956,1.387-1.382,2.109a1.611,1.611,0,0,1-.687.6,1.185,1.185,0,0,1-.278.108A.732.732,0,0,1,31,89.05a.678.678,0,0,1-.189,0l-2.109.036h-.049a1.042,1.042,0,0,0-.171.027.856.856,0,0,0-.153.045h0a.943.943,0,0,0-.166.081,1.347,1.347,0,0,0-.292.206,1.279,1.279,0,0,0-.31.449l-1.683,4.56a.848.848,0,0,0,.4,1.041l2.424,1.189a1.05,1.05,0,0,1,.094.606,19.636,19.636,0,0,0-.229,2.136,2.581,2.581,0,0,1-.61,1.481l-.031.031-2.693,2.823a.866.866,0,0,0-.126.162v.031a.637.637,0,0,0-.1.2,1.679,1.679,0,0,0-.148,1.073l.759,3.119a.624.624,0,0,0,.278.413l3.559,1.75a.6.6,0,0,1-.265-.4l-.754-3.142a1.378,1.378,0,0,1,0-.606,1.724,1.724,0,0,1,.395-.857l2.693-2.819.031-.031a2.693,2.693,0,0,0,.615-1.486,19.85,19.85,0,0,1,.224-2.136,1.05,1.05,0,0,0-.66-1.131l-1.746-.61a.844.844,0,0,1-.516-1.091l1.683-4.56a1.171,1.171,0,0,1,.31-.449,1.347,1.347,0,0,1,.848-.373l2.114-.036a1.346,1.346,0,0,0,.6-.162,1.625,1.625,0,0,0,.651-.539c.449-.723.9-1.432,1.387-2.109a2.455,2.455,0,0,0,.408-1.539l-.4-3.092a1.347,1.347,0,0,1,.045-.543,1.8,1.8,0,0,1,.485-.9l3.1-2.787a.561.561,0,0,1,.642-.135Zm-2.72,33.348a1.454,1.454,0,0,0-.449-1.346,6.061,6.061,0,0,1-.61-.655.839.839,0,0,0-1.176-.189l-1.584,1.2-.987,3.33a.723.723,0,0,0,.35.866h0l3.591,1.764a.723.723,0,0,1-.35-.871Z" transform="translate(-24.832 -50.727)" fill="#451991"/>
        <path id="Trazado_161463" data-name="Trazado 161463" d="M52.708,79.535h0a.561.561,0,0,0-.6.094l-1.189.9-.224.763a1.432,1.432,0,0,0,.449,1.346,6.557,6.557,0,0,1,.615.651.839.839,0,0,0,1.153.211l2.769-2.1a.579.579,0,0,1,.588-.1ZM48.951,90.464c-.561-2.32-2.132-3.393-4.039-3.106A5.871,5.871,0,0,1,45.4,88.7c.9,3.68-1.118,9.111-4.488,12.118a7.145,7.145,0,0,1-3.591,1.908c1.346,2.415,4.286,2.455,7.181-.148C47.833,99.575,49.84,94.14,48.951,90.464Zm-.987-15.9h0a.781.781,0,0,0-.238-.076l-2.213-.346a1.185,1.185,0,0,0-1.2.651l-1.8,4.039a1.8,1.8,0,0,1-.422.552h0a1.71,1.71,0,0,1-.337.256l.785,2.092a.745.745,0,0,0,1.059.4,9.823,9.823,0,0,1,1.315-.53,2.379,2.379,0,0,0,.754-.449,1.759,1.759,0,0,0,.426-.561l1.8-4.039a1.2,1.2,0,0,1,1.2-.655l2.217.35a.871.871,0,0,1,.224.063Zm-3.644,38.276a.66.66,0,0,1-.224-.319l-.9-2.4a.736.736,0,0,0-1.059-.4,10.382,10.382,0,0,1-1.32.53,1.571,1.571,0,0,0-.408.2l.117.31a.619.619,0,0,0,.305.359h0ZM37.762,77.215a.5.5,0,0,0-.242-.045.633.633,0,0,0-.39.18l-3.106,2.787a.826.826,0,0,0-.117.13.592.592,0,0,0-.081.1,2.244,2.244,0,0,0-.251.534.613.613,0,0,1-.031.13h0a1.5,1.5,0,0,0-.049.534l.4,3.1a2.455,2.455,0,0,1-.408,1.539c-.494.678-.956,1.387-1.382,2.109a1.611,1.611,0,0,1-.687.6,1.185,1.185,0,0,1-.278.108A.732.732,0,0,1,31,89.05a.678.678,0,0,1-.189,0l-2.109.036h-.049a1.042,1.042,0,0,0-.171.027.856.856,0,0,0-.153.045h0a.943.943,0,0,0-.166.081,1.347,1.347,0,0,0-.292.206,1.279,1.279,0,0,0-.31.449l-1.683,4.56a.848.848,0,0,0,.4,1.041l2.424,1.189a1.05,1.05,0,0,1,.094.606,19.636,19.636,0,0,0-.229,2.136,2.581,2.581,0,0,1-.61,1.481l-.031.031-2.693,2.823a.866.866,0,0,0-.126.162v.031a.637.637,0,0,0-.1.2,1.679,1.679,0,0,0-.148,1.073l.759,3.119a.624.624,0,0,0,.278.413l3.559,1.75a.6.6,0,0,1-.265-.4l-.754-3.142a1.378,1.378,0,0,1,0-.606,1.724,1.724,0,0,1,.395-.857l2.693-2.819.031-.031a2.693,2.693,0,0,0,.615-1.486,19.85,19.85,0,0,1,.224-2.136,1.05,1.05,0,0,0-.66-1.131l-1.746-.61a.844.844,0,0,1-.516-1.091l1.683-4.56a1.171,1.171,0,0,1,.31-.449,1.347,1.347,0,0,1,.848-.373l2.114-.036a1.346,1.346,0,0,0,.6-.162,1.625,1.625,0,0,0,.651-.539c.449-.723.9-1.432,1.387-2.109a2.455,2.455,0,0,0,.408-1.539l-.4-3.092a1.347,1.347,0,0,1,.045-.543,1.8,1.8,0,0,1,.485-.9l3.1-2.787a.561.561,0,0,1,.642-.135Zm-2.72,33.348a1.454,1.454,0,0,0-.449-1.346,6.061,6.061,0,0,1-.61-.655.839.839,0,0,0-1.176-.189l-1.584,1.2-.987,3.33a.723.723,0,0,0,.35.866h0l3.591,1.764a.723.723,0,0,1-.35-.871Z" transform="translate(-24.832 -50.727)" fill="#fff" opacity="0.7"/>
        <path id="Trazado_161464" data-name="Trazado 161464" d="M52.708,79.535h0a.561.561,0,0,0-.6.094l-1.189.9-.224.763a1.432,1.432,0,0,0,.449,1.346,6.557,6.557,0,0,1,.615.651.839.839,0,0,0,1.153.211l2.769-2.1a.579.579,0,0,1,.588-.1ZM48.951,90.464c-.561-2.32-2.132-3.393-4.039-3.106A5.871,5.871,0,0,1,45.4,88.7c.9,3.68-1.118,9.111-4.488,12.118a7.145,7.145,0,0,1-3.591,1.908c1.346,2.415,4.286,2.455,7.181-.148C47.833,99.575,49.84,94.14,48.951,90.464Zm-.987-15.9h0a.781.781,0,0,0-.238-.076l-2.213-.346a1.185,1.185,0,0,0-1.2.651l-1.8,4.039a1.8,1.8,0,0,1-.422.552h0a1.71,1.71,0,0,1-.337.256l.785,2.092a.745.745,0,0,0,1.059.4,9.823,9.823,0,0,1,1.315-.53,2.379,2.379,0,0,0,.754-.449,1.759,1.759,0,0,0,.426-.561l1.8-4.039a1.2,1.2,0,0,1,1.2-.655l2.217.35a.871.871,0,0,1,.224.063Zm-3.644,38.276a.66.66,0,0,1-.224-.319l-.9-2.4a.736.736,0,0,0-1.059-.4,10.382,10.382,0,0,1-1.32.53,1.571,1.571,0,0,0-.408.2l.117.31a.619.619,0,0,0,.305.359h0ZM37.762,77.215a.5.5,0,0,0-.242-.045.633.633,0,0,0-.39.18l-3.106,2.787a.826.826,0,0,0-.117.13.592.592,0,0,0-.081.1,2.244,2.244,0,0,0-.251.534.613.613,0,0,1-.031.13h0a1.5,1.5,0,0,0-.049.534l.4,3.1a2.455,2.455,0,0,1-.408,1.539c-.494.678-.956,1.387-1.382,2.109a1.611,1.611,0,0,1-.687.6,1.185,1.185,0,0,1-.278.108A.732.732,0,0,1,31,89.05a.678.678,0,0,1-.189,0l-2.109.036h-.049a1.042,1.042,0,0,0-.171.027.856.856,0,0,0-.153.045h0a.943.943,0,0,0-.166.081,1.347,1.347,0,0,0-.292.206,1.279,1.279,0,0,0-.31.449l-1.683,4.56a.848.848,0,0,0,.4,1.041l2.424,1.189a1.05,1.05,0,0,1,.094.606,19.636,19.636,0,0,0-.229,2.136,2.581,2.581,0,0,1-.61,1.481l-.031.031-2.693,2.823a.866.866,0,0,0-.126.162v.031a.637.637,0,0,0-.1.2,1.679,1.679,0,0,0-.148,1.073l.759,3.119a.624.624,0,0,0,.278.413l3.559,1.75a.6.6,0,0,1-.265-.4l-.754-3.142a1.378,1.378,0,0,1,0-.606,1.724,1.724,0,0,1,.395-.857l2.693-2.819.031-.031a2.693,2.693,0,0,0,.615-1.486,19.85,19.85,0,0,1,.224-2.136,1.05,1.05,0,0,0-.66-1.131l-1.746-.61a.844.844,0,0,1-.516-1.091l1.683-4.56a1.171,1.171,0,0,1,.31-.449,1.347,1.347,0,0,1,.848-.373l2.114-.036a1.346,1.346,0,0,0,.6-.162,1.625,1.625,0,0,0,.651-.539c.449-.723.9-1.432,1.387-2.109a2.455,2.455,0,0,0,.408-1.539l-.4-3.092a1.347,1.347,0,0,1,.045-.543,1.8,1.8,0,0,1,.485-.9l3.1-2.787a.561.561,0,0,1,.642-.135Zm-2.72,33.348a1.454,1.454,0,0,0-.449-1.346,6.061,6.061,0,0,1-.61-.655.839.839,0,0,0-1.176-.189l-1.584,1.2-.987,3.33a.723.723,0,0,0,.35.866h0l3.591,1.764a.723.723,0,0,1-.35-.871Z" transform="translate(-24.832 -50.727)" opacity="0.05"/>
        <path id="Trazado_161465" data-name="Trazado 161465" d="M31.5,135.751,28.8,138.57a1.724,1.724,0,0,0-.395.857l-3.568-1.755a2.083,2.083,0,0,1,.144-.449.638.638,0,0,1,.1-.2v-.031a.867.867,0,0,1,.126-.162l2.693-2.823Z" transform="translate(-24.836 -83.73)" fill="#451991"/>
        <path id="Trazado_161466" data-name="Trazado 161466" d="M38.69,108.878a1.347,1.347,0,0,1-.6.162l-2.114.036a1.346,1.346,0,0,0-.848.373l-3.591-1.759a1.346,1.346,0,0,1,.292-.206A.942.942,0,0,1,32,107.4h0a.857.857,0,0,1,.153-.045,1.04,1.04,0,0,1,.171-.027h.049l2.109-.036a.678.678,0,0,0,.189,0l.135-.031c.09-.031.18-.072.269-.112h0Z" transform="translate(-28.529 -68.925)" fill="#451991"/>
        <path id="Trazado_161467" data-name="Trazado 161467" d="M87.972,87.872a.566.566,0,0,0-.588.108l-2.769,2.105a.844.844,0,0,1-1.176-.184,5.727,5.727,0,0,0-.615-.655,1.427,1.427,0,0,1-.449-1.346l.265-.776,1.185-.9a.561.561,0,0,1,.6-.094h0Z" transform="translate(-56.533 -57.313)" fill="#451991"/>
        <path id="Trazado_161468" data-name="Trazado 161468" d="M72.7,76.334a.871.871,0,0,0-.224-.063l-2.217-.35a1.2,1.2,0,0,0-1.2.655l-1.8,4.039a1.76,1.76,0,0,1-.426.561L63.25,79.413a1.8,1.8,0,0,0,.422-.552l1.8-4.039a1.185,1.185,0,0,1,1.2-.651l2.213.346a.781.781,0,0,1,.238.076h0Z" transform="translate(-46.007 -50.743)" fill="#451991"/>
        <path id="Trazado_161469" data-name="Trazado 161469" d="M52.014,82.7a.561.561,0,0,0-.642.135l-3.1,2.787a1.8,1.8,0,0,0-.485.9L44.2,84.765a.207.207,0,0,1,.031-.13,2.244,2.244,0,0,1,.269-.561.593.593,0,0,1,.081-.1.826.826,0,0,1,.117-.13L47.8,81.058a.633.633,0,0,1,.39-.18.5.5,0,0,1,.242.045Z" transform="translate(-35.507 -54.445)" fill="#451991"/>
        <path id="Trazado_161470" data-name="Trazado 161470" d="M31.5,135.751,28.8,138.57a1.724,1.724,0,0,0-.395.857l-3.568-1.755a2.083,2.083,0,0,1,.144-.449.638.638,0,0,1,.1-.2v-.031a.867.867,0,0,1,.126-.162l2.693-2.823Z" transform="translate(-24.836 -83.73)" fill="#fff" opacity="0.9"/>
        <path id="Trazado_161471" data-name="Trazado 161471" d="M38.69,108.878a1.347,1.347,0,0,1-.6.162l-2.114.036a1.346,1.346,0,0,0-.848.373l-3.591-1.759a1.346,1.346,0,0,1,.292-.206A.942.942,0,0,1,32,107.4h0a.857.857,0,0,1,.153-.045,1.04,1.04,0,0,1,.171-.027h.049l2.109-.036a.678.678,0,0,0,.189,0l.135-.031c.09-.031.18-.072.269-.112h0Z" transform="translate(-28.529 -68.925)" fill="#fff" opacity="0.9"/>
        <path id="Trazado_161472" data-name="Trazado 161472" d="M87.972,87.872a.566.566,0,0,0-.588.108l-2.769,2.105a.844.844,0,0,1-1.176-.184,5.727,5.727,0,0,0-.615-.655,1.427,1.427,0,0,1-.449-1.346l.265-.776,1.185-.9a.561.561,0,0,1,.6-.094h0Z" transform="translate(-56.533 -57.313)" fill="#fff" opacity="0.9"/>
        <path id="Trazado_161473" data-name="Trazado 161473" d="M72.7,76.334a.871.871,0,0,0-.224-.063l-2.217-.35a1.2,1.2,0,0,0-1.2.655l-1.8,4.039a1.76,1.76,0,0,1-.426.561L63.25,79.413a1.8,1.8,0,0,0,.422-.552l1.8-4.039a1.185,1.185,0,0,1,1.2-.651l2.213.346a.781.781,0,0,1,.238.076h0Z" transform="translate(-46.007 -50.743)" fill="#fff" opacity="0.9"/>
        <path id="Trazado_161474" data-name="Trazado 161474" d="M52.014,82.7a.561.561,0,0,0-.642.135l-3.1,2.787a1.8,1.8,0,0,0-.485.9L44.2,84.765a.207.207,0,0,1,.031-.13,2.244,2.244,0,0,1,.269-.561.593.593,0,0,1,.081-.1.826.826,0,0,1,.117-.13L47.8,81.058a.633.633,0,0,1,.39-.18.5.5,0,0,1,.242.045Z" transform="translate(-35.507 -54.445)" fill="#fff" opacity="0.9"/>
        <path id="Trazado_161475" data-name="Trazado 161475" d="M61.687,87.022l-.754-3.142a.521.521,0,0,0-.9-.319l-2.76,2.114a.839.839,0,0,1-1.176-.184,6.089,6.089,0,0,0-.61-.655,1.432,1.432,0,0,1-.449-1.346l1.23-4.1a.736.736,0,0,0-.606-.96l-2.213-.341a1.189,1.189,0,0,0-1.2.655l-1.8,4.039A2.163,2.163,0,0,1,49.277,83.8a9.984,9.984,0,0,0-1.311.53.745.745,0,0,1-1.064-.4l-.9-2.4a.543.543,0,0,0-.938-.229l-3.1,2.787a1.822,1.822,0,0,0-.53,1.427l.4,3.1a2.437,2.437,0,0,1-.408,1.539q-.741,1.019-1.382,2.109a1.7,1.7,0,0,1-1.288.763l-2.109.036a1.346,1.346,0,0,0-1.158.821L33.8,98.436a.848.848,0,0,0,.516,1.1l1.746.61a1.059,1.059,0,0,1,.66,1.131,18.667,18.667,0,0,0-.224,2.136,2.662,2.662,0,0,1-.615,1.486l-2.72,2.855a1.755,1.755,0,0,0-.39,1.459l.754,3.142a.521.521,0,0,0,.9.319l2.769-2.1a.839.839,0,0,1,1.18.184,6.036,6.036,0,0,0,.61.651,1.445,1.445,0,0,1,.449,1.346l-1.212,4.089a.727.727,0,0,0,.606.956l2.213.346a1.185,1.185,0,0,0,1.2-.655l1.8-4.039a2.114,2.114,0,0,1,1.176-1.014,10.932,10.932,0,0,0,1.315-.534.75.75,0,0,1,1.064.4l.9,2.4a.548.548,0,0,0,.943.233l3.07-2.778a1.836,1.836,0,0,0,.525-1.427l-.417-3.119a2.5,2.5,0,0,1,.408-1.539c.494-.673.956-1.382,1.387-2.109a1.7,1.7,0,0,1,1.288-.763l2.123-.018a1.346,1.346,0,0,0,1.158-.826l1.683-4.56a.839.839,0,0,0-.512-1.091l-1.746-.61a1.055,1.055,0,0,1-.66-1.136,20.928,20.928,0,0,0,.224-2.136,2.653,2.653,0,0,1,.61-1.481l2.72-2.855a1.746,1.746,0,0,0,.395-1.463Zm-12.85,17.751c-3.362,3.021-6.8,2.487-7.693-1.194s1.118-9.111,4.488-12.118,6.8-2.487,7.688,1.194S52.195,101.753,48.837,104.773Z" transform="translate(-29.193 -52.904)" fill="#451991"/>
        <path id="Trazado_161476" data-name="Trazado 161476" d="M61.687,87.022l-.754-3.142a.521.521,0,0,0-.9-.319l-2.76,2.114a.839.839,0,0,1-1.176-.184,6.089,6.089,0,0,0-.61-.655,1.432,1.432,0,0,1-.449-1.346l1.23-4.1a.736.736,0,0,0-.606-.96l-2.213-.341a1.189,1.189,0,0,0-1.2.655l-1.8,4.039A2.163,2.163,0,0,1,49.277,83.8a9.984,9.984,0,0,0-1.311.53.745.745,0,0,1-1.064-.4l-.9-2.4a.543.543,0,0,0-.938-.229l-3.1,2.787a1.822,1.822,0,0,0-.53,1.427l.4,3.1a2.437,2.437,0,0,1-.408,1.539q-.741,1.019-1.382,2.109a1.7,1.7,0,0,1-1.288.763l-2.109.036a1.346,1.346,0,0,0-1.158.821L33.8,98.436a.848.848,0,0,0,.516,1.1l1.746.61a1.059,1.059,0,0,1,.66,1.131,18.667,18.667,0,0,0-.224,2.136,2.662,2.662,0,0,1-.615,1.486l-2.72,2.855a1.755,1.755,0,0,0-.39,1.459l.754,3.142a.521.521,0,0,0,.9.319l2.769-2.1a.839.839,0,0,1,1.18.184,6.036,6.036,0,0,0,.61.651,1.445,1.445,0,0,1,.449,1.346l-1.212,4.089a.727.727,0,0,0,.606.956l2.213.346a1.185,1.185,0,0,0,1.2-.655l1.8-4.039a2.114,2.114,0,0,1,1.176-1.014,10.932,10.932,0,0,0,1.315-.534.75.75,0,0,1,1.064.4l.9,2.4a.548.548,0,0,0,.943.233l3.07-2.778a1.836,1.836,0,0,0,.525-1.427l-.417-3.119a2.5,2.5,0,0,1,.408-1.539c.494-.673.956-1.382,1.387-2.109a1.7,1.7,0,0,1,1.288-.763l2.123-.018a1.346,1.346,0,0,0,1.158-.826l1.683-4.56a.839.839,0,0,0-.512-1.091l-1.746-.61a1.055,1.055,0,0,1-.66-1.136,20.928,20.928,0,0,0,.224-2.136,2.653,2.653,0,0,1,.61-1.481l2.72-2.855a1.746,1.746,0,0,0,.395-1.463Zm-12.85,17.751c-3.362,3.021-6.8,2.487-7.693-1.194s1.118-9.111,4.488-12.118,6.8-2.487,7.688,1.194S52.195,101.753,48.837,104.773Z" transform="translate(-29.193 -52.904)" fill="#fff" opacity="0.75"/>
      </g>
    </g>
    <g id="freepik--Plants--inject-107" transform="translate(20.461 140.142)">
      <g id="freepik--plants--inject-107-2" data-name="freepik--plants--inject-107">
        <path id="Trazado_161477" data-name="Trazado 161477" d="M57.983,305.735c-.449-6.687-1.189-8.977-5.35-14.057a19.215,19.215,0,0,0-8.622-5.857c-2.778-.9-5.2-.785-6.966.6a3.662,3.662,0,0,0-.9,4.416c.7,1.5,4.241,3.64,7.406,5.287,4.834,2.522,11.167,6.068,13.882,14.506l.588,4.488Z" transform="translate(-35.763 -285.244)" fill="#451991"/>
        <path id="Trazado_161478" data-name="Trazado 161478" d="M57.983,305.735c-.449-6.687-1.189-8.977-5.35-14.057a19.215,19.215,0,0,0-8.622-5.857c-2.778-.9-5.2-.785-6.966.6a3.662,3.662,0,0,0-.9,4.416c.7,1.5,4.241,3.64,7.406,5.287,4.834,2.522,11.167,6.068,13.882,14.506l.588,4.488Z" transform="translate(-35.763 -285.244)" opacity="0.2"/>
        <path id="Trazado_161479" data-name="Trazado 161479" d="M62.435,313.453a.22.22,0,0,1-.215-.2c-1.037-11.9-10.96-19.412-17.729-20.256a.224.224,0,0,1-.193-.251.22.22,0,0,1,.251-.2c6.916.866,17.055,8.528,18.119,20.646a.224.224,0,0,1-.206.242Z" transform="translate(-40.466 -289.268)" fill="#fff"/>
        <path id="Trazado_161480" data-name="Trazado 161480" d="M58.057,341.663l-.382.323c-1.732,1.4-4.34,1.8-6.517,1.84-1.436.027-3.375.058-4.591-.808a1.881,1.881,0,0,1-.844-1.908c.206-.772,1.059-1.346,1-2.127-1.611-.247-3.344.449-4.856-.162a5.86,5.86,0,0,1-2.5-2.621,2.621,2.621,0,0,1-.574-2.024c.247-.821,1.189-1.176,2.006-1.441a1.67,1.67,0,0,0,.606-.3.575.575,0,0,0,.184-.61c-.1-.26-.422-.346-.7-.386-.588-.085-1.189-.09-1.8-.206a2.666,2.666,0,0,1-1.553-.817,3.465,3.465,0,0,1-.6-2,29.342,29.342,0,0,1-.108-3.591,26.134,26.134,0,0,0-.242-3.11,21.81,21.81,0,0,1,8.945-1.32c1.665.063,4.134.417,5.126,1.979a3.178,3.178,0,0,1,.449,1.481c0,.184-.112,1.162,0,1.234a.224.224,0,0,0,.274-.058.6.6,0,0,0,.13-.274c.148-.512.4-.925.552-1.418a3.778,3.778,0,0,1,.449-1.4,1.611,1.611,0,0,1,1.3-.471,4.707,4.707,0,0,1,3.918,3.11,13.768,13.768,0,0,1,.687,5.215l.839-1.723c.983-2.011,2.083,1.723,2.244,2.419a11.279,11.279,0,0,1-3.465,11.194Z" transform="translate(-36.219 -304.605)" fill="#451991"/>
        <path id="Trazado_161481" data-name="Trazado 161481" d="M61.775,344.707a.238.238,0,0,1-.193-.166c-2.433-7.54-13.959-17.5-18.371-19a.238.238,0,0,1-.148-.305.242.242,0,0,1,.305-.148c4.488,1.53,16.2,11.67,18.667,19.3a.238.238,0,0,1-.153.3.292.292,0,0,1-.108.022Z" transform="translate(-39.779 -307.196)" fill="#fff"/>
        <path id="Trazado_161482" data-name="Trazado 161482" d="M53.365,341.1a.22.22,0,0,1-.2-.117.229.229,0,0,1,.09-.305,13.734,13.734,0,0,1,9.291-.826,20.529,20.529,0,0,1,.821-8.559v-.063a.232.232,0,1,1,.449.117v.067a19.937,19.937,0,0,0-.767,8.716.215.215,0,0,1-.072.2.224.224,0,0,1-.211.045,13.222,13.222,0,0,0-9.282.7A.238.238,0,0,1,53.365,341.1Z" transform="translate(-45.342 -310.493)" fill="#fff"/>
      </g>
      <g id="freepik--plants--inject-107-3" data-name="freepik--plants--inject-107" transform="translate(178.259 11.368)">
        <path id="Trazado_161483" data-name="Trazado 161483" d="M432.93,327.371A24.589,24.589,0,0,1,435.479,318c2.3-4.17,5.664-6.9,8.936-7.379s6.126,2.374,2.747,4.686-9.5,4.838-11.863,12.805Z" transform="translate(-432.93 -310.573)" fill="#451991"/>
        <g id="Grupo_102696" data-name="Grupo 102696" opacity="0.1">
          <path id="Trazado_161484" data-name="Trazado 161484" d="M432.93,327.371A24.589,24.589,0,0,1,435.479,318c2.3-4.17,5.664-6.9,8.936-7.379s6.126,2.374,2.747,4.686-9.5,4.838-11.863,12.805Z" transform="translate(-432.93 -310.573)"/>
        </g>
        <path id="Trazado_161485" data-name="Trazado 161485" d="M434.689,327.834h-.036a.184.184,0,0,1-.112-.224c2.913-8.775,9.286-12.783,12.248-13.671a.171.171,0,0,1,.22.117.179.179,0,0,1-.117.22c-2.9.871-9.152,4.807-12.015,13.465A.18.18,0,0,1,434.689,327.834Z" transform="translate(-433.814 -312.423)" fill="#fff"/>
        <path id="Trazado_161486" data-name="Trazado 161486" d="M452.06,338.463a3.092,3.092,0,0,1-1.732,1.5,3.567,3.567,0,0,0-1.818,1.4c-.7,1.414.723,3.245-.04,4.632a2.437,2.437,0,0,1-1.6,1.073,15.192,15.192,0,0,1-1.629.256,6.468,6.468,0,0,1-.781,0,3.55,3.55,0,0,0-2.244.391c-1.046.678-1.288,2.069-1.876,3.169a5.148,5.148,0,0,1-3.5,2.527,3.525,3.525,0,0,1-1.894,0,.611.611,0,0,1-.108-.058h0a2.879,2.879,0,0,1-.206-.215l-.022-.031a7.557,7.557,0,0,1,0-2.181.614.614,0,0,0,0-.13q-.13-1.27-.238-2.536c-.144-1.553-.265-3.115-.355-4.677a7.651,7.651,0,0,1,.112-3.1c.408-1.077,1.584-1.18,1.961-2.244.153-.422.22-.866.364-1.293a3.635,3.635,0,0,1,2.949-2.361c2.051-.238,4.013,1.306,6.059,1.019a15.856,15.856,0,0,0,1.557-.4,4.482,4.482,0,0,1,4.636,1.275,2.177,2.177,0,0,1,.408,1.984Z" transform="translate(-433.47 -323.796)" fill="#451991"/>
        <path id="Trazado_161487" data-name="Trazado 161487" d="M434.425,352.259h0a.175.175,0,0,1-.139-.206c2.145-10.866,13.294-13.146,15.938-13.133a.18.18,0,0,1,.175.18.175.175,0,0,1-.175.175c-2.59,0-13.492,2.217-15.592,12.85A.18.18,0,0,1,434.425,352.259Z" transform="translate(-433.675 -326.197)" fill="#fff"/>
        <path id="Trazado_161488" data-name="Trazado 161488" d="M451.707,351.939a.166.166,0,0,1-.094-.045,9.4,9.4,0,0,0-7.8-1.638.175.175,0,0,1-.206-.135.18.18,0,0,1,.135-.211,9.722,9.722,0,0,1,8.119,1.724.171.171,0,0,1,0,.247A.18.18,0,0,1,451.707,351.939Z" transform="translate(-438.812 -332.111)" fill="#fff"/>
      </g>
    </g>
    <g id="freepik--Device--inject-107" transform="translate(41.518 38.888)">
      <g id="freepik--device--inject-107-2" data-name="freepik--device--inject-107" transform="translate(0 0)">
        <g id="freepik--Mobile--inject-107">
          <path id="Trazado_161489" data-name="Trazado 161489" d="M130.628,60.335,85.135,86.609a4.9,4.9,0,0,0-2.455,4.066V196.451a4.623,4.623,0,0,0,7.208,4.165l45.332-26.171a5.794,5.794,0,0,0,2.617-4.529V64.5a5.482,5.482,0,0,0-2.3-4.34A5.393,5.393,0,0,0,130.628,60.335Z" transform="translate(-82.68 -59.646)" fill="#451991"/>
          <path id="Trazado_161490" data-name="Trazado 161490" d="M89.27,236.261a5.36,5.36,0,0,1-4.282-.117,5.471,5.471,0,0,1-2.3-4.345V126.024a4.708,4.708,0,0,1,.66-2.244l4.219,2.392a5.072,5.072,0,0,0-1.216,3.043V233.922C86.348,235.928,87.614,236.876,89.27,236.261Z" transform="translate(-82.686 -94.995)" opacity="0.4"/>
          <path id="Trazado_161491" data-name="Trazado 161491" d="M93.172,93.545a5.112,5.112,0,0,0-2.3,3.99V202.242c0,2.244,1.593,3.173,3.546,2.047l45.332-26.176a5.794,5.794,0,0,0,2.617-4.529V68.163c0-1.656-1.176-2.338-2.617-1.508Z" transform="translate(-87.194 -63.314)" fill="#451991"/>
          <path id="Trazado_161492" data-name="Trazado 161492" d="M93.172,93.545a5.112,5.112,0,0,0-2.3,3.99V202.242c0,2.244,1.593,3.173,3.546,2.047l45.332-26.176a5.794,5.794,0,0,0,2.617-4.529V68.163c0-1.656-1.176-2.338-2.617-1.508Z" transform="translate(-87.194 -63.314)" opacity="0.2"/>
          <path id="Trazado_161493" data-name="Trazado 161493" d="M98.192,110.711a5.476,5.476,0,0,0-2.482,4.318V205.1c0,1.584,1.109,2.244,2.482,1.432l42.639-24.623a5.507,5.507,0,0,0,2.487-4.3V87.516c0-1.575-1.118-2.244-2.487-1.432Z" transform="translate(-89.862 -74.027)" opacity="0.2"/>
          <path id="Trazado_161494" data-name="Trazado 161494" d="M140.18,176.434V87.36L98.192,111.6a5.476,5.476,0,0,0-2.482,4.327V204.98L137.7,180.743a5.516,5.516,0,0,0,2.482-4.309Z" transform="translate(-89.862 -74.921)" fill="#451991"/>
          <path id="Trazado_161495" data-name="Trazado 161495" d="M140.18,176.434V87.36L98.192,111.6a5.476,5.476,0,0,0-2.482,4.327V204.98L137.7,180.743a5.516,5.516,0,0,0,2.482-4.309Z" transform="translate(-89.862 -74.921)" fill="#fff" opacity="0.7"/>
          <path id="Trazado_161496" data-name="Trazado 161496" d="M139.827,103.223l7.563-4.367c.449-.26.812-.072.812.413a1.759,1.759,0,0,1-.812,1.346l-7.563,4.363c-.449.26-.817.076-.817-.413A1.755,1.755,0,0,1,139.827,103.223Z" transform="translate(-113.728 -81.193)" fill="#455a64"/>
          <path id="Trazado_161497" data-name="Trazado 161497" d="M168.793,91.87c.449-.247.768-.049.768.449a1.692,1.692,0,0,1-.768,1.346c-.422.242-.763.045-.763-.449A1.692,1.692,0,0,1,168.793,91.87Z" transform="translate(-129.723 -77.348)" fill="#455a64"/>
          <path id="Trazado_161498" data-name="Trazado 161498" d="M175.623,87.951c.426-.247.768-.045.768.449a1.683,1.683,0,0,1-.767,1.346c-.422.242-.763.045-.763-.449A1.692,1.692,0,0,1,175.623,87.951Z" transform="translate(-133.487 -75.189)" fill="#455a64"/>
          <path id="Trazado_161499" data-name="Trazado 161499" d="M121,119.483c.449-.242.768-.045.768.449a1.679,1.679,0,0,1-.768,1.346c-.422.247-.763.049-.763-.449A1.7,1.7,0,0,1,121,119.483Z" transform="translate(-103.382 -92.57)" fill="#455a64"/>
          <path id="Trazado_161500" data-name="Trazado 161500" d="M127.837,115.543c.422-.242.763-.045.763.449a1.683,1.683,0,0,1-.763,1.346c-.449.247-.767.049-.767-.449a1.692,1.692,0,0,1,.767-1.346Z" transform="translate(-107.147 -90.398)" fill="#455a64"/>
          <path id="Trazado_161501" data-name="Trazado 161501" d="M138.654,64.308c-.094-1.5-1.225-2.083-2.6-1.293L89.485,89.891a4.367,4.367,0,0,0-1.086.947L84.18,88.446a4.7,4.7,0,0,1,1.553-1.7l45.722-26.4a5.506,5.506,0,0,1,4.91-.184A5.317,5.317,0,0,1,138.654,64.308Z" transform="translate(-83.507 -59.661)" opacity="0.3"/>
        </g>
      </g>
    </g>
    <g id="freepik--Features--inject-107" transform="translate(110.011 27.602)">
      <g id="freepik--features--inject-107-2" data-name="freepik--features--inject-107" transform="translate(0 0)">
        <path id="Trazado_161502" data-name="Trazado 161502" d="M241.34,73.627c0-5.166,3.627-11.445,8.079-14.026,2.244-1.293,4.268-1.414,5.732-.566l2.06,1.207a9.636,9.636,0,0,1,1.346,4.654c0,5.166-3.627,11.445-8.079,14.03a9.583,9.583,0,0,1-4.713,1.149L243.7,78.87C242.247,78.021,241.34,76.226,241.34,73.627Z" transform="translate(-238.622 -47.726)" fill="#451991"/>
        <path id="Trazado_161503" data-name="Trazado 161503" d="M243.674,74.58a16.526,16.526,0,0,0-2.334,7.913c0,2.558.9,4.4,2.37,5.242l2.069,1.207a9.583,9.583,0,0,0,4.713-1.149,16.538,16.538,0,0,0,5.687-5.983Z" transform="translate(-238.622 -56.591)" opacity="0.15"/>
        <path id="Trazado_161504" data-name="Trazado 161504" d="M261.455,64.894a16.6,16.6,0,0,1-2.41,8.047l-12.5-7.231A16.629,16.629,0,0,1,252.3,59.6c2.253-1.3,4.268-1.414,5.732-.566l2.06,1.207a9.636,9.636,0,0,1,1.36,4.654Z" transform="translate(-241.488 -47.722)" fill="#fff" opacity="0.4"/>
        <path id="Trazado_161505" data-name="Trazado 161505" d="M241.72,80.5a17.917,17.917,0,0,1,2.163-5.916l12.5,7.231a17.916,17.916,0,0,1-4.039,4.834Z" transform="translate(-238.831 -56.591)" fill="#451991" opacity="0.76"/>
        <ellipse id="Elipse_5048" data-name="Elipse 5048" cx="11.454" cy="6.611" rx="11.454" ry="6.611" transform="translate(1.428 29.049) rotate(-60)" fill="#451991"/>
        <path id="Trazado_161506" data-name="Trazado 161506" d="M243.626,79.935a7.922,7.922,0,0,1-4-1.046c-2.46-1.418-3.977-4.111-4.282-7.581h0c-.633-7.1,4.134-15.336,10.588-18.353,3.142-1.472,6.248-1.5,8.707-.085s3.977,4.116,4.277,7.585c.619,7.1-4.129,15.336-10.592,18.353a11.221,11.221,0,0,1-4.695,1.127Zm7.015-27.7a10.736,10.736,0,0,0-4.533,1.091c-6.319,2.949-10.965,11-10.359,17.953h0c.287,3.335,1.737,5.916,4.075,7.267s5.3,1.315,8.33-.1c6.319-2.949,10.969-11,10.363-17.953-.292-3.335-1.741-5.893-4.062-7.267a7.5,7.5,0,0,0-3.815-.987Z" transform="translate(-235.284 -44.051)" fill="#451991"/>
        <path id="Trazado_161509" data-name="Trazado 161509" d="M251.023,78.725a.4.4,0,0,1-.395.027c-.247-.144-.238-.619-.054-1.091a12.845,12.845,0,0,1,6.109-7.226c2.343-1.351,4.538-1.288,6.077.148.22.2.2.718-.049,1.153s-.628.619-.844.413c-1.315-1.221-3.2-1.27-5.184-.126a12.038,12.038,0,0,0-5.211,6.167,1.086,1.086,0,0,1-.449.534Z" transform="translate(-243.637 -53.771)" fill="#fafafa"/>
        <rect id="Rectángulo_34456" data-name="Rectángulo 34456" width="31.158" height="0.408" transform="matrix(0.866, -0.5, 0.5, 0.866, 23.389, 17.833)" fill="#451991"/>
        <path id="Trazado_161511" data-name="Trazado 161511" d="M343.33,38a4.138,4.138,0,0,1,1.872-3.241c1.032-.6,1.867-.112,1.867,1.077a4.134,4.134,0,0,1-1.867,3.241C344.169,39.662,343.33,39.186,343.33,38Z" transform="translate(-294.836 -34.5)" fill="#451991"/>
        <path id="Trazado_161512" data-name="Trazado 161512" d="M303.525,62.168l15.44-8.855c.265-.157.485-.045.485.247a1.046,1.046,0,0,1-.485.8l-15.44,8.855c-.269.157-.485.045-.485-.242a1.037,1.037,0,0,1,.485-.808Z" transform="translate(-272.629 -44.83)" fill="#455a64"/>
        <path id="Trazado_161513" data-name="Trazado 161513" d="M303.525,69.2l15.44-8.855c.265-.153.485-.045.485.247a1.055,1.055,0,0,1-.485.808l-15.44,8.855c-.269.153-.485.045-.485-.247A1.041,1.041,0,0,1,303.525,69.2Z" transform="translate(-272.629 -48.707)" fill="#455a64"/>
        <path id="Trazado_161514" data-name="Trazado 161514" d="M303.525,76.24l15.44-8.855c.265-.153.485-.045.485.247a1.055,1.055,0,0,1-.485.808L303.525,77.3c-.269.153-.485.045-.485-.247a1.037,1.037,0,0,1,.485-.808Z" transform="translate(-272.629 -52.587)" fill="#455a64"/>
        <path id="Trazado_161515" data-name="Trazado 161515" d="M241.34,148.468c0-5.162,3.627-11.441,8.079-14.026,2.244-1.293,4.268-1.414,5.732-.561l2.06,1.2a9.641,9.641,0,0,1,1.346,4.659c0,5.162-3.627,11.441-8.079,14.026a9.582,9.582,0,0,1-4.713,1.149l-2.069-1.207C242.247,152.867,241.34,151.054,241.34,148.468Z" transform="translate(-238.622 -88.976)" fill="#451991"/>
        <path id="Trazado_161516" data-name="Trazado 161516" d="M243.674,149.42a16.54,16.54,0,0,0-2.334,7.913c0,2.558.9,4.4,2.37,5.242l2.069,1.207a9.582,9.582,0,0,0,4.713-1.149,16.523,16.523,0,0,0,5.687-5.978Z" transform="translate(-238.622 -97.841)" opacity="0.15"/>
        <path id="Trazado_161517" data-name="Trazado 161517" d="M261.455,139.74a16.6,16.6,0,0,1-2.41,8.043l-12.5-7.231a16.629,16.629,0,0,1,5.763-6.113c2.253-1.3,4.268-1.414,5.732-.561l2.06,1.2A9.641,9.641,0,0,1,261.455,139.74Z" transform="translate(-241.488 -88.973)" fill="#fff" opacity="0.4"/>
        <path id="Trazado_161518" data-name="Trazado 161518" d="M241.72,155.336a17.917,17.917,0,0,1,2.163-5.916l12.5,7.231a17.954,17.954,0,0,1-4.039,4.838Z" transform="translate(-238.831 -97.841)" fill="#451991" opacity="0.76"/>
        <ellipse id="Elipse_5049" data-name="Elipse 5049" cx="11.454" cy="6.611" rx="11.454" ry="6.611" transform="translate(1.429 62.641) rotate(-60)" fill="#451991"/>
        <path id="Trazado_161519" data-name="Trazado 161519" d="M243.649,154.776a7.917,7.917,0,0,1-3.981-1.028c-2.46-1.423-3.977-4.116-4.282-7.585h0c-.655-7.118,4.111-15.35,10.565-18.366,3.142-1.472,6.248-1.5,8.707-.081s3.977,4.111,4.277,7.581c.619,7.1-4.129,15.336-10.592,18.353a11.22,11.22,0,0,1-4.695,1.127Zm7.015-27.7a10.736,10.736,0,0,0-4.533,1.086c-6.319,2.949-10.965,11-10.359,17.953h0c.287,3.335,1.737,5.916,4.075,7.267s5.3,1.315,8.33-.1c6.319-2.949,10.969-11,10.363-17.953-.292-3.335-1.741-5.916-4.08-7.267a7.545,7.545,0,0,0-3.8-.983Z" transform="translate(-235.307 -85.302)" fill="#451991"/>
        <rect id="Rectángulo_34457" data-name="Rectángulo 34457" width="31.149" height="0.408" transform="matrix(0.866, -0.5, 0.5, 0.866, 23.395, 51.374)" fill="#451991"/>
        <path id="Trazado_161520" data-name="Trazado 161520" d="M343.56,112.707a4.134,4.134,0,0,1,1.867-3.241c1.032-.6,1.872-.112,1.872,1.082a4.129,4.129,0,0,1-1.872,3.236C344.395,114.39,343.56,113.91,343.56,112.707Z" transform="translate(-294.963 -75.679)" fill="#451991"/>
        <path id="Trazado_161523" data-name="Trazado 161523" d="M303.525,136.908l15.44-8.855c.265-.157.485-.045.485.242a1.046,1.046,0,0,1-.485.808l-15.44,8.855c-.269.157-.485.045-.485-.247A1.032,1.032,0,0,1,303.525,136.908Z" transform="translate(-272.629 -86.024)" fill="#455a64"/>
        <path id="Trazado_161524" data-name="Trazado 161524" d="M303.525,143.94l15.44-8.855c.265-.153.485-.045.485.247a1.055,1.055,0,0,1-.485.808L303.525,145c-.269.153-.485.045-.485-.247A1.041,1.041,0,0,1,303.525,143.94Z" transform="translate(-272.629 -89.902)" fill="#455a64"/>
        <path id="Trazado_161525" data-name="Trazado 161525" d="M303.525,150.978l15.44-8.855c.265-.157.485-.045.485.247a1.046,1.046,0,0,1-.485.8l-15.44,8.855c-.269.157-.485.045-.485-.247A1.032,1.032,0,0,1,303.525,150.978Z" transform="translate(-272.629 -93.78)" fill="#455a64"/>
        <path id="Trazado_161526" data-name="Trazado 161526" d="M241.34,223.313c0-5.166,3.627-11.445,8.079-14.03,2.244-1.293,4.268-1.414,5.732-.561l2.06,1.2a9.641,9.641,0,0,1,1.346,4.659c0,5.166-3.627,11.445-8.079,14.026a9.614,9.614,0,0,1-4.713,1.154l-2.069-1.207C242.247,227.707,241.34,225.894,241.34,223.313Z" transform="translate(-238.622 -130.226)" fill="#451991"/>
        <path id="Trazado_161527" data-name="Trazado 161527" d="M243.674,224.26a16.542,16.542,0,0,0-2.334,7.917c0,2.563.9,4.394,2.37,5.242l2.069,1.207a9.614,9.614,0,0,0,4.713-1.153,16.524,16.524,0,0,0,5.687-5.978Z" transform="translate(-238.622 -139.091)" opacity="0.15"/>
        <path id="Trazado_161528" data-name="Trazado 161528" d="M261.455,214.578a16.632,16.632,0,0,1-2.41,8.047l-12.5-7.235a16.664,16.664,0,0,1,5.763-6.113c2.253-1.306,4.268-1.414,5.732-.561l2.06,1.2A9.641,9.641,0,0,1,261.455,214.578Z" transform="translate(-241.488 -130.221)" fill="#fff" opacity="0.4"/>
        <path id="Trazado_161529" data-name="Trazado 161529" d="M241.72,230.176a17.917,17.917,0,0,1,2.163-5.916l12.5,7.235a17.917,17.917,0,0,1-4.039,4.834Z" transform="translate(-238.831 -139.091)" fill="#451991" opacity="0.76"/>
        <ellipse id="Elipse_5050" data-name="Elipse 5050" cx="11.454" cy="6.611" rx="11.454" ry="6.611" transform="translate(1.431 96.231) rotate(-60)" fill="#451991"/>
        <path id="Trazado_161530" data-name="Trazado 161530" d="M243.626,229.6a7.917,7.917,0,0,1-4-1.041c-2.46-1.418-3.977-4.111-4.282-7.585h0c-.633-7.1,4.134-15.332,10.588-18.362,3.142-1.477,6.248-1.5,8.707-.085s3.977,4.111,4.277,7.581c.619,7.1-4.129,15.336-10.592,18.353A11.22,11.22,0,0,1,243.626,229.6Zm7.015-27.7A10.736,10.736,0,0,0,246.108,203c-6.32,2.949-10.965,11-10.359,17.953h0c.287,3.335,1.737,5.916,4.075,7.267s5.3,1.329,8.348-.108c6.319-2.949,10.969-11,10.363-17.953-.292-3.335-1.741-5.916-4.08-7.262a7.5,7.5,0,0,0-3.815-.987Z" transform="translate(-235.284 -126.538)" fill="#451991"/>
        <rect id="Rectángulo_34458" data-name="Rectángulo 34458" width="31.149" height="0.408" transform="matrix(0.866, -0.5, 0.5, 0.866, 23.392, 84.923)" fill="#451991"/>
        <path id="Trazado_161531" data-name="Trazado 161531" d="M343.66,187.467a4.138,4.138,0,0,1,1.872-3.241c1.032-.6,1.867-.112,1.867,1.082a4.134,4.134,0,0,1-1.867,3.236C344.5,189.141,343.66,188.656,343.66,187.467Z" transform="translate(-295.018 -116.884)" fill="#451991"/>
        <path id="Trazado_161533" data-name="Trazado 161533" d="M303.525,211.64l15.44-8.855c.265-.153.485-.045.485.247a1.055,1.055,0,0,1-.485.808l-15.44,8.878c-.269.153-.485.045-.485-.247A1.041,1.041,0,0,1,303.525,211.64Z" transform="translate(-272.629 -127.216)" fill="#455a64"/>
        <path id="Trazado_161534" data-name="Trazado 161534" d="M303.525,218.678l15.44-8.855c.265-.157.485-.045.485.247a1.055,1.055,0,0,1-.485.808l-15.44,8.86c-.269.157-.485.045-.485-.242A1.037,1.037,0,0,1,303.525,218.678Z" transform="translate(-272.629 -131.094)" fill="#455a64"/>
        <path id="Trazado_161535" data-name="Trazado 161535" d="M303.525,225.741l15.44-8.828c.265-.157.485-.045.485.242a1.046,1.046,0,0,1-.485.808l-15.44,8.824c-.269.157-.485.045-.485-.247A1.041,1.041,0,0,1,303.525,225.741Z" transform="translate(-272.629 -135.002)" fill="#455a64"/>
      </g>
    </g>
    <g id="freepik--speech-bubble--inject-107" transform="translate(179.174 26.386)">
      <g id="freepik--speech-bubbles--inject-107" transform="translate(0 0)">
        <g id="freepik--speech-bubble--inject-107-2" data-name="freepik--speech-bubble--inject-107">
          <path id="Trazado_161536" data-name="Trazado 161536" d="M406.677,93.377a.35.35,0,0,1-.126-.13l-1.611-2.783V88.929l4.735-1.849V88.61l-.574,1.656,2.814-1.62.171.947-1.674,5.471a.359.359,0,0,1-.512.188Z" transform="translate(-397.956 -62.265)" fill="#451991"/>
          <path id="Trazado_161537" data-name="Trazado 161537" d="M406.677,93.377a.35.35,0,0,1-.126-.13l-1.611-2.783V88.929l4.735-1.849V88.61l-.574,1.656,2.814-1.62.171.947-1.674,5.471a.359.359,0,0,1-.512.188Z" transform="translate(-397.956 -62.265)" opacity="0.3"/>
          <path id="Trazado_161538" data-name="Trazado 161538" d="M415.646,90.57l.171.947-1.674,5.471a.355.355,0,0,1-.637.058l-1.8-3.142.211-1.167Z" transform="translate(-401.688 -64.189)" fill="#451991"/>
          <path id="Trazado_161539" data-name="Trazado 161539" d="M415.646,90.57l.171.947-1.674,5.471a.355.355,0,0,1-.637.058l-1.8-3.142.211-1.167Z" transform="translate(-401.688 -64.189)" opacity="0.2"/>
          <path id="Trazado_161540" data-name="Trazado 161540" d="M409.855,34.812a3.389,3.389,0,0,0-1.535-2.653h0a3.384,3.384,0,0,0-3.065,0l-14.34,8.254a3.389,3.389,0,0,0-1.535,2.653V62.024a3.38,3.38,0,0,0,1.535,2.653h0a3.4,3.4,0,0,0,3.061,0l14.5-8.335a2.36,2.36,0,0,0,1.382-2.549Z" transform="translate(-389.38 -31.792)" fill="#451991"/>
          <path id="Trazado_161541" data-name="Trazado 161541" d="M409.855,34.812a3.389,3.389,0,0,0-1.535-2.653h0a3.384,3.384,0,0,0-3.065,0l-14.34,8.254a3.389,3.389,0,0,0-1.535,2.653V62.024a3.38,3.38,0,0,0,1.535,2.653h0a3.4,3.4,0,0,0,3.061,0l14.5-8.335a2.36,2.36,0,0,0,1.382-2.549Z" transform="translate(-389.38 -31.792)" opacity="0.2"/>
          <path id="Trazado_161542" data-name="Trazado 161542" d="M389.38,73.989a3.38,3.38,0,0,0,1.535,2.653h0a3.416,3.416,0,0,0,2.8.126c-.723.274-1.27-.139-1.27-1.01V56.776a3.142,3.142,0,0,1,.449-1.513L389.829,53.5a3.142,3.142,0,0,0-.449,1.508Z" transform="translate(-389.38 -43.757)" opacity="0.2"/>
          <path id="Trazado_161543" data-name="Trazado 161543" d="M410.367,34.408c-.175-.651-.772-.857-1.477-.449l-14.362,8.231a3.021,3.021,0,0,0-1.077,1.145l-3.061-1.764a3.056,3.056,0,0,1,1.082-1.127l14.362-8.231a3.411,3.411,0,0,1,3.065,0h0A3.357,3.357,0,0,1,410.367,34.408Z" transform="translate(-389.937 -31.824)" fill="#451991"/>
        </g>
        <path id="Trazado_161544" data-name="Trazado 161544" d="M410.594,51.772a4.008,4.008,0,0,1,1.584-.557,2.011,2.011,0,0,1,2.154,1.252,4.13,4.13,0,0,1,.314,1.728,6.414,6.414,0,0,1-.18,1.557,9.959,9.959,0,0,1-.449,1.4,11.316,11.316,0,0,1-.615,1.261l-.637,1.167c-.2.382-.386.763-.552,1.14a4.85,4.85,0,0,0-.341,1.131,2.328,2.328,0,0,1-.139.521.646.646,0,0,1-.265.337l-1.836,1.059a.215.215,0,0,1-.283,0,.485.485,0,0,1-.121-.368,5.464,5.464,0,0,1,.2-1.481,10.184,10.184,0,0,1,.5-1.387,14.424,14.424,0,0,1,.655-1.288c.233-.413.449-.808.651-1.176a9.351,9.351,0,0,0,.5-1.064,2.645,2.645,0,0,0,.2-.969c0-.449-.108-.736-.328-.862s-.561-.058-1.023.206a2.644,2.644,0,0,0-.965.871,4.25,4.25,0,0,0-.449.929c-.09.3-.166.57-.229.817a.812.812,0,0,1-.386.53l-1.827,1.059a.193.193,0,0,1-.233,0,.4.4,0,0,1-.1-.314,7.661,7.661,0,0,1,.3-1.872,11.154,11.154,0,0,1,.817-2.109,10.655,10.655,0,0,1,1.3-1.988A6.539,6.539,0,0,1,410.594,51.772ZM411.9,66.816a1.167,1.167,0,0,1-.121.507.74.74,0,0,1-.283.35l-1.89,1.091a.22.22,0,0,1-.287,0,.5.5,0,0,1-.121-.373V66.058a1.18,1.18,0,0,1,.121-.507.772.772,0,0,1,.287-.35l1.89-1.091a.215.215,0,0,1,.283,0,.485.485,0,0,1,.121.368Z" transform="translate(-398.763 -42.486)" fill="#fafafa"/>
      </g>
    </g>
    <g id="freepik--character-2--inject-107" transform="translate(150.522 65.492)">
      <g id="freepik--Character--inject-107" transform="translate(0 0)">
        <path id="Trazado_161545" data-name="Trazado 161545" d="M426.15,170.562c3.869-1.005,6.521.53,7.666,4.412,1.073,3.64,3.276,12.527,3.842,14.879.256,1.055-7.837,10.251-7.549,10.117.085-.04-2.54-4.569-2.54-4.569l3.945-5.907-2.338-6.5Z" transform="translate(-380.995 -147.218)" fill="#ffa8a7"/>
        <path id="Trazado_161546" data-name="Trazado 161546" d="M408.39,164.118l.727,7.558,6.759-.422-.543-8.384Z" transform="translate(-371.206 -143.144)" fill="#ffa8a7"/>
        <path id="Trazado_161547" data-name="Trazado 161547" d="M395.61,147.16s-1.5,2.244-1.3,2.46a3.618,3.618,0,0,0,1.145.485Z" transform="translate(-363.434 -134.485)" fill="#f28f8f"/>
        <path id="Trazado_161548" data-name="Trazado 161548" d="M412.1,127.342a1.917,1.917,0,0,0-.1-.61,3.415,3.415,0,0,0-.7-1.059,5.754,5.754,0,0,0-2.1-1.391,9.556,9.556,0,0,0-3.851-.655,17.019,17.019,0,0,1-3.7.049,20.094,20.094,0,0,0-2.859-.449,3.411,3.411,0,0,0-2.648.947,2.89,2.89,0,0,0-.7,1.948,4.9,4.9,0,0,0,.494,2.038,2.741,2.741,0,0,0-.759,3.142c.552,1.481,1.979,2.379,3.142,3.357.9.763,1.773,1.575,2.6,2.424a17.114,17.114,0,0,1,1.167,1.257l.067.094a2.015,2.015,0,0,1-.952-.076s-.189,3.348,2.186,4.43a9.686,9.686,0,0,0,4.663-.269,16.607,16.607,0,0,0,4.138-4.807C414.519,133.778,414.093,129.649,412.1,127.342Z" transform="translate(-363.812 -121.287)" fill="#263238"/>
        <path id="Trazado_161549" data-name="Trazado 161549" d="M404.285,145.353a1.8,1.8,0,0,1-1.212.741,1.961,1.961,0,0,1-.951-.076s-.139,2.54,1.387,3.9c-.31.126-.6.224-.839.3-1.346.408-3.972.238-4.488-.238-.754-.714-1.979-2.585-1.315-7.994a10.983,10.983,0,0,1,1.58-4.807,2.325,2.325,0,0,0,1.346,1.768,2.244,2.244,0,0,0-.364,1.881,4.52,4.52,0,0,0,1.346,1.921.287.287,0,0,0,.117.081.79.79,0,0,0,.48-.072,1.985,1.985,0,0,1,2.437-1.1C405.295,142.153,405.223,143.98,404.285,145.353Z" transform="translate(-364.749 -128.984)" fill="#ffa8a7"/>
        <path id="Trazado_161550" data-name="Trazado 161550" d="M400.36,165.072a7.705,7.705,0,0,0,3.644.287l-.04-.969a9.353,9.353,0,0,1-1.723.561A6.247,6.247,0,0,1,400.36,165.072Z" transform="translate(-366.78 -143.982)" fill="#f28f8f"/>
        <path id="Trazado_161551" data-name="Trazado 161551" d="M404.527,150.842a1.257,1.257,0,0,1-.767-1.611,1.288,1.288,0,0,1,1.638-.754Z" transform="translate(-368.612 -135.169)" fill="#263238"/>
        <path id="Trazado_161552" data-name="Trazado 161552" d="M430.892,119.854a4.04,4.04,0,0,0-2.159.081,2.433,2.433,0,0,0-1.346-.9,2.463,2.463,0,1,0-1.495,4.695,4.039,4.039,0,0,0,2.8,3.923,2.46,2.46,0,1,0,4.52-1.432,4.039,4.039,0,0,0-2.316-6.373Z" transform="translate(-379.906 -118.92)" fill="#263238"/>
        <path id="Trazado_161553" data-name="Trazado 161553" d="M390.66,383.78a22.829,22.829,0,0,1,.655,2.244,6.247,6.247,0,0,1,.18,2.864c-.269.619-1.517,1.086-3.272,1.346a19.772,19.772,0,0,0-4.34,1.566,9.83,9.83,0,0,1-4.906.8c-2.28-.13-3.263-1.194-3.532-1.84s-.5-1.539,3.743-2.994c.036,0,5.139-1.8,6.9-3.806Z" transform="translate(-352.978 -264.904)" fill="#263238"/>
        <path id="Trazado_161554" data-name="Trazado 161554" d="M394.224,383.9l-.817-.085-3.761.148c-1.759,2.024-6.863,3.8-6.9,3.806l-.678.242c-.727.615-.081,1.62,1.688,1.741s7.217-1.813,8.442-2.424A3.636,3.636,0,0,0,394.224,383.9Z" transform="translate(-356.537 -264.92)" fill="#ffa8a7"/>
        <path id="Trazado_161555" data-name="Trazado 161555" d="M403.818,380.44s0,1.028.031,1.616-.66,1.477-2.46,1.445c-1.261,0-2.15-.341-2.118-1.382l-.031-1.495Z" transform="translate(-366.163 -263.063)" fill="#ffa8a7"/>
        <path id="Trazado_161556" data-name="Trazado 161556" d="M424.14,360.693c.251,0,.323.377.516,1.84.126.929.355,2.195-.548,2.828a3.069,3.069,0,0,1-3.811-.3,43.094,43.094,0,0,0-2.693-3.434c-1.077-1.176-2.469-2.244-2.971-3.842-.566-1.8-.027-2.639,1.194-2.765a4.937,4.937,0,0,1,3.443,1.194,6.386,6.386,0,0,0,1.266.637C421.465,357.125,423.79,360.661,424.14,360.693Z" transform="translate(-374.523 -249.051)" fill="#263238"/>
        <path id="Trazado_161557" data-name="Trazado 161557" d="M430.919,363.826v1.517s-.978,2.011-3.842.076c-.067-.148-.377-3.079-.377-3.079Z" transform="translate(-381.298 -253.086)" fill="#ffa8a7"/>
        <path id="Trazado_161558" data-name="Trazado 161558" d="M423.165,358.2a6.385,6.385,0,0,1-1.266-.637h0c-1.149-.341-3.537.126-2.424,1.759a12.864,12.864,0,0,0,3.451,3.407c1.288.606,1.723-.184,1.723-.184l-.525-3.555a2.823,2.823,0,0,0-.96-.79Z" transform="translate(-377.157 -250.395)" fill="#ffa8a7"/>
        <path id="Trazado_161559" data-name="Trazado 161559" d="M411.906,267.41a36.121,36.121,0,0,0-1.8-7.828s.821-6.732,1.45-13.169c1.472-15.134.287-15.354-1.948-20.561,0,0-19.4-2.114-20.058,5.951-.812,10.045.027,29.474.265,33.029s.561,5.153,1.759,12.567c.9,5.651,1.921,18.029,1.921,18.029a4.88,4.88,0,0,0,4.973-.35s2.127-15.292,1.993-19.389a34.894,34.894,0,0,0-1.477-8.936s1.346-16.369,1.7-18.976c0,0,.57,5.2.808,8.752s1.27,6.952,2.244,13.555c.848,5.727,2.307,17.693,2.307,17.693a5.4,5.4,0,0,0,4.327.714S412.566,272.378,411.906,267.41Z" transform="translate(-360.633 -177.721)" fill="#451991"/>
        <g id="Grupo_102697" data-name="Grupo 102697" transform="translate(28.575 47.882)" opacity="0.4">
          <path id="Trazado_161560" data-name="Trazado 161560" d="M411.906,267.41a36.121,36.121,0,0,0-1.8-7.828s.821-6.732,1.45-13.169c1.472-15.134.287-15.354-1.948-20.561,0,0-19.4-2.114-20.058,5.951-.812,10.045.027,29.474.265,33.029s.561,5.153,1.759,12.567c.9,5.651,1.921,18.029,1.921,18.029a4.88,4.88,0,0,0,4.973-.35s2.127-15.292,1.993-19.389a34.894,34.894,0,0,0-1.477-8.936s1.346-16.369,1.7-18.976c0,0,.57,5.2.808,8.752s1.27,6.952,2.244,13.555c.848,5.727,2.307,17.693,2.307,17.693a5.4,5.4,0,0,0,4.327.714S412.566,272.378,411.906,267.41Z" transform="translate(-389.208 -225.603)"/>
        </g>
        <path id="Trazado_161561" data-name="Trazado 161561" d="M414.75,262.918l.794-7.078a12.186,12.186,0,0,0,7.464-2.76s-1.221,2.6-6.337,3.833l-.862,7.28L415.6,272.2Q415.253,267.519,414.75,262.918Z" transform="translate(-374.711 -192.865)" opacity="0.15"/>
        <path id="Trazado_161562" data-name="Trazado 161562" d="M409.489,173.629a4.039,4.039,0,0,0-4.8-2.765l-.709.153c-.206,1.086-3.7,2.011-6.854.9l-2.985.471c-2.787,1.3-4.816,4.618-6.284,7.913a5.35,5.35,0,0,0,1.539,6.535s-.256,3.954-.39,6.167q-.305,4.964-.651,9.919s4.937,2.644,12.715,1.62a17.734,17.734,0,0,0,9.816-4.488,68.3,68.3,0,0,0-3.977-10.135C410.566,180.891,410.463,176.524,409.489,173.629Z" transform="translate(-359.599 -147.489)" fill="#455a64"/>
        <path id="Trazado_161563" data-name="Trazado 161563" d="M342.476,184.19c-1.71-1.382-3.353-2.85-5.018-4.286q-2-1.715-4.017-3.407c-.332-.278-.66-.579-1.01-.839a9.383,9.383,0,0,0-1.046-.615c-.767-.449-1.531-.857-2.3-1.279a8.925,8.925,0,0,1-1.346-.817,15.334,15.334,0,0,1-1.306-1.167,2.28,2.28,0,0,1-.875-2.042,2.19,2.19,0,0,1,.126-.853c.184-.449.642-.561.866-.925s.058-.8.341-1.122a1.7,1.7,0,0,1,.628-.35c.449-.193.507-.449.319-.826s-.39-.763-.6-1.136c-.637-1.149-.9-2.065-.314-2.361.785-.417,1.468.768,2.383,2.127a15.989,15.989,0,0,0,3,3.806c.1-.736.2-1.472.305-2.2a1.8,1.8,0,0,1,.251-.821.619.619,0,0,1,.758-.233.9.9,0,0,1,.341.633l.485,2.127a9.336,9.336,0,0,0,.79,2.437,8.7,8.7,0,0,0,2.446,2.581c2.693,2.092,5.5,3.995,8.339,5.835h0s6.8-6.472,8.685-8.24a8.22,8.22,0,0,1,5.871-2.733s2.244,5.1-.947,9.048c0,0-10.323,7.877-12.311,8.748C345.68,186.039,344.226,185.6,342.476,184.19Z" transform="translate(-325.542 -142.709)" fill="#ffa8a7"/>
        <path id="Trazado_161564" data-name="Trazado 161564" d="M409.33,215.368a26.767,26.767,0,0,0,3.855-.233,16.951,16.951,0,0,0,9.807-4.524,64.1,64.1,0,0,0-3.968-10.1A41.359,41.359,0,0,0,422.068,190c-.3,1.89-3.092,9.205-6.732,11.4a6.491,6.491,0,0,1,3.824,2.742C420.923,206.566,419.465,214.847,409.33,215.368Z" transform="translate(-371.724 -158.097)" fill="#37474f"/>
      </g>
    </g>
    <g id="freepik--character-1--inject-107" transform="translate(40.049 86.127)">
      <g id="freepik--character--inject-107-2" data-name="freepik--character--inject-107">
        <path id="Trazado_161565" data-name="Trazado 161565" d="M79.408,208.484a12.7,12.7,0,0,1,.233-2.06,2.891,2.891,0,0,1,.875-1.634.655.655,0,0,1,.359-.171v2.406a3.591,3.591,0,0,0,1.548,1.755,1.432,1.432,0,0,0,.4.171.534.534,0,0,0,.413-.072c.238-.162.144-.39.063-.606a4.937,4.937,0,0,1-.269-2.118,1.05,1.05,0,0,1,.162-.534.417.417,0,0,1,.494-.157.6.6,0,0,1,.251.328,11.274,11.274,0,0,0,1.185,2.3c1.019,1.293.969,2.361,1.966,3.591.368.449,4.488,4.039,7.774,6.589,6.135-6.185,9.654-10.615,12.024-9.645,2.657.552,4.237,3.591.956,6.836a99.38,99.38,0,0,1-10.772,8.761c-1.679,1.086-3.2,1.97-5.3-.139-2.693-2.72-4.206-4.767-5.332-6.055a15.88,15.88,0,0,0-3.1-2.639c-.494-.332-1.005-.646-1.5-.983a4.515,4.515,0,0,1-1.077-1.109,7.114,7.114,0,0,1-1.18-2.81A9.685,9.685,0,0,1,79.408,208.484Z" transform="translate(-79.406 -186.791)" fill="#ffa8a7"/>
        <path id="Trazado_161566" data-name="Trazado 161566" d="M111.789,234.383a7.913,7.913,0,0,0-1.679,2.536,5.3,5.3,0,0,1,1.046-3.039Z" transform="translate(-96.329 -202.918)" fill="#f28f8f"/>
        <path id="Trazado_161567" data-name="Trazado 161567" d="M129.737,213.727a4.587,4.587,0,0,0-6.171.328c-2.177,1.858-6.925,6.652-6.925,6.652a7.015,7.015,0,0,0,1.293,3.959c1.4,2.069,2.558,2.338,2.558,2.338l7.63-6.18Z" transform="translate(-99.928 -191.238)" fill="#451991"/>
        <path id="Trazado_161568" data-name="Trazado 161568" d="M179.127,438.457c.224,1.1-.175,1.679-1.6,2.5a7.93,7.93,0,0,1-6,.417c-2.347-.682-3.469-1.706-4.443-1.948s-3.389-.269-4.354-.548-.947-.776-.943-1.939Z" transform="translate(-124.813 -314.839)" fill="#455a64"/>
        <path id="Trazado_161569" data-name="Trazado 161569" d="M162.662,424.5s-.449,1.387-.7,2.6c-.193.965-.476,2.581-.139,3.3s1.656,1.194,3.7,1.18a12.312,12.312,0,0,1,4.8,1.674,7.576,7.576,0,0,0,4.583.637c1.8-.215,3.7-1.266,3.995-2.02s.372-1.32-3.914-3.142c-.036,0-4.969-1.84-7.042-4.125Z" transform="translate(-124.743 -307.983)" fill="#451991"/>
        <g id="Grupo_102698" data-name="Grupo 102698" transform="translate(36.919 116.517)" opacity="0.3">
          <path id="Trazado_161570" data-name="Trazado 161570" d="M162.662,424.5s-.449,1.387-.7,2.6c-.193.965-.476,2.581-.139,3.3s1.656,1.194,3.7,1.18a12.312,12.312,0,0,1,4.8,1.674,7.576,7.576,0,0,0,4.583.637c1.8-.215,3.7-1.266,3.995-2.02s.372-1.32-3.914-3.142c-.036,0-4.969-1.84-7.042-4.125Z" transform="translate(-161.661 -424.5)"/>
        </g>
        <path id="Trazado_161571" data-name="Trazado 161571" d="M182.24,438.529s.368-3.68,3.357-4.731c2.693-.951,5.067,1.05,4.8,2.792C190.211,437.762,186.93,440.423,182.24,438.529Z" transform="translate(-136.085 -312.972)" fill="#fafafa"/>
        <path id="Trazado_161572" data-name="Trazado 161572" d="M183.422,431.917a3.5,3.5,0,0,0-2.042.9c-.862.727-.9,1.207-.9,1.207a.449.449,0,0,1-.781-.372,2.818,2.818,0,0,1,2.639-2.244A1,1,0,0,1,183.422,431.917Z" transform="translate(-134.682 -311.778)" fill="#fafafa"/>
        <path id="Trazado_161573" data-name="Trazado 161573" d="M179.669,430.1a3.07,3.07,0,0,0-2.06.821c-.862.723-.866,1.293-.866,1.293a.449.449,0,0,1-.781-.373,2.826,2.826,0,0,1,2.644-2.244A1,1,0,0,1,179.669,430.1Z" transform="translate(-132.621 -310.783)" fill="#fafafa"/>
        <path id="Trazado_161574" data-name="Trazado 161574" d="M175.742,427.875a3.074,3.074,0,0,0-2.114.678c-.9.664-.951,1.234-.951,1.234a.449.449,0,0,1-.754-.426,2.816,2.816,0,0,1,2.792-2.051A.992.992,0,0,1,175.742,427.875Z" transform="translate(-130.391 -309.527)" fill="#fafafa"/>
        <path id="Trazado_161575" data-name="Trazado 161575" d="M163.89,417.54V420.8c0,.678.794,1.688,2.864,1.611,1.454-.054,2.469-.449,2.41-1.638v-2.962Z" transform="translate(-125.971 -304.146)" fill="#ffa8a7"/>
        <path id="Trazado_161576" data-name="Trazado 161576" d="M146.278,397.52a6.155,6.155,0,0,1-.171,2.792,6.363,6.363,0,0,1-2.244,2.724,11.072,11.072,0,0,0-1.881,2.276,9.626,9.626,0,0,1-1.957,2.451,3.931,3.931,0,0,1-3.169.229c-.83-.35-1.109-.664-1.055-1.988s4.071-1.8,4.071-1.8Z" transform="translate(-110.486 -293.112)" fill="#455a64"/>
        <path id="Trazado_161577" data-name="Trazado 161577" d="M136.235,400.087c-.346.13-.449.785-.485,2.083-.04.983-.449,2.424.9,3.043a3.325,3.325,0,0,0,3.591-.758c.925-1.158,1.544-2.177,2.859-3.591,1.14-1.225,2.329-1.638,2.837-4.084.328-1.575.072-2.244-.987-2.693-1.459-.619-3.743,1.409-4.888,1.728C139.067,396.106,136.576,399.957,136.235,400.087Z" transform="translate(-110.412 -291.155)" fill="#451991"/>
        <path id="Trazado_161578" data-name="Trazado 161578" d="M136.235,400.087c-.346.13-.449.785-.485,2.083-.04.983-.449,2.424.9,3.043a3.325,3.325,0,0,0,3.591-.758c.925-1.158,1.544-2.177,2.859-3.591,1.14-1.225,2.329-1.638,2.837-4.084.328-1.575.072-2.244-.987-2.693-1.459-.619-3.743,1.409-4.888,1.728C139.067,396.106,136.576,399.957,136.235,400.087Z" transform="translate(-110.412 -291.155)" opacity="0.3"/>
        <path id="Trazado_161579" data-name="Trazado 161579" d="M144.746,398.037l.2-.067a3.757,3.757,0,0,1,3.142,2.065c.193.449-.4.763-.763.449a4.008,4.008,0,0,0-3.142-2.056A1.616,1.616,0,0,1,144.746,398.037Z" transform="translate(-115.108 -293.36)" fill="#fafafa"/>
        <path id="Trazado_161580" data-name="Trazado 161580" d="M142.782,399.77a3.721,3.721,0,0,1,2.926,2.051c.193.449-.4.758-.759.449a3.833,3.833,0,0,0-2.63-1.961A5.221,5.221,0,0,1,142.782,399.77Z" transform="translate(-114.082 -294.352)" fill="#fafafa"/>
        <path id="Trazado_161581" data-name="Trazado 161581" d="M136.5,402.37l.2,2.738a3.919,3.919,0,0,0,4.039.112c.072-.157.274-2.608.274-2.608Z" transform="translate(-110.875 -295.785)" fill="#ffa8a7"/>
        <path id="Trazado_161582" data-name="Trazado 161582" d="M151.764,398.349s-.112-2.913-4.039-3.317l-.224.126a3.411,3.411,0,0,1,1.939-1.495,2.7,2.7,0,0,1,3.03.871C153.155,395.4,152.464,397.779,151.764,398.349Z" transform="translate(-116.938 -290.911)" fill="#fafafa"/>
        <path id="Trazado_161583" data-name="Trazado 161583" d="M133.8,313.306a39.6,39.6,0,0,1,1.557-7.661s-.673-6.553-1.082-12.8c-.171-2.742-.256-5.767-.31-8.528a46.33,46.33,0,0,1,.682-9.08s19.3-4.542,19.843,3.236c.633,8.748.687,28.451.557,30.893-.18,3.425-.184,6.988-.768,12.567-.574,5.485-1.535,17.841-1.535,17.841a10.042,10.042,0,0,1-5.812,0s-1.611-14.915-1.539-18.851a33.747,33.747,0,0,1,1.306-8.649l-2.576-21.714s-.26,9.645-.449,13.07-.651,5.516-1.5,11.894c-.732,5.53-2.639,16.683-2.639,16.683a6.068,6.068,0,0,1-4.614,0S133.238,318.1,133.8,313.306Z" transform="translate(-109.323 -224.989)" fill="#37474f"/>
        <path id="Trazado_161584" data-name="Trazado 161584" d="M140.12,300.92a17.463,17.463,0,0,0,5.776,4.852s1.414,11.943,1.4,11.705l.368-12.015A41.71,41.71,0,0,1,140.12,300.92Z" transform="translate(-112.87 -239.869)" fill="#263238"/>
        <path id="Trazado_161585" data-name="Trazado 161585" d="M153.719,205.58l-.332,7.1-7.047-.377.22-8.258Z" transform="translate(-116.298 -186.477)" fill="#ffa8a7"/>
        <path id="Trazado_161586" data-name="Trazado 161586" d="M131.207,217.67c.588-1.939,2.935-4.569,5.386-4.17.57.09.7.171,1.234.269.3,1.2,3.963,1.643,7.1.9.943.247,4.17,1.387,4.937,1.652,2.244.745,2.639,2.958,2.989,10.323,0,0,.359,14.946.386,21a22.006,22.006,0,0,1-14.533,1.62c-6.755-1.32-6.423-2.41-6.423-2.41a105.885,105.885,0,0,0,0-11.261,43.953,43.953,0,0,0-1.046-8.487A21.585,21.585,0,0,1,131.207,217.67Z" transform="translate(-107.687 -191.663)" fill="#455a64"/>
        <path id="Trazado_161587" data-name="Trazado 161587" d="M204.321,237.871a.7.7,0,0,0-.449-.566,2.172,2.172,0,0,0-.741-.144,23.063,23.063,0,0,1-4.448-.83c-.386-.112-.826-.292-.925-.682-.121-.471.328-.866.642-1.239a2.765,2.765,0,0,0,.642-1.477c.04-.319-.063-1-.583-.664a12.171,12.171,0,0,1-2.392,1.3c-1.513.646-2.163,1.369-3.635,1.988a84.242,84.242,0,0,1-9.793,2.307c-5.453-6.382-9.425-15.951-11.988-16.234-2.6-.785-4.345,4.793-2.5,8.716,1.584,3.366,7.958,10.2,9.286,11.692s2.3,3.267,5.153,2.415c3.676-1.1,5.974-2.172,7.576-2.765a14.914,14.914,0,0,1,3.362-1.082,5.162,5.162,0,0,1,1.723.027c.642.144,1.284.3,1.925.449a13.819,13.819,0,0,0,2.976.413,2.778,2.778,0,0,0,1.4-.229,2.5,2.5,0,0,0,.767-.7c.193-.242.449-.395.651-.633a1.311,1.311,0,0,0,.3-1.216,2.244,2.244,0,0,0,.7-.238A.714.714,0,0,0,204.321,237.871Z" transform="translate(-127.897 -196.124)" fill="#ffa8a7"/>
        <path id="Trazado_161588" data-name="Trazado 161588" d="M169.642,219.85c2.352.449,2.644,1.387,4.188,4s4.982,8.528,4.982,8.528a8.551,8.551,0,0,1-5.35,5.139,61.537,61.537,0,0,1-5.835-7.823C165.877,226.551,166.123,221.475,169.642,219.85Z" transform="translate(-127.446 -195.185)" fill="#451991"/>
        <path id="Trazado_161589" data-name="Trazado 161589" d="M173.34,188s1.683,2.549,1.49,2.8-1.427.476-1.427.476Z" transform="translate(-131.18 -177.63)" fill="#f28f8f"/>
        <path id="Trazado_161590" data-name="Trazado 161590" d="M150.139,171.919c3.4.714,4.381,2.208,4.7,7.63.332,5.642-.242,7.415-.983,8.178-.5.512-3.281.606-4.686.215-1.755-.48-5.723-1.89-7.581-4.726-2.186-3.339-2.76-7.863-.417-9.722C144.444,170.878,148.734,171.627,150.139,171.919Z" transform="translate(-112.62 -168.587)" fill="#ffa8a7"/>
        <path id="Trazado_161591" data-name="Trazado 161591" d="M160.445,207.769a14.108,14.108,0,0,1-1.8-.449,3.142,3.142,0,0,0,1.706.983Z" transform="translate(-123.083 -188.279)" fill="#f28f8f"/>
        <path id="Trazado_161592" data-name="Trazado 161592" d="M152.812,170.329a4.582,4.582,0,0,1-.871.687,11.531,11.531,0,0,1-1.418.79,8.437,8.437,0,0,0-1.382.646,1.906,1.906,0,0,0-.709,1.732v1.661c0,.938-.606,1.652-.9.395,0,0-.539-2.087-2.3-1.822s-1.912,2.244-1.073,3.8c.512.947,1.876.7,1.876.7a6.135,6.135,0,0,1-1.836,4.731,6.627,6.627,0,0,1-4.161.139c-1.894-2.608-3.083-3.873-4.093-6.122-2.136-4.758-1.1-7.742.548-8.977.328-2.19,2.051-3.173,4.039-3.627,2.94-.678,5.7,1.073,8.6.417a12.921,12.921,0,0,0,1.418-.373.8.8,0,0,1,.575-.036.637.637,0,0,1,.274.651,1.755,1.755,0,0,1-.853,1.378c.058-.036.341.04.422.045h.489a8.637,8.637,0,0,0,.956-.067,1.719,1.719,0,0,1,.66.022,1.189,1.189,0,0,1,.75,1.2,2.953,2.953,0,0,1-.521,1.414,3.906,3.906,0,0,1-.355.5Z" transform="translate(-109.906 -164.896)" fill="#263238"/>
        <path id="Trazado_161593" data-name="Trazado 161593" d="M135.953,172.691l-2.033-1.2a1.181,1.181,0,1,1,2.033,1.2Z" transform="translate(-109.453 -168.21)" fill="#263238"/>
      </g>
    </g>
  </g>
</svg>
