<svg xmlns="http://www.w3.org/2000/svg" width="208.75" height="207.241" viewBox="0 0 208.75 207.241">
  <g id="img5" transform="translate(-31.585 -39.745)">
    <g id="freepik--Floor--inject-123" transform="translate(31.585 137.909)">
      <path id="freepik--floor--inject-123-2" data-name="freepik--floor--inject-123" d="M62.155,340.1c40.76,21.313,106.85,21.313,147.61,0s40.76-55.821,0-77.116-106.85-21.313-147.61,0S21.395,318.8,62.155,340.1Z" transform="translate(-31.585 -247.005)" fill="#36a3f7" opacity="0.21"/>
    </g>
    <g id="freepik--Shadows--inject-123" transform="translate(153.314 175.294)">
      <ellipse id="freepik--Shadow--inject-123" cx="19.367" cy="11.182" rx="19.367" ry="11.182" transform="translate(0 16.714)" fill="#e0e0e0"/>
      <ellipse id="freepik--shadow--inject-123-2" data-name="freepik--shadow--inject-123" cx="17.131" cy="9.889" rx="17.131" ry="9.889" transform="translate(37.625)" fill="#e0e0e0"/>
    </g>
    <g id="freepik--Clouds--inject-123" transform="translate(178.866 56.616)">
      <g id="freepik--clouds--inject-123-2" data-name="freepik--clouds--inject-123">
        <path id="Trazado_161594" data-name="Trazado 161594" d="M370.575,77.011l3.031,1.748a2.927,2.927,0,0,1-.028-.4V77.48c0-1.563,1.1-2.193,2.449-1.421a4.651,4.651,0,0,1,1.459,1.421c.223-1.966,1.762-2.695,3.633-1.615a8.094,8.094,0,0,1,3.661,6.342v1.312a3.466,3.466,0,0,1-.308,1.525l2.515,1.449a3.012,3.012,0,0,1,1.359,2.368c0,.867-.611,1.217-1.359.781L370.575,80.17A3.008,3.008,0,0,1,369.22,77.8C369.22,76.925,369.826,76.575,370.575,77.011Z" transform="translate(-356.588 -75.365)" fill="#ebebeb"/>
        <path id="Trazado_161595" data-name="Trazado 161595" d="M343.578,96.082l2.288,1.317a2.182,2.182,0,0,1-.024-.3v-.658c0-1.179.829-1.658,1.852-1.07a3.646,3.646,0,0,1,1.1,1.061c.166-1.482,1.331-2.032,2.742-1.217A6.105,6.105,0,0,1,354.3,100v.99a2.586,2.586,0,0,1-.232,1.146l1.894,1.094a2.273,2.273,0,0,1,1.023,1.776c0,.654-.474.919-1.023.592l-12.385-7.152a2.25,2.25,0,0,1-1.023-1.771C342.555,96.021,343.009,95.755,343.578,96.082Z" transform="translate(-342.55 -85.613)" fill="#ebebeb"/>
      </g>
    </g>
    <g id="freepik--Plants--inject-123" transform="translate(31.951 160.08)">
      <g id="freepik--plants--inject-123-2" data-name="freepik--plants--inject-123" transform="translate(0 19.683)">
        <path id="Trazado_161596" data-name="Trazado 161596" d="M54.2,363.985c-.3.161-5.878,1.748-7.943-.985s1.364-6.981-.578-8.549-7.365,0-8.672-3.292,2.567-4.736.388-8.052c-1.374-2.093-5.21-3.249-5.035-5.21.256-2.842,5.5-3.618,10.083-.564s6.716.549,8.175.346,4.589.246,4.485,5.352S54.2,363.985,54.2,363.985Z" transform="translate(-32.358 -335.377)" fill="#455a64"/>
        <path id="Trazado_161597" data-name="Trazado 161597" d="M57.883,358.091a.3.3,0,0,1-.3-.256c-1.6-9.69-12.859-17.576-18.718-19.267a.313.313,0,0,1-.208-.379.3.3,0,0,1,.379-.2c5.987,1.729,17.524,9.809,19.149,19.75a.308.308,0,0,1-.251.35Z" transform="translate(-35.669 -336.743)" fill="#fff"/>
        <path id="Trazado_161598" data-name="Trazado 161598" d="M50.884,360.723a.3.3,0,0,1-.26-.147.308.308,0,0,1,.1-.417c.185-.109,4.518-2.643,8.786-1.459a.3.3,0,0,1,.213.374.3.3,0,0,1-.374.213c-4.016-1.113-8.269,1.369-8.312,1.392A.3.3,0,0,1,50.884,360.723Z" transform="translate(-41.95 -347.488)" fill="#fff"/>
      </g>
      <g id="freepik--plants--inject-123-3" data-name="freepik--plants--inject-123" transform="translate(183.386)">
        <path id="Trazado_161599" data-name="Trazado 161599" d="M421.234,316.382l-1.468-.691a50.121,50.121,0,0,1,0-8.838c.947-6.588,5.546-12.267,9.643-12.935,5.276-.857,4.338,4,1.321,6.1C425.923,303.377,422.182,308.459,421.234,316.382Z" transform="translate(-419.556 -293.818)" fill="#451991"/>
        <g id="Grupo_102699" data-name="Grupo 102699" opacity="0.1">
          <path id="Trazado_161600" data-name="Trazado 161600" d="M421.234,316.382l-1.468-.691a50.121,50.121,0,0,1,0-8.838c.947-6.588,5.546-12.267,9.643-12.935,5.276-.857,4.338,4,1.321,6.1C425.923,303.377,422.182,308.459,421.234,316.382Z" transform="translate(-419.556 -293.818)"/>
        </g>
        <path id="Trazado_161601" data-name="Trazado 161601" d="M421.458,315.775h.038a.256.256,0,0,0,.2-.3c-1.023-5.414,3.434-15.45,9.4-18.3a.262.262,0,1,0-.223-.474c-6.157,2.936-10.732,13.261-9.681,18.86a.256.256,0,0,0,.265.213Z" transform="translate(-420.338 -295.323)" fill="#fff"/>
        <path id="Trazado_161602" data-name="Trazado 161602" d="M419.8,321.614c-.109-.786-.156-1.932-.17-2.217a7.217,7.217,0,0,1,.431-2.936,5.792,5.792,0,0,1,2.449-2.97,4.76,4.76,0,0,0,1.733-1.2,3.827,3.827,0,0,0,.45-1.757,3.812,3.812,0,0,1,1.227-2.643,3.966,3.966,0,0,1,2.842-.516,7.074,7.074,0,0,0,4.078-.308,27.855,27.855,0,0,1,3.277-1.478c1.421-.474,4.6-1.184,5.267.81a1.918,1.918,0,0,1-.289,1.625,5.816,5.816,0,0,1-1.193,1.217l-2.221,1.847a2.843,2.843,0,0,0-.677.706c-.431.739-.123,1.672-.218,2.52a3.008,3.008,0,0,1-1.364,2.122,4.04,4.04,0,0,1-2.482.6c-1.16-.081-3.055-.971-3.765.4a4.428,4.428,0,0,0-.341,1.468,2.2,2.2,0,0,1-2.477,2.24,11.411,11.411,0,0,0-3.055.474c-.4.156-.649.663-.881,1C421.69,322.376,420.894,322.088,419.8,321.614Z" transform="translate(-419.585 -299.741)" fill="#451991"/>
        <path id="Trazado_161603" data-name="Trazado 161603" d="M421.082,322.7a.222.222,0,0,1-.109,0,.242.242,0,0,1-.133-.313c2.984-7.412,12.5-12.722,18.178-14.483a.237.237,0,0,1,.3.161.241.241,0,0,1-.156.3c-5.584,1.733-14.952,6.943-17.875,14.209A.246.246,0,0,1,421.082,322.7Z" transform="translate(-420.223 -301.229)" fill="#fff"/>
      </g>
    </g>
    <g id="freepik--Pen--inject-123" transform="translate(86.84 166.433)">
      <g id="freepik--pen--inject-123-2" data-name="freepik--pen--inject-123">
        <path id="Trazado_161604" data-name="Trazado 161604" d="M278.834,309.11a5.863,5.863,0,0,0,2.657,4.6,2.136,2.136,0,0,0,1.525.322,1.331,1.331,0,0,1-.289.227l.639-.365.033-.024.095-.062a.845.845,0,0,0,.118-.1l.071-.071h0c0-.024.043-.047.062-.076a1.894,1.894,0,0,0,.218-.4l.047-.128a.351.351,0,0,0,0-.066,1,1,0,0,0,.028-.114,2.875,2.875,0,0,0,.071-.663,5.863,5.863,0,0,0-2.652-4.594,2.368,2.368,0,0,0-1.189-.365H280.1l-.152.028-.09.024H279.8a.517.517,0,0,0-.109.043h0l-.1.052-.554.317a1.124,1.124,0,0,1,.284-.1A2.112,2.112,0,0,0,278.834,309.11Zm4.372,4.859h0Z" transform="translate(-216.983 -307.23)" fill="#451991"/>
        <path id="Trazado_161605" data-name="Trazado 161605" d="M162.43,340.058l3.746,6.508.635-.369,54.647-31.548a1.331,1.331,0,0,0,.289-.227,2.112,2.112,0,0,0,.474-1.492,5.882,5.882,0,0,0-2.657-4.6,2.4,2.4,0,0,0-1.189-.36,1.333,1.333,0,0,0-.336.038,1.123,1.123,0,0,0-.284.1l-.047.024h0Z" transform="translate(-155.714 -307.619)" fill="#ebebeb"/>
        <path id="Trazado_161606" data-name="Trazado 161606" d="M163.447,375.706c-1.468-.848-2.657-.161-2.657,1.53a5.864,5.864,0,0,0,2.657,4.6c1.464.848,2.652.161,2.652-1.535a5.863,5.863,0,0,0-2.652-4.594Z" transform="translate(-154.851 -343.083)" fill="#451991"/>
        <path id="Trazado_161607" data-name="Trazado 161607" d="M154.09,379.659a.345.345,0,0,1,.066-.076l3.386-3.727h0l.028-.028.062-.066.033-.038h0a1.7,1.7,0,0,1,2.122,0,5.864,5.864,0,0,1,2.652,4.594,1.735,1.735,0,0,1-1.023,1.828h-.038a1.422,1.422,0,0,1-.194.043h-.043l-4.907,1.07a1.189,1.189,0,0,1-.857-.185,3.348,3.348,0,0,1-1.52-2.624,1.231,1.231,0,0,1,.232-.791Z" transform="translate(-151.201 -343.091)" fill="#e0e0e0"/>
        <path id="Trazado_161608" data-name="Trazado 161608" d="M199.679,333.3h0l.09-.052a.687.687,0,0,1,.616.09,2.084,2.084,0,0,1,.947,1.634.7.7,0,0,1-.223.568h0l-.118.066L160.652,358.9,158,357.362Z" transform="translate(-153.382 -320.907)" fill="#455a64"/>
        <path id="Trazado_161609" data-name="Trazado 161609" d="M164.389,380.3l-3.746,2.164-2.652-1.535L163.063,378A6.428,6.428,0,0,1,164.389,380.3Z" transform="translate(-153.377 -344.482)" fill="#37474f"/>
        <path id="Trazado_161610" data-name="Trazado 161610" d="M151.354,384h0l3.064-3.4.081-.09a1.194,1.194,0,0,1,1.516,0,4.139,4.139,0,0,1,1.895,3.249,1.226,1.226,0,0,1-.715,1.288h-.028l-.123.028-4.518.995h0a.725.725,0,0,1-.474-.1,1.9,1.9,0,0,1-.853-1.482.673.673,0,0,1,.156-.488Z" transform="translate(-149.8 -345.665)" fill="#451991"/>
        <path id="Trazado_161611" data-name="Trazado 161611" d="M151.354,384h0l3.064-3.4.081-.09a1.194,1.194,0,0,1,1.516,0,4.139,4.139,0,0,1,1.895,3.249,1.226,1.226,0,0,1-.715,1.288h-.028l-.123.028-4.518.995h0a.725.725,0,0,1-.474-.1,1.9,1.9,0,0,1-.853-1.482.673.673,0,0,1,.156-.488Z" transform="translate(-149.8 -345.665)" opacity="0.1"/>
        <path id="Trazado_161612" data-name="Trazado 161612" d="M151.166,386.508a1.9,1.9,0,0,0,.853,1.482.687.687,0,0,0,.474.1h0l2.273-.5c.36-.076.6-.412.6-.947A3.017,3.017,0,0,0,154,384.277a.876.876,0,0,0-1.094,0l-.062.066-1.525,1.677h0A.654.654,0,0,0,151.166,386.508Z" transform="translate(-149.783 -347.685)" fill="#451991"/>
        <path id="Trazado_161613" data-name="Trazado 161613" d="M152.053,388.031c-.474-.27-.853-.052-.853.474a1.9,1.9,0,0,0,.853,1.482c.474.27.853.047.853-.5A1.894,1.894,0,0,0,152.053,388.031Z" transform="translate(-149.803 -349.7)" opacity="0.1"/>
        <path id="Trazado_161614" data-name="Trazado 161614" d="M256.116,321.082a.658.658,0,0,1,.668.066,2.079,2.079,0,0,1,.947,1.625.649.649,0,0,1-.275.606h0l-9.946,5.731a.7.7,0,0,0,.223-.568,2.084,2.084,0,0,0-.947-1.634.687.687,0,0,0-.616-.09Z" transform="translate(-199.793 -314.489)" fill="#fafafa"/>
        <path id="Trazado_161615" data-name="Trazado 161615" d="M266.577,321.664a2.089,2.089,0,0,0,.947,1.629.573.573,0,0,0,.947-.545,2.079,2.079,0,0,0-.947-1.625.573.573,0,0,0-.947.54Z" transform="translate(-210.528 -314.465)" fill="#f5f5f5"/>
        <path id="Trazado_161616" data-name="Trazado 161616" d="M270.269,311.275h.033l.038-.024,3.917-2.259.095-.052h0a1.714,1.714,0,0,1,1.62.2,5.267,5.267,0,0,1,2.368,4.135,1.681,1.681,0,0,1-.706,1.553h0l-3.964,2.288h-.024a1.715,1.715,0,0,1-1.658-.185,5.286,5.286,0,0,1-2.368-4.139,1.71,1.71,0,0,1,.649-1.52Z" transform="translate(-212.132 -308.069)" fill="#451991"/>
        <path id="Trazado_161617" data-name="Trazado 161617" d="M270.269,311.275h.033l.038-.024,3.917-2.259.095-.052h0a1.714,1.714,0,0,1,1.62.2,5.267,5.267,0,0,1,2.368,4.135,1.681,1.681,0,0,1-.706,1.553h0l-3.964,2.288h-.024a1.715,1.715,0,0,1-1.658-.185,5.286,5.286,0,0,1-2.368-4.139,1.71,1.71,0,0,1,.649-1.52Z" transform="translate(-212.132 -308.069)" opacity="0.05"/>
        <path id="Trazado_161618" data-name="Trazado 161618" d="M272.058,313.867c-1.317-.763-2.368-.142-2.368,1.378a5.286,5.286,0,0,0,2.368,4.139c1.321.763,2.392.142,2.392-1.378A5.281,5.281,0,0,0,272.058,313.867Z" transform="translate(-212.173 -310.552)" opacity="0.1"/>
        <path id="Trazado_161619" data-name="Trazado 161619" d="M148.559,390.056h0l1.62-.976h0a.294.294,0,0,1,.317.024.947.947,0,0,1,.44.758.322.322,0,0,1-.128.284h0l-1.615.976h0a.654.654,0,0,1-.3.076.618.618,0,0,1-.332-1.141Z" transform="translate(-148.261 -350.295)" fill="#455a64"/>
        <path id="Trazado_161620" data-name="Trazado 161620" d="M148.454,391.236h0l.085-.071h0a.327.327,0,0,1,.284.047.947.947,0,0,1,.436.758.308.308,0,0,1-.123.279h-.066a.474.474,0,0,1-.2.033.62.62,0,0,1-.62-.62A.63.63,0,0,1,148.454,391.236Z" transform="translate(-148.25 -351.404)" fill="#263238"/>
      </g>
    </g>
    <g id="freepik--Agreement--inject-123" transform="translate(53.18 39.745)">
      <g id="freepik--Contract--inject-123">
        <path id="Trazado_161621" data-name="Trazado 161621" d="M79.78,210.519l-1.653-.947a2.089,2.089,0,0,1-.947-1.634V85.473a2.084,2.084,0,0,1,.947-1.634L154.1,39.976a2.079,2.079,0,0,1,1.895,0l1.653.947a2.089,2.089,0,0,1,.947,1.634V165.023a2.079,2.079,0,0,1-.947,1.634L81.665,210.519A2.07,2.07,0,0,1,79.78,210.519Z" transform="translate(-77.18 -39.747)" fill="#451991"/>
        <path id="Trazado_161622" data-name="Trazado 161622" d="M158.863,42.409c-.062-.474-.474-.668-.947-.393L81.971,85.879a1.984,1.984,0,0,0-.668.7L77.76,84.538a1.984,1.984,0,0,1,.668-.7L154.4,39.975a2.07,2.07,0,0,1,1.895,0l1.658.947A2.1,2.1,0,0,1,158.863,42.409Z" transform="translate(-77.485 -39.745)" fill="#fff" opacity="0.4"/>
        <path id="Trazado_161623" data-name="Trazado 161623" d="M81.521,260.359a.147.147,0,0,1-.057,0l-.095.033h-.038a.855.855,0,0,0-.175.043h0a2.136,2.136,0,0,1-1.122-.09,1.716,1.716,0,0,1-.208-.095l-1.658-.947a2.1,2.1,0,0,1-.947-1.634V135.237a1.994,1.994,0,0,1,.275-.947l3.543,2.041a1.9,1.9,0,0,0-.279.947V259.744a.767.767,0,0,0,.147.5.474.474,0,0,0,.5.161A.619.619,0,0,0,81.521,260.359Z" transform="translate(-77.201 -89.511)" opacity="0.15"/>
        <path id="Trazado_161624" data-name="Trazado 161624" d="M162.394,76.918l-.137-.085-1.568-.9a5.8,5.8,0,0,0-1.833-.649c-.27-.062-.512-.133-.725-.2a5.5,5.5,0,0,1-.691-.279l.114-.147h0l-1.762-1.028h0a1.861,1.861,0,0,0-.474-.185c-.668-.166-1.667.223-2.662.109a2.477,2.477,0,0,1-1.809-1.075,21.777,21.777,0,0,1-1.506-3.424l.474-.687a1.453,1.453,0,0,0-.147-.081l-1.625-.947a1.781,1.781,0,0,0-.9-.246,3.467,3.467,0,0,0-1.705.554c-3.888,2.25-4.021,7.578-5.423,11.092s-3.386,4.608-4.466,6.119-1.156,2.629-3.547,5.925-2.487,4.1-2.487,4.736v4.911l1.771,1.023,31.837-18.391ZM133.2,95.863c-.412.232-.753-.085-.753-.725a2.013,2.013,0,0,1,.753-1.6c.412-.237.748.09.748.729a2,2,0,0,1-.748,1.582Zm13.986-13.787a1.6,1.6,0,0,1-2.449-.748c-1.236.237-2.155-.947-2.155-3,0-2.415,1.274-5.1,2.842-6.01a1.6,1.6,0,0,1,2.449.753c1.236-.246,2.15.947,2.15,3,0,2.406-1.265,5.091-2.837,6Zm10.576-.4c-.417.242-.753-.081-.753-.72a1.966,1.966,0,0,1,.753-1.6c.417-.242.753.081.753.72a1.97,1.97,0,0,1-.753,1.587Z" transform="translate(-104.725 -54.139)" fill="#455a64"/>
        <path id="Trazado_161625" data-name="Trazado 161625" d="M133.068,127.475l-3.424-1.975a2.444,2.444,0,0,0-.114.763v4.911L131.3,132.2l1.767-1.023Z" transform="translate(-104.736 -84.885)" fill="#37474f" opacity="0.5"/>
        <path id="Trazado_161626" data-name="Trazado 161626" d="M140.856,110.356l1.771-4.087-2.813-1.648h0c-.824,1.141-1.066,2.065-2.174,3.879Z" transform="translate(-109.005 -73.894)" fill="#37474f" opacity="0.5"/>
        <path id="Trazado_161627" data-name="Trazado 161627" d="M154.685,87.237l.227-1.194c-.781-.327-1.3-1.383-1.3-2.922a8.145,8.145,0,0,1,2.155-5.48l-2.453-1.421c-1.042,2.368-1.421,5.21-2.283,7.327a11.947,11.947,0,0,1-.568,1.246Z" transform="translate(-115.753 -58.945)" fill="#37474f" opacity="0.5"/>
        <path id="Trazado_161628" data-name="Trazado 161628" d="M164.352,78.086,164.215,78a7.138,7.138,0,0,0-1.634-.53,5.077,5.077,0,0,1-2.491-1.2,3.623,3.623,0,0,0-.578-.426,1.648,1.648,0,0,0-.474-.189c-1.07-.26-3.022.909-4.424-.909a.256.256,0,0,1-.043-.057c-.98-1.317-1.34-4.263-2.809-5.129a1.456,1.456,0,0,0-.147-.081,2.634,2.634,0,0,0-2.472.384c-3.888,2.25-4.021,7.578-5.423,11.092s-3.382,4.608-4.462,6.119S138.108,89.7,135.712,93s-2.482,4.106-2.482,4.736v4.916l31.837-18.391V79.322A1.231,1.231,0,0,0,164.352,78.086ZM136.91,98.054c-.417.242-.753-.081-.753-.725a1.98,1.98,0,0,1,.753-1.591c.417-.242.748.085.748.725A1.98,1.98,0,0,1,136.91,98.054Zm12.22-14.806a1.6,1.6,0,0,1-2.449-.748,4.509,4.509,0,0,1-.388-1.984c0-2.411,1.269-5.1,2.842-6.006a2.245,2.245,0,0,1,.687-.27c1.236-.246,2.15.947,2.15,3,.009,2.4-1.255,5.087-2.828,6Zm12.357.6c-.417.242-.753-.081-.753-.715a1.965,1.965,0,0,1,.753-1.591c.412-.242.748.081.748.72A1.975,1.975,0,0,1,161.486,83.845Z" transform="translate(-106.683 -55.307)" fill="#37474f"/>
        <path id="Trazado_161629" data-name="Trazado 161629" d="M166.94,82.635c0,2.415-1.265,5.1-2.842,6.01a1.6,1.6,0,0,1-2.449-.748,2.368,2.368,0,0,0,.687-.27c1.568-.909,2.842-3.595,2.842-6.01a4.542,4.542,0,0,0-.388-1.98C166.026,79.4,166.94,80.589,166.94,82.635Z" transform="translate(-121.643 -60.728)" fill="#263238"/>
        <path id="Trazado_161630" data-name="Trazado 161630" d="M140.163,127.338c-.417.237-.753-.085-.753-.72a1.989,1.989,0,0,1,.753-1.6c.412-.242.748.09.748.725a1.994,1.994,0,0,1-.748,1.591" transform="translate(-109.936 -84.591)" fill="#263238"/>
        <path id="Trazado_161631" data-name="Trazado 161631" d="M192.053,97.34c-.417.237-.753-.081-.753-.72a1.989,1.989,0,0,1,.753-1.6c.412-.237.748.09.748.729a1.989,1.989,0,0,1-.748,1.587" transform="translate(-137.25 -68.802)" fill="#263238"/>
        <path id="Trazado_161632" data-name="Trazado 161632" d="M96.428,118.77,162.537,80.6a1.255,1.255,0,0,1,1.132,0l.639.369a1.25,1.25,0,0,1,.564.98V182.8a1.241,1.241,0,0,1-.564.98L98.2,221.953a1.255,1.255,0,0,1-1.132,0l-.639-.369a1.246,1.246,0,0,1-.568-.98V119.75A1.255,1.255,0,0,1,96.428,118.77Z" transform="translate(-87.013 -61.179)" fill="#f5f5f5"/>
        <path id="Trazado_161633" data-name="Trazado 161633" d="M165.037,81.779c-.071-.232-.289-.308-.545-.156L98.384,119.793a1.08,1.08,0,0,0-.4.422L96.21,119.2a1.165,1.165,0,0,1,.4-.426L162.721,80.6a1.255,1.255,0,0,1,1.132,0l.639.369a1.255,1.255,0,0,1,.545.81Z" transform="translate(-87.197 -61.179)" fill="#fafafa"/>
        <path id="Trazado_161634" data-name="Trazado 161634" d="M98.068,265.059a1.345,1.345,0,0,1-.208.057H97.75a1.691,1.691,0,0,1-.346,0,1.5,1.5,0,0,1-.208-.057L97.068,265l-.635-.365a1.255,1.255,0,0,1-.564-.98V162.794a1.1,1.1,0,0,1,.161-.554l1.771,1.018a1.189,1.189,0,0,0-.166.559V264.671C97.637,264.979,97.826,265.13,98.068,265.059Z" transform="translate(-87.018 -104.224)" fill="#e0e0e0"/>
        <path id="Trazado_161635" data-name="Trazado 161635" d="M165.483,91.444l-1.762-1.018a1.894,1.894,0,0,0-1.767.052c-2.056.9-2.946,1.317-4.007,1.762l-.767.308c-.417.166-1.246.024-.99-1.421l2.733-7.355h-.043l-1.729-1a.72.72,0,0,0-.289-.1h-.189c-1.118-.028-1.421-7.242-1.445-7.464h0l-.081-.043-1.71-.985a1.894,1.894,0,0,0-.976-.246,3.6,3.6,0,0,0-1.625.474c-2.685,1.421-5.4,5.594-6.062,9.349-.417,2.368-2.8,6.015-4.177,7.36a4.4,4.4,0,0,0-1.473,2.463l-1.07,6.072-.346,1.947a6.3,6.3,0,0,1-1.738,2.842l-5.546,4.1c-3.472,2.88-4.452,5.792-5.115,9.392v.028c0,.128,0,.213.062.246a.057.057,0,0,0,.062,0h0l.71-.4,38.155-22a.824.824,0,0,0,.346-.53h0c.218-1.312.853-3.789.853-3.789ZM154.452,80.3c-.412,2.307-2.074,4.883-3.727,5.75-1.141.6-1.975.227-2.254-.824a1.312,1.312,0,0,1-1.25-.161c-.53-.417,4.329-8.762,4.736-8.577a1.421,1.421,0,0,1,.734.995C154.054,77.07,154.817,78.225,154.452,80.3Z" transform="translate(-102.514 -57.739)" fill="#455a64"/>
        <path id="Trazado_161636" data-name="Trazado 161636" d="M130.868,153.776l-2.78-1.606a15.387,15.387,0,0,0-2.738,6.943v.028c0,.128,0,.213.062.246a.057.057,0,0,0,.062,0h0l2.193-1.733Z" transform="translate(-102.536 -98.923)" fill="#37474f" opacity="0.5"/>
        <path id="Trazado_161637" data-name="Trazado 161637" d="M151.1,122.418l3.922,2.259,1.767-10.216-3.533-2.041a3.363,3.363,0,0,0-.554,1.35l-1.07,6.072-.346,1.947a3.079,3.079,0,0,1-.185.63Z" transform="translate(-116.09 -78)" fill="#37474f" opacity="0.5"/>
        <path id="Trazado_161638" data-name="Trazado 161638" d="M166.73,84.23a15.307,15.307,0,0,0-1.857,4.878,12.276,12.276,0,0,1-1.383,3.467l3.358,1.942,1.672-3.86a1.3,1.3,0,0,1-1.2-.171c-.275-.218.881-2.524,2.117-4.694Z" transform="translate(-122.611 -63.161)" fill="#37474f" opacity="0.5"/>
        <path id="Trazado_161639" data-name="Trazado 161639" d="M165.664,92.576h-.024a1.932,1.932,0,0,0-1.762.057c-2.52,1.113-3.282,1.478-4.779,2.07-.4.161-1.208.033-.995-1.331a.646.646,0,0,1,0-.095l.346-1.942.947-5.29s.218-.834-.332-1.146h-.043a1.028,1.028,0,0,0-.44-.095,2.155,2.155,0,0,1-1.577-1.009,3.979,3.979,0,0,1-.592-3.026c.4-2.269-.038-3.86-1.042-4.452l-.081-.047a2.7,2.7,0,0,0-2.539.246c-2.69,1.421-5.4,5.594-6.062,9.349-.422,2.368-2.8,6.02-4.182,7.36a4.358,4.358,0,0,0-1.468,2.463L140,101.726l-.341,1.942a6.335,6.335,0,0,1-1.743,2.842l-5.541,4.158a13.371,13.371,0,0,0-4.561,6.9s-2.079,1.615-2.207,1.743h0l.71-.4,38.264-22s.436-.242.535-.3,1.639-1.516,1.639-1.516A3.056,3.056,0,0,0,165.664,92.576ZM154.61,81.417c-.412,2.307-2.074,4.883-3.727,5.75-1.141.6-1.975.227-2.254-.824a4.329,4.329,0,0,1,0-1.79c.412-2.311,2.079-4.883,3.732-5.745a2.973,2.973,0,0,1,.474-.208C154.212,78.187,154.975,79.343,154.61,81.417Z" transform="translate(-102.672 -58.856)" fill="#37474f"/>
        <path id="Trazado_161640" data-name="Trazado 161640" d="M180.192,84.156c-.412,2.307-2.074,4.883-3.727,5.75-1.141.6-1.975.227-2.254-.824a3.268,3.268,0,0,0,.474-.2c1.658-.867,3.315-3.443,3.727-5.755a4.343,4.343,0,0,0,0-1.79C179.794,80.926,180.557,82.082,180.192,84.156Z" transform="translate(-128.254 -61.595)" fill="#263238"/>
        <path id="Trazado_161641" data-name="Trazado 161641" d="M178.492,81.493h0a.9.9,0,0,1,.8.388c.687.976.028,3.457-.256,4.263-.393,1.1-2.96,3.7-3.666,3.7a1.743,1.743,0,0,1-1.16-.744,4.3,4.3,0,0,1,0-1.724,8.8,8.8,0,0,1,3.675-5.683,3.144,3.144,0,0,1,.45-.194h.156m0-.109h-.175a2.973,2.973,0,0,0-.474.208c-1.653.862-3.315,3.434-3.732,5.745a4.329,4.329,0,0,0,0,1.79,1.866,1.866,0,0,0,1.255.805h0c.767,0,3.349-2.619,3.761-3.789s1.307-4.788-.644-4.788Z" transform="translate(-128.15 -61.65)" fill="#263238"/>
        <path id="Trazado_161642" data-name="Trazado 161642" d="M125.562,140.5l38.97-22.4.54-.3c.095-.057,1.634-1.52,1.634-1.52l-38.941,22.478S125.405,140.586,125.562,140.5Z" transform="translate(-102.643 -80.031)" fill="#263238"/>
        <path id="Trazado_161643" data-name="Trazado 161643" d="M114.54,165.931v.886c0,.474.341.677.758.436l51.559-29.772a1.677,1.677,0,0,0,.758-1.307v-.89c0-.474-.341-.677-.758-.436L115.3,164.623a1.672,1.672,0,0,0-.758,1.307Z" transform="translate(-96.845 -89.751)" fill="#e0e0e0"/>
        <path id="Trazado_161644" data-name="Trazado 161644" d="M114.54,177.238v.886c0,.474.341.677.758.436l51.559-29.777a1.672,1.672,0,0,0,.758-1.307v-.89c0-.474-.341-.673-.758-.436L115.3,175.93a1.672,1.672,0,0,0-.758,1.307Z" transform="translate(-96.845 -95.701)" fill="#e0e0e0"/>
        <path id="Trazado_161645" data-name="Trazado 161645" d="M114.54,188.48v.881c0,.474.341.677.758.436l51.559-29.767a1.677,1.677,0,0,0,.758-1.307v-.89c0-.474-.341-.677-.758-.436L115.3,187.173a1.672,1.672,0,0,0-.758,1.307Z" transform="translate(-96.845 -101.62)" fill="#e0e0e0"/>
        <path id="Trazado_161646" data-name="Trazado 161646" d="M114.54,213.4v.886c0,.474.341.677.758.436l51.559-29.763a1.672,1.672,0,0,0,.758-1.307v-.89c0-.474-.341-.673-.758-.436L115.3,212.1a1.672,1.672,0,0,0-.758,1.307Z" transform="translate(-96.845 -114.745)" fill="#e0e0e0"/>
        <path id="Trazado_161647" data-name="Trazado 161647" d="M114.54,224.691v.89c0,.474.341.673.758.436l51.559-29.777a1.672,1.672,0,0,0,.758-1.307v-.89c0-.474-.341-.677-.758-.436L115.3,223.383A1.677,1.677,0,0,0,114.54,224.691Z" transform="translate(-96.845 -120.68)" fill="#e0e0e0"/>
        <path id="Trazado_161648" data-name="Trazado 161648" d="M114.54,235.938v.886c0,.474.341.677.758.436l51.559-29.777a1.672,1.672,0,0,0,.758-1.307v-.89c0-.474-.341-.673-.758-.436L115.3,234.63a1.672,1.672,0,0,0-.758,1.307Z" transform="translate(-96.845 -126.599)" fill="#e0e0e0"/>
        <path id="Trazado_161649" data-name="Trazado 161649" d="M114.54,260.841v.89c0,.474.341.673.758.436l51.559-29.777a1.672,1.672,0,0,0,.758-1.307v-.89c0-.474-.341-.677-.758-.436L115.3,259.533a1.677,1.677,0,0,0-.758,1.307Z" transform="translate(-96.845 -139.709)" fill="#e0e0e0"/>
        <path id="Trazado_161650" data-name="Trazado 161650" d="M114.54,272.151v.886c0,.474.341.677.758.436L166.857,243.7a1.662,1.662,0,0,0,.758-1.3v-.89c0-.474-.341-.677-.758-.436L115.3,270.843a1.672,1.672,0,0,0-.758,1.307Z" transform="translate(-96.845 -145.662)" fill="#e0e0e0"/>
        <path id="Trazado_161651" data-name="Trazado 161651" d="M114.54,283.4v.89c0,.474.341.673.758.436l51.559-29.767a1.672,1.672,0,0,0,.758-1.307v-.89c0-.474-.341-.677-.758-.436L115.3,282.094A1.677,1.677,0,0,0,114.54,283.4Z" transform="translate(-96.845 -151.589)" fill="#e0e0e0"/>
        <path id="Trazado_161652" data-name="Trazado 161652" d="M170.58,302.532l26.547-15.322v.512L170.58,303.043Z" transform="translate(-126.343 -170.005)" fill="#e0e0e0"/>
        <path id="Trazado_161653" data-name="Trazado 161653" d="M180.028,292.393c1.1-.739,2.335-1.984,2.136-3.457a1.13,1.13,0,0,0-1.672-.924c-1.615.62-2.633,3.05-3.2,4.518-.474,1.284-1.122,3.7.805,4.116,2.259.474,4.007-2.842,4.518-4.566.071-.242-.322-.374-.436-.156-.2.393-1.53,2.989-.066,2.662.521-.114.819-.924,1.009-1.336a10.583,10.583,0,0,1,1.018-2.4l-.384-.175a2.222,2.222,0,0,0,.474,1.677.232.232,0,0,0,.322.052c.748-.7.8-1.828,1.625-2.458l-.336-.161c0,.218-.1.838-.114,1.127a.23.23,0,0,0,.294.185.644.644,0,0,0,.474-.407l-.36-.133c.313,1.672,1.738,0,2.226-.635a10.731,10.731,0,0,0,2.472-6.351c0-.194-.365-.294-.369-.062-.033,1.866-.848,3.576-1.374,5.338-.564,1.895-1.033,3.832-1.421,5.783l.336.123a11.613,11.613,0,0,1,1.042-3.988,7.886,7.886,0,0,1,1.8-2.993l-.313-.118a3.382,3.382,0,0,1-.758,2.757c-.1.128.123.369.223.242.521-.654,1.378-.862,1.937-1.5a16.577,16.577,0,0,0,1.4-2.254l-.256-.128c-.033,1.591,1.468-.89,1.672-1.156l-.246-.095c.1.327.232.545.6.549.734,0,1.009-1.07,1.563-1.194a1.292,1.292,0,0,0,.327.213,1.388,1.388,0,0,0,.886-.166,4.121,4.121,0,0,0,1.449-1.62c.085-.152-.2-.341-.3-.175-.365.616-1.5,2.25-2.326,1.449-.052-.047-.161-.095-.218-.028-.223.275-1.5,1.733-1.733.947-.028-.095-.166-.2-.242-.095-.194.256-.35.54-.53.81-.1.147-.654,1.08-.635.606,0-.114-.175-.246-.256-.128a11.638,11.638,0,0,1-1.615,2.472c-.535.474-1.236.654-1.7,1.227l.223.242a3.628,3.628,0,0,0,.867-2.993.2.2,0,0,0-.313-.118,8.109,8.109,0,0,0-1.823,3.06,11.968,11.968,0,0,0-1.061,4.068c0,.147.3.313.336.123a56.281,56.281,0,0,1,1.558-6.233,17.787,17.787,0,0,0,1.26-4.987l-.369-.062a9.184,9.184,0,0,1-1.643,5.068c-.265.412-.545.824-.848,1.212-.133.175-1.307,1.71-1.459.819-.024-.128-.275-.308-.36-.133l-.341.3.294.18c.024-.384.1-.744.118-1.132a.227.227,0,0,0-.336-.156c-.838.639-.9,1.771-1.653,2.468l.322.052a2.562,2.562,0,0,1-.36-1.421c0-.166-.256-.327-.384-.175a11.826,11.826,0,0,0-1.137,2.6c-.208.44-.947,1.615-.71.365a6.157,6.157,0,0,1,.668-1.473l-.436-.156c-.445,1.506-1.634,3.789-3.259,4.263-2.074.62-1.715-1.951-1.336-3.1a12.759,12.759,0,0,1,1.98-3.7,4.124,4.124,0,0,1,.535-.616c.422-.379.545-.474,1.132-.137s.616.521.474,1.156a3.491,3.491,0,0,1-.388.9,5.944,5.944,0,0,1-1.392,1.487c-.076.062.033.265.118.2Z" transform="translate(-129.616 -167.822)" fill="#455a64"/>
      </g>
    </g>
    <g id="freepik--Characters--inject-123" transform="translate(158.736 103.157)">
      <g id="freepik--characters--inject-123-2" data-name="freepik--characters--inject-123">
        <path id="Trazado_161654" data-name="Trazado 161654" d="M308.551,240.295c-1.715-.407-3.6.815-4.708,3.5s-3.315,9.567-3.789,11.367c-.208.805,5.911,7.938,5.684,7.834-.066-.033,1.994-3.481,1.994-3.481l-2.97-4.57,1.895-4.959Z" transform="translate(-300.049 -208.68)" fill="#b16668"/>
        <path id="Trazado_161655" data-name="Trazado 161655" d="M309.225,370.6c-.232.09-.294.53-.327,1.421-.028.668-.171,1.828.611,2.06a2.45,2.45,0,0,0,2.425-.512,30.789,30.789,0,0,1,1.937-2.43,6.788,6.788,0,0,0,1.918-2.771c.284-1.051.047-1.506-.668-1.814-.99-.417-2.539.947-3.315,1.17C311.148,367.9,309.457,370.512,309.225,370.6Z" transform="translate(-304.692 -275.138)" fill="#263238"/>
        <path id="Trazado_161656" data-name="Trazado 161656" d="M309.62,373.023v1.08a2.652,2.652,0,0,0,2.733.076c.047-.1.284-1.549.284-1.549Z" transform="translate(-305.087 -278.379)" fill="#b16668"/>
        <path id="Trazado_161657" data-name="Trazado 161657" d="M325.847,387.31a18.145,18.145,0,0,0-.474,1.762,4.661,4.661,0,0,0-.095,2.236c.232.488,1.118.81,2.505.8a8.216,8.216,0,0,1,3.249,1.137,5.011,5.011,0,0,0,3.1.431,3.923,3.923,0,0,0,2.709-1.369c.2-.507-.057-.758-2.96-1.994a16.393,16.393,0,0,1-4.466-2.932Z" transform="translate(-313.272 -286.106)" fill="#263238"/>
        <path id="Trazado_161658" data-name="Trazado 161658" d="M326.6,384.84v1.26c0,.459.54,1.141,1.942,1.094.985-.038,1.672-.3,1.629-1.113v-1.165Z" transform="translate(-314.025 -284.806)" fill="#b16668"/>
        <path id="Trazado_161659" data-name="Trazado 161659" d="M307.263,308.8a25.681,25.681,0,0,1,1.321-5.56s-.611-4.784-.947-9.378c-.63-8.236-.123-10.927,1.5-14.621,0,0,13.816-1.421,14.237,4.343.526,7.152-.171,20.972-.36,23.5a88.011,88.011,0,0,1-1.317,8.942c-.682,4.016-1.733,13.228-1.733,13.228a3.789,3.789,0,0,1-3.571-.076s-1.127-11.5-1.009-14.412a24.761,24.761,0,0,1,1.085-6.351s-.857-11.656-1.1-13.513c0,0-.436,3.7-.625,6.223s-.947,4.94-1.667,9.634c-.635,4.068-1.814,13.167-1.814,13.167a2.4,2.4,0,0,1-2.927-.128S306.77,312.325,307.263,308.8Z" transform="translate(-303.796 -229.138)" fill="#451991"/>
        <g id="Grupo_102700" data-name="Grupo 102700" transform="translate(3.371 49.945)" opacity="0.35">
          <path id="Trazado_161660" data-name="Trazado 161660" d="M307.263,308.8a25.681,25.681,0,0,1,1.321-5.56s-.611-4.784-.947-9.378c-.63-8.236-.123-10.927,1.5-14.621,0,0,13.816-1.421,14.237,4.343.526,7.152-.171,20.972-.36,23.5a88.011,88.011,0,0,1-1.317,8.942c-.682,4.016-1.733,13.228-1.733,13.228a3.789,3.789,0,0,1-3.571-.076s-1.127-11.5-1.009-14.412a24.761,24.761,0,0,1,1.085-6.351s-.857-11.656-1.1-13.513c0,0-.436,3.7-.625,6.223s-.947,4.94-1.667,9.634c-.635,4.068-1.814,13.167-1.814,13.167a2.4,2.4,0,0,1-2.927-.128S306.77,312.325,307.263,308.8Z" transform="translate(-307.167 -279.083)"/>
        </g>
        <path id="Trazado_161661" data-name="Trazado 161661" d="M326.972,235.329l-.649,5.338-4.694-.422.535-5.925Z" transform="translate(-311.409 -205.576)" fill="#b16668"/>
        <path id="Trazado_161662" data-name="Trazado 161662" d="M309.039,243.022c.516-1.421,2.273-2.97,4.078-2.633l1.326.242c.038,1.231,2.368,1.866,4.67,1.122.691.2,1.331.4,1.894.606,1.653.592,2.316,3.315,2.368,7.928s.526,16.042.526,16.042l-1.956.62-.9-3.349-.365,4.012a14.384,14.384,0,0,1-6.673-.033c-4.964-1.085-6.508-3.761-6.508-3.761a24.226,24.226,0,0,1,3.552-8.682C308.57,248.52,308.277,245.12,309.039,243.022Z" transform="translate(-303.971 -208.745)" fill="#ebebeb"/>
        <path id="Trazado_161663" data-name="Trazado 161663" d="M325.749,215.044a4.125,4.125,0,0,0-.355-3.969c-1.577-2.472-4.613-2.894-8.213-1.928a6.38,6.38,0,0,0-4.5,5.8c-.175,2.638,7.19,4.585,7.019,6.394Z" transform="translate(-306.694 -192.073)" fill="#263238"/>
        <path id="Trazado_161664" data-name="Trazado 161664" d="M340.61,224.25s1,1.6.857,1.767a2.5,2.5,0,0,1-.805.322Z" transform="translate(-321.399 -200.275)" fill="#9a4a4d"/>
        <path id="Trazado_161665" data-name="Trazado 161665" d="M326.33,213.014c.995.549,2.719,1.563,3.069,5.3.36,3.836-.53,5.144-1.066,5.631a4.932,4.932,0,0,1-3.121.085,9.88,9.88,0,0,1-4.864-3.746c-1.355-2.368-1.563-5.47.1-6.631A6.105,6.105,0,0,1,326.33,213.014Z" transform="translate(-310.165 -194.112)" fill="#b16668"/>
        <path id="Trazado_161666" data-name="Trazado 161666" d="M323.147,212.223s.786,3.514-.332,5.684c0,0-.578-1.378-1.762-1.018s-1.122,1.937-.218,2.766a1.752,1.752,0,0,0,1.819.436,7.866,7.866,0,0,1-1.757,2.652,5.76,5.76,0,0,1-6.527-1.861c-2.752-3.1-2.24-8.525,1.97-9.79A7.2,7.2,0,0,1,323.147,212.223Z" transform="translate(-306.688 -193.154)" fill="#263238"/>
        <path id="Trazado_161667" data-name="Trazado 161667" d="M312.44,214.436a.824.824,0,0,1,.09,1.16l-1.25-1.075a.819.819,0,0,1,1.16-.085Z" transform="translate(-305.961 -195.003)" fill="#263238"/>
        <path id="Trazado_161668" data-name="Trazado 161668" d="M361.13,256.509c.682-.777.947-2.51,1.847-3.694s1.241-2.051,1.6-1.535c.474.687-.6,2.056-.36,2.193a7.127,7.127,0,0,1,1.217,2.946c.09,1-2.567,3.524-2.567,3.524Z" transform="translate(-332.201 -214.423)" fill="#b16668"/>
        <path id="Trazado_161669" data-name="Trazado 161669" d="M367.49,255.614s3.211-.275,3.68,0,.327,1.667,0,2.52-1.966,1.421-3.486,2.434C367.684,260.417,367.49,255.614,367.49,255.614Z" transform="translate(-335.548 -216.72)" fill="#b16668"/>
        <path id="Trazado_161670" data-name="Trazado 161670" d="M333.718,244.33a6.057,6.057,0,0,1,3.874,3.457c1.653,3.112,4.665,9.2,4.665,9.2l3.751-4.059s.545-.767,1.558.909.568,2.141.568,2.141-4.362,5.845-5.163,6.588-2.117.166-2.979-1-6.276-7.947-6.276-7.947S330.758,249.725,333.718,244.33Z" transform="translate(-317.079 -210.845)" fill="#b16668"/>
        <path id="Trazado_161671" data-name="Trazado 161671" d="M319.49,307.576l-.265-2.79a10.6,10.6,0,0,1-4.215-1.6,5.832,5.832,0,0,0,3.363,2.093l.256,3.552.152,5.826Z" transform="translate(-307.924 -241.827)" opacity="0.2"/>
        <path id="Trazado_161672" data-name="Trazado 161672" d="M303.7,228.962h0a4.864,4.864,0,0,0,4.878-4.859v-7.384h0a3.713,3.713,0,0,0-4.859,3.533Z" transform="translate(-301.971 -196.215)" fill="#263238"/>
        <path id="Trazado_161673" data-name="Trazado 161673" d="M337.287,266.134s-2.695-3.476-3.557-4.874l3.652,7.711Z" transform="translate(-317.778 -219.756)" fill="#e0e0e0"/>
        <path id="Trazado_161674" data-name="Trazado 161674" d="M379.366,208.206c-1.023,3.017-3.206,12.016-3.206,12.016s-4.163,5.537-5.309,6.593c-.635.587-2.07,1.643-2.07,1.643l1.194.881s1.989-.606,2.155.474a60.6,60.6,0,0,0,5.873-5.4,3.789,3.789,0,0,0,.947-1.733l1.776-7.64s0-6.157.947-6.962.573-2.629.573-2.629C381.6,205.469,380.171,205.843,379.366,208.206Z" transform="translate(-336.227 -190.379)" fill="#ffa8a7"/>
        <path id="Trazado_161675" data-name="Trazado 161675" d="M385.279,204.81a17.118,17.118,0,0,0,1.051,2.368c.417.715-2.771,13.574-2.984,14.531s-6.394,6.531-6.394,6.531a4.642,4.642,0,0,1-2.472-2.482l4.462-5.807s1.388-6.091,2.117-8.885S382.565,205.113,385.279,204.81Z" transform="translate(-339.228 -190.042)" fill="#451991"/>
        <path id="Trazado_161676" data-name="Trazado 161676" d="M385.279,204.81a17.118,17.118,0,0,0,1.051,2.368c.417.715-2.771,13.574-2.984,14.531s-6.394,6.531-6.394,6.531a4.642,4.642,0,0,1-2.472-2.482l4.462-5.807s1.388-6.091,2.117-8.885S382.565,205.113,385.279,204.81Z" transform="translate(-339.228 -190.042)" opacity="0.1"/>
        <rect id="Rectángulo_34459" data-name="Rectángulo 34459" width="3.079" height="5.276" transform="translate(56.026 75.197)" fill="#ffa8a7"/>
        <path id="Trazado_161677" data-name="Trazado 161677" d="M394.65,328.9l-3.079.109-.152-5.584,3.23-.1Z" transform="translate(-348.144 -252.423)" fill="#ffa8a7"/>
        <path id="Trazado_161678" data-name="Trazado 161678" d="M406.405,252.2c0,2.941.2,20.049.2,20.049a23.7,23.7,0,0,1,.947,5.4c.09,4.424-.592,14.839-.592,14.839a4.054,4.054,0,0,1-3.429.066s-2.42-14.73-2.97-19.111c-.474-3.817-2.146-14.015-2.146-14.015l-2.368,12.911a17.523,17.523,0,0,1,.384,4.9c-.147,2.022-2.022,12.163-2.022,12.163a4.206,4.206,0,0,1-3.557.275s-.185-15.919-.218-17.775c-.043-2.117.881-20.337.881-20.337Z" transform="translate(-347.732 -214.65)" fill="#37474f"/>
        <path id="Trazado_161679" data-name="Trazado 161679" d="M413.951,339.837v-.44c-.166,0-.265.161-.332.554a8,8,0,0,1-.18.871,10.355,10.355,0,0,1-.535,1.577,9.552,9.552,0,0,1-1.8,2.728,11.65,11.65,0,0,0-.947,1.1c-.185.332-.251,1.25.066,1.464a5.35,5.35,0,0,0,4.177.431,2.529,2.529,0,0,0,1.814-2.037c.047-.284.028-.578.062-.862a4.111,4.111,0,0,1,.772-1.79,5.523,5.523,0,0,0,.592-.976,3.179,3.179,0,0,0-.114-1.975c-.142-.545-.3-1.141-.474-1.089v.332a2.416,2.416,0,0,1-1.544.521C415.041,340.268,413.947,340.178,413.951,339.837Z" transform="translate(-357.926 -260.884)" fill="#263238"/>
        <path id="Trazado_161680" data-name="Trazado 161680" d="M383.529,333.1c-.161,0-.289.232-.644.616a6.805,6.805,0,0,1-1.809,1.3c-1.156.578-3.4,1.464-4.414,1.923-.635.284-.6,1.051.052,1.487a5.956,5.956,0,0,0,4.139.327c1.033-.232,2.368-1.189,3.235-1.137a6.333,6.333,0,0,0,3.079-.4c.63-.436.379-1.359.2-2.155-.194-.867-.436-2.226-.725-2.164v.3c-.369.564-2.283.791-3.093.379Z" transform="translate(-340.135 -257.464)" fill="#263238"/>
        <path id="Trazado_161681" data-name="Trazado 161681" d="M402.3,265.449A11.438,11.438,0,0,1,398,263a8.825,8.825,0,0,0,3.315,2.993l-1.194,11.485Z" transform="translate(-351.608 -220.672)" fill="#263238"/>
        <path id="Trazado_161682" data-name="Trazado 161682" d="M401.765,205.1c1.051.256,3.164.6,3.637,2.69a61.049,61.049,0,0,1,.753,7.966l.194,12.153c-2.122,1.544-9.913,2.368-14.379-.876,0,0,.549-14.588.549-16.861a4.893,4.893,0,0,1,4.736-5.21Z" transform="translate(-348.434 -190.121)" fill="#f5f5f5"/>
        <path id="Trazado_161683" data-name="Trazado 161683" d="M396.96,204.143a6.2,6.2,0,0,0-1.989,3.079c-.426,1.838-.474,22.36-.474,22.36a9.312,9.312,0,0,1-3.2-1.2s.128-16.2.336-18.879c.317-4.059.284-5.21,5.338-5.66Z" transform="translate(-348.081 -189.532)" fill="#451991"/>
        <path id="Trazado_161684" data-name="Trazado 161684" d="M411.069,203.84s-2.9,1.786-2.936,8.895c-.028,6.157-.232,16.847-.232,16.847s4.807.706,7.853-1.113c0,0,.365-14.9.3-17.207-.066-2.643-.682-6.058-1.53-6.4A24.191,24.191,0,0,0,411.069,203.84Z" transform="translate(-356.819 -189.532)" fill="#451991"/>
        <path id="Trazado_161685" data-name="Trazado 161685" d="M427.246,220.845c-2.889-11.812-5.025-15.753-8.525-15.705-1.028,1.222-.744,4.926.876,7.171,0,0,3.614,7.616,4.187,10.325a38.273,38.273,0,0,1,1.047,7.422,1.492,1.492,0,0,1-.4.971,7.7,7.7,0,0,0-1.089,2.084c-.336.616-.7.848-.6.99a.805.805,0,0,0,1.085.081,4.138,4.138,0,0,0,.819-.791,8.247,8.247,0,0,1-.649,2.193c-.744,1.672-.564,2.524,1.7,1.928,1.421-.374,2.3-1.549,2.51-4.949a25.793,25.793,0,0,0,.038-3.761A65.438,65.438,0,0,0,427.246,220.845Z" transform="translate(-362.198 -190.216)" fill="#ffa8a7"/>
        <path id="Trazado_161686" data-name="Trazado 161686" d="M417.684,204.728a5.386,5.386,0,0,1,3.585,1.17c1.26,1.274,2.96,3.955,4.608,9.814a53.859,53.859,0,0,1,2.236,13.437,4.728,4.728,0,0,1-3.969-.133s-.843-5.1-1.591-7.815a73.377,73.377,0,0,0-3.538-8.431S416.348,208.806,417.684,204.728Z" transform="translate(-361.772 -189.998)" fill="#451991"/>
        <path id="Trazado_161687" data-name="Trazado 161687" d="M417.684,204.728a5.386,5.386,0,0,1,3.585,1.17c1.26,1.274,2.96,3.955,4.608,9.814a53.859,53.859,0,0,1,2.236,13.437,4.728,4.728,0,0,1-3.969-.133s-.843-5.1-1.591-7.815a73.377,73.377,0,0,0-3.538-8.431S416.348,208.806,417.684,204.728Z" transform="translate(-361.772 -189.998)" opacity="0.1"/>
        <path id="Trazado_161688" data-name="Trazado 161688" d="M412.6,212.05l-1.331,1.643.668,1.876-1.748,4.48,2.1-4.48-.734-1.771Z" transform="translate(-358.025 -193.853)" opacity="0.1"/>
        <path id="Trazado_161689" data-name="Trazado 161689" d="M394.522,210.93l.289,1.7-1.151,1.5,1.6,5.039-1.241-4.983,1.061-1.4Z" transform="translate(-349.324 -193.264)" opacity="0.1"/>
        <circle id="Elipse_5051" data-name="Elipse 5051" cx="4.234" cy="4.234" r="4.234" transform="translate(43.494 8.359) rotate(-80.78)" fill="#263238"/>
        <path id="Trazado_161690" data-name="Trazado 161690" d="M415.59,190.23s-.687,3.225-.947,3.756a1.464,1.464,0,0,1-.843.677l.047-2.269Z" transform="translate(-359.925 -182.368)" fill="#263238"/>
        <path id="Trazado_161691" data-name="Trazado 161691" d="M415.26,180.469a1.587,1.587,0,0,1,1.317.474c.564.578.251,2.368-.474,4.154l-1.293.147Z" transform="translate(-360.456 -177.225)" fill="#263238"/>
        <path id="Trazado_161692" data-name="Trazado 161692" d="M403.782,183.029c.26.152.63-.346.947-.677a1.122,1.122,0,0,1,1.894.3,2.344,2.344,0,0,1-1.279,2.842c-1.421.445-1.629-.474-1.629-.474l-.1,5.262h0c-.98,1.255-3.178,2.733-4.362,2.52-.947-.166-1.151-1.762-.246-2.809v-1.544a8.814,8.814,0,0,1-1.895.095,2.6,2.6,0,0,1-2.013-2.108c-.507-1.809-.7-3.268-.27-6.83.474-3.9,5.011-3.941,7.46-2.4S403.782,183.029,403.782,183.029Z" transform="translate(-349.812 -175.016)" fill="#ffa8a7"/>
        <path id="Trazado_161693" data-name="Trazado 161693" d="M403.168,182.1c.133,0,.63-.819.947-1.113.445-.407-.133-4.092-.133-4.092a1.786,1.786,0,0,0-.308-1.989c-.611-.673-1.464-1.5-4.263-1.165-1.98.232-4.135.848-5.878,0a2.965,2.965,0,0,0,1.033,3.15,5.906,5.906,0,0,0,2.288.606,24.472,24.472,0,0,0,4.594-.085c.474-.066.583.4.843,1.672C402.557,180.191,402.747,182.086,403.168,182.1Z" transform="translate(-349.198 -173.646)" fill="#263238"/>
        <path id="Trazado_161694" data-name="Trazado 161694" d="M415.653,179.6l1.568-.843a.867.867,0,0,0-1.189-.393A.947.947,0,0,0,415.653,179.6Z" transform="translate(-360.85 -176.071)" fill="#263238"/>
        <path id="Trazado_161695" data-name="Trazado 161695" d="M403.93,199.763a17.947,17.947,0,0,0,3.135-.9,2.671,2.671,0,0,0,1.122-1.113,3.633,3.633,0,0,1-.639,1.312c-.592.758-3.618,1.317-3.618,1.317Z" transform="translate(-354.729 -186.326)" fill="#f28f8f"/>
        <path id="Trazado_161696" data-name="Trazado 161696" d="M405.11,188.794a.474.474,0,1,0,.474-.474A.474.474,0,0,0,405.11,188.794Z" transform="translate(-355.351 -181.362)" fill="#263238"/>
        <path id="Trazado_161697" data-name="Trazado 161697" d="M406.15,185.262l.995.549a.6.6,0,0,0-.232-.8.554.554,0,0,0-.763.246Z" transform="translate(-355.898 -179.588)" fill="#263238"/>
        <path id="Trazado_161698" data-name="Trazado 161698" d="M403.191,196.11l-1.061.4a.554.554,0,0,0,.72.355A.6.6,0,0,0,403.191,196.11Z" transform="translate(-353.782 -185.463)" fill="#f28f8f"/>
        <path id="Trazado_161699" data-name="Trazado 161699" d="M396.217,185.388l.909-.7a.554.554,0,0,0-.791-.123.606.606,0,0,0-.118.824Z" transform="translate(-350.611 -179.325)" fill="#263238"/>
        <path id="Trazado_161700" data-name="Trazado 161700" d="M396.93,188.474A.474.474,0,1,0,397.4,188,.474.474,0,0,0,396.93,188.474Z" transform="translate(-351.045 -181.194)" fill="#263238"/>
        <path id="Trazado_161701" data-name="Trazado 161701" d="M400.145,188.11l-.152,2.8-1.464-.5Z" transform="translate(-351.887 -181.252)" fill="#f28f8f"/>
        <path id="Trazado_161702" data-name="Trazado 161702" d="M400.87,209.224c.284.682.815.947,1.767,1.066a3.557,3.557,0,0,0,2.643-.947l-1.184-1.179-1.511,1.132-.128-1.265Z" transform="translate(-353.119 -191.737)" fill="#451991"/>
        <path id="Trazado_161703" data-name="Trazado 161703" d="M400.87,209.224c.284.682.815.947,1.767,1.066a3.557,3.557,0,0,0,2.643-.947l-1.184-1.179-1.511,1.132-.128-1.265Z" transform="translate(-353.119 -191.737)" opacity="0.1"/>
        <path id="Trazado_161704" data-name="Trazado 161704" d="M402.264,209.77a3.126,3.126,0,0,0-.156,1.274,2.164,2.164,0,0,0,.426,1.056,1.156,1.156,0,0,0,1.023.114,2.813,2.813,0,0,0,.98-2.127l-1.307.147Z" transform="translate(-353.764 -192.653)" fill="#451991"/>
        <path id="Trazado_161705" data-name="Trazado 161705" d="M401.207,214.69s-1.549,8.525-1.61,9.226.886,3.135,1.478,3.154,1.748-2.193,1.762-2.842-.606-9.449-.606-9.449Z" transform="translate(-352.447 -195.243)" fill="#451991"/>
        <path id="Trazado_161706" data-name="Trazado 161706" d="M404.043,214.8a1.023,1.023,0,0,1-1.023-.114v.137a1.175,1.175,0,0,0,1.066.208Z" transform="translate(-354.25 -195.243)" opacity="0.1"/>
        <path id="Trazado_161707" data-name="Trazado 161707" d="M404.49,205.971l4.357-3.315v-.985s1.014.384,1.241,2.169a7.645,7.645,0,0,1-3.4,3.614l-.914-1.629Z" transform="translate(-355.024 -188.39)" fill="#e0e0e0"/>
        <path id="Trazado_161708" data-name="Trazado 161708" d="M401.966,202.62a2.183,2.183,0,0,0-1.421.867c-.436.715-.336,3.467-.336,3.467l1.042-.947.947.474c-.09-.914-.27-2.581-.27-2.581Z" transform="translate(-352.766 -188.89)" fill="#e0e0e0"/>
        <path id="Trazado_161709" data-name="Trazado 161709" d="M368,262.538a3.742,3.742,0,0,0,.687-1.947c.123-.9,2.577-1.857,2.657-1.189a1.936,1.936,0,0,1-.474,2.032C370.093,262.244,369.141,263.139,368,262.538Z" transform="translate(-335.817 -218.661)" fill="#ffa8a7"/>
        <path id="Trazado_161710" data-name="Trazado 161710" d="M366.442,253.081a21.33,21.33,0,0,0-1.26,2.728c-.313.5-.682.947,0,1.018s1.672-1.236,2.041-2.041a2.179,2.179,0,0,1,.635-.815,1.421,1.421,0,0,1,.355-.208c-.317-.109-.152-1.388-.374-1.563C367.839,252.2,366.683,252.674,366.442,253.081Z" transform="translate(-334.131 -214.987)" fill="#ffa8a7"/>
      </g>
    </g>
  </g>
</svg>
