<svg xmlns="http://www.w3.org/2000/svg" width="217.946" height="199.553" viewBox="0 0 217.946 199.553">
  <g id="img6" transform="translate(-10.35 -47.41)">
    <g id="freepik--Floor--inject-168" transform="translate(10.35 118.942)">
      <ellipse id="freepik--floor--inject-168-2" data-name="freepik--floor--inject-168" cx="108.973" cy="64.011" rx="108.973" ry="64.011" fill="#36a3f7" opacity="0.21"/>
    </g>
    <g id="freepik--Shadows--inject-168" transform="translate(16.598 147.689)">
      <path id="freepik--Shadow--inject-168" d="M66.6,338.189,24.09,313.63l79.3-45.69,42.5,24.559Z" transform="translate(-24.09 -267.94)" fill="#e0e0e0"/>
      <ellipse id="freepik--shadow--inject-168-2" data-name="freepik--shadow--inject-168" cx="28.647" cy="16.543" rx="28.647" ry="16.543" transform="translate(80.844 37.605)" fill="#e0e0e0"/>
      <path id="freepik--shadow--inject-168-3" data-name="freepik--shadow--inject-168" d="M122.993,395.191l5.138,2.965a4.211,4.211,0,0,0,3.815,0l30.18-17.434a1.164,1.164,0,0,0,0-2.205l-5.134-2.965a4.211,4.211,0,0,0-3.815,0l-30.2,17.434A1.169,1.169,0,0,0,122.993,395.191Z" transform="translate(-77.589 -326.37)" fill="#e0e0e0"/>
      <ellipse id="freepik--shadow--inject-168-4" data-name="freepik--shadow--inject-168" cx="31.194" cy="18.011" rx="31.194" ry="18.011" transform="translate(136.897 26.128)" fill="#e0e0e0"/>
    </g>
    <g id="freepik--Frames--inject-168" transform="translate(34.714 47.41)">
      <g id="freepik--Diploma--inject-168" transform="translate(140.494)">
        <g id="freepik--Window--inject-168">
          <path id="Trazado_161711" data-name="Trazado 161711" d="M398.93,108.828l-.923.532L374.93,96.032l.923-.532Z" transform="translate(-374.007 -73.633)" fill="#455a64"/>
          <path id="Trazado_161712" data-name="Trazado 161712" d="M376.96,72.473l22.154,12.791v-19.2L376.96,53.27Z" transform="translate(-375.114 -50.605)" fill="#451991"/>
          <g id="Grupo_102701" data-name="Grupo 102701" transform="translate(1.846 2.665)" opacity="0.8">
            <path id="Trazado_161713" data-name="Trazado 161713" d="M376.96,72.473l22.154,12.791v-19.2L376.96,53.27Z" transform="translate(-376.96 -53.27)" fill="#fff"/>
          </g>
          <path id="Trazado_161714" data-name="Trazado 161714" d="M372.9,70.984l24.923,14.387v-22.4L372.9,48.58Zm.909-20.8L396.886,63.5v20.28L373.823,70.447Z" transform="translate(-372.9 -48.048)" fill="#37474f"/>
          <path id="Trazado_161715" data-name="Trazado 161715" d="M374.93,72.367l.923-.532v-19.2l-.923-.532Z" transform="translate(-374.007 -49.967)" fill="#263238"/>
          <path id="Trazado_161716" data-name="Trazado 161716" d="M372.9,47.942l.923-.532L398.746,61.8l-.923.532Z" transform="translate(-372.9 -47.41)" fill="#455a64"/>
          <path id="Trazado_161717" data-name="Trazado 161717" d="M428.633,79.06l-.923.532v22.4l.923-.532Z" transform="translate(-402.787 -64.668)" fill="#263238"/>
        </g>
        <path id="Trazado_161718" data-name="Trazado 161718" d="M413.47,105.336a3.442,3.442,0,0,1,1.555,2.7c0,.991-.7,1.4-1.555.909a3.433,3.433,0,0,1-1.56-2.7C411.91,105.24,412.606,104.84,413.47,105.336Z" transform="translate(-394.171 -78.88)" fill="#451991"/>
        <path id="Trazado_161719" data-name="Trazado 161719" d="M386.941,64.6l11.732,6.771a1.31,1.31,0,0,1,.591,1.023v.032c0,.377-.268.532-.591.341L386.941,66a1.3,1.3,0,0,1-.591-1.023v-.041C386.35,64.563,386.614,64.409,386.941,64.6Z" transform="translate(-380.234 -56.738)" opacity="0.2"/>
        <g id="Grupo_102702" data-name="Grupo 102702" transform="translate(4.261 10.952)" opacity="0.2">
          <path id="Trazado_161720" data-name="Trazado 161720" d="M382.857,71.6l15.46,8.912a1.187,1.187,0,0,1,.591.878c0,.291-.264.377-.591.191l-15.46-8.922a1.164,1.164,0,0,1-.587-.873C382.265,71.493,382.529,71.407,382.857,71.6Z" transform="translate(-382.27 -71.496)"/>
          <path id="Trazado_161721" data-name="Trazado 161721" d="M382.857,76.283l15.46,8.917a1.173,1.173,0,0,1,.591.873c0,.3-.264.382-.591.191l-15.46-8.922a1.155,1.155,0,0,1-.587-.869C382.265,76.178,382.529,76.1,382.857,76.283Z" transform="translate(-382.27 -74.053)"/>
          <path id="Trazado_161722" data-name="Trazado 161722" d="M382.857,80.962l15.46,8.917a1.182,1.182,0,0,1,.591.873c0,.3-.264.382-.591.2l-15.46-8.926a1.155,1.155,0,0,1-.587-.869C382.265,80.862,382.529,80.775,382.857,80.962Z" transform="translate(-382.27 -76.604)"/>
        </g>
        <path id="Trazado_161723" data-name="Trazado 161723" d="M396.055,98.211a1.959,1.959,0,0,1-.387-.346,1.087,1.087,0,0,1-.286-.909c0-.1-.141-.427-.218-.377a6.636,6.636,0,0,1-.668.273c-.132.064-.382.259-.7-.177a.91.91,0,0,1-.177-.55.773.773,0,0,0,.209-.723c0-.114-.182-.455-.236-.359a1.364,1.364,0,0,0-.2.655,1.073,1.073,0,0,1-.5.168,1.41,1.41,0,0,1-.318.064.146.146,0,0,1-.127-.027.309.309,0,0,1-.114-.246.455.455,0,0,1,.05-.255h0c0-.109-.132-.414-.186-.35a.978.978,0,0,1-.909.455.15.15,0,0,1-.059,0,.656.656,0,0,0-.023-.209,2.749,2.749,0,0,0-.073-.5c-.027-.1-.146-.336-.2-.318-.327.1-.591.355-1.028.232a1.412,1.412,0,0,1-.218-.1c-.068-.118.041-.368.055-.409a2.059,2.059,0,0,1,.15-.318.642.642,0,0,0,.127-.268c0-.1-.2-.55-.241-.427a1.684,1.684,0,0,1-.141.286,2.146,2.146,0,0,1-.868.455,1.364,1.364,0,0,1-1.205-.227,1.56,1.56,0,0,1-.546-.559,1.364,1.364,0,0,1-.141-.6,2.342,2.342,0,0,1,.145-.909,4.433,4.433,0,0,0,1.341.6c.368.1.768.2,1.009.05.136-.091.218-.4-.114-.909a1.941,1.941,0,0,0-.718-.7,1.819,1.819,0,0,0-.732-.277.909.909,0,0,0-.909.618l-.1.246a7.245,7.245,0,0,1-1.7-1.678c-.032-.041-.041,0,0,.059a8.335,8.335,0,0,0,1.664,1.764,2.305,2.305,0,0,0,.373,2.092,1.652,1.652,0,0,0,1.646.882,1.337,1.337,0,0,0,.646-.3.19.19,0,0,1,.055,0,1.1,1.1,0,0,0,.355.878.65.65,0,0,0,.732.146,2.769,2.769,0,0,0,.455-.159,1.364,1.364,0,0,0,.332.909c.25.236.455.045.591,0a1.118,1.118,0,0,0,.3-.146.959.959,0,0,0,.059.155c.214.455.455.523.6.5a2.428,2.428,0,0,0,.6-.123,2.342,2.342,0,0,0,.255.582c.332.537.641.623.832.6a1.41,1.41,0,0,0,.623-.277,1.751,1.751,0,0,0,.223.577,2.274,2.274,0,0,0,.782.846C396.264,98.615,396.164,98.279,396.055,98.211Zm-7.225-7.057a1.059,1.059,0,0,1,.491.618c0,.159-.132.186-.209.209a1.869,1.869,0,0,1-.909-.082,4.578,4.578,0,0,1-1.123-.455C387.37,90.822,387.911,90.562,388.829,91.154Z" transform="translate(-379.531 -70.396)" opacity="0.3"/>
      </g>
      <g id="freepik--diploma--inject-168-2" data-name="freepik--diploma--inject-168" transform="translate(0 0.455)">
        <g id="freepik--window--inject-168-2" data-name="freepik--window--inject-168">
          <path id="Trazado_161724" data-name="Trazado 161724" d="M65.97,109.828l.923.532L89.97,97.032l-.923-.532Z" transform="translate(-65.042 -74.633)" fill="#455a64"/>
          <path id="Trazado_161725" data-name="Trazado 161725" d="M90.154,73.473,68,86.264v-19.2L90.154,54.27Z" transform="translate(-66.149 -51.605)" fill="#451991"/>
          <g id="Grupo_102703" data-name="Grupo 102703" transform="translate(1.851 2.665)" opacity="0.8">
            <path id="Trazado_161726" data-name="Trazado 161726" d="M90.154,73.473,68,86.264v-19.2L90.154,54.27Z" transform="translate(-68 -54.27)" fill="#fff"/>
          </g>
          <path id="Trazado_161727" data-name="Trazado 161727" d="M90.909,49.58,66,63.972v22.4L90.928,71.984ZM90,71.447,66.909,84.784V64.5L89.991,51.181Z" transform="translate(-65.059 -49.048)" fill="#37474f"/>
          <path id="Trazado_161728" data-name="Trazado 161728" d="M117.643,73.367l-.923-.532v-19.2l.923-.532Z" transform="translate(-92.715 -50.967)" fill="#263238"/>
          <path id="Trazado_161729" data-name="Trazado 161729" d="M89.781,48.942l-.923-.532L63.93,62.8l.923.532Z" transform="translate(-63.93 -48.41)" fill="#455a64"/>
          <path id="Trazado_161730" data-name="Trazado 161730" d="M63.93,80.06l.923.532,0,22.4-.928-.532Z" transform="translate(-63.93 -65.668)" fill="#263238"/>
        </g>
        <path id="Trazado_161731" data-name="Trazado 161731" d="M105.3,89.146c.864-.5,1.56-.091,1.56.909a3.442,3.442,0,0,1-1.56,2.7c-.859.5-1.555.091-1.555-.909a3.442,3.442,0,0,1,1.555-2.7Z" transform="translate(-85.638 -70.507)" fill="#451991"/>
        <path id="Trazado_161732" data-name="Trazado 161732" d="M78.761,72.254l11.732-6.78c.327-.186.591-.036.591.341v.032a1.314,1.314,0,0,1-.591,1.028L78.761,73.659c-.327.186-.591.036-.591-.341v-.041A1.3,1.3,0,0,1,78.761,72.254Z" transform="translate(-71.695 -57.671)" opacity="0.2"/>
        <g id="Grupo_102704" data-name="Grupo 102704" transform="translate(4.611 10.906)" opacity="0.2">
          <path id="Trazado_161733" data-name="Trazado 161733" d="M74.687,81.409l15.46-8.917c.323-.186.591-.1.591.2a1.2,1.2,0,0,1-.591.873l-15.46,8.922c-.327.186-.587.1-.587-.2A1.205,1.205,0,0,1,74.687,81.409Z" transform="translate(-74.086 -72.394)"/>
          <path id="Trazado_161734" data-name="Trazado 161734" d="M74.687,86.091l15.46-8.912c.323-.191.591-.1.591.191a1.187,1.187,0,0,1-.591.873l-15.46,8.922c-.327.191-.587.1-.587-.2A1.214,1.214,0,0,1,74.687,86.091Z" transform="translate(-74.086 -74.947)"/>
          <path id="Trazado_161735" data-name="Trazado 161735" d="M74.67,90.779l15.46-8.917c.323-.186.591-.1.591.191a1.2,1.2,0,0,1-.591.878L74.657,91.875c-.327.186-.587.1-.587-.2A1.2,1.2,0,0,1,74.67,90.779Z" transform="translate(-74.07 -77.503)"/>
        </g>
        <path id="Trazado_161736" data-name="Trazado 161736" d="M87.877,98.652a.909.909,0,0,1-.387.1c-.332,0-.3-.336-.291-.568,0-.1-.141-.264-.218-.127-.2.364-.455.7-.668,1.05-.132.214-.382.7-.7.632-.132-.032-.173-.173-.173-.35a1.714,1.714,0,0,0,.2-.959c0-.1-.182-.227-.232-.091a3.074,3.074,0,0,0-.2.909q-.381.608-.818,1.178c-.027.032-.082.114-.127.123s-.1-.045-.114-.118a.782.782,0,0,1,.055-.318h0a.064.064,0,0,1,0-.027h0c0-.1-.132-.259-.186-.132a4.593,4.593,0,0,1-.909,1.51.223.223,0,0,1-.064.05v-.182a1.478,1.478,0,0,0-.077-.423c0-.064-.141-.168-.2-.082a7.094,7.094,0,0,1-1.028,1.423,2.165,2.165,0,0,1-.214.15c-.073-.041.036-.414.05-.455.045-.168.1-.332.155-.5a1.71,1.71,0,0,0,.123-.409c0-.127-.2-.323-.236-.15a3.459,3.459,0,0,1-.146.455,11,11,0,0,1-.864,1.469,3.4,3.4,0,0,1-1.219,1.1c-.141.073-.4.182-.546.073s-.136-.3-.141-.455a3.547,3.547,0,0,1,.146-1.069,6.366,6.366,0,0,0,1.337-.946,4.679,4.679,0,0,0,1.014-1.123c.136-.246.218-.655-.114-.8-.232-.1-.527.064-.723.173a3.21,3.21,0,0,0-.737.573,4.261,4.261,0,0,0-.909,1.682c-.032.1-.068.223-.1.368a2.856,2.856,0,0,1-1.7.286.037.037,0,0,0,0,.073,2.815,2.815,0,0,0,1.664-.159c-.15.646-.232,1.5.368,1.664s1.328-.587,1.651-1.019a7.124,7.124,0,0,0,.646-1.041.8.8,0,0,1,.055-.077c0,.3.059.518.35.455s.568-.455.732-.7.3-.455.455-.664c.027.268.073.577.332.523s.455-.5.591-.682a4.673,4.673,0,0,0,.291-.482.364.364,0,0,0,.059.086c.214.232.455,0,.6-.2.2-.259.418-.532.6-.823a.5.5,0,0,0,.255.291c.327.155.641-.118.832-.364a7.156,7.156,0,0,0,.618-1,.455.455,0,0,0,.227.314.759.759,0,0,0,.778-.05C88.082,98.816,87.986,98.6,87.877,98.652Zm-7.225,1.287c.15-.077.455-.2.487.05a.909.909,0,0,1-.209.455,5.566,5.566,0,0,1-.909.955,7.216,7.216,0,0,1-1.128.855A3.638,3.638,0,0,1,80.652,99.939Z" transform="translate(-70.989 -75.453)" opacity="0.3"/>
      </g>
    </g>
    <g id="freepik--Desk--inject-168" transform="translate(19.59 87.198)">
      <g id="freepik--desk--inject-168-2" data-name="freepik--desk--inject-168" transform="translate(0 0)">
        <g id="freepik--desk--inject-168-3" data-name="freepik--desk--inject-168" transform="translate(0 13.191)">
          <path id="Trazado_161737" data-name="Trazado 161737" d="M69.548,230.009,30.67,207.564l75.624-43.644,38.883,22.449Z" transform="translate(-30.67 -163.92)" fill="#451991"/>
          <path id="Trazado_161738" data-name="Trazado 161738" d="M69.548,230.009,30.67,207.564l75.624-43.644,38.883,22.449Z" transform="translate(-30.67 -163.92)" fill="#fff" opacity="0.8"/>
          <path id="Trazado_161739" data-name="Trazado 161739" d="M30.67,259.9v49.105l2.046,1.182v-4.724L67.5,325.543v4.729l2.046,1.182v-49.11Z" transform="translate(-30.67 -216.256)" fill="#451991"/>
          <path id="Trazado_161740" data-name="Trazado 161740" d="M30.67,259.9v49.105l2.046,1.182v-4.724L67.5,325.543v4.729l2.046,1.182v-49.11Z" transform="translate(-30.67 -216.256)" fill="#fff" opacity="0.6"/>
          <path id="Trazado_161741" data-name="Trazado 161741" d="M35.17,364.825l2.046-1.182v-2.365L35.17,360.1Z" transform="translate(-33.124 -270.893)" fill="#451991"/>
          <path id="Trazado_161742" data-name="Trazado 161742" d="M35.17,364.825l2.046-1.182v-2.365L35.17,360.1Z" transform="translate(-33.124 -270.893)" fill="#451991"/>
          <path id="Trazado_161743" data-name="Trazado 161743" d="M116.17,306.039l2.046-1.182V261.249l71.536-41.279v43.412L191.8,262.2V213.29L116.17,256.929Z" transform="translate(-77.292 -190.841)" fill="#451991"/>
          <path id="Trazado_161744" data-name="Trazado 161744" d="M116.17,306.039l2.046-1.182V261.249l71.536-41.279v43.412L191.8,262.2V213.29L116.17,256.929Z" transform="translate(-77.292 -190.841)" fill="#fff" opacity="0.7"/>
          <path id="Trazado_161745" data-name="Trazado 161745" d="M232.9,271.392l-37.6-21.7,35.554-20.526,2.046-1.182Z" transform="translate(-120.44 -198.851)" fill="#451991"/>
          <g id="Grupo_102705" data-name="Grupo 102705" transform="translate(74.86 29.129)" opacity="0.6">
            <path id="Trazado_161746" data-name="Trazado 161746" d="M232.9,271.392l-37.6-21.7,37.6-21.708Z" transform="translate(-195.3 -227.98)" fill="#fff"/>
          </g>
          <g id="Grupo_102706" data-name="Grupo 102706" transform="translate(74.86 29.129)" opacity="0.15">
            <path id="Trazado_161747" data-name="Trazado 161747" d="M232.9,271.392l-37.6-21.7,37.6-21.708Z" transform="translate(-195.3 -227.98)"/>
          </g>
        </g>
        <g id="freepik--Document--inject-168" transform="translate(55.136 25.178)">
          <g id="Grupo_102707" data-name="Grupo 102707" transform="translate(0 0.838)" opacity="0.2">
            <path id="Trazado_161748" data-name="Trazado 161748" d="M189.127,204.559c.032.05,0,.114-.064.155l-15.315,8.844a.359.359,0,0,1-.191.045.309.309,0,0,1-.186-.045L152,201.217a.168.168,0,0,1-.068-.073.1.1,0,0,1,.023-.109h0a.059.059,0,0,1,.027-.023l15.315-8.84a.4.4,0,0,1,.382,0l21.372,12.346h.023a.123.123,0,0,1,.05.045Z" transform="translate(-151.924 -192.125)"/>
          </g>
          <g id="freepik--List--inject-168" transform="translate(0.78)">
            <path id="Trazado_161749" data-name="Trazado 161749" d="M153.64,199.126v.368a.4.4,0,0,0,.186.318l20.512,11.823a.4.4,0,0,0,.364,0l14.7-8.48a.409.409,0,0,0,.182-.318v-.368a.409.409,0,0,0-.182-.318l-20.517-11.823a.4.4,0,0,0-.364,0l-14.692,8.467A.391.391,0,0,0,153.64,199.126Z" transform="translate(-153.64 -190.283)" fill="#451991"/>
            <path id="Trazado_161750" data-name="Trazado 161750" d="M214.483,216.46c.077.059.068.141-.023.2l-14.678,8.485a.382.382,0,0,1-.182.041v.791a.337.337,0,0,0,.182-.045l14.7-8.48a.409.409,0,0,0,.182-.318v-.368A.4.4,0,0,0,214.483,216.46Z" transform="translate(-178.701 -204.557)" fill="#fff" opacity="0.4"/>
            <path id="Trazado_161751" data-name="Trazado 161751" d="M153.853,209.08h0l-.027.023h0a.414.414,0,0,0-.1.2.141.141,0,0,1,0,.045v.368a.414.414,0,0,0,.186.318l20.512,11.823a.336.336,0,0,0,.182.045v-.791a.382.382,0,0,1-.182-.041l-20.576-11.8a.173.173,0,0,1-.068-.073.1.1,0,0,1,.023-.1Z" transform="translate(-153.689 -200.532)" opacity="0.15"/>
            <path id="Trazado_161752" data-name="Trazado 161752" d="M165.86,197.176c0,.332.455.678.587.973a.236.236,0,0,1,.027.073c-.064.209-.255.355-.3.5a.346.346,0,0,0,0,.1v.277a1.662,1.662,0,0,0,.023.191,1.558,1.558,0,0,1-.045.2,1.177,1.177,0,0,0-.068.35v.268a.241.241,0,0,0,.141.25l.823.455,6.148-3.533V197l-.823-.477a.75.75,0,0,0-.414-.077h-.055a3.561,3.561,0,0,0-.564.036,4.8,4.8,0,0,1-.909.023H170.2a1.158,1.158,0,0,0-.173,0,4.092,4.092,0,0,1-1.437.159h0a11.713,11.713,0,0,0-1.673-.336h-.082a1.364,1.364,0,0,0-.65.173c-.223.127-.3.264-.3.4Zm.909.191a.418.418,0,0,1,.15-.146.786.786,0,0,1,.155-.064,1.6,1.6,0,0,1,1.128.168.837.837,0,0,1,.332.323.418.418,0,0,1-.15.146,1.209,1.209,0,0,1-.837.064,1.7,1.7,0,0,1-.455-.168.809.809,0,0,1-.3-.323Z" transform="translate(-160.303 -193.58)" fill="#263238"/>
            <path id="Trazado_161753" data-name="Trazado 161753" d="M171.979,196.448h-.055a3.562,3.562,0,0,0-.564.036,4.8,4.8,0,0,1-.909.023h-.236a1.158,1.158,0,0,0-.173,0,4.092,4.092,0,0,1-1.437.159h0a11.713,11.713,0,0,0-1.673-.336h-.077a1.364,1.364,0,0,0-.65.173c-.755.455.1.959.282,1.364s-.209.632-.268.841.1.318-.036.768-.032.537.073.6l.823.455L173.22,197l-.823-.477A.75.75,0,0,0,171.979,196.448Zm-4.615,3.46a.4.4,0,0,1-.341-.027c-.1-.064-.127-.15-.05-.2a.368.368,0,0,1,.341.027c.1.059.127.15.05.2Zm1.064-2.114a1.209,1.209,0,0,1-.837.064,1.7,1.7,0,0,1-.455-.168c-.4-.236-.487-.564-.182-.741a.786.786,0,0,1,.155-.064,1.6,1.6,0,0,1,1.128.168C168.673,197.289,168.732,197.617,168.427,197.794Zm3.683-.628a.391.391,0,0,1-.337-.027c-.109-.064-.127-.15-.05-.2a.368.368,0,0,1,.341.027c.1.059.127.146.045.2Z" transform="translate(-160.324 -193.58)" fill="#37474f"/>
            <path id="Trazado_161754" data-name="Trazado 161754" d="M177.655,211.5l12.787-7.38a.255.255,0,0,0,.109-.191v-.141a.245.245,0,0,0-.109-.191l-16.9-9.754a.232.232,0,0,0-.218,0l-12.787,7.38a.255.255,0,0,0-.109.191v.141a.246.246,0,0,0,.109.191l16.893,9.754A.241.241,0,0,0,177.655,211.5Z" transform="translate(-157.342 -192.211)" fill="#f5f5f5"/>
            <path id="Trazado_161755" data-name="Trazado 161755" d="M208.25,217.526l4.415-2.546.159.091-4.415,2.546Z" transform="translate(-183.418 -203.75)" fill="#e0e0e0"/>
            <path id="Trazado_161756" data-name="Trazado 161756" d="M196.59,224.251l4.415-2.551.159.1-4.415,2.546Z" transform="translate(-177.06 -207.414)" fill="#e0e0e0"/>
            <path id="Trazado_161757" data-name="Trazado 161757" d="M210.993,215.37c.032.036,0,.077-.027.109l-12.787,7.38a.227.227,0,0,1-.109.027v.4a.232.232,0,0,0,.114-.027l12.787-7.385a.236.236,0,0,0,.109-.186v-.141a.25.25,0,0,0-.086-.173Z" transform="translate(-177.867 -203.962)" fill="#fafafa"/>
            <path id="Trazado_161758" data-name="Trazado 161758" d="M160.547,210.15l-.027.032h0a.376.376,0,0,0-.032.059.131.131,0,0,0,0,.041.059.059,0,0,0,0,.027v.141a.245.245,0,0,0,.109.191l16.893,9.754a.228.228,0,0,0,.109.027v-.4a.232.232,0,0,1-.114-.027l-16.893-9.754C160.52,210.232,160.511,210.186,160.547,210.15Z" transform="translate(-157.373 -201.116)" fill="#e0e0e0"/>
            <path id="Trazado_161759" data-name="Trazado 161759" d="M197.816,222.86c-.041.05,0,.109.045.155a.509.509,0,0,1-.045.218.268.268,0,0,1-.1.15.173.173,0,0,1-.191-.041c-.041-.041-.055,0-.059,0a.408.408,0,0,0,0,.077.345.345,0,0,1-.073-.041.223.223,0,0,0-.086-.045h-.05a.15.15,0,0,0,0,.109c0,.041.032.1,0,.136s-.1-.027-.114-.041a.686.686,0,0,1-.082-.118H197a.659.659,0,0,1,0,.164.76.76,0,0,1-.05.241c0,.027-.045.123-.114.123a.1.1,0,0,1-.082-.05v-.073a.573.573,0,0,0,0-.359.264.264,0,0,0-.059-.068.059.059,0,0,0-.055,0,.127.127,0,0,0-.064.146,1.358,1.358,0,0,0,.032.146.592.592,0,0,0,.036.155.155.155,0,0,0,.027.055.578.578,0,0,1-.1.209c-.055.064-.218.191-.35.1a.391.391,0,0,1-.159-.241v-.077a.873.873,0,0,0,.164-.209.565.565,0,0,0,.064-.2.455.455,0,0,0,0-.255.082.082,0,0,0-.064-.064.173.173,0,0,0-.118,0,.209.209,0,0,0-.109.182,1.4,1.4,0,0,0-.032.241,1.137,1.137,0,0,0,.036.323,1.4,1.4,0,0,1-.236.177h0a1.268,1.268,0,0,0,.227-.164h0a.509.509,0,0,0,.155.273.282.282,0,0,0,.15.055.391.391,0,0,0,.214-.055.423.423,0,0,0,.209-.268h.027a.177.177,0,0,0,.214-.064.587.587,0,0,0,.086-.25v-.132l.036.041a.182.182,0,0,0,.182.041c.059-.027.036-.091.032-.123s0-.059-.023-.086,0-.023,0-.032.086.082.182.073a.036.036,0,0,0,.032,0,.109.109,0,0,0,0-.055.341.341,0,0,0,.182.032.214.214,0,0,0,.155-.141.546.546,0,0,0,.059-.177l.1.159a2.729,2.729,0,0,1,.232.518l.1.3h.064a3.913,3.913,0,0,0-.241-.655,3.308,3.308,0,0,0-.182-.327c0-.032-.045-.064-.064-.1a.232.232,0,0,0-.05-.141A.41.41,0,0,1,197.816,222.86Zm-1.778.882a1.317,1.317,0,0,1,0-.232.837.837,0,0,1,.027-.186.159.159,0,0,1,.132-.123.064.064,0,0,1,.068.041.418.418,0,0,1,0,.236.629.629,0,0,1-.209.423A1.06,1.06,0,0,1,196.038,223.742Zm.668,0a.739.739,0,0,0-.032-.136.073.073,0,1,1,.064,0,.779.779,0,0,1,0,.177v.027a.268.268,0,0,1-.032-.059Z" transform="translate(-176.613 -208.019)" fill="#37474f"/>
            <path id="Trazado_161760" data-name="Trazado 161760" d="M201.888,221h-.059a.064.064,0,0,0,.032.05h0a.236.236,0,0,1,0,.077.514.514,0,0,1,0,.146v.064a.073.073,0,0,1,0,.032H201.8l-.082-.032h-.055a.278.278,0,0,1,0,.136h-.027c-.027,0-.041,0-.05-.027a.277.277,0,0,0-.082-.05h-.045a.259.259,0,0,0,0,.082s.027.082,0,.1-.059-.027-.086-.068a.091.091,0,0,0-.055-.1h-.05a.136.136,0,0,0,.041.1h0a.428.428,0,0,1-.027.127.3.3,0,0,1-.114.2.141.141,0,0,1-.168-.027.455.455,0,0,0,0-.259.627.627,0,0,0-.323-.382h-.041c-.045.023-.036.068-.032.1a.582.582,0,0,0,.05.141,1.573,1.573,0,0,0,.177.3.55.55,0,0,0,.127.123.291.291,0,0,1-.055.114h.023a.337.337,0,0,0,.064-.1.246.246,0,0,0,.191.027.268.268,0,0,0,.164-.2.99.99,0,0,0,.032-.109.118.118,0,0,0,.1.032c.1,0,.068-.1.05-.164a.172.172,0,0,0,.059.041.141.141,0,0,0,.114,0h-.009a.242.242,0,0,0,0-.059.359.359,0,0,0,.118.036c.086,0,.1-.064.1-.1a.687.687,0,0,0,.027-.164.059.059,0,0,0,0-.027h0a1.942,1.942,0,0,1,.132.15,1.127,1.127,0,0,1,.15.223.455.455,0,0,0-.2.1c-.068.064-.155.223.036.25a.227.227,0,0,0,.273-.173.3.3,0,0,0-.032-.155.687.687,0,0,1,.168,0c.036,0,.055-.023,0-.027a.706.706,0,0,0-.2,0,.867.867,0,0,0-.073-.123l-.132-.164c-.032-.036-.068-.068-.1-.1l-.05-.036A.141.141,0,0,0,201.888,221Zm-1.046.732a1.656,1.656,0,0,1-.155-.255.809.809,0,0,1-.055-.132c0-.023-.027-.068,0-.1a.618.618,0,0,1,.291.35.523.523,0,0,1,0,.236.59.59,0,0,1-.082-.091Zm1.364.05a.168.168,0,0,1-.168,0c-.05-.041,0-.1,0-.146a.332.332,0,0,1,.2-.123.2.2,0,0,1-.023.277Z" transform="translate(-179.247 -207.032)" fill="#37474f"/>
            <path id="Trazado_161761" data-name="Trazado 161761" d="M207.256,217.995a.082.082,0,0,0-.041.068.686.686,0,0,0-.032.168.241.241,0,0,0-.1-.055h-.045a.123.123,0,0,0-.05.059.186.186,0,0,0-.173-.059.191.191,0,0,0-.136.141.562.562,0,0,0,0,.073c-.027-.064-.055-.127-.077-.191a.76.76,0,0,0-.159-.327.241.241,0,0,0-.286-.091.259.259,0,0,0-.109.1.455.455,0,0,0-.064.141v.068l-.15-.077h-.032l.182.1a.808.808,0,0,0,0,.209.641.641,0,0,0,.068.218.1.1,0,0,0,.059.059.109.109,0,0,0,.1,0c.114-.082.077-.209.023-.3a.509.509,0,0,0-.2-.173.4.4,0,0,1,.132-.3.1.1,0,0,1,.155,0,.508.508,0,0,1,.1.1,1.064,1.064,0,0,1,.127.286,2.442,2.442,0,0,0,.114.282v.027a.337.337,0,0,0,.046.255h.064a.386.386,0,0,0-.041-.255h0a.81.81,0,0,1,.036-.2.191.191,0,0,1,.073-.091.082.082,0,0,1,.082.023.314.314,0,0,1,.077.118v.045h.068a.291.291,0,0,1,0-.032.269.269,0,0,1,0-.064.132.132,0,0,1,.027-.086c.068.032.1.1.132.136s.073,0,.064,0a.341.341,0,0,1,0-.25.264.264,0,0,1,.023-.064.177.177,0,0,1,.036.064.2.2,0,0,0,.036.136.575.575,0,0,1,.059.146,1.892,1.892,0,0,0,.159.277,1.059,1.059,0,0,0,.255.286h.041a3.058,3.058,0,0,1-.25-.3,2.318,2.318,0,0,1-.173-.332,1.148,1.148,0,0,1-.055-.164.182.182,0,0,0-.064-.127.082.082,0,0,0-.1-.045Zm-1.146.241a.264.264,0,0,1,.086.277.231.231,0,0,1-.041.059h0a.091.091,0,0,1-.041-.059.705.705,0,0,1-.055-.191,1.065,1.065,0,0,1,0-.177.709.709,0,0,1,.059.091Z" transform="translate(-182.083 -205.268)" fill="#37474f"/>
            <path id="Trazado_161762" data-name="Trazado 161762" d="M211.022,216.869a.418.418,0,0,0-.2,0l-.086-.077a1.819,1.819,0,0,0-.209-.132h-.064a.619.619,0,0,1,.059.191.168.168,0,0,1,0,.1c-.023.027-.059,0-.091,0h-.055a.342.342,0,0,0,0,.068s-.077-.036-.1-.041a.139.139,0,0,0-.045,0s.027.064,0,.091l-.073-.045h-.055a.427.427,0,0,1,.027.068s.023.064,0,.077,0,0-.032,0l-.036-.027a.309.309,0,0,0-.077-.041h-.045a.949.949,0,0,0,0,.1v.064s0,.041-.027.05-.191-.173-.2-.2-.059,0-.055,0a1.214,1.214,0,0,1,.064.164c0,.055.027.136-.082.159h0a.127.127,0,0,0,.118-.15v-.027a.173.173,0,0,0,.155.068.086.086,0,0,0,.077-.1.968.968,0,0,0,0-.114c.05.036.1.082.164.055s.036-.05.032-.077a.163.163,0,0,0,0-.045h.073c.05,0,.045-.05.036-.082a.118.118,0,0,0,.1.023c.045,0,.041-.041.041-.064a.178.178,0,0,0,.109,0,.1.1,0,0,0,.05-.091.455.455,0,0,0-.032-.173l.082.05a.723.723,0,0,1,.123.109l-.055.036c-.045.036-.055.109.05.118s.127-.059.114-.1a.136.136,0,0,0-.027-.05.427.427,0,0,1,.155,0C211.031,216.906,211.068,216.874,211.022,216.869ZM210.8,217c0,.027-.045.036-.059,0s0-.05.045-.068h0A.059.059,0,0,1,210.8,217Z" transform="translate(-184.176 -204.666)" fill="#37474f"/>
            <path id="Trazado_161763" data-name="Trazado 161763" d="M211.833,214.224c.027.1.064.191.091.282a2.056,2.056,0,0,1,.055.291,1.534,1.534,0,0,0,.032.286h0a1.981,1.981,0,0,0-.155-.186.91.91,0,0,0-.232-.168.282.282,0,0,0-.241,0,.223.223,0,0,0-.082.059h-.1a.255.255,0,0,1-.1,0h-.027c.018,0,.146.023.214.032h0a.3.3,0,0,0-.041.086.227.227,0,0,0,.027.186.223.223,0,0,0,.177.086.159.159,0,0,0,.159-.123.243.243,0,0,0-.15-.209.455.455,0,0,0-.1-.036.163.163,0,0,1,.05-.045.2.2,0,0,1,.2,0,.909.909,0,0,1,.2.159,2.3,2.3,0,0,1,.164.2l.05.068h0a.1.1,0,0,0,.041.1h.059a.173.173,0,0,0-.036-.109h0l-.027-.15a.868.868,0,0,0-.032-.282,1.223,1.223,0,0,0-.164-.541S211.829,214.21,211.833,214.224Zm-.314.723a.114.114,0,0,1-.027.173.111.111,0,0,1-.159-.05.214.214,0,0,1-.032-.164.314.314,0,0,1,.041-.091.3.3,0,0,1,.177.132Z" transform="translate(-184.95 -203.33)" fill="#37474f"/>
            <path id="Trazado_161764" data-name="Trazado 161764" d="M215.39,214.125a1.859,1.859,0,0,0-.382-.455h-.064a.655.655,0,0,1,.064.241.082.082,0,0,1-.027.064.091.091,0,0,0-.068.032.059.059,0,0,0-.032.05A.511.511,0,0,0,214.8,214h-.059a.373.373,0,0,0,0,.1v.077a.578.578,0,0,1-.132-.123h-.068a.57.57,0,0,0,0,.127.454.454,0,0,1,0,.077v.05h-.027a.341.341,0,0,1-.045-.077.336.336,0,0,1-.036-.132c0-.023-.064-.023-.064,0a3.325,3.325,0,0,1,0,.368.35.35,0,0,1-.073.182.359.359,0,0,1-.086.077.377.377,0,0,1-.136.059c-.045,0-.055-.041-.059-.059a.477.477,0,0,1-.027-.109v-.059a.336.336,0,0,0,.155-.355.091.091,0,0,0-.118-.082.073.073,0,0,0-.05.055.8.8,0,0,0,0,.091c0,.077-.027.155-.032.232v.059l-.05.036h.041a.164.164,0,0,0,0,.05.318.318,0,0,0,.036.123c.041.073.164.041.241,0a.423.423,0,0,0,.191-.173.551.551,0,0,0,.045-.282l.032.027a.141.141,0,0,0,.146,0,.136.136,0,0,0,0-.123.349.349,0,0,0,0-.068.625.625,0,0,0,.1.077h.045a.077.077,0,0,0,.055-.086.355.355,0,0,0,0-.073.753.753,0,0,0,.086.045h.055v-.059a.164.164,0,0,1,.068-.036.123.123,0,0,0,.055-.1.327.327,0,0,0-.032-.127,1.819,1.819,0,0,1,.218.3c0,.032.041.059.059.086a.409.409,0,0,0-.209.146.3.3,0,0,0-.059.141.186.186,0,0,0,.05.164.287.287,0,0,0,.255.041.232.232,0,0,0,.155-.141.455.455,0,0,0-.109-.332h.073a.273.273,0,0,0-.1-.064Zm-1.414.2v-.15a.14.14,0,0,1,0-.036v-.023h0a.137.137,0,0,1,0,.036.351.351,0,0,1,0,.168.273.273,0,0,1-.1.146A1.415,1.415,0,0,1,213.975,214.329Zm1.464,0a.227.227,0,0,1,0,.155.186.186,0,0,1-.168.109.146.146,0,0,1-.15-.141.259.259,0,0,1,0-.114.359.359,0,0,1,.2-.191.7.7,0,0,1,.118.2Z" transform="translate(-186.488 -203.035)" fill="#37474f"/>
            <path id="Trazado_161765" data-name="Trazado 161765" d="M178.914,198.785l.15.086c.082.045.082.118,0,.168L168.8,204.951a.327.327,0,0,1-.291,0l-.15-.086a.086.086,0,0,1,0-.168l10.263-5.911A.3.3,0,0,1,178.914,198.785Z" transform="translate(-161.63 -194.898)" fill="#e0e0e0"/>
            <path id="Trazado_161766" data-name="Trazado 161766" d="M180.889,199.958l.146.082c.082.05.082.123,0,.168l-10.263,5.911a.327.327,0,0,1-.291,0l-.15-.086a.086.086,0,0,1,0-.168l10.272-5.907A.309.309,0,0,1,180.889,199.958Z" transform="translate(-162.704 -195.539)" fill="#e0e0e0"/>
            <path id="Trazado_161767" data-name="Trazado 161767" d="M182.843,201.058l.146.086a.091.091,0,0,1,0,.168l-10.268,5.911a.328.328,0,0,1-.291,0l-.15-.086a.086.086,0,0,1,0-.168l10.268-5.911A.327.327,0,0,1,182.843,201.058Z" transform="translate(-163.768 -196.139)" fill="#e0e0e0"/>
            <path id="Trazado_161768" data-name="Trazado 161768" d="M187.194,203.567l.15.086c.082.045.082.118,0,.168l-10.263,5.911a.336.336,0,0,1-.3,0l-.146-.086a.086.086,0,0,1,0-.168l10.263-5.911A.314.314,0,0,1,187.194,203.567Z" transform="translate(-166.145 -197.507)" fill="#e0e0e0"/>
            <path id="Trazado_161769" data-name="Trazado 161769" d="M189.169,204.7l.146.082c.082.05.082.123,0,.173l-10.263,5.911a.327.327,0,0,1-.291,0l-.15-.086a.086.086,0,0,1,0-.168l10.263-5.911A.309.309,0,0,1,189.169,204.7Z" transform="translate(-167.219 -198.126)" fill="#e0e0e0"/>
            <path id="Trazado_161770" data-name="Trazado 161770" d="M191.129,205.839l.146.086a.086.086,0,0,1,0,.168l-10.263,5.911a.327.327,0,0,1-.291,0l-.15-.086a.086.086,0,0,1,0-.168l10.268-5.911A.327.327,0,0,1,191.129,205.839Z" transform="translate(-168.288 -198.747)" fill="#e0e0e0"/>
            <path id="Trazado_161771" data-name="Trazado 161771" d="M195.49,208.365l.15.086c.082.045.082.118,0,.168l-10.249,5.934a.336.336,0,0,1-.3,0l-.146-.086a.086.086,0,0,1,0-.168l10.263-5.911A.327.327,0,0,1,195.49,208.365Z" transform="translate(-170.676 -200.131)" fill="#e0e0e0"/>
            <path id="Trazado_161772" data-name="Trazado 161772" d="M197.449,209.485l.146.086c.082.045.082.118,0,.168l-10.263,5.911a.327.327,0,0,1-.291,0l-.15-.086a.086.086,0,0,1,0-.168l10.263-5.911A.309.309,0,0,1,197.449,209.485Z" transform="translate(-171.734 -200.733)" fill="#e0e0e0"/>
            <path id="Trazado_161773" data-name="Trazado 161773" d="M199.415,210.619l.146.086a.086.086,0,0,1,0,.168L189.3,216.785a.3.3,0,0,1-.291,0l-.15-.086c-.082-.045-.082-.118,0-.168l10.268-5.911A.327.327,0,0,1,199.415,210.619Z" transform="translate(-172.809 -201.353)" fill="#e0e0e0"/>
            <path id="Trazado_161774" data-name="Trazado 161774" d="M170.2,200.041v.273a.632.632,0,0,0,.146.377l7.535-4.347v-.273a1.623,1.623,0,0,0-.737-.186h0a1.178,1.178,0,0,0-.5.1c-.546.246-.7.323-1.041.455a.532.532,0,0,1-.509-.073h0l-.227-.2-.609-.568a.364.364,0,0,0-.286-.091h0a.57.57,0,0,0-.141,0,2.114,2.114,0,0,1-.628,0,1.3,1.3,0,0,1-.678-.259,1.582,1.582,0,0,0-1.05-.368h-.032a1.569,1.569,0,0,0-.7.168.746.746,0,0,0-.455.814.732.732,0,0,0,.264.7.559.559,0,0,1,.168.323.709.709,0,0,1-.15.35.309.309,0,0,0-.082.182v.277a.182.182,0,0,0,.068.136l.709.646.223.209a.055.055,0,0,1,.023.023.3.3,0,0,1-.05.073l-.909.714a.759.759,0,0,0-.355.546Zm2.014-4.133a.518.518,0,0,1-.264.277,1.037,1.037,0,0,1-.791.045.841.841,0,0,1-.3-.173.564.564,0,0,1-.146-.209.527.527,0,0,1,.268-.277l.1-.05a1.041,1.041,0,0,1,.987.173.619.619,0,0,1,.146.214Z" transform="translate(-162.67 -192.789)" fill="#37474f"/>
            <path id="Trazado_161775" data-name="Trazado 161775" d="M177.189,195.884h0a1.178,1.178,0,0,0-.5.1c-.546.246-.7.323-1.041.455a.532.532,0,0,1-.509-.073h0l-.227-.2-.609-.568a.364.364,0,0,0-.286-.091h0a.57.57,0,0,0-.141,0,2.114,2.114,0,0,1-.628,0,1.3,1.3,0,0,1-.678-.259,1.582,1.582,0,0,0-1.05-.368h-.032a1.569,1.569,0,0,0-.7.168.718.718,0,0,0-.191,1.241.746.746,0,0,1,0,.946c-.173.209,0,.323,0,.323l.709.646.223.2c.168.155-.027.373-.027.373l-.909.714c-.4.355-.373.641-.168.909l7.535-4.347A1.623,1.623,0,0,0,177.189,195.884Zm-5.075-.455a.455.455,0,0,1-.118.764,1.037,1.037,0,0,1-.791.045.841.841,0,0,1-.3-.173.455.455,0,0,1,.123-.764l.1-.045a1.041,1.041,0,0,1,.987.164Z" transform="translate(-162.715 -192.789)" fill="#455a64"/>
          </g>
        </g>
        <g id="freepik--Pen--inject-168" transform="translate(57.534 43.684)">
          <path id="Trazado_161776" data-name="Trazado 161776" d="M157.239,234.228l11.159,6.448,1.91.391a.059.059,0,0,0,.064-.086l-.6-1.1-11.159-6.448C158.235,233.219,156.948,234.06,157.239,234.228Z" transform="translate(-157.197 -232.3)" opacity="0.2"/>
          <g id="freepik--pen--inject-168-2" data-name="freepik--pen--inject-168" transform="translate(0.362)">
            <path id="Trazado_161777" data-name="Trazado 161777" d="M158.905,231.039h.055l-.109-.059h-.086a.477.477,0,0,0-.227.068,1.132,1.132,0,0,0-.541.85.579.579,0,0,0,0,.127.041.041,0,0,0,0,.023h0a.255.255,0,0,0,.041.077h0l.123.068a.427.427,0,0,1-.055-.041.414.414,0,0,0,.3-.064,1.132,1.132,0,0,0,.509-.887A.409.409,0,0,0,158.905,231.039Zm-.759,1.219Z" transform="translate(-157.992 -230.98)" fill="#451991"/>
            <path id="Trazado_161778" data-name="Trazado 161778" d="M169.763,237.27l-.709,1.255-.123-.068-10.527-6.08a.31.31,0,0,1-.146-.332,1.123,1.123,0,0,1,.509-.882.455.455,0,0,1,.227-.073h.123Z" transform="translate(-158.137 -231.04)" fill="#f0f0f0"/>
            <path id="Trazado_161779" data-name="Trazado 161779" d="M182.149,244.677c.282-.164.514-.027.514.3a1.137,1.137,0,0,1-.514.909c-.282.164-.509.032-.509-.3a1.132,1.132,0,0,1,.509-.909Z" transform="translate(-170.887 -238.411)" fill="#451991"/>
            <path id="Trazado_161780" data-name="Trazado 161780" d="M183.3,245.485h0l-.65-.718h0a.337.337,0,0,0-.409,0,1.132,1.132,0,0,0-.509.909c0,.191.077.314.2.35h.036l.946.2a.237.237,0,0,0,.168-.032.659.659,0,0,0,.291-.509.259.259,0,0,0-.068-.2Z" transform="translate(-170.936 -238.46)" fill="#e0e0e0"/>
            <path id="Trazado_161781" data-name="Trazado 161781" d="M166.44,236.173h0a.132.132,0,0,0-.118,0,.391.391,0,0,0-.182.314.136.136,0,0,0,.041.109h.023l7.753,4.493.509-.291Z" transform="translate(-162.435 -233.804)" fill="#455a64"/>
            <path id="Trazado_161782" data-name="Trazado 161782" d="M181.74,245.591l.723.414.509-.291-.978-.564A1.191,1.191,0,0,0,181.74,245.591Z" transform="translate(-170.941 -238.707)" fill="#37474f"/>
            <path id="Trazado_161783" data-name="Trazado 161783" d="M184.261,246.34h0l-.591-.65h0a.236.236,0,0,0-.291,0,.791.791,0,0,0-.359.623c0,.136.05.223.136.25h.023l.868.186h0a.155.155,0,0,0,.1,0,.368.368,0,0,0,.164-.286.15.15,0,0,0-.045-.123Z" transform="translate(-171.639 -238.974)" fill="#451991"/>
            <path id="Trazado_161784" data-name="Trazado 161784" d="M184.261,246.34h0l-.591-.65h0a.236.236,0,0,0-.291,0,.791.791,0,0,0-.359.623c0,.136.05.223.136.25h.023l.868.186h0a.155.155,0,0,0,.1,0,.368.368,0,0,0,.164-.286.15.15,0,0,0-.045-.123Z" transform="translate(-171.639 -238.974)" opacity="0.1"/>
            <path id="Trazado_161785" data-name="Trazado 161785" d="M184.822,246.813a.368.368,0,0,1-.164.286.155.155,0,0,1-.1,0h0l-.455-.1c-.073,0-.118-.077-.118-.182a.591.591,0,0,1,.264-.455.177.177,0,0,1,.214,0h0l.3.323h0A.15.15,0,0,1,184.822,246.813Z" transform="translate(-172.168 -239.351)" fill="#451991"/>
            <path id="Trazado_161786" data-name="Trazado 161786" d="M185.264,247.156a.1.1,0,0,1,.164.1.368.368,0,0,1-.164.286.1.1,0,0,1-.164-.1.368.368,0,0,1,.164-.286Z" transform="translate(-172.774 -239.79)" opacity="0.1"/>
            <path id="Trazado_161787" data-name="Trazado 161787" d="M162.178,233.718a.127.127,0,0,0-.132,0,.391.391,0,0,0-.177.314.127.127,0,0,0,.05.118h0l1.914,1.1a.137.137,0,0,1-.041-.109.391.391,0,0,1,.182-.314.132.132,0,0,1,.118,0Z" transform="translate(-160.105 -232.463)" fill="#fafafa"/>
            <path id="Trazado_161788" data-name="Trazado 161788" d="M162.228,233.836a.391.391,0,0,1-.182.314.114.114,0,0,1-.123,0,.123.123,0,0,1-.055-.118.391.391,0,0,1,.177-.314.127.127,0,0,1,.132,0A.123.123,0,0,1,162.228,233.836Z" transform="translate(-160.106 -232.463)" fill="#f5f5f5"/>
            <path id="Trazado_161789" data-name="Trazado 161789" d="M159.941,231.717h0l-.755-.455h0a.323.323,0,0,0-.314.041,1.01,1.01,0,0,0-.455.8.314.314,0,0,0,.136.3h0l.764.455h0a.327.327,0,0,0,.318-.032,1.023,1.023,0,0,0,.455-.8A.327.327,0,0,0,159.941,231.717Z" transform="translate(-158.223 -231.121)" fill="#451991"/>
            <path id="Trazado_161790" data-name="Trazado 161790" d="M159.941,231.717h0l-.755-.455h0a.323.323,0,0,0-.314.041,1.01,1.01,0,0,0-.455.8.314.314,0,0,0,.136.3h0l.764.455h0a.327.327,0,0,0,.318-.032,1.023,1.023,0,0,0,.455-.8A.327.327,0,0,0,159.941,231.717Z" transform="translate(-158.223 -231.121)" opacity="0.05"/>
            <path id="Trazado_161791" data-name="Trazado 161791" d="M160.455,232.275c.255-.146.455-.027.455.264a1.023,1.023,0,0,1-.455.8c-.255.146-.455.027-.455-.268A1.019,1.019,0,0,1,160.455,232.275Z" transform="translate(-159.087 -231.652)" opacity="0.1"/>
            <path id="Trazado_161792" data-name="Trazado 161792" d="M185.729,247.549h0l-.314-.191h0a.05.05,0,0,0-.059,0,.173.173,0,0,0-.086.146.055.055,0,0,0,.027.055h0l.309.186h0a.127.127,0,0,0,.059,0,.1.1,0,0,0,.064-.2Z" transform="translate(-172.866 -239.906)" fill="#455a64"/>
            <path id="Trazado_161793" data-name="Trazado 161793" d="M186.151,247.81h0a.05.05,0,0,0-.055,0,.191.191,0,0,0-.086.146.064.064,0,0,0,.023.055h.055a.118.118,0,0,0,.118-.118.109.109,0,0,0-.055-.082Z" transform="translate(-173.27 -240.153)" fill="#263238"/>
          </g>
        </g>
        <g id="freepik--Keyboard--inject-168" transform="translate(32.264 50.797)">
          <path id="freepik--shadow--inject-168-5" data-name="freepik--shadow--inject-168" d="M101.822,262.939l8.185,4.729a1,1,0,0,0,.909,0l24.132-13.914a.282.282,0,0,0,0-.532l-8.185-4.729a1.023,1.023,0,0,0-.909,0l-24.132,13.914a.277.277,0,0,0,0,.532Z" transform="translate(-101.623 -247.584)" opacity="0.2"/>
          <g id="freepik--keyboard--inject-168-2" data-name="freepik--keyboard--inject-168" transform="translate(0.499)">
            <path id="Trazado_161794" data-name="Trazado 161794" d="M135.17,251.427a.323.323,0,0,0-.186-.264l-7.676-4.434a1.009,1.009,0,0,0-.909,0l-23.418,13.546a.323.323,0,0,0-.191.264v.8a.323.323,0,0,0,.191.264l7.671,4.429a1.01,1.01,0,0,0,.909,0l23.423-13.523a.318.318,0,0,0,.186-.264Z" transform="translate(-102.758 -246.622)" fill="#ebebeb"/>
            <path id="Trazado_161795" data-name="Trazado 161795" d="M110.661,265.215,102.99,260.8a.277.277,0,0,1,0-.527l23.418-13.546a1.009,1.009,0,0,1,.909,0l7.676,4.434a.277.277,0,0,1,0,.527L111.575,265.21A1.009,1.009,0,0,1,110.661,265.215Z" transform="translate(-102.763 -246.622)" fill="#fff"/>
            <path id="Trazado_161796" data-name="Trazado 161796" d="M111.032,282v.823a.909.909,0,0,1-.455-.1l-7.667-4.429a.323.323,0,0,1-.191-.264v-.809a.332.332,0,0,0,.191.268l7.667,4.411A.91.91,0,0,0,111.032,282Z" transform="translate(-102.72 -263.307)" fill="#e0e0e0"/>
            <path id="Trazado_161797" data-name="Trazado 161797" d="M112.779,265.6h0l-.759-.455,1.028-.6.787.455-1.046.6Zm-1.187-.687h0l-.759-.455.809-.455.787.455-.809.455Zm2.628-.146h0l-.759-.455.809-.455.787.455-.809.455Zm-3.82-.541h0l-.759-.455,1.31-.755.787.455-1.328.764Zm2.41,0h0l-.759-.455.641-.368.787.455-.641.368Zm2.628-.146h0l-.759-.455.809-.455.787.455-.809.455Zm-1.578-.455h0l-.759-.455.646-.373.782.455-.641.373Zm-4.647-.064h0l-.759-.455,1.032-.6.782.455-1.028.6Zm7.444-.177h0l-.759-.455,5.848-3.379.787.455-5.848,3.374Zm-4.547-.127h0l-.759-.455.641-.368.787.455-.641.368Zm2.792-.241h0l-.759-.455.641-.368.787.455-.641.368Zm-6.88-.145h0l-.759-.455.646-.368.787.455-.646.368Zm2.628-.141h0l-.759-.455.641-.368.787.455-.641.368Zm2.519-.082h0l-.759-.455.646-.373.782.455-.641.373Zm2.8-.241h0l-.759-.455.641-.373.787.455-.641.373Zm-6.871-.146h0l-.759-.455.641-.373.787.455-.641.373Zm2.628-.146h0l-.759-.455.641-.373.787.455-.641.373Zm2.519-.082h0l-.759-.455.641-.373.787.455-.641.368Zm-7.644,0h0l-.759-.455.809-.455.787.455-.809.455Zm10.436-.241h0l-.759-.455.646-.368.782.455-.641.368Zm-6.889-.141h0l-.759-.455.646-.373.782.455-.641.373Zm2.628-.146h0l-.759-.455.646-.368.782.455-.641.368Zm2.519-.077h0l-.759-.455.641-.368.787.455-.641.368Zm2.792-.241h0l-.759-.455.641-.373.787.455-.641.373Zm-9.831-.136h0l-.759-.455.641-.368.787.455-.641.368Zm2.924,0h0l-.759-.455.641-.368.787.455-.641.368Zm2.633-.146h0l-.759-.455.641-.373.787.455-.641.373Zm2.515-.082h0l-.759-.455.646-.373.787.455-.646.373Zm2.8-.241h0l-.759-.455.641-.373.787.455-.641.368Zm-9.813-.118h0l-.759-.455.641-.373.787.455-.641.373Zm2.924-.023h0l-.759-.455.641-.373.787.455-.641.373Zm2.628-.146h0l-.759-.455.641-.373.787.455-.641.368Zm2.519-.082h0l-.759-.455.641-.368.787.455-.641.368Zm2.792-.236h0l-.759-.455.646-.368.782.455-.641.368Zm-9.813-.123h0l-.759-.455.646-.373.787.455-.646.368Zm2.924-.023h0l-.759-.455.646-.368.782.455-.641.368Zm9.631-.064h0l-.759-.455.809-.455.782.455-.8.455Zm-7-.082h0l-.759-.455.646-.373.787.455Zm2.519-.082h0l-.759-.455.646-.373.782.455-.641.373Zm2.8-.241h0l-.759-.455.641-.373.787.455-.641.373Zm-9.817-.132h0l-.759-.455.641-.373.787.455-.641.368Zm2.924,0h0l-.759-.455.641-.373.787.455-.641.373Zm2.628-.146h0l-.759-.455.641-.373.787.455-.641.373Zm7.166,0h0l-.759-.455.809-.455.782.455-.8.455Zm-4.652-.064h0l-.759-.455.646-.368.787.455-.646.368Zm2.8-.246h0l-.759-.455.646-.368.782.455Zm-6.889-.141h0l-.759-.455.641-.368.787.455-.641.368Zm2.628-.146h0l-.759-.455.646-.368.782.455-.641.368Zm2.519-.077h0l-.759-.455.641-.373.787.455-.641.373Zm-7.612,0h0l-.759-.455.641-.373.787.455-.641.373Zm12.423,0h0l-.759-.455.809-.455.782.455-.8.455Zm-2.019-.2h0l-.764-.455.646-.373.787.455-.646.373Zm-6.889-.141h0l-.759-.455.646-.373.787.455-.646.373Zm2.628-.146h0l-.764-.455.646-.373.787.455-.641.318Zm2.519-.082h0l-.759-.455.646-.373.782.455-.641.368Zm-7.612,0h0l-.759-.455.646-.368.782.455-.641.368Zm12.591-.109h0l-.764-.455,1.032-.6.787.455-1.032.6Zm-2.183-.114h0l-.759-.455L125.657,256l.782.455-2.023,1.169Zm-6.9-.2h0l-.759-.455.641-.373.787.455-.641.368Zm2.633-.146h0l-.759-.455.641-.368.787.455-.641.368Zm2.515-.077h0l-.759-.455.641-.368.787.455-.646.368Zm-7.612,0h0l-.764-.455.646-.373.787.455-.646.373Zm3.52-.364h0l-.759-.455.646-.368.782.455-.641.368Zm9.685-.1h0l-.759-.455.641-.373.787.455-.641.373Zm-7.057-.045h0l-.759-.455.646-.373.782.455-.641.373Zm2.519-.082h0l-.759-.455.587-.341a.127.127,0,0,0,.068-.1.136.136,0,0,0-.073-.114l-1-.577.755-.432,1.973,1.128-1.528.882Zm-7.612,0h0l-.759-.455.641-.373.787.455-.641.368Zm3.515-.364h0l-.759-.455.641-.373.787.455-.646.373Zm9.686-.1h0l-.759-.455.646-.373.782.455-.641.368Zm-7.057-.045h0l-.764-.455.646-.373.787.455-.646.368Zm-4.634-.364h0l-.759-.455.641-.368.787.455-.641.368Zm3.06-.1h0l-.759-.455.641-.368.787.455-.641.368Zm9.681-.1h0l-.759-.455.646-.368.787.455-.646.368Zm-2.242-.082h0L127.33,255l.641-.373.787.455-.641.368Zm-9.444-.377h0l-.759-.455.646-.373.782.455-.641.373Zm3.06-.1h0l-.759-.455,1.141-.659.787.455-1.141.659Zm9.9-.227h0l-.759-.455,1.692-.978.787.455-1.7.978Zm-6.944-.109h0l-.759-.455.646-.373.782.455-.641.373Zm-4.97-.173h0l-.759-.455.641-.368.787.455-.641.368Zm10.727-.4h0l-.759-.455.646-.373.782.455-.641.373Zm-4.706-.032h0l-.759-.455.641-.368.787.455-.641.368Zm-2.237-.077h0l-.759-.455.641-.373.787.455-.641.373Zm-2.728-.091h0l-.759-.455.641-.373.787.455-.641.373Zm12.964-.327h0l-.759-.455.646-.373.782.455-.641.373Zm-2.242-.082h0l-.759-.455.646-.368.782.455-.641.368Zm-4.7-.027h0l-.759-.455.641-.373.787.455-.641.373Zm2.46-.05h0l-.759-.455.641-.373.787.455-.641.373Zm-4.706-.05h0l-.759-.455.646-.368.782.455-.637.368Zm-2.5-.223h0l-.764-.455.646-.373.787.455-.646.373Zm12.732-.2h0l-1.951-1.128.641-.373,1.978,1.128-.641.373Zm-2.237-.077h0l-.759-.455L132.4,252l.787.455-.641.373Zm-2.242-.082h0l-.759-.455.641-.368.787.455-.641.368Zm-4.706-.027h0l-.755-.455.641-.373.787.455-.646.373Zm2.465-.05h0l-.759-.455.641-.373.787.455-.641.373Zm-4.956-.177h0l-.759-.455.641-.373.787.455-.641.373Zm8.249-.35h0l-.759-.455.646-.373.782.455-.641.373Zm-2.242-.082h0l-.764-.455.646-.368.787.455-.646.368Zm-2.242-.077h0l-.759-.455.641-.373.787.455-.646.373Zm-2.728-.1h0l-.759-.455.646-.368.782.455-.641.368Zm8.249-.355h0l-1.951-1.128.646-.368,1.973,1.123-.641.373Zm-2.237-.077h0l-.759-.455.641-.373.787.455-.641.373Zm-2.242-.077h0l-.759-.455.641-.368.787.455-.641.368Zm-2.8-.4h0l-.327-.186.641-.368.355.191-.641.368Zm3.851-.2h0l-.759-.455.646-.373.782.455-.641.373Zm-2.8-.4h0l-.327-.186.641-.373.355.191-.641.368Zm3.851-.2h0l-.759-.455.641-.368.787.455-.641.368Zm-2.8-.4h0l-.332-.186.646-.368.35.191-.637.368Zm1.05-.609h0l-.327-.186.641-.373.355.191-.641.368Z" transform="translate(-104.421 -247.695)" fill="#451991"/>
            <path id="Trazado_161798" data-name="Trazado 161798" d="M112.779,265.6h0l-.759-.455,1.028-.6.787.455-1.046.6Zm-1.187-.687h0l-.759-.455.809-.455.787.455-.809.455Zm2.628-.146h0l-.759-.455.809-.455.787.455-.809.455Zm-3.82-.541h0l-.759-.455,1.31-.755.787.455-1.328.764Zm2.41,0h0l-.759-.455.641-.368.787.455-.641.368Zm2.628-.146h0l-.759-.455.809-.455.787.455-.809.455Zm-1.578-.455h0l-.759-.455.646-.373.782.455-.641.373Zm-4.647-.064h0l-.759-.455,1.032-.6.782.455-1.028.6Zm7.444-.177h0l-.759-.455,5.848-3.379.787.455-5.848,3.374Zm-4.547-.127h0l-.759-.455.641-.368.787.455-.641.368Zm2.792-.241h0l-.759-.455.641-.368.787.455-.641.368Zm-6.88-.145h0l-.759-.455.646-.368.787.455-.646.368Zm2.628-.141h0l-.759-.455.641-.368.787.455-.641.368Zm2.519-.082h0l-.759-.455.646-.373.782.455-.641.373Zm2.8-.241h0l-.759-.455.641-.373.787.455-.641.373Zm-6.871-.146h0l-.759-.455.641-.373.787.455-.641.373Zm2.628-.146h0l-.759-.455.641-.373.787.455-.641.373Zm2.519-.082h0l-.759-.455.641-.373.787.455-.641.368Zm-7.644,0h0l-.759-.455.809-.455.787.455-.809.455Zm10.436-.241h0l-.759-.455.646-.368.782.455-.641.368Zm-6.889-.141h0l-.759-.455.646-.373.782.455-.641.373Zm2.628-.146h0l-.759-.455.646-.368.782.455-.641.368Zm2.519-.077h0l-.759-.455.641-.368.787.455-.641.368Zm2.792-.241h0l-.759-.455.641-.373.787.455-.641.373Zm-9.831-.136h0l-.759-.455.641-.368.787.455-.641.368Zm2.924,0h0l-.759-.455.641-.368.787.455-.641.368Zm2.633-.146h0l-.759-.455.641-.373.787.455-.641.373Zm2.515-.082h0l-.759-.455.646-.373.787.455-.646.373Zm2.8-.241h0l-.759-.455.641-.373.787.455-.641.368Zm-9.813-.118h0l-.759-.455.641-.373.787.455-.641.373Zm2.924-.023h0l-.759-.455.641-.373.787.455-.641.373Zm2.628-.146h0l-.759-.455.641-.373.787.455-.641.368Zm2.519-.082h0l-.759-.455.641-.368.787.455-.641.368Zm2.792-.236h0l-.759-.455.646-.368.782.455-.641.368Zm-9.813-.123h0l-.759-.455.646-.373.787.455-.646.368Zm2.924-.023h0l-.759-.455.646-.368.782.455-.641.368Zm9.631-.064h0l-.759-.455.809-.455.782.455-.8.455Zm-7-.082h0l-.759-.455.646-.373.787.455Zm2.519-.082h0l-.759-.455.646-.373.782.455-.641.373Zm2.8-.241h0l-.759-.455.641-.373.787.455-.641.373Zm-9.817-.132h0l-.759-.455.641-.373.787.455-.641.368Zm2.924,0h0l-.759-.455.641-.373.787.455-.641.373Zm2.628-.146h0l-.759-.455.641-.373.787.455-.641.373Zm7.166,0h0l-.759-.455.809-.455.782.455-.8.455Zm-4.652-.064h0l-.759-.455.646-.368.787.455-.646.368Zm2.8-.246h0l-.759-.455.646-.368.782.455Zm-6.889-.141h0l-.759-.455.641-.368.787.455-.641.368Zm2.628-.146h0l-.759-.455.646-.368.782.455-.641.368Zm2.519-.077h0l-.759-.455.641-.373.787.455-.641.373Zm-7.612,0h0l-.759-.455.641-.373.787.455-.641.373Zm12.423,0h0l-.759-.455.809-.455.782.455-.8.455Zm-2.019-.2h0l-.764-.455.646-.373.787.455-.646.373Zm-6.889-.141h0l-.759-.455.646-.373.787.455-.646.373Zm2.628-.146h0l-.764-.455.646-.373.787.455-.641.318Zm2.519-.082h0l-.759-.455.646-.373.782.455-.641.368Zm-7.612,0h0l-.759-.455.646-.368.782.455-.641.368Zm12.591-.109h0l-.764-.455,1.032-.6.787.455-1.032.6Zm-2.183-.114h0l-.759-.455L125.657,256l.782.455-2.023,1.169Zm-6.9-.2h0l-.759-.455.641-.373.787.455-.641.368Zm2.633-.146h0l-.759-.455.641-.368.787.455-.641.368Zm2.515-.077h0l-.759-.455.641-.368.787.455-.646.368Zm-7.612,0h0l-.764-.455.646-.373.787.455-.646.373Zm3.52-.364h0l-.759-.455.646-.368.782.455-.641.368Zm9.685-.1h0l-.759-.455.641-.373.787.455-.641.373Zm-7.057-.045h0l-.759-.455.646-.373.782.455-.641.373Zm2.519-.082h0l-.759-.455.587-.341a.127.127,0,0,0,.068-.1.136.136,0,0,0-.073-.114l-1-.577.755-.432,1.973,1.128-1.528.882Zm-7.612,0h0l-.759-.455.641-.373.787.455-.641.368Zm3.515-.364h0l-.759-.455.641-.373.787.455-.646.373Zm9.686-.1h0l-.759-.455.646-.373.782.455-.641.368Zm-7.057-.045h0l-.764-.455.646-.373.787.455-.646.368Zm-4.634-.364h0l-.759-.455.641-.368.787.455-.641.368Zm3.06-.1h0l-.759-.455.641-.368.787.455-.641.368Zm9.681-.1h0l-.759-.455.646-.368.787.455-.646.368Zm-2.242-.082h0L127.33,255l.641-.373.787.455-.641.368Zm-9.444-.377h0l-.759-.455.646-.373.782.455-.641.373Zm3.06-.1h0l-.759-.455,1.141-.659.787.455-1.141.659Zm9.9-.227h0l-.759-.455,1.692-.978.787.455-1.7.978Zm-6.944-.109h0l-.759-.455.646-.373.782.455-.641.373Zm-4.97-.173h0l-.759-.455.641-.368.787.455-.641.368Zm10.727-.4h0l-.759-.455.646-.373.782.455-.641.373Zm-4.706-.032h0l-.759-.455.641-.368.787.455-.641.368Zm-2.237-.077h0l-.759-.455.641-.373.787.455-.641.373Zm-2.728-.091h0l-.759-.455.641-.373.787.455-.641.373Zm12.964-.327h0l-.759-.455.646-.373.782.455-.641.373Zm-2.242-.082h0l-.759-.455.646-.368.782.455-.641.368Zm-4.7-.027h0l-.759-.455.641-.373.787.455-.641.373Zm2.46-.05h0l-.759-.455.641-.373.787.455-.641.373Zm-4.706-.05h0l-.759-.455.646-.368.782.455-.637.368Zm-2.5-.223h0l-.764-.455.646-.373.787.455-.646.373Zm12.732-.2h0l-1.951-1.128.641-.373,1.978,1.128-.641.373Zm-2.237-.077h0l-.759-.455L132.4,252l.787.455-.641.373Zm-2.242-.082h0l-.759-.455.641-.368.787.455-.641.368Zm-4.706-.027h0l-.755-.455.641-.373.787.455-.646.373Zm2.465-.05h0l-.759-.455.641-.373.787.455-.641.373Zm-4.956-.177h0l-.759-.455.641-.373.787.455-.641.373Zm8.249-.35h0l-.759-.455.646-.373.782.455-.641.373Zm-2.242-.082h0l-.764-.455.646-.368.787.455-.646.368Zm-2.242-.077h0l-.759-.455.641-.373.787.455-.646.373Zm-2.728-.1h0l-.759-.455.646-.368.782.455-.641.368Zm8.249-.355h0l-1.951-1.128.646-.368,1.973,1.123-.641.373Zm-2.237-.077h0l-.759-.455.641-.373.787.455-.641.373Zm-2.242-.077h0l-.759-.455.641-.368.787.455-.641.368Zm-2.8-.4h0l-.327-.186.641-.368.355.191-.641.368Zm3.851-.2h0l-.759-.455.646-.373.782.455-.641.373Zm-2.8-.4h0l-.327-.186.641-.373.355.191-.641.368Zm3.851-.2h0l-.759-.455.641-.368.787.455-.641.368Zm-2.8-.4h0l-.332-.186.646-.368.35.191-.637.368Zm1.05-.609h0l-.327-.186.641-.373.355.191-.641.368Z" transform="translate(-104.421 -247.695)" opacity="0.5"/>
          </g>
        </g>
        <g id="freepik--PC--inject-168" transform="translate(5.934)">
          <path id="freepik--shadow--inject-168-6" data-name="freepik--shadow--inject-168" d="M51.664,238.644l-7.944-4.588L83.449,211.12l7.944,4.584Z" transform="translate(-43.72 -176.467)" opacity="0.15"/>
          <g id="freepik--Monitor--inject-168" transform="translate(5.296)">
            <path id="Trazado_161799" data-name="Trazado 161799" d="M101.055,236.524l5.675-3.283a1.492,1.492,0,0,0,.878-1.219v-.791l-6.821-3.865a1.246,1.246,0,0,1-.564-.982V219.39l-9.913,5.734v7a1.246,1.246,0,0,0,.564.978l5.948,3.433A4.693,4.693,0,0,0,101.055,236.524Z" transform="translate(-74.421 -180.976)" fill="#e6e6e6"/>
            <path id="Trazado_161800" data-name="Trazado 161800" d="M92.683,238.917v.787l-1.819-1.046a1.246,1.246,0,0,1-.564-.982v-6.984l1.887-1.091c.036.455.082.973.118,1.46l-1.323.764v5.457a1.246,1.246,0,0,0,.564.978Z" transform="translate(-74.416 -186.543)" fill="#e0e0e0"/>
            <path id="Trazado_161801" data-name="Trazado 161801" d="M91.81,233.092a1.26,1.26,0,0,0,.564.978l5.266,3.038a4.661,4.661,0,0,0,4.233,0l5.675-3.279a1.287,1.287,0,0,0,0-2.442l-5.266-3.042a1.26,1.26,0,0,1-.564-.978V221.91l-9.908,5.716Z" transform="translate(-75.239 -182.35)" fill="#f5f5f5"/>
            <path id="Trazado_161802" data-name="Trazado 161802" d="M103.433,229.008h0l-1.15-.664a1.26,1.26,0,0,1-.564-.978V221.91l-9.908,5.716v5.457a1.26,1.26,0,0,0,.564.978l1.132.655Z" transform="translate(-75.239 -182.35)" fill="#ebebeb"/>
            <path id="Trazado_161803" data-name="Trazado 161803" d="M118.071,245.43v.791a1.5,1.5,0,0,1-.878,1.223l-5.675,3.279a4.279,4.279,0,0,1-2.019.5v-.787a4.229,4.229,0,0,0,2.019-.5l5.675-3.283A1.492,1.492,0,0,0,118.071,245.43Z" transform="translate(-84.885 -195.175)" fill="#ebebeb"/>
            <path id="Trazado_161804" data-name="Trazado 161804" d="M56.029,193.2a1.514,1.514,0,0,0,1.364,0l38.319-22.122a1.56,1.56,0,0,0,.7-1.223V136.289a1.323,1.323,0,0,0-2.028-1.173L56.075,157.233a1.56,1.56,0,0,0-.7,1.223V192A1.51,1.51,0,0,0,56.029,193.2Z" transform="translate(-55.369 -134.911)" fill="#455a64"/>
            <path id="Trazado_161805" data-name="Trazado 161805" d="M58.985,194.2,97.3,172.072a1.546,1.546,0,0,0,.7-1.219V137.332c0-.455-.314-.637-.7-.409L58.985,159.045a1.573,1.573,0,0,0-.7,1.223v33.54C58.28,194.258,58.607,194.44,58.985,194.2Z" transform="translate(-56.956 -135.955)" fill="#451991"/>
            <path id="Trazado_161806" data-name="Trazado 161806" d="M58.985,194.2,97.3,172.072a1.546,1.546,0,0,0,.7-1.219V137.332c0-.455-.314-.637-.7-.409L58.985,159.045a1.573,1.573,0,0,0-.7,1.223v33.54C58.28,194.258,58.607,194.44,58.985,194.2Z" transform="translate(-56.956 -135.955)" fill="#37474f"/>
            <path id="Trazado_161807" data-name="Trazado 161807" d="M57.292,257.157a1.319,1.319,0,0,1-1.923-1.223V252.16l1.323.768v3.77C56.692,257.089,56.951,257.294,57.292,257.157Z" transform="translate(-55.368 -198.845)" fill="#e0e0e0"/>
            <path id="Trazado_161808" data-name="Trazado 161808" d="M58.28,226.336v3.774c0,.455.318.632.7.409L97.3,208.393a1.546,1.546,0,0,0,.7-1.219V203.4Z" transform="translate(-56.956 -172.257)" fill="#fff"/>
            <path id="Trazado_161809" data-name="Trazado 161809" d="M61.19,189.855V163.313a.946.946,0,0,1,.423-.737L97.849,141.66c.232-.136.423-.027.423.246v26.542a.946.946,0,0,1-.423.737L61.613,190.1C61.381,190.237,61.19,190.128,61.19,189.855Z" transform="translate(-58.543 -138.559)" fill="#451991"/>
            <path id="Trazado_161810" data-name="Trazado 161810" d="M61.19,189.855V163.313a.946.946,0,0,1,.423-.737L97.849,141.66c.232-.136.423-.027.423.246v26.542a.946.946,0,0,1-.423.737L61.613,190.1C61.381,190.237,61.19,190.128,61.19,189.855Z" transform="translate(-58.543 -138.559)" fill="#fff" opacity="0.5"/>
            <path id="Trazado_161811" data-name="Trazado 161811" d="M65.393,166.433,97.655,147.79c.236-.136.423-.027.423.246v23.509a.909.909,0,0,1-.423.732L65.4,190.92c-.236.136-.427.023-.427-.246v-23.5A.946.946,0,0,1,65.393,166.433Z" transform="translate(-60.604 -141.902)" fill="#455a64"/>
            <path id="Trazado_161812" data-name="Trazado 161812" d="M98.078,148.07c0-.268-.186-.377-.423-.241L65.393,166.473a.946.946,0,0,0-.423.737v1.819l33.108-19.1Z" transform="translate(-60.604 -141.923)" fill="#37474f"/>
            <path id="Trazado_161813" data-name="Trazado 161813" d="M101.2,231.887a1.451,1.451,0,0,0-.664,1.146c0,.423.3.591.664.382a1.473,1.473,0,0,0,.659-1.146C101.85,231.841,101.554,231.668,101.2,231.887Z" transform="translate(-79.999 -187.739)" fill="#455a64"/>
            <path id="Trazado_161814" data-name="Trazado 161814" d="M56.9,185.929a1.519,1.519,0,0,0-.209.7V216.4l-1.323-.768V185.866a1.451,1.451,0,0,1,.209-.7Z" transform="translate(-55.369 -162.316)" fill="#263238"/>
            <path id="Trazado_161815" data-name="Trazado 161815" d="M76.55,177.644v19.4L99.381,183.86v-19.4c0-.3-.209-.418-.455-.268L77.032,176.834A1.037,1.037,0,0,0,76.55,177.644Z" transform="translate(-66.918 -150.843)" fill="#fafafa"/>
            <path id="Trazado_161816" data-name="Trazado 161816" d="M84.1,193.071a1.564,1.564,0,0,0,0,.159v.418a1.513,1.513,0,0,0,0,.159.728.728,0,0,0,.023.177.3.3,0,0,0,.064.127.15.15,0,0,0,.109.045.286.286,0,0,0,.159-.05.582.582,0,0,0,.164-.127.755.755,0,0,0,.1-.146.578.578,0,0,0,.059-.146.98.98,0,0,0,.036-.132.428.428,0,0,1,.032-.118.141.141,0,0,1,.064-.064l.373-.218a.027.027,0,0,1,.041,0,.077.077,0,0,1,0,.059,1.655,1.655,0,0,1-.068.455,2.092,2.092,0,0,1-.455.841,1.364,1.364,0,0,1-.35.286.755.755,0,0,1-.364.118.455.455,0,0,1-.273-.1.586.586,0,0,1-.177-.277,1.414,1.414,0,0,1-.068-.418v-.778a2.361,2.361,0,0,1,.068-.5,2.533,2.533,0,0,1,.173-.482,2.124,2.124,0,0,1,.277-.414,1.441,1.441,0,0,1,.364-.3.864.864,0,0,1,.35-.118.518.518,0,0,1,.282.068.55.55,0,0,1,.186.236.951.951,0,0,1,.068.377.15.15,0,0,1,0,.077.109.109,0,0,1-.041.055l-.373.214c-.032.023-.055.023-.064,0a.177.177,0,0,1-.032-.082.409.409,0,0,0-.036-.1.168.168,0,0,0-.059-.077.173.173,0,0,0-.1-.027.455.455,0,0,0-.164.059.518.518,0,0,0-.159.136.618.618,0,0,0-.109.173.981.981,0,0,0-.064.2A1.133,1.133,0,0,0,84.1,193.071Z" transform="translate(-70.746 -165.784)" fill="#e0e0e0"/>
            <path id="Trazado_161817" data-name="Trazado 161817" d="M88.288,190.644a2.4,2.4,0,0,1,.241-.978,2.136,2.136,0,0,1,.273-.409,1.423,1.423,0,0,1,.373-.309.723.723,0,0,1,.368-.118.4.4,0,0,1,.273.1.591.591,0,0,1,.173.273,1.464,1.464,0,0,1,.073.423v.778a2.414,2.414,0,0,1-.073.5,2.137,2.137,0,0,1-.173.477,1.919,1.919,0,0,1-.273.414,1.564,1.564,0,0,1-.368.3.764.764,0,0,1-.373.123.414.414,0,0,1-.273-.1.664.664,0,0,1-.173-.282,1.414,1.414,0,0,1-.068-.418v-.382C88.288,190.908,88.283,190.771,88.288,190.644Zm1.246.036v-.732a1.015,1.015,0,0,0-.027-.186.323.323,0,0,0-.068-.118.15.15,0,0,0-.109-.045.291.291,0,0,0-.155.05.591.591,0,0,0-.155.127.619.619,0,0,0-.109.173.91.91,0,0,0-.068.2,1.205,1.205,0,0,0-.032.218v.737a.455.455,0,0,0,.1.3c.059.064.146.064.264,0a.609.609,0,0,0,.259-.3,1.178,1.178,0,0,0,.086-.427Z" transform="translate(-73.317 -164.312)" fill="#e0e0e0"/>
            <path id="Trazado_161818" data-name="Trazado 161818" d="M94.573,188.664h-.082a.132.132,0,0,1-.036-.036L93.8,187.5v1.482a.246.246,0,0,1,0,.1.109.109,0,0,1-.055.064l-.373.218a.046.046,0,0,1-.055,0,.1.1,0,0,1,0-.073v-2.824a.287.287,0,0,1,0-.1.155.155,0,0,1,.055-.064l.3-.173a.068.068,0,0,1,.077,0,.114.114,0,0,1,.041.041l.65,1.119v-1.478a.246.246,0,0,1,.023-.1.141.141,0,0,1,.055-.068l.373-.214a.036.036,0,0,1,.055,0,.1.1,0,0,1,.023.068v2.828a.245.245,0,0,1-.023.1.223.223,0,0,1-.055.068Z" transform="translate(-76.06 -162.454)" fill="#e0e0e0"/>
            <path id="Trazado_161819" data-name="Trazado 161819" d="M99.449,182.788a.036.036,0,0,1,.05,0,.077.077,0,0,1,0,.068v.455a.186.186,0,0,1,0,.1.141.141,0,0,1-.05.068l-.5.291v2.242a.287.287,0,0,1,0,.1.264.264,0,0,1-.055.064l-.373.214h-.055a.1.1,0,0,1,0-.068V184.07l-.5.291a.045.045,0,0,1-.055,0,.1.1,0,0,1,0-.068v-.455a.268.268,0,0,1,0-.1.127.127,0,0,1,.055-.064Z" transform="translate(-78.563 -161.012)" fill="#e0e0e0"/>
            <path id="Trazado_161820" data-name="Trazado 161820" d="M103.243,180.952a1.064,1.064,0,0,1,.336-.132.346.346,0,0,1,.25.041.373.373,0,0,1,.159.218,1.173,1.173,0,0,1,.059.414,1.882,1.882,0,0,1-.091.6,1.519,1.519,0,0,1-.25.455l.355.841a.132.132,0,0,1,0,.041.214.214,0,0,1,0,.077.114.114,0,0,1-.045.055l-.387.223c-.041.023-.064.027-.082,0a.159.159,0,0,1-.036-.059l-.318-.75-.259.15v.959a.246.246,0,0,1,0,.1.159.159,0,0,1-.055.064l-.373.218a.045.045,0,0,1-.055,0,.1.1,0,0,1,0-.073v-2.824a.286.286,0,0,1,0-.1.15.15,0,0,1,.055-.064Zm-.318,1.514.318-.186a.6.6,0,0,0,.2-.186.527.527,0,0,0,.077-.3c0-.123-.027-.2-.077-.209a.25.25,0,0,0-.2.041l-.318.186Z" transform="translate(-81.038 -159.941)" fill="#e0e0e0"/>
            <path id="Trazado_161821" data-name="Trazado 161821" d="M107.839,178.17c.036-.023.068-.023.086,0a.191.191,0,0,1,.041.073l.618,2.4a.205.205,0,0,1,0,.059.264.264,0,0,1,0,.082.123.123,0,0,1-.045.05l-.359.209c-.036.023-.064.023-.077,0a.086.086,0,0,1-.032-.055l-.082-.318-.755.455-.077.409a.314.314,0,0,1-.032.091.2.2,0,0,1-.082.082l-.359.209a.027.027,0,0,1-.041,0,.068.068,0,0,1,0-.055.622.622,0,0,1,0-.073l.618-3.115a.591.591,0,0,1,.045-.123.177.177,0,0,1,.086-.1Zm-.455,2.178.455-.264-.232-.909Z" transform="translate(-83.324 -158.49)" fill="#e0e0e0"/>
            <path id="Trazado_161822" data-name="Trazado 161822" d="M111.988,176.956a1.513,1.513,0,0,0,0,.159v.418a1.424,1.424,0,0,0,0,.155.673.673,0,0,0,0,.177.3.3,0,0,0,.064.127.155.155,0,0,0,.109.05.3.3,0,0,0,.159-.055.5.5,0,0,0,.159-.127.6.6,0,0,0,.1-.141.754.754,0,0,0,.059-.146,1.027,1.027,0,0,0,.036-.136.7.7,0,0,1,.027-.114.164.164,0,0,1,.068-.068l.373-.214a.027.027,0,0,1,.041,0s0,.027,0,.055a1.628,1.628,0,0,1-.068.455,2.183,2.183,0,0,1-.186.455,2.042,2.042,0,0,1-.282.391,1.364,1.364,0,0,1-.35.286.709.709,0,0,1-.364.118.4.4,0,0,1-.273-.1.609.609,0,0,1-.177-.277,1.464,1.464,0,0,1-.068-.418v-.782a2.4,2.4,0,0,1,.241-.973,2,2,0,0,1,.277-.414,1.459,1.459,0,0,1,.364-.309.827.827,0,0,1,.35-.114.482.482,0,0,1,.282.068.509.509,0,0,1,.186.232.955.955,0,0,1,.068.382.173.173,0,0,1,0,.077.109.109,0,0,1-.041.055l-.373.214c-.032,0-.055.023-.068,0a.273.273,0,0,1-.027-.082.658.658,0,0,0-.036-.1.155.155,0,0,0-.059-.073.177.177,0,0,0-.1-.027.364.364,0,0,0-.159.055.677.677,0,0,0-.159.136.691.691,0,0,0-.109.173,1.023,1.023,0,0,0-.064.2A1.05,1.05,0,0,0,111.988,176.956Z" transform="translate(-85.932 -156.999)" fill="#e0e0e0"/>
            <path id="Trazado_161823" data-name="Trazado 161823" d="M117.7,172.25h.055a.077.077,0,0,1,0,.068v.455a.186.186,0,0,1,0,.1.141.141,0,0,1-.055.068l-.5.286v2.246a.186.186,0,0,1,0,.1.168.168,0,0,1-.05.068l-.373.214a.041.041,0,0,1-.055,0,.077.077,0,0,1-.023-.068v-2.246l-.5.291a.046.046,0,0,1-.055,0,.114.114,0,0,1,0-.073V173.3a.246.246,0,0,1,0-.1.141.141,0,0,1,.055-.068Z" transform="translate(-88.504 -155.271)" fill="#e0e0e0"/>
            <path id="Trazado_161824" data-name="Trazado 161824" d="M80.956,191.355l18.48-10.677a.208.208,0,0,1,.336.191h0a.732.732,0,0,1-.336.582L80.961,192.087c-.186.1-.341.027-.341-.173a.737.737,0,0,1,.336-.559Z" transform="translate(-69.137 -159.843)" fill="#e0e0e0"/>
            <path id="Trazado_161825" data-name="Trazado 161825" d="M80.956,195.845l18.48-10.681c.186-.109.336-.023.336.2h0a.746.746,0,0,1-.336.614l-18.475,10.6c-.186.1-.341.027-.341-.173a.723.723,0,0,1,.336-.555Z" transform="translate(-69.137 -162.287)" fill="#e0e0e0"/>
            <path id="Trazado_161826" data-name="Trazado 161826" d="M80.956,200.342l18.48-10.681a.209.209,0,0,1,.336.2h0a.746.746,0,0,1-.336.582L80.961,201.069c-.186.109-.341.032-.341-.168a.723.723,0,0,1,.336-.559Z" transform="translate(-69.137 -164.743)" fill="#e0e0e0"/>
            <path id="Trazado_161827" data-name="Trazado 161827" d="M80.956,207.015l18.48-10.677a.208.208,0,0,1,.336.191h0a.727.727,0,0,1-.336.577l-18.475,10.64c-.186.1-.341.027-.341-.173a.737.737,0,0,1,.336-.559Z" transform="translate(-69.137 -168.383)" fill="#e0e0e0"/>
            <path id="Trazado_161828" data-name="Trazado 161828" d="M80.956,211.512l18.48-10.681a.209.209,0,0,1,.336.2h0a.746.746,0,0,1-.336.582L80.961,212.253c-.186.109-.341.032-.341-.168A.723.723,0,0,1,80.956,211.512Z" transform="translate(-69.137 -170.833)" fill="#e0e0e0"/>
            <path id="Trazado_161829" data-name="Trazado 161829" d="M80.956,216l18.48-10.681a.209.209,0,0,1,.336.2h0a.732.732,0,0,1-.336.582L80.961,216.729c-.186.109-.341.032-.341-.168A.737.737,0,0,1,80.956,216Z" transform="translate(-69.137 -173.282)" fill="#e0e0e0"/>
          </g>
        </g>
      </g>
    </g>
    <g id="freepik--Chair--inject-168" transform="translate(155.531 111.888)">
      <g id="freepik--chair--inject-168-2" data-name="freepik--chair--inject-168">
        <path id="Trazado_161830" data-name="Trazado 161830" d="M392.011,345.1a.641.641,0,0,0,.641-.641V303.161a.641.641,0,0,0-1.282,0v41.293A.641.641,0,0,0,392.011,345.1Z" transform="translate(-363.295 -250.995)" fill="#455a64"/>
        <path id="Trazado_161831" data-name="Trazado 161831" d="M335.821,323.127a.646.646,0,0,0,.6-.4l12.659-32.049a.641.641,0,1,0-1.191-.473l-12.664,32.049a.641.641,0,0,0,.359.832A.622.622,0,0,0,335.821,323.127Z" transform="translate(-332.655 -244.055)" fill="#455a64"/>
        <path id="Trazado_161832" data-name="Trazado 161832" d="M339.2,322.6a.623.623,0,0,0,.455-.2l23.564-24.932,23.527,24.846a.642.642,0,0,0,.932-.882l-23.986-25.337a.618.618,0,0,0-.455-.2h0a.636.636,0,0,0-.455.2l-24.027,25.423a.646.646,0,0,0,.027.909.632.632,0,0,0,.418.177Z" transform="translate(-334.508 -247.38)" fill="#455a64"/>
        <path id="Trazado_161833" data-name="Trazado 161833" d="M433.046,323.127a.623.623,0,0,0,.236-.045.641.641,0,0,0,.364-.832L420.982,290.2a.643.643,0,1,0-1.2.473l12.664,32.049a.646.646,0,0,0,.6.4Z" transform="translate(-378.765 -244.055)" fill="#455a64"/>
        <path id="Trazado_161834" data-name="Trazado 161834" d="M336.5,352.46l-1.673,4.415a.513.513,0,0,0,0,.114.246.246,0,0,0,0,.082.509.509,0,0,0,.25.277,1.119,1.119,0,0,0,1.019,0,.455.455,0,0,0,.2-.209h0v-.064l1.555-4.138Z" transform="translate(-332.46 -278.226)" fill="#451991"/>
        <path id="Trazado_161835" data-name="Trazado 161835" d="M445.386,352.46l1.673,4.415a.35.35,0,0,1,0,.114v.082a.541.541,0,0,1-.255.277,1.119,1.119,0,0,1-1.019,0,.428.428,0,0,1-.2-.209h0v-.064l-1.551-4.138Z" transform="translate(-392.015 -278.226)" fill="#451991"/>
        <path id="Trazado_161836" data-name="Trazado 161836" d="M391.15,387.489v3.638a.364.364,0,0,0,.218.3,1.146,1.146,0,0,0,1.046,0,.364.364,0,0,0,.218-.3v-3.638A1.582,1.582,0,0,0,391.15,387.489Z" transform="translate(-363.175 -297.226)" fill="#451991"/>
        <path id="Trazado_161837" data-name="Trazado 161837" d="M329.629,235.391c0-1.15,1-2.374,3.138-3.756,3.938-2.556,15.4-8.953,20.917-12a.064.064,0,0,1,.045-.045c4.238-2.574,5.529-13.551,8.462-22.859,1-3.183,2.224-4.97,3.679-5.816.341-.2,1.614-.909,1.9-1.069,2.878-1.723,6.657.35,11.368,2.924,4.333,2.374,7.73,5.411,8.4,13.469a117.745,117.745,0,0,1-.978,21.372h0c-1.446,11.873-3.215,11.9-5.789,13.883-4.424,3.419-14.392,8.226-18.593,9.876-7.621,3-13.846-1.623-18.484-3.915a108.679,108.679,0,0,1-12.277-7.275c-1.159-.846-1.764-1.7-1.751-2.6C329.633,237.223,329.624,235.764,329.629,235.391Z" transform="translate(-329.628 -189.209)" fill="#451991"/>
        <path id="Trazado_161838" data-name="Trazado 161838" d="M329.629,235.391c0-1.15,1-2.374,3.138-3.756,3.938-2.556,15.4-8.953,20.917-12a.064.064,0,0,1,.045-.045c4.238-2.574,5.529-13.551,8.462-22.859,1-3.183,2.224-4.97,3.679-5.816.341-.2,1.614-.909,1.9-1.069,2.878-1.723,6.657.35,11.368,2.924,4.333,2.374,7.73,5.411,8.4,13.469a117.745,117.745,0,0,1-.978,21.372h0c-1.446,11.873-3.215,11.9-5.789,13.883-4.424,3.419-14.392,8.226-18.593,9.876-7.621,3-13.846-1.623-18.484-3.915a108.679,108.679,0,0,1-12.277-7.275c-1.159-.846-1.764-1.7-1.751-2.6C329.633,237.223,329.624,235.764,329.629,235.391Z" transform="translate(-329.628 -189.209)" opacity="0.2"/>
        <path id="Trazado_161839" data-name="Trazado 161839" d="M343.7,279.738a108,108,0,0,1-12.277-7.275c-2.642-1.919-2.4-3.879,1.364-6.334,5.257-3.41,23.932-13.678,23.932-13.678s27.092,15.992,25.919,18.944-15.178,10.19-20.462,12.277C354.564,286.649,348.339,282.029,343.7,279.738Z" transform="translate(-329.649 -223.693)" fill="#451991"/>
        <g id="Grupo_102708" data-name="Grupo 102708" transform="translate(0.018 28.757)" opacity="0.5">
          <path id="Trazado_161840" data-name="Trazado 161840" d="M343.7,279.738a108,108,0,0,1-12.277-7.275c-2.642-1.919-2.4-3.879,1.364-6.334,5.257-3.41,23.932-13.678,23.932-13.678s27.092,15.992,25.919,18.944-15.178,10.19-20.462,12.277C354.564,286.649,348.339,282.029,343.7,279.738Z" transform="translate(-329.666 -252.45)" fill="#fff"/>
        </g>
        <path id="Trazado_161841" data-name="Trazado 161841" d="M409.67,190.814c2.851-1.5,6.557.541,11.141,3.051,2.937,1.61,5.457,3.515,6.962,7.085l1.933-1.119c-1.519-3.551-4.015-5.457-6.944-7.066-4.706-2.578-8.485-4.647-11.368-2.924C411.148,189.986,410.147,190.546,409.67,190.814Z" transform="translate(-373.273 -189.208)" fill="#451991"/>
        <path id="Trazado_161842" data-name="Trazado 161842" d="M409.67,190.814c2.851-1.5,6.557.541,11.141,3.051,2.937,1.61,5.457,3.515,6.962,7.085l1.933-1.119c-1.519-3.551-4.015-5.457-6.944-7.066-4.706-2.578-8.485-4.647-11.368-2.924C411.148,189.986,410.147,190.546,409.67,190.814Z" transform="translate(-373.273 -189.208)" fill="#fff" opacity="0.5"/>
        <path id="Trazado_161843" data-name="Trazado 161843" d="M406.038,195.18c-7.044-3.856-12.014-6.593-15.006,2.86-2.933,9.308-4.224,20.285-8.462,22.859,0,0,2.765.909,12.623,5.748,4.047,1.987,6.7,3.992,10.495,6.366,5.575,3.506,5.152,6.116,5.152,6.116,2.769-2.3,4.265-22.427,3.588-30.489S410.371,197.553,406.038,195.18Z" transform="translate(-358.496 -190.522)" fill="#451991"/>
      </g>
    </g>
    <g id="freepik--speech-bubble--inject-168" transform="translate(87.97 57.611)">
      <g id="freepik--speech-bubble--inject-168-2" data-name="freepik--speech-bubble--inject-168">
        <g id="freepik--speech-bubble--inject-168-3" data-name="freepik--speech-bubble--inject-168">
          <path id="Trazado_161844" data-name="Trazado 161844" d="M219.922,84.364a.455.455,0,0,0-.236-.064h-4.329l-1.787,1.032v6.193l1.787-1.032,1.546-1.783v4.374l1.787-1.032,4.684-5.047a.455.455,0,0,0-.118-.718Z" transform="translate(-198.783 -77.726)" fill="#451991"/>
          <path id="Trazado_161845" data-name="Trazado 161845" d="M219.922,84.364a.455.455,0,0,0-.236-.064h-4.329l-1.787,1.032v6.193l1.787-1.032,1.546-1.783v4.374l1.787-1.032,4.684-5.047a.455.455,0,0,0-.118-.718Z" transform="translate(-198.783 -77.726)" fill="#fff" opacity="0.4"/>
          <path id="Trazado_161846" data-name="Trazado 161846" d="M220.9,95.389l1.787-1.032,4.684-5.047a.455.455,0,0,0-.355-.782h-4.329L220.9,89.56Z" transform="translate(-202.779 -80.03)" fill="#451991"/>
          <path id="Trazado_161847" data-name="Trazado 161847" d="M200.971,73.229a3.788,3.788,0,0,0-1.719-2.974h0a3.788,3.788,0,0,0-3.438,0l-13.05,7.466A3.811,3.811,0,0,0,181.05,80.7V94.8a3.811,3.811,0,0,0,1.714,2.978h0a3.788,3.788,0,0,0,3.438,0l13.187-7.585a2.666,2.666,0,0,0,1.56-2.86Z" transform="translate(-181.05 -69.843)" fill="#451991"/>
          <path id="Trazado_161848" data-name="Trazado 161848" d="M181.06,105.779a3.811,3.811,0,0,0,1.714,2.978h0a3.838,3.838,0,0,0,3.142.146c-.809.3-1.423-.159-1.423-1.137V93.67a3.519,3.519,0,0,1,.5-1.692L181.56,90a3.538,3.538,0,0,0-.5,1.7Z" transform="translate(-181.055 -80.834)" opacity="0.15"/>
          <path id="Trazado_161849" data-name="Trazado 161849" d="M201.527,72.747c-.2-.728-.868-.964-1.66-.5l-13.055,7.471A3.4,3.4,0,0,0,185.6,81l-3.433-1.983a3.483,3.483,0,0,1,1.214-1.282l13.041-7.471a3.815,3.815,0,0,1,3.438,0h0A3.783,3.783,0,0,1,201.527,72.747Z" transform="translate(-181.661 -69.847)" fill="#fff" opacity="0.4"/>
        </g>
        <g id="freepik----inject-168" transform="translate(8.149 7.849)">
          <path id="Trazado_161850" data-name="Trazado 161850" d="M202.949,88.558a1.741,1.741,0,0,1,.814,0,1.519,1.519,0,0,1,.628.35,1.7,1.7,0,0,1,.409.587,2.024,2.024,0,0,1,.164.741.623.623,0,0,1-.068.277.382.382,0,0,1-.146.182l-1.31.773a.3.3,0,0,1-.4,0l-.091-.1a.573.573,0,0,0-.186-.118.628.628,0,0,0-.3-.027A1.173,1.173,0,0,0,202,91.4a3.282,3.282,0,0,0-.368.25,2.182,2.182,0,0,0-.309.3,1.5,1.5,0,0,0-.223.368,1.123,1.123,0,0,0-.082.455.359.359,0,0,0,.414.432,2.46,2.46,0,0,0,.6-.091c.25-.059.555-.141.909-.236a3.124,3.124,0,0,1,.964-.127,1.114,1.114,0,0,1,.682.264A1.364,1.364,0,0,1,205,93.7a4.207,4.207,0,0,1,.136,1.178,5.11,5.11,0,0,1-.164,1.281,5.855,5.855,0,0,1-.455,1.22,6.3,6.3,0,0,1-.668,1.046,6.183,6.183,0,0,1-.909.909v1.1a.782.782,0,0,1-.082.341.528.528,0,0,1-.191.232l-1.314.755a.136.136,0,0,1-.186,0,.336.336,0,0,1-.082-.25V100.38a1.878,1.878,0,0,1-.869,0,1.51,1.51,0,0,1-.659-.332,1.592,1.592,0,0,1-.427-.628,2.424,2.424,0,0,1-.159-.855.668.668,0,0,1,.064-.277.455.455,0,0,1,.146-.186l1.314-.755a.418.418,0,0,1,.218-.077.373.373,0,0,1,.164.073l.118.132a.8.8,0,0,0,.214.159.7.7,0,0,0,.341.059,1.21,1.21,0,0,0,.509-.186,3.747,3.747,0,0,0,.887-.691,1.2,1.2,0,0,0,.355-.841.346.346,0,0,0-.132-.314.682.682,0,0,0-.391-.059,3.834,3.834,0,0,0-.664.132l-.959.246a1.45,1.45,0,0,1-1.505-.264,2.783,2.783,0,0,1-.455-1.846,5.1,5.1,0,0,1,.132-1.119,6.154,6.154,0,0,1,.373-1.137,6.239,6.239,0,0,1,.6-1.069,5.938,5.938,0,0,1,.8-.946V88.471a.782.782,0,0,1,.082-.341.5.5,0,0,1,.186-.232l1.314-.759a.15.15,0,0,1,.191,0,.336.336,0,0,1,.082.25Z" transform="translate(-198.97 -87.105)" fill="#fafafa"/>
        </g>
      </g>
    </g>
    <g id="freepik--Briefcase--inject-168" transform="translate(64.261 172.193)">
      <g id="freepik--briefcase--inject-168-2" data-name="freepik--briefcase--inject-168" transform="translate(0 0)">
        <path id="Trazado_161851" data-name="Trazado 161851" d="M128.91,340.022V363.7c0,1.15.814,1.819,1.819,2.4l2.492,1.441a2.4,2.4,0,0,0,1.946.382,5.292,5.292,0,0,0,1.328-.546.122.122,0,0,0,.055-.027l.132-.077,25.464-14.7a6.011,6.011,0,0,0,2.983-5.206V325.807a1.723,1.723,0,0,0-.778-1.341l-4.252-2.451a1.678,1.678,0,0,0-1.541,0l-28.875,16.67a1.569,1.569,0,0,0-.55.577,1.61,1.61,0,0,0-.223.759Z" transform="translate(-128.91 -321.828)" fill="#451991"/>
        <path id="Trazado_161852" data-name="Trazado 161852" d="M128.91,360.929v23.682c0,1.15.814,1.819,1.819,2.4l2.492,1.441a2.4,2.4,0,0,0,1.946.382,5.294,5.294,0,0,0,1.328-.546h0c-.991.455-1.773-.055-1.773-1.228V364.735a2.428,2.428,0,0,1,.341-1.155l-5.911-3.41a1.61,1.61,0,0,0-.241.759Z" transform="translate(-128.91 -342.735)" opacity="0.3"/>
        <path id="Trazado_161853" data-name="Trazado 161853" d="M141.66,348.566a2.592,2.592,0,0,1,1.169-2.023l27.283-15.761c1.078-.623,1.96-.109,1.96,1.137v20.19a6.011,6.011,0,0,1-2.974,5.207l-25.464,14.7c-1.078.623-1.96.114-1.96-1.132Z" transform="translate(-135.862 -326.566)" opacity="0.2"/>
        <path id="Trazado_161854" data-name="Trazado 161854" d="M164.219,324l-28.925,16.866a2.728,2.728,0,0,0-1.364,2.337v24.373l.455.255V343.2a2.274,2.274,0,0,1,1.128-1.955l29.143-16.993Z" transform="translate(-131.647 -323.012)" fill="#451991"/>
        <path id="Trazado_161855" data-name="Trazado 161855" d="M134.334,363.26a2.728,2.728,0,0,0-.364,1.364V389l.455.255V364.606a2.274,2.274,0,0,1,.3-1.128Z" transform="translate(-131.669 -344.42)" opacity="0.4"/>
        <path id="Trazado_161856" data-name="Trazado 161856" d="M135.136,342.065a2.21,2.21,0,0,1,.823-.828L165.1,324.245l-.455-.255-28.925,16.865a2.7,2.7,0,0,0-.982.991" transform="translate(-132.089 -323.007)" opacity="0.3"/>
        <path id="Trazado_161857" data-name="Trazado 161857" d="M177,330.015v3.67l1.432.828v-4.847c0-.25-.173-.35-.391-.227Z" transform="translate(-155.133 -325.948)" fill="#263238"/>
        <path id="Trazado_161858" data-name="Trazado 161858" d="M154.83,330.7v5.939l1.364.791.909-.532v-4.87a.882.882,0,0,1,.391-.682l6.989-4.033,1.451-.837c.218-.123.391-.023.391.227v4.87l.909-.532v-5.934a.414.414,0,0,0,0-.077.873.873,0,0,0-.391-.6l-.582-.341a.909.909,0,0,0-.787,0l-10.281,5.939A.855.855,0,0,0,154.83,330.7Z" transform="translate(-143.044 -323.009)" fill="#455a64"/>
        <path id="Trazado_161859" data-name="Trazado 161859" d="M157.84,332.49v5.934l.909-.532v-4.87a.882.882,0,0,1,.391-.682l6.989-4.033,1.451-.837c.218-.123.391-.023.391.227v4.87l.909-.532V326.1a.414.414,0,0,0,0-.077c-.036-.2-.2-.264-.391-.15l-10.258,5.939a.882.882,0,0,0-.391.678Z" transform="translate(-144.685 -324.004)" fill="#37474f"/>
      </g>
    </g>
    <g id="freepik--Character--inject-168" transform="translate(80.455 57.023)">
      <g id="freepik--character--inject-168-2" data-name="freepik--character--inject-168" transform="translate(0 0)">
        <path id="Trazado_161860" data-name="Trazado 161860" d="M296.427,108.454c.455-.259.823-3.379.455-5.634s.655-2.728,1.114-2.028a3.733,3.733,0,0,1,.546,1.332,5.911,5.911,0,0,1,2.728,1.682,6.47,6.47,0,0,1,1.919,6.166c-.114.637-.759,1.487-1.078,2.41-.5,1.441,6.207,12.864,6.207,19.2,0,6.116-3.892,5.357-7.73,3.347-4.415-2.31-11.286-9.622-11.286-9.622l-3.3-11.9c4.493.327,5,1.028,7.758,4.456,3.088,3.874,6.284,8.03,6.284,8.03-1.16-4.547-2.324-10.977-4.2-12.559" transform="translate(-230.762 -85.968)" fill="#ffa8a7"/>
        <path id="Trazado_161861" data-name="Trazado 161861" d="M284.1,128.59c2.592.027,4.042.209,5.643,1.173s2.933,3.183,3.952,4.343,5.1,6.662,5.1,6.662l-1.264-5.7,5.625-1.555s1.7,3.783,2.8,6.525a16.158,16.158,0,0,1,1.337,8.6c-.482,2.924-2.042,3.679-4.547,3.083s-5.2-2.024-11.409-7.657-6.821-6.3-6.821-6.3Z" transform="translate(-229.726 -101.289)" fill="#455a64"/>
        <path id="Trazado_161862" data-name="Trazado 161862" d="M312.15,135.774l.85,3.183a11.04,11.04,0,0,0,3.183-.491c2.014-.55,2.51-1.337,2.51-1.337l-1.241-2.869A9.666,9.666,0,0,1,312.15,135.774Z" transform="translate(-245.021 -104.38)" fill="#37474f"/>
        <path id="Trazado_161863" data-name="Trazado 161863" d="M315.27,153.843a13.116,13.116,0,0,0,3.433,6.73s-3.942-1.964-4.383-8Z" transform="translate(-246.204 -114.364)" fill="#37474f"/>
        <path id="Trazado_161864" data-name="Trazado 161864" d="M308.1,97.281l-10.836-5.911a.646.646,0,0,0-.673-.027c-.159.1-.8.455-.978.555a.673.673,0,0,0-.332.555l-.709,6.421a1.587,1.587,0,0,0,.755,1.455l10.836,5.911a.687.687,0,0,0,.637.05c.177-.091.873-.487,1.05-.6a.687.687,0,0,0,.3-.532c.177-1.614.532-4.82.709-6.439a1.573,1.573,0,0,0-.755-1.437Z" transform="translate(-235.437 -80.934)" fill="#451991"/>
        <path id="Trazado_161865" data-name="Trazado 161865" d="M308.282,97.872l-10.836-5.911a.641.641,0,0,0-.7,0l.055-.036c.177-.091.814-.455.978-.55a.655.655,0,0,1,.673.027l10.836,5.911a1.392,1.392,0,0,1,.387.346l-.991.55a.458.458,0,0,1,.036.05A1.4,1.4,0,0,0,308.282,97.872Z" transform="translate(-236.624 -80.952)" opacity="0.35"/>
        <path id="Trazado_161866" data-name="Trazado 161866" d="M295.329,101.035l10.836,5.911a.614.614,0,0,0,.973-.509c.177-1.614.532-4.82.709-6.434a1.573,1.573,0,0,0-.755-1.451l-10.836-5.911a.614.614,0,0,0-.973.509l-.709,6.412A1.587,1.587,0,0,0,295.329,101.035Z" transform="translate(-235.435 -81.623)" opacity="0.45"/>
        <path id="Trazado_161867" data-name="Trazado 161867" d="M321.2,114.4a.723.723,0,0,1,.314.641.259.259,0,0,1-.409.214.7.7,0,0,1-.314-.637.259.259,0,0,1,.409-.218Z" transform="translate(-249.73 -93.526)" opacity="0.35"/>
        <path id="Trazado_161868" data-name="Trazado 161868" d="M297.58,101.625a.8.8,0,0,1-.35-.673l.759-6.412,9.7,5.316a.814.814,0,0,1,.35.673l-.759,6.4Z" transform="translate(-236.886 -82.722)" fill="#451991"/>
        <path id="Trazado_161869" data-name="Trazado 161869" d="M297.58,101.625a.8.8,0,0,1-.35-.673l.759-6.412,9.7,5.316a.814.814,0,0,1,.35.673l-.759,6.4Z" transform="translate(-236.886 -82.722)" fill="#fff" opacity="0.7"/>
        <path id="Trazado_161870" data-name="Trazado 161870" d="M307.307,106.667l-.032.268-9.695-5.311a.828.828,0,0,1-.35-.673l.759-6.412.236.132-.728,6.143a.809.809,0,0,0,.35.678Z" transform="translate(-236.886 -82.722)" fill="#451991"/>
        <path id="Trazado_161871" data-name="Trazado 161871" d="M323.481,106.343c-.177,1.614-.537,4.825-.714,6.439a.682.682,0,0,1-.3.532c-.177.114-.873.509-1.05.6a.073.073,0,0,1-.041,0,.637.637,0,0,0,.377-.573c.177-1.614.532-4.82.709-6.434a1.587,1.587,0,0,0-.359-1.119l1-.568A1.578,1.578,0,0,1,323.481,106.343Z" transform="translate(-250.054 -88.545)" opacity="0.55"/>
        <path id="Trazado_161872" data-name="Trazado 161872" d="M305.012,114.476c-.35-.323-.432-1.328-1-2.228-.664-1.037-2.315-.855-1.846,0a9.513,9.513,0,0,1,.882,3.674c.273,2.092.741,2.274,1.582,3.456l.568-4.779Z" transform="translate(-239.53 -91.99)" fill="#ffa8a7"/>
        <path id="Trazado_161873" data-name="Trazado 161873" d="M318.309,89.9a1.114,1.114,0,0,1-.382-.909l.064-1.432c0-.355.214-.527.455-.387a1.119,1.119,0,0,1,.377.909l-.064,1.432C318.728,89.872,318.532,90.045,318.309,89.9Z" transform="translate(-248.17 -78.677)" fill="#e0e0e0"/>
        <path id="Trazado_161874" data-name="Trazado 161874" d="M311.072,88.351a.932.932,0,0,1-.336-.55l-.4-1.532c-.1-.382,0-.732.191-.787s.455.214.546.591l.4,1.532c.1.382,0,.737-.191.787A.273.273,0,0,1,311.072,88.351Z" transform="translate(-244.011 -77.778)" fill="#e0e0e0"/>
        <path id="Trazado_161875" data-name="Trazado 161875" d="M329.154,131.718a.727.727,0,0,1-.2-.218l-.75-1.219a1.1,1.1,0,0,1-.114-.978c.127-.236.382-.182.568.123l.755,1.219a1.109,1.109,0,0,1,.109.978.236.236,0,0,1-.368.1Z" transform="translate(-253.677 -101.598)" fill="#e0e0e0"/>
        <path id="Trazado_161876" data-name="Trazado 161876" d="M331.564,121.692l-.909-.577a1.11,1.11,0,0,1-.377-.909c0-.359.209-.532.455-.387l.909.577a1.114,1.114,0,0,1,.382.909C331.969,121.692,331.787,121.842,331.564,121.692Z" transform="translate(-254.904 -96.477)" fill="#e0e0e0"/>
        <path id="Trazado_161877" data-name="Trazado 161877" d="M329.354,109.232a.909.909,0,0,1-.341-.55c-.1-.382,0-.737.191-.787l.814-.214c.2-.055.455.209.55.591s0,.732-.191.787l-.819.214A.259.259,0,0,1,329.354,109.232Z" transform="translate(-254.195 -89.884)" fill="#e0e0e0"/>
        <path id="Trazado_161878" data-name="Trazado 161878" d="M324.832,97.54a.728.728,0,0,1-.2-.218,1.119,1.119,0,0,1-.109-.973l.514-.955c.123-.236.377-.182.568.123a1.11,1.11,0,0,1,.109.978l-.509.95a.241.241,0,0,1-.373.1Z" transform="translate(-251.733 -83.107)" fill="#e0e0e0"/>
        <path id="Trazado_161879" data-name="Trazado 161879" d="M231.774,385.887c-.168.668-.523,2.56-4.042,2.56s-5.534-1.441-6.225-3.229-.3-3.11-.232-4.67-1.091-2.551-1.364-3.392a4.519,4.519,0,0,1,.659-2.947Z" transform="translate(-194.68 -235.221)" fill="#263238"/>
        <path id="Trazado_161880" data-name="Trazado 161880" d="M295.189,376.347a2.137,2.137,0,0,1-.164,1.7,7.3,7.3,0,0,1-5.525,1.7,13.46,13.46,0,0,1-5.993-2.1,7.813,7.813,0,0,0-4.606-1.141c-1.732,0-2.915-.323-3.06-.755-.25-.764-.268-1.255.1-1.241Z" transform="translate(-225.123 -235.384)" fill="#263238"/>
        <path id="Trazado_161881" data-name="Trazado 161881" d="M224.07,360.161c0,3.206,6.134,3.788,5.984,1.21l2.142-7.494-6.939-.737Z" transform="translate(-196.993 -223.732)" fill="#ffa8a7"/>
        <path id="Trazado_161882" data-name="Trazado 161882" d="M231.978,380.1a19.8,19.8,0,0,0-1.328-2.114,17.229,17.229,0,0,1-2.31-9.649c0-.186.036-.55-.132-.687s-.377,0-.587.055h0a3.789,3.789,0,0,1-1.109.132,20.152,20.152,0,0,1-2.865-.514c-.241,0-.414.728-.5,1.523-.4-.332-.455-.909-.814-1.269-.186-.2-.277-.218-.232-.5.027-.182.059-.346.086-.532-.3-.132-.728,1.032-1.114,1.919a5.314,5.314,0,0,0-.709,3.306,9.386,9.386,0,0,0,.741,1.819,6.939,6.939,0,0,1,.837,3.229c-.023.491-.127.978-.123,1.469a4.311,4.311,0,0,0,2.528,3.92c2.014.946,5.188,1.278,7.248.059C232.288,381.821,232.215,380.707,231.978,380.1Z" transform="translate(-194.929 -231.032)" fill="#263238"/>
        <path id="Trazado_161883" data-name="Trazado 161883" d="M277.664,350.2a4.669,4.669,0,0,0,5.379.377l1.028-10.913H276.55Z" transform="translate(-225.609 -216.381)" fill="#ffa8a7"/>
        <path id="Trazado_161884" data-name="Trazado 161884" d="M232.863,208.4c-1.364,12.732-3.229,37.978-3.229,37.978a31.2,31.2,0,0,0-2.892,9.963c-1,7.58-2.183,21.995-2.183,21.995s3.542,2.3,6.989,1.187c0,0,7.885-22.736,9.458-30.211,1.364-6.512,3.806-19.885,3.806-19.885l3.038,18.189a28.561,28.561,0,0,0-.982,8.867c.15,3.506,1.528,16.9,1.528,16.9,1.141,1.082,5.529,1.223,6.994.291,0,0,2.105-22.3,2.41-25.987.4-4.843,1.155-39.56,1.155-39.56Z" transform="translate(-197.26 -144.66)" fill="#263238"/>
        <path id="Trazado_161885" data-name="Trazado 161885" d="M269.1,241.973l1.7-7.821a18.533,18.533,0,0,0,6.5-3.042s-.991,2.5-5.147,4.411l-1.732,7.316,1.491,16.074Z" transform="translate(-221.547 -157.191)"/>
        <path id="Trazado_161886" data-name="Trazado 161886" d="M293.553,365.277a35.666,35.666,0,0,1-7.439-3.574,14.932,14.932,0,0,1-1.2-.909c-.732-.732-1.178-2.333-1.491-2.515-.1-.059-.25,0-.455.141a.518.518,0,0,0-.336-.2l-.041.455a4.747,4.747,0,0,1-1.964.718c-1.764.223-1.819-.127-1.892.455a3.938,3.938,0,0,0,0,.637c-.941-.118-1.687-.391-1.742-.746l-.146-1.164c-.932-.045-.932,1.619-1.169,3.5-.191,1.519-.514,2.628-.055,3.729,1.451,1.173,3.92.782,5.343.964,2.014.255,3,1.7,5.816,2.56,4.547,1.364,7.3-.514,8.112-1.323C295.418,367,295.122,365.85,293.553,365.277Z" transform="translate(-224.979 -226.502)" fill="#263238"/>
        <path id="Trazado_161887" data-name="Trazado 161887" d="M250.031,128.936c-3.551.541-7.617.823-10.108,1.164-2.728.368-3.692,2.592-3.692,7.275,0,6.853,3.506,18.28,3.506,18.28l-.955,11.686c3.183,3.406,18.462,4.9,26.606-.1,0,0,.218-23.241,0-27.16-.387-6.894-4.374-11.3-6.916-11.5C258.47,128.558,256.133,128.008,250.031,128.936Z" transform="translate(-203.623 -101.184)" fill="#37474f"/>
        <path id="Trazado_161888" data-name="Trazado 161888" d="M275.758,146.541c-.059,1.605-.759,13.082-1.019,14.915s2.565,5.72,3.183,5.675,1.914-3.215,2.192-5.252c-.159-2.519-1.632-12.828-2.792-15.529Z" transform="translate(-224.613 -110.973)" fill="#451991"/>
        <path id="Trazado_161889" data-name="Trazado 161889" d="M278.676,146.568c-.027-.077-.059-.15-.086-.218l-1.582.191a5.465,5.465,0,0,1-.027.6h0A3.024,3.024,0,0,0,278.676,146.568Z" transform="translate(-225.844 -110.973)" opacity="0.15"/>
        <path id="Trazado_161890" data-name="Trazado 161890" d="M274.595,138.914a6.23,6.23,0,0,0,2.378-.214,9,9,0,0,1,.614,1.742,4.775,4.775,0,0,1-.6,1.737,1.91,1.91,0,0,1-1.582.191,6.112,6.112,0,0,1-1.364-1.3A10.912,10.912,0,0,1,274.595,138.914Z" transform="translate(-224.241 -106.801)" fill="#451991"/>
        <path id="Trazado_161891" data-name="Trazado 161891" d="M255.382,82.74a3.764,3.764,0,0,0-2.66,1.737c-.623,1.278-.4,4.361.427,7.73a30.866,30.866,0,0,0,2.1,6.316,2.574,2.574,0,0,0,1.487,1.191l-.1-3.988-.146-2.778a11.5,11.5,0,0,0,1.983-4.434,7.271,7.271,0,0,0-.291-3.638Z" transform="translate(-212.421 -76.287)" fill="#263238"/>
        <path id="Trazado_161892" data-name="Trazado 161892" d="M254.728,81.14,252,79.885a1.61,1.61,0,0,1,2.078-.855,1.555,1.555,0,0,1,.65,2.11Z" transform="translate(-212.223 -74.201)" fill="#263238"/>
        <path id="Trazado_161893" data-name="Trazado 161893" d="M265.94,82.261a7.448,7.448,0,1,0,7.421-7.471A7.448,7.448,0,0,0,265.94,82.261Z" transform="translate(-219.824 -71.952)" fill="#263238"/>
        <path id="Trazado_161894" data-name="Trazado 161894" d="M255.287,92.238c-.668.582-1.214-.909-1.778-1.505a1.983,1.983,0,0,0-3.31.546c-.909,1.91.841,4.643,2.214,5.279a2.151,2.151,0,0,0,2.915-1.1l.214,8.385c2.119,3.82,6.462,2.551,7.125,4.3.4-1.551,2.437-2.274.978-3.97v-2.728a15.791,15.791,0,0,0,3.356.164c1.819-.291,2.787-1.669,3.338-3.638a33.722,33.722,0,0,0,0-14.724c-2.046-1.587-9.154-1.323-13.455,1.4C257.188,90.119,255.96,91.661,255.287,92.238Z" transform="translate(-211.103 -76.032)" fill="#ffa8a7"/>
        <path id="Trazado_161895" data-name="Trazado 161895" d="M281.882,95.212l-.4-.036a11.859,11.859,0,0,0-4.042.286c-1.287.455-1.742.909-2.455.946s-1.246-.4-2.624-.75a13.241,13.241,0,0,0-4.315.032l-.432.068a.723.723,0,0,0-.482.746,1.61,1.61,0,0,0,.418.837,1.091,1.091,0,0,1,.141.337,14.555,14.555,0,0,0,.532,2.324,2.883,2.883,0,0,0,.55.823,2.776,2.776,0,0,0,.282.236l.164.1a2.388,2.388,0,0,0,.487.218l.082.023.127.036.136.027a2.982,2.982,0,0,0,.427.05h.414a3.059,3.059,0,0,0,2.951-1.855c.441-.9.323-2.16,1.141-2.187h.15c.6.118.532,1.273.909,2.087a3.182,3.182,0,0,0,.582.887,1.253,1.253,0,0,0,.136.132l.073.064.077.064.073.05.077.05.059.036.041.027a2.437,2.437,0,0,0,.7.259h.068a3.683,3.683,0,0,0,.864.055,2.6,2.6,0,0,0,2.5-1.723,16.071,16.071,0,0,0,.5-2.365.723.723,0,0,1,.15-.314,1.719,1.719,0,0,0,.373-.878A.662.662,0,0,0,281.882,95.212Zm-8.5,3.638a2.787,2.787,0,0,1-.614,1.26h0a2.528,2.528,0,0,1-1.928.782,2.074,2.074,0,0,1-1.86-.832l-.059-.086-.055-.086a.741.741,0,0,1-.045-.082l-.041-.073-.027-.059a.278.278,0,0,1-.023-.055l-.041-.086h0c-.036-.086-.064-.173-.091-.255h0l-.045-.155c-.023-.086-.041-.173-.059-.246a.236.236,0,0,1,0-.05v-.045c-.136-.614-.3-1.819,0-2.114a3.382,3.382,0,0,1,2.428-.523h.141a4.5,4.5,0,0,1,.6.082l.232.05a4.292,4.292,0,0,1,.591.173l.177.068.2.086h.041l.068.041a1.128,1.128,0,0,1,.4.309,3.163,3.163,0,0,1,.014,1.9Zm7.7-.559a2.809,2.809,0,0,1-1.246,2.037,2.274,2.274,0,0,1-.982.255,2.06,2.06,0,0,1-1.973-.855h0a.377.377,0,0,1-.036-.055l-.041-.064v-.036l-.055-.1a.862.862,0,0,1-.05-.114l-.027-.055a.292.292,0,0,1,0-.032.137.137,0,0,1,0-.045V99.2a3.363,3.363,0,0,1-.127-.455,3.069,3.069,0,0,1,.036-1.878,3.708,3.708,0,0,1,2.16-1c.218-.036.418-.059.609-.073h.623a2.817,2.817,0,0,1,.3.041h.2l.086.027.159.123h.027a1.2,1.2,0,0,1,.323.2c.3.255.146,1.491.018,2.114Z" transform="translate(-220.469 -83.044)" fill="#263238"/>
        <path id="Trazado_161896" data-name="Trazado 161896" d="M275.5,71.369a.341.341,0,0,0-.268-.209.455.455,0,0,0-.25.109,11.737,11.737,0,0,1-1.619,1.123,5.912,5.912,0,0,0,.027-2.224c-.082-.455-.209-1.5-.764-1.61-.336-.064-.623.214-.873.455-2.237,2.092-5.157,1.123-7.853,1.21-2.274.073-4.975.987-5.993,3.183-.455,1-.546,2.055.377,2.728a6.321,6.321,0,0,0,2.728,1.023c4.493.782,10.913,2.628,14.246-1.555a3.329,3.329,0,0,0,.7-2.205,4.547,4.547,0,0,0-.455-2.005Z" transform="translate(-215.263 -68.55)" fill="#263238"/>
        <path id="Trazado_161897" data-name="Trazado 161897" d="M271.008,120.22a31.119,31.119,0,0,1-5.516-1.564,4.693,4.693,0,0,1-1.983-1.946,6.489,6.489,0,0,0,1.128,2.3c1.05,1.332,6.366,2.3,6.366,2.3Z" transform="translate(-218.499 -94.811)" fill="#f28f8f"/>
        <path id="Trazado_161898" data-name="Trazado 161898" d="M275.958,100.45a.819.819,0,1,1-.818-.85.832.832,0,0,1,.818.85Z" transform="translate(-224.394 -85.481)" fill="#263238"/>
        <path id="Trazado_161899" data-name="Trazado 161899" d="M274.947,94l-1.819.818a1.05,1.05,0,0,1,.518-1.364.978.978,0,0,1,1.3.546Z" transform="translate(-223.697 -82.085)" fill="#263238"/>
        <path id="Trazado_161900" data-name="Trazado 161900" d="M278.489,113.48l2.61.973a1.364,1.364,0,0,1-1.769.869A1.455,1.455,0,0,1,278.489,113.48Z" transform="translate(-226.621 -93.049)" fill="#b16668"/>
        <path id="Trazado_161901" data-name="Trazado 161901" d="M279.366,116.14a1.319,1.319,0,0,0,.723.055,1.269,1.269,0,0,0-1.264-1.214,1.159,1.159,0,0,0-.355.059,1.414,1.414,0,0,0,.9,1.1Z" transform="translate(-226.656 -93.867)" fill="#f28f8f"/>
        <path id="Trazado_161902" data-name="Trazado 161902" d="M292.082,94.238l-1.892-.7a.964.964,0,0,1,1.278-.623A1.06,1.06,0,0,1,292.082,94.238Z" transform="translate(-233.047 -81.801)" fill="#263238"/>
        <path id="Trazado_161903" data-name="Trazado 161903" d="M290.828,99.85a.818.818,0,1,1-.814-.85A.832.832,0,0,1,290.828,99.85Z" transform="translate(-232.502 -85.154)" fill="#263238"/>
        <path id="Trazado_161904" data-name="Trazado 161904" d="M283.88,100.337l.268,4.67,2.569-.909-2.56-3.838A.618.618,0,0,0,283.88,100.337Z" transform="translate(-229.606 -85.841)" fill="#f28f8f"/>
        <path id="Trazado_161905" data-name="Trazado 161905" d="M261.219,96.55l-5.989,1.364a2.61,2.61,0,0,1,1.364.909l4.615-.873Z" transform="translate(-213.984 -83.818)" fill="#263238"/>
        <path id="Trazado_161906" data-name="Trazado 161906" d="M259.623,124.55c-.518.041-.75.118-1.173.964-.482.959-.909,1.819-.909,1.819a5.793,5.793,0,0,0,1.755,3.729c1.737,1.76,5.588,2.956,5.588,2.956s.318-1.783.564-2.515c.541-1.6,1.364-.327,1.364-.327a1.869,1.869,0,0,0-.455-.95c-.346-.3-2.551-.5-4.306-1.6a6.407,6.407,0,0,1-2.415-3.06Z" transform="translate(-215.243 -99.086)" fill="#455a64"/>
        <path id="Trazado_161907" data-name="Trazado 161907" d="M277.907,132.021a1.819,1.819,0,0,1,.455-1.414,3.438,3.438,0,0,0,.5-2.142V126.06a1.46,1.46,0,0,1,1.414,1.11,9.14,9.14,0,0,1,.746,4.679,3.971,3.971,0,0,1-1.1,2.469s-.455-1.569-.746-2.274S278.339,131.112,277.907,132.021Z" transform="translate(-226.343 -99.909)" fill="#455a64"/>
        <path id="Trazado_161908" data-name="Trazado 161908" d="M201.19,132a7.853,7.853,0,0,0-7.1,5.543c-1.032,3-3.574,10.677-5.116,15.42-2.7-1.3-9.231-4.461-10.531-5.611a24.1,24.1,0,0,1-3.329-3.57,16.057,16.057,0,0,1-1.592-2.4,15.5,15.5,0,0,1-1.282-3.283c-.346-1-1.637.055-1.619,1.851a9.149,9.149,0,0,0,.573,2.874c-.65-.064-2.537-.255-2.828-.277-1.014-.082-4.133-.027-3.824,1.623.073.368.323.709.286,1.087a2.364,2.364,0,0,1-.15.514,1.892,1.892,0,0,0,.455,1.878,1.514,1.514,0,0,1,.455.768,2.356,2.356,0,0,0,.3.909,3.743,3.743,0,0,0,.587.514,3.01,3.01,0,0,1,.577.828,3.637,3.637,0,0,0,.555.85c.555.577,1.451.427,2.174.418.969,0,2.192-.241,3.238-.136,1.914.455,8.9,6.612,14.878,9.863,2.046,1.114,3.72,1.669,5,.982h0c1.1-.432,1.632-1.632,2.333-3.347,1.587-4.02,5.693-14.737,5.693-14.737C202.481,140.121,202.359,134.178,201.19,132Z" transform="translate(-164.523 -103.148)" fill="#ffa8a7"/>
        <path id="Trazado_161909" data-name="Trazado 161909" d="M174.667,157.05c.964,0,1.4.482,1.8,1.746.232.75.909,2.055,1.905,2.333a2,2,0,0,1-1.2-.1c-.514-.264-.632-.273-.768.023a1.514,1.514,0,0,1-.455.509,1.014,1.014,0,0,1,.477,1.119c-.177.778-1.914,1.364-3.588,1.11,0,0,2.56-.05,2.851-.969s-1.246-1.432-2.246-1.364c0,0,2.419-.214,2.515-1.064s-1.014-1.1-2.446-.991c0,0,1.964-.286,2.074-1.019C175.7,157.482,174.994,157.218,174.667,157.05Z" transform="translate(-169.053 -116.807)" fill="#f28f8f"/>
        <path id="Trazado_161910" data-name="Trazado 161910" d="M218.476,131.8a8.344,8.344,0,0,0-5.3,1.41c-1.56,1.132-2.274,1.787-4.324,8.035s-3.729,11.282-3.729,11.282l-7.476-3.483a15.005,15.005,0,0,1-3.056,6.007s4.929,3.892,7.462,5.488,5.4,3.033,6.739,2.587,1.819-.759,3.61-5.307,5.484-13.946,5.484-13.946S220.036,137.271,218.476,131.8Z" transform="translate(-180.918 -103.035)" fill="#455a64"/>
        <path id="Trazado_161911" data-name="Trazado 161911" d="M197.4,169.4l-3.806-2.014a14.816,14.816,0,0,1-3.215,5.675l4,3.006A9.2,9.2,0,0,0,197.4,169.4Z" transform="translate(-178.622 -122.446)" fill="#37474f"/>
        <path id="Trazado_161912" data-name="Trazado 161912" d="M217.75,175.88a10.339,10.339,0,0,1,3.97,3.67,7.7,7.7,0,0,0-3.551-4.92Z" transform="translate(-193.547 -126.393)" fill="#37474f"/>
      </g>
    </g>
  </g>
</svg>
