<svg xmlns="http://www.w3.org/2000/svg" width="295" height="180" viewBox="0 0 295 180">
  <g id="img8" transform="translate(-390 -4807)">
    <rect id="Rectángulo_34347" data-name="Rectángulo 34347" width="295" height="180" rx="22" transform="translate(390 4807)" fill="#36a3f7" opacity="0.2"/>
    <g id="Logistics-pana" transform="translate(360.07 4755)">
      <g id="freepik--background-complete--inject-12" transform="translate(52.301 64)">
        <rect id="Rectángulo_34460" data-name="Rectángulo 34460" width="53.688" height="41.408" transform="translate(2.212 103.824)" fill="#ebebeb"/>
        <path id="Trazado_162169" data-name="Trazado 162169" d="M159.41,358.918c-.061,0-.11-9.227-.11-20.612s.049-20.616.11-20.616.106,9.231.106,20.616S159.468,358.918,159.41,358.918Z" transform="translate(-116.96 -213.98)" fill="#e0e0e0"/>
        <rect id="Rectángulo_34461" data-name="Rectángulo 34461" width="4.117" height="4.652" transform="translate(47.233 135.805)" fill="#fafafa"/>
        <rect id="Rectángulo_34462" data-name="Rectángulo 34462" width="6.099" height="8.834" transform="translate(18.592 103.93)" fill="#e0e0e0"/>
        <rect id="Rectángulo_34463" data-name="Rectángulo 34463" width="6.099" height="8.834" transform="translate(18.592 136.271)" fill="#e0e0e0"/>
        <rect id="Rectángulo_34464" data-name="Rectángulo 34464" width="53.688" height="41.408" transform="translate(10.608 62.51)" fill="#ebebeb"/>
        <path id="Trazado_162170" data-name="Trazado 162170" d="M179.946,257.864c-.057,0-.106-9.227-.106-20.612s.049-20.612.106-20.612.106,9.227.106,20.612S180.008,257.864,179.946,257.864Z" transform="translate(-129.103 -154.24)" fill="#e0e0e0"/>
        <rect id="Rectángulo_34465" data-name="Rectángulo 34465" width="4.117" height="4.652" transform="translate(55.626 94.491)" fill="#fafafa"/>
        <rect id="Rectángulo_34466" data-name="Rectángulo 34466" width="6.099" height="8.834" transform="translate(26.985 62.617)" fill="#e0e0e0"/>
        <rect id="Rectángulo_34467" data-name="Rectángulo 34467" width="6.099" height="8.834" transform="translate(26.985 94.961)" fill="#e0e0e0"/>
        <rect id="Rectángulo_34468" data-name="Rectángulo 34468" width="43.17" height="33.293" transform="translate(17.436 29.324)" fill="#f5f5f5"/>
        <path id="Trazado_162171" data-name="Trazado 162171" d="M177.4,168.66c-.045,0-.086-7.424-.086-16.577s.041-16.573.086-16.573.086,7.42.086,16.573S177.445,168.66,177.4,168.66Z" transform="translate(-127.607 -106.276)" fill="#e0e0e0"/>
        <rect id="Rectángulo_34469" data-name="Rectángulo 34469" width="3.311" height="3.741" transform="translate(53.635 55.037)" fill="#fafafa"/>
        <rect id="Rectángulo_34470" data-name="Rectángulo 34470" width="4.902" height="7.105" transform="translate(30.607 29.409)" fill="#e0e0e0"/>
        <rect id="Rectángulo_34471" data-name="Rectángulo 34471" width="4.902" height="7.105" transform="translate(30.607 55.414)" fill="#e0e0e0"/>
        <rect id="Rectángulo_34472" data-name="Rectángulo 34472" width="40.549" height="31.274" transform="translate(212.758 52.437)" fill="#f5f5f5"/>
        <path id="Trazado_162172" data-name="Trazado 162172" d="M650.392,223.209c-.045,0-.082-6.974-.082-15.571s.037-15.567.082-15.567.078,6.97.078,15.567S650.437,223.209,650.392,223.209Z" transform="translate(-407.243 -139.714)" fill="#e0e0e0"/>
        <rect id="Rectángulo_34473" data-name="Rectángulo 34473" width="3.107" height="3.516" transform="translate(246.759 76.594)" fill="#fafafa"/>
        <rect id="Rectángulo_34474" data-name="Rectángulo 34474" width="4.607" height="6.672" transform="translate(225.129 52.519)" fill="#e0e0e0"/>
        <rect id="Rectángulo_34475" data-name="Rectángulo 34475" width="4.607" height="6.672" transform="translate(225.129 76.949)" fill="#e0e0e0"/>
        <rect id="Rectángulo_34476" data-name="Rectángulo 34476" width="46.735" height="36.048" transform="translate(220.162 119.669)" fill="#ebebeb"/>
        <path id="Trazado_162173" data-name="Trazado 162173" d="M679.87,392.379c-.049,0-.09-8.033-.09-17.942s.041-17.947.09-17.947.094,8.033.094,17.947S679.907,392.379,679.87,392.379Z" transform="translate(-424.665 -236.919)" fill="#e0e0e0"/>
        <rect id="Rectángulo_34477" data-name="Rectángulo 34477" width="3.581" height="4.051" transform="translate(259.354 147.509)" fill="#fafafa"/>
        <rect id="Rectángulo_34478" data-name="Rectángulo 34478" width="5.31" height="7.69" transform="translate(234.421 119.759)" fill="#e0e0e0"/>
        <rect id="Rectángulo_34479" data-name="Rectángulo 34479" width="5.31" height="7.69" transform="translate(234.421 147.918)" fill="#e0e0e0"/>
        <rect id="Rectángulo_34480" data-name="Rectángulo 34480" width="46.735" height="36.048" transform="translate(213.707 83.715)" fill="#ebebeb"/>
        <path id="Trazado_162174" data-name="Trazado 162174" d="M664.034,304.429c-.053,0-.094-8.033-.094-17.942s.041-17.947.094-17.947.094,8.033.094,17.947S664.087,304.429,664.034,304.429Z" transform="translate(-415.301 -184.923)" fill="#e0e0e0"/>
        <rect id="Rectángulo_34481" data-name="Rectángulo 34481" width="3.581" height="4.051" transform="translate(252.899 111.555)" fill="#fafafa"/>
        <rect id="Rectángulo_34482" data-name="Rectángulo 34482" width="5.31" height="7.69" transform="translate(227.966 83.805)" fill="#e0e0e0"/>
        <rect id="Rectángulo_34483" data-name="Rectángulo 34483" width="5.31" height="7.69" transform="translate(227.966 111.963)" fill="#e0e0e0"/>
        <rect id="Rectángulo_34484" data-name="Rectángulo 34484" width="40.549" height="31.274" transform="translate(133.7 52.94)" fill="#f5f5f5"/>
        <path id="Trazado_162175" data-name="Trazado 162175" d="M457.008,224.439c-.045,0-.078-6.974-.078-15.571s.033-15.567.078-15.567.082,6.95.082,15.567S457.053,224.439,457.008,224.439Z" transform="translate(-292.917 -140.442)" fill="#e0e0e0"/>
        <rect id="Rectángulo_34485" data-name="Rectángulo 34485" width="3.107" height="3.516" transform="translate(167.704 77.097)" fill="#fafafa"/>
        <rect id="Rectángulo_34486" data-name="Rectángulo 34486" width="4.607" height="6.672" transform="translate(146.07 53.022)" fill="#e0e0e0"/>
        <rect id="Rectángulo_34487" data-name="Rectángulo 34487" width="4.607" height="6.672" transform="translate(146.07 77.452)" fill="#e0e0e0"/>
        <rect id="Rectángulo_34488" data-name="Rectángulo 34488" width="40.549" height="31.274" transform="translate(137.297 21.748)" fill="#ebebeb"/>
        <path id="Trazado_162176" data-name="Trazado 162176" d="M465.8,148.129c-.045,0-.082-6.95-.082-15.567s.037-15.571.082-15.571.082,6.95.082,15.571S465.834,148.129,465.8,148.129Z" transform="translate(-298.114 -95.327)" fill="#e0e0e0"/>
        <rect id="Rectángulo_34489" data-name="Rectángulo 34489" width="3.107" height="3.516" transform="translate(171.302 45.905)" fill="#fafafa"/>
        <rect id="Rectángulo_34490" data-name="Rectángulo 34490" width="4.607" height="6.672" transform="translate(149.668 21.826)" fill="#e0e0e0"/>
        <rect id="Rectángulo_34491" data-name="Rectángulo 34491" width="4.607" height="6.672" transform="translate(149.668 46.256)" fill="#e0e0e0"/>
        <rect id="Rectángulo_34492" data-name="Rectángulo 34492" width="29.013" height="22.378" transform="translate(147.313 0.041)" fill="#ebebeb"/>
        <path id="Trazado_162177" data-name="Trazado 162177" d="M469.2,86.264c-.033,0-.057-4.987-.057-11.14S469.165,64,469.2,64s.057,4.987.057,11.14S469.226,86.264,469.2,86.264Z" transform="translate(-300.136 -64)" fill="#e0e0e0"/>
        <rect id="Rectángulo_34493" data-name="Rectángulo 34493" width="2.224" height="2.514" transform="translate(171.645 17.329)" fill="#fafafa"/>
        <rect id="Rectángulo_34494" data-name="Rectángulo 34494" width="3.295" height="4.775" transform="translate(156.168 0.102)" fill="#e0e0e0"/>
        <rect id="Rectángulo_34495" data-name="Rectángulo 34495" width="3.295" height="4.775" transform="translate(156.168 17.579)" fill="#e0e0e0"/>
        <rect id="Rectángulo_34496" data-name="Rectángulo 34496" width="46.735" height="36.048" transform="translate(141.107 120.172)" fill="#ebebeb"/>
        <path id="Trazado_162178" data-name="Trazado 162178" d="M486.444,393.609c-.053,0-.094-8.033-.094-17.942s.041-17.947.094-17.947.09,8.033.09,17.947S486.493,393.609,486.444,393.609Z" transform="translate(-310.31 -237.646)" fill="#e0e0e0"/>
        <rect id="Rectángulo_34497" data-name="Rectángulo 34497" width="3.581" height="4.051" transform="translate(180.295 148.012)" fill="#fafafa"/>
        <rect id="Rectángulo_34498" data-name="Rectángulo 34498" width="5.31" height="7.69" transform="translate(155.362 120.262)" fill="#e0e0e0"/>
        <rect id="Rectángulo_34499" data-name="Rectángulo 34499" width="5.31" height="7.69" transform="translate(155.362 148.421)" fill="#e0e0e0"/>
        <rect id="Rectángulo_34500" data-name="Rectángulo 34500" width="46.735" height="36.048" transform="translate(134.648 84.218)" fill="#ebebeb"/>
        <path id="Trazado_162179" data-name="Trazado 162179" d="M470.654,305.659c-.053,0-.094-8.033-.094-17.942s.041-17.947.094-17.947.09,8.033.09,17.947S470.7,305.659,470.654,305.659Z" transform="translate(-300.975 -185.65)" fill="#e0e0e0"/>
        <rect id="Rectángulo_34501" data-name="Rectángulo 34501" width="3.581" height="4.051" transform="translate(173.84 112.058)" fill="#fafafa"/>
        <rect id="Rectángulo_34502" data-name="Rectángulo 34502" width="5.31" height="7.69" transform="translate(148.907 84.308)" fill="#e0e0e0"/>
        <rect id="Rectángulo_34503" data-name="Rectángulo 34503" width="5.31" height="7.69" transform="translate(148.907 112.466)" fill="#e0e0e0"/>
        <path id="Trazado_162180" data-name="Trazado 162180" d="M135.476,423.107V419.26H56.781a1.051,1.051,0,0,0-1.051,1.051v1.746a1.051,1.051,0,0,0,1.051,1.051h2.191v1.77a1.034,1.034,0,0,1-1.034,1.034H56.764a1.034,1.034,0,0,0-1.034,1.01V428.7a1.034,1.034,0,0,0,1.034,1.034h78.711v-3.847H117.132V423.1Zm-57.642,0h4.718v2.788H77.834Zm-3.144,2.788H69.977v-2.788H74.69Zm10.993-2.788H90.4v2.788H85.683Zm7.857,0h4.718v2.788H93.553Zm7.861,0h4.722v2.788h-4.709Zm-39.3,0h4.73v2.788H62.116Zm51.873,2.788h-4.705v-2.788h4.718Z" transform="translate(-55.73 -274.028)" fill="#e0e0e0"/>
      </g>
      <g id="freepik--Forklift--inject-12" transform="translate(79.004 80.577)">
        <rect id="Rectángulo_34504" data-name="Rectángulo 34504" width="42.589" height="32.852" transform="translate(7.8 52.307)" fill="#7b669f"/>
        <rect id="Rectángulo_34505" data-name="Rectángulo 34505" width="42.589" height="32.852" transform="translate(7.8 52.307)" opacity="0.3"/>
        <path id="Trazado_162181" data-name="Trazado 162181" d="M218.11,264.994c-.037,0-.07-7.322-.07-16.352s.033-16.352.07-16.352.069,7.322.069,16.352S218.146,264.994,218.11,264.994Z" transform="translate(-178.39 -180.069)" fill="#263238"/>
        <rect id="Rectángulo_34506" data-name="Rectángulo 34506" width="3.266" height="3.692" transform="translate(43.513 77.681)" fill="#f5f5f5"/>
        <rect id="Rectángulo_34507" data-name="Rectángulo 34507" width="4.836" height="7.011" transform="translate(20.792 52.392)" fill="#263238"/>
        <rect id="Rectángulo_34508" data-name="Rectángulo 34508" width="4.836" height="7.011" transform="translate(20.792 78.049)" fill="#263238"/>
        <path id="Trazado_162182" data-name="Trazado 162182" d="M182.363,232.465h-1.656l-4.525.02H146.327l-4.521-.025h0l4.521-.02h29.855l4.525.02h1.545Z" transform="translate(-132.342 -180.158)" fill="#263238"/>
        <rect id="Rectángulo_34509" data-name="Rectángulo 34509" width="42.589" height="32.852" transform="translate(43.256 52.266)" fill="#7b669f"/>
        <path id="Trazado_162183" data-name="Trazado 162183" d="M304.839,264.894c-.037,0-.069-7.322-.069-16.352s.033-16.352.069-16.352.07,7.318.07,16.352S304.864,264.894,304.839,264.894Z" transform="translate(-229.664 -180.01)" fill="#263238"/>
        <rect id="Rectángulo_34510" data-name="Rectángulo 34510" width="3.266" height="3.692" transform="translate(78.969 77.64)" fill="#f5f5f5"/>
        <rect id="Rectángulo_34511" data-name="Rectángulo 34511" width="4.836" height="7.011" transform="translate(56.247 52.352)" fill="#fff" opacity="0.5"/>
        <rect id="Rectángulo_34512" data-name="Rectángulo 34512" width="4.836" height="7.011" transform="translate(56.247 78.008)" fill="#fff" opacity="0.5"/>
        <path id="Trazado_162184" data-name="Trazado 162184" d="M269.083,232.335h-1.656l-4.521.02H233.051l-4.525-.02h0l4.525-.025,14.93-.02,14.925.02,4.521.025h1.656Z" transform="translate(-183.61 -180.069)" fill="#263238"/>
        <rect id="Rectángulo_34513" data-name="Rectángulo 34513" width="42.589" height="32.852" transform="translate(45.647 19.414)" fill="#7b669f"/>
        <path id="Trazado_162185" data-name="Trazado 162185" d="M310.69,184.534c-.041,0-.07-7.322-.07-16.352s.029-16.352.07-16.352.07,7.318.07,16.352S310.726,184.534,310.69,184.534Z" transform="translate(-233.123 -132.502)" fill="#263238"/>
        <rect id="Rectángulo_34514" data-name="Rectángulo 34514" width="3.266" height="3.692" transform="translate(81.36 44.789)" fill="#f5f5f5"/>
        <rect id="Rectángulo_34515" data-name="Rectángulo 34515" width="4.836" height="7.011" transform="translate(58.639 19.5)" fill="#263238"/>
        <rect id="Rectángulo_34516" data-name="Rectángulo 34516" width="4.836" height="7.011" transform="translate(58.639 45.157)" fill="#263238"/>
        <path id="Trazado_162186" data-name="Trazado 162186" d="M274.953,151.965a.31.31,0,0,1-.106,0h-6.071l-14.925.02-14.93-.02h-6.075a.31.31,0,0,1-.106,0H234.4l4.525-.025h29.855l4.521.025h1.656Z" transform="translate(-187.081 -132.567)" fill="#263238"/>
        <path id="Trazado_162187" data-name="Trazado 162187" d="M210.426,396.767V392.92H131.735a1.055,1.055,0,0,0-1.055,1.051v1.746a1.055,1.055,0,0,0,1.055,1.051h2.191v1.75a1.038,1.038,0,0,1-1.038,1.038h-1.169a1.038,1.038,0,0,0-1.038,1.034v1.766a1.038,1.038,0,0,0,1.038,1.034h78.707v-3.847H192.083v-2.788Zm-57.641,0H157.5v2.788h-4.709Zm-3.144,2.788h-4.714v-2.788h4.718Zm11.013-2.788h4.718v2.788h-4.718Zm7.861,0h4.714v2.788h-4.722Zm7.857,0h4.722v2.788h-4.73Zm-39.294,0h4.714v2.788H137.07Zm51.869,2.788h-4.726v-2.788h4.718Z" transform="translate(-126.743 -275.033)" fill="#455a64"/>
        <path id="Trazado_162188" data-name="Trazado 162188" d="M428.8,218.645a1.386,1.386,0,0,0-.041-1.979L415.481,204.12a1.431,1.431,0,0,0-1.958,0h0a1.431,1.431,0,0,0-.053,2.044l5.294,5.568-2.755,2.653-1.435-1.141-10.012,11.467-5.351-5.147-6.451,18.973,1.28,25.755h14.84l-1.038-30.607,9.954-14.177.078-3.373,2.862-2.931,6.169,5.511a1.39,1.39,0,0,0,1.921-.07Z" transform="translate(-281.684 -163.186)" fill="#263238"/>
        <path id="Trazado_162189" data-name="Trazado 162189" d="M382.846,211.745c-.057,0-.106-23.5-.106-52.478s.049-52.486.106-52.486.106,23.494.106,52.486S382.891,211.745,382.846,211.745Z" transform="translate(-275.76 -105.868)" fill="#263238"/>
        <path id="Trazado_162190" data-name="Trazado 162190" d="M464.25,248.071l9.026-25.08-3.393-1.374v-4.844l24.68-.38a2.4,2.4,0,0,0,2.338-2.13l3.63-32.222a2.952,2.952,0,0,1,2.931-2.62h0a2.947,2.947,0,0,1,2.947,3.07l-1.382,33.2,12.886.069.437,6.054-38.109,1.492-9.938,24.4Z" transform="translate(-323.948 -148.813)" fill="#455a64"/>
        <path id="Trazado_162191" data-name="Trazado 162191" d="M431.743,306.328l-32.083.253v2.138l13.29-.172,21.168-.164,51.321-7.244L479.622,279H444.874a3.7,3.7,0,0,0-3.074,1.562Z" transform="translate(-285.763 -207.683)" fill="#263238"/>
        <path id="Trazado_162192" data-name="Trazado 162192" d="M406.832,114.843l-23.3,74.374.164,20.69h7.387V189.348l19.108-74.3,51.771-.29,9.9,77.4H477.7L465.655,115.3a4.391,4.391,0,0,0-4.313-3.577H411.034A4.387,4.387,0,0,0,406.832,114.843Z" transform="translate(-276.227 -108.789)" fill="#455a64"/>
        <path id="Trazado_162193" data-name="Trazado 162193" d="M373.24,349.209V329.341l4.35-4.027,40.88-.527,7.359-5.985a8.392,8.392,0,0,1,4.82-1.864l7.874-.446s3.532-2.432,6.95-4.844a25.628,25.628,0,0,1,14.807-4.718h22.66a3.1,3.1,0,0,1,3.1,3.1v39.176Z" transform="translate(-270.143 -224.196)" fill="#7b669f"/>
        <rect id="Rectángulo_34517" data-name="Rectángulo 34517" width="113.194" height="6.533" transform="translate(102.696 118.611)" fill="#263238"/>
        <path id="Trazado_162194" data-name="Trazado 162194" d="M386.588,390.227a14,14,0,1,0,14.2-13.789A14,14,0,0,0,386.588,390.227Z" transform="translate(-278.034 -265.288)" fill="#263238"/>
        <path id="Trazado_162195" data-name="Trazado 162195" d="M386.6,410.09v.033a14,14,0,1,0,27.991.409s0-.025,0-.037Z" transform="translate(-278.04 -285.184)" fill="#263238"/>
        <path id="Trazado_162196" data-name="Trazado 162196" d="M396.789,396.313a9.811,9.811,0,1,0,2.973-6.911,9.811,9.811,0,0,0-2.973,6.911Z" transform="translate(-284.065 -271.313)" fill="#fafafa"/>
        <path id="Trazado_162197" data-name="Trazado 162197" d="M406.757,386.628a9.811,9.811,0,0,0-9.967,9.685l19.651.282a9.811,9.811,0,0,0-9.685-9.967Z" transform="translate(-284.066 -271.312)" fill="#e0e0e0"/>
        <path id="Trazado_162198" data-name="Trazado 162198" d="M406.179,401.911A5.985,5.985,0,1,0,412.238,396,5.985,5.985,0,0,0,406.179,401.911Z" transform="translate(-289.617 -276.853)" fill="#263238"/>
        <path id="Trazado_162199" data-name="Trazado 162199" d="M554.128,390.227a14,14,0,1,0,14.2-13.789A14,14,0,0,0,554.128,390.227Z" transform="translate(-377.082 -265.288)" fill="#263238"/>
        <path id="Trazado_162200" data-name="Trazado 162200" d="M554.138,410.09v.033a14,14,0,1,0,27.992.409s0-.025,0-.037Z" transform="translate(-377.088 -285.184)" fill="#263238"/>
        <path id="Trazado_162201" data-name="Trazado 162201" d="M564.329,396.313A9.811,9.811,0,1,0,567.3,389.4a9.811,9.811,0,0,0-2.973,6.911Z" transform="translate(-383.114 -271.313)" fill="#fafafa"/>
        <path id="Trazado_162202" data-name="Trazado 162202" d="M574.3,386.628a9.811,9.811,0,0,0-9.967,9.685l19.651.282a9.811,9.811,0,0,0-9.685-9.967Z" transform="translate(-383.115 -271.312)" fill="#e0e0e0"/>
        <path id="Trazado_162203" data-name="Trazado 162203" d="M573.729,401.91a5.985,5.985,0,1,0,1.809-4.215A5.985,5.985,0,0,0,573.729,401.91Z" transform="translate(-388.672 -276.853)" fill="#263238"/>
        <path id="Trazado_162204" data-name="Trazado 162204" d="M580.363,370.605a.816.816,0,0,1-.069-.1l-.18-.294-.286-.482a7.294,7.294,0,0,0-.409-.642,19.865,19.865,0,0,0-3.156-3.679c-.36-.364-.8-.679-1.226-1.042s-.92-.675-1.41-1.022a11.446,11.446,0,0,0-1.611-.948c-.282-.147-.568-.307-.863-.45l-.92-.409a20.144,20.144,0,0,0-4.055-1.226,18.934,18.934,0,0,0-12.939,2.052l-.875.491c-.282.172-.548.36-.818.531-.552.335-1.026.744-1.513,1.1a12.452,12.452,0,0,0-1.308,1.149,14.751,14.751,0,0,0-1.12,1.157,19.854,19.854,0,0,0-2.792,3.965,6.251,6.251,0,0,0-.343.679c-.094.2-.176.364-.241.507l-.151.311a.65.65,0,0,1-.057.1.41.41,0,0,1,.037-.11l.131-.319.221-.515a6.468,6.468,0,0,1,.331-.691,19.023,19.023,0,0,1,2.755-4.027c.323-.409.728-.769,1.116-1.177s.854-.769,1.312-1.169a11.62,11.62,0,0,1,1.517-1.116c.27-.176.54-.364.818-.54l.879-.5a20.466,20.466,0,0,1,3.953-1.635,19.024,19.024,0,0,1,13.213.83l.924.409c.3.143.585.307.871.458.585.286,1.1.654,1.635.965a10.647,10.647,0,0,1,1.414,1.042,14.571,14.571,0,0,1,1.226,1.059,19.121,19.121,0,0,1,3.123,3.749,6.988,6.988,0,0,1,.409.654l.266.495c.069.127.123.225.164.307S580.367,370.6,580.363,370.605Z" transform="translate(-371.108 -255.425)" fill="#263238"/>
        <path id="Trazado_162205" data-name="Trazado 162205" d="M412.7,373.843a.475.475,0,0,1-.057-.11c-.033-.086-.078-.2-.135-.335l-.221-.544c-.1-.213-.208-.458-.331-.732a22.234,22.234,0,0,0-2.645-4.346,17.37,17.37,0,0,0-5.7-4.853,16.761,16.761,0,0,0-4.211-1.4,21.312,21.312,0,0,0-4.754-.433,20.987,20.987,0,0,0-4.734.609,17.579,17.579,0,0,0-4.137,1.615,20.689,20.689,0,0,0-5.883,4.673,23.381,23.381,0,0,0-2.862,4.194c-.286.531-.5.948-.638,1.226-.065.135-.123.241-.164.323a.454.454,0,0,1-.061.106.376.376,0,0,1,.041-.114l.147-.331c.123-.294.327-.715.6-1.255a22.308,22.308,0,0,1,2.821-4.26,20.583,20.583,0,0,1,5.9-4.746,17.77,17.77,0,0,1,4.178-1.635,21.22,21.22,0,0,1,4.783-.617,21.506,21.506,0,0,1,4.8.458,16.877,16.877,0,0,1,4.256,1.431,17.334,17.334,0,0,1,5.723,4.938,21.456,21.456,0,0,1,2.6,4.4l.311.74c.078.217.147.409.2.552s.09.253.119.343A.463.463,0,0,1,412.7,373.843Z" transform="translate(-271.876 -256.086)" fill="#263238"/>
        <rect id="Rectángulo_34518" data-name="Rectángulo 34518" width="62.048" height="7.256" transform="translate(41.019 117.887)" fill="#263238"/>
        <path id="Trazado_162206" data-name="Trazado 162206" d="M363.834,397.837a1.807,1.807,0,1,1-1.807-1.807A1.807,1.807,0,0,1,363.834,397.837Z" transform="translate(-262.446 -276.872)" fill="#455a64"/>
        <rect id="Rectángulo_34519" data-name="Rectángulo 34519" width="5.18" height="102.888" transform="translate(97.075 2.359)" fill="#455a64"/>
        <path id="Trazado_162207" data-name="Trazado 162207" d="M494.96,376.186c0,.057-8.732.106-19.5.106s-19.5-.049-19.5-.106,8.728-.106,19.5-.106S494.96,376.129,494.96,376.186Z" transform="translate(-319.047 -265.077)" fill="#263238"/>
        <path id="Trazado_162208" data-name="Trazado 162208" d="M531.766,348.041c-.061,0-.106-3.8-.106-8.483s.045-8.479.106-8.479.106,3.794.106,8.479S531.823,348.041,531.766,348.041Z" transform="translate(-363.801 -238.473)" fill="#263238"/>
        <rect id="Rectángulo_34520" data-name="Rectángulo 34520" width="10.572" height="4.718" transform="translate(96.519)" fill="#263238"/>
        <rect id="Rectángulo_34521" data-name="Rectángulo 34521" width="6.807" height="13.58" transform="translate(96.261 104.397)" fill="#263238"/>
        <rect id="Rectángulo_34522" data-name="Rectángulo 34522" width="42.589" height="32.852" transform="translate(44.674 85.13)" fill="#7b669f"/>
        <rect id="Rectángulo_34523" data-name="Rectángulo 34523" width="42.589" height="32.852" transform="translate(44.674 85.13)" opacity="0.3"/>
        <path id="Trazado_162209" data-name="Trazado 162209" d="M308.31,345.284c-.037,0-.07-7.322-.07-16.352s.033-16.352.07-16.352.07,7.322.07,16.352S308.346,345.284,308.31,345.284Z" transform="translate(-231.716 -227.536)" fill="#263238"/>
        <rect id="Rectángulo_34524" data-name="Rectángulo 34524" width="3.266" height="3.692" transform="translate(80.387 110.504)" fill="#f5f5f5"/>
        <rect id="Rectángulo_34525" data-name="Rectángulo 34525" width="4.836" height="7.011" transform="translate(57.666 85.215)" fill="#263238"/>
        <rect id="Rectángulo_34526" data-name="Rectángulo 34526" width="4.836" height="7.011" transform="translate(57.666 110.872)" fill="#263238"/>
        <path id="Trazado_162210" data-name="Trazado 162210" d="M272.571,312.79h-1.656l-4.525.02-14.913.065h-14.93l-4.521-.02H230.37a.543.543,0,0,1,.106,0h1.549l4.521-.02,14.93-.02,14.926.02,4.525.02h1.549A.545.545,0,0,1,272.571,312.79Z" transform="translate(-185.679 -227.66)" fill="#263238"/>
        <rect id="Rectángulo_34527" data-name="Rectángulo 34527" width="42.589" height="32.852" transform="translate(0 85.13)" fill="#7b669f"/>
        <path id="Trazado_162211" data-name="Trazado 162211" d="M199.039,345.284c-.041,0-.069-7.322-.069-16.352s.029-16.352.069-16.352.065,7.322.065,16.352S199.076,345.284,199.039,345.284Z" transform="translate(-167.116 -227.536)" fill="#263238"/>
        <rect id="Rectángulo_34528" data-name="Rectángulo 34528" width="3.266" height="3.692" transform="translate(35.717 110.504)" fill="#f5f5f5"/>
        <rect id="Rectángulo_34529" data-name="Rectángulo 34529" width="4.836" height="7.011" transform="translate(12.996 85.215)" fill="#fff" opacity="0.5"/>
        <rect id="Rectángulo_34530" data-name="Rectángulo 34530" width="4.836" height="7.011" transform="translate(12.996 110.872)" fill="#fff" opacity="0.5"/>
        <path id="Trazado_162212" data-name="Trazado 162212" d="M163.283,312.731h-1.656l-4.521.02H127.251l-4.525-.02H121.07a.623.623,0,0,1,.11,0h1.545l4.525-.02,14.93-.02,14.925.02,4.521.02h1.545A.57.57,0,0,1,163.283,312.731Z" transform="translate(-121.062 -227.601)" fill="#263238"/>
        <path id="Trazado_162213" data-name="Trazado 162213" d="M653.52,334.63a5.4,5.4,0,0,1,4,5.02,5.18,5.18,0,0,1-4,4.832" transform="translate(-435.844 -240.572)" fill="#7b669f"/>
        <g id="Grupo_102713" data-name="Grupo 102713" transform="translate(217.676 94.058)" opacity="0.6">
          <path id="Trazado_162214" data-name="Trazado 162214" d="M653.52,334.63a5.4,5.4,0,0,1,4,5.02,5.18,5.18,0,0,1-4,4.832" transform="translate(-653.52 -334.63)" fill="#fff"/>
        </g>
        <rect id="Rectángulo_34531" data-name="Rectángulo 34531" width="1.876" height="12.432" transform="translate(215.89 92.791)" fill="#7b669f"/>
        <rect id="Rectángulo_34532" data-name="Rectángulo 34532" width="1.876" height="12.432" transform="translate(215.89 92.791)" opacity="0.3"/>
      </g>
      <g id="freepik--Character--inject-12" transform="translate(207.031 90.474)">
        <path id="Trazado_162215" data-name="Trazado 162215" d="M434.684,202.679a1.19,1.19,0,0,1-.307-1.525c.315-.548.683-1.194.85-1.464a10.253,10.253,0,0,0,.56-.989,1.116,1.116,0,0,1,.859-.818,4.772,4.772,0,0,1,1.5.045l5.114,1.1,2.383,1.177-2.318,2.044-1.288-.409a4.967,4.967,0,0,1-2.42.45,10.755,10.755,0,0,0-2.723-.368l-.724.1.343.286a3.438,3.438,0,0,1,1.819.372.519.519,0,0,1-.253.948l-1.68.11a9.625,9.625,0,0,1-1.308-.744,4.737,4.737,0,0,0-.409-.323Z" transform="translate(-434.224 -169.602)" fill="#ffbe9d"/>
        <path id="Trazado_162216" data-name="Trazado 162216" d="M436.471,205a.736.736,0,0,1-.274.114,1.459,1.459,0,0,1-.818,0,1.03,1.03,0,0,1-.487-.339.863.863,0,0,1-.155-.679.621.621,0,0,1,.213-.343,1.181,1.181,0,0,1,.352-.176,5.568,5.568,0,0,1,.748-.192,11.812,11.812,0,0,1,1.459-.188c.225,0,.437-.025.642-.025h.278a2.532,2.532,0,0,0,.253-.049,10.779,10.779,0,0,1,1.059-.282,3.593,3.593,0,0,1-1.022.409,1.681,1.681,0,0,1-.266.065.683.683,0,0,1-.164,0h-.139c-.192,0-.409.025-.625.045a14.342,14.342,0,0,0-1.435.2,5.97,5.97,0,0,0-.719.18c-.237.07-.409.176-.441.368a.707.707,0,0,0,.106.531.94.94,0,0,0,.409.3,1.57,1.57,0,0,0,.76.07C436.36,205.007,436.471,204.978,436.471,205Z" transform="translate(-434.518 -172.556)" fill="#eb996e"/>
        <path id="Trazado_162217" data-name="Trazado 162217" d="M440.085,201.6c.057,0,.155.253.053.576s-.331.495-.368.45.086-.241.168-.511S440.024,201.608,440.085,201.6Z" transform="translate(-437.499 -171.823)" fill="#eb996e"/>
        <path id="Trazado_162218" data-name="Trazado 162218" d="M441.891,202.39c.057,0,.074.2-.069.409s-.335.221-.356.164.086-.155.188-.294S441.83,202.381,441.891,202.39Z" transform="translate(-438.504 -172.289)" fill="#eb996e"/>
        <path id="Trazado_162219" data-name="Trazado 162219" d="M468.768,199.581c.7-.294-4.039,4.583-4.039,4.583l-8.765-3.27-3.095,1.9,9.423,6.635a4.959,4.959,0,0,0,6.431-.613l5.564-6.43Z" transform="translate(-445.247 -170.622)" fill="#ffbe9d"/>
        <path id="Trazado_162220" data-name="Trazado 162220" d="M501.408,146.906c-1.226-.237-1.987-.613-2.02-1.083-.065-.973,3.021-1.97,6.9-2.236s7.064.315,7.134,1.284c.029.47-.67.944-1.84,1.341" transform="translate(-472.748 -137.487)" fill="#7b669f"/>
        <g id="Grupo_102714" data-name="Grupo 102714" transform="translate(27.552 6.341)" opacity="0.4">
          <path id="Trazado_162221" data-name="Trazado 162221" d="M503.411,147.268c-1.083-.2-1.791-.54-1.791-.957,0-1.165,2.678-1.75,6.112-1.983s6.267.278,6.324,1.141c.029.409-.593.818-1.635,1.186" transform="translate(-501.62 -144.272)"/>
        </g>
        <path id="Trazado_162222" data-name="Trazado 162222" d="M501.67,137.234s.724-4.19.8-4.4a5.867,5.867,0,0,1,3.9-2.8l2.322-.159s3.369.838,4.023,1.6,1.177,4.64,1.177,4.64l-6.606-.973-4.354,1.378Z" transform="translate(-474.098 -129.422)" fill="#7b669f"/>
        <path id="Trazado_162223" data-name="Trazado 162223" d="M513.021,128.858l-1,.065A1.635,1.635,0,0,0,511.7,130c0,.724.176,5.686.176,5.686l2.9-.327-.5-6.116,1,.155-.053-.348-.282-.29Z" transform="translate(-480.024 -128.76)" fill="#7b669f"/>
        <path id="Trazado_162224" data-name="Trazado 162224" d="M514.981,159.154l-7.113.155c-.09-.748-.025-5.429-.025-5.429a3.228,3.228,0,0,1-2.923-2.915c-.217-2.678-.168-8.058-.168-8.058l.029-.237c3.013-1.541,6.6-1.905,9.4-.025l.409.278Z" transform="translate(-475.918 -136.216)" fill="#ffbe9d"/>
        <path id="Trazado_162225" data-name="Trazado 162225" d="M512.308,170.161a6.5,6.5,0,0,0,3.422-1.271,3.38,3.38,0,0,1-3.43,1.966Z" transform="translate(-480.382 -152.485)" fill="#eb996e"/>
        <path id="Trazado_162226" data-name="Trazado 162226" d="M528.53,151.829c.045,0,1.8-.666,1.868,1.169a1.383,1.383,0,0,1-1.795,1.472C528.6,154.421,528.53,151.829,528.53,151.829Z" transform="translate(-489.977 -142.329)" fill="#ffbe9d"/>
        <path id="Trazado_162227" data-name="Trazado 162227" d="M530,154.6a.389.389,0,0,0,.086.045.307.307,0,0,0,.241,0,.789.789,0,0,0,.339-.724,1.03,1.03,0,0,0-.106-.454.372.372,0,0,0-.249-.237.164.164,0,0,0-.184.094c-.024.053,0,.09-.02.094s-.041-.029-.029-.106a.225.225,0,0,1,.07-.119.245.245,0,0,1,.176-.053.445.445,0,0,1,.343.274,1.12,1.12,0,0,1,.151.486.818.818,0,0,1-.441.818.335.335,0,0,1-.294-.037C530,154.643,530,154.6,530,154.6Z" transform="translate(-490.846 -143.172)" fill="#eb996e"/>
        <path id="Trazado_162228" data-name="Trazado 162228" d="M506.93,152.682a.409.409,0,0,0,.409.364.372.372,0,0,0,.372-.372.409.409,0,0,0-.409-.364.372.372,0,0,0-.372.372Z" transform="translate(-477.207 -142.683)" fill="#263238"/>
        <path id="Trazado_162229" data-name="Trazado 162229" d="M506.62,151.64c.049.045.327-.188.74-.217s.728.159.769.106-.037-.11-.172-.2a1.083,1.083,0,0,0-.621-.147,1.018,1.018,0,0,0-.585.233C506.632,151.518,506.6,151.62,506.62,151.64Z" transform="translate(-477.02 -142.017)" fill="#263238"/>
        <path id="Trazado_162230" data-name="Trazado 162230" d="M516.86,152.311a.384.384,0,0,0,.409.364.368.368,0,0,0,.368-.372.384.384,0,0,0-.409-.364.368.368,0,0,0-.368.372Z" transform="translate(-483.078 -142.463)" fill="#263238"/>
        <path id="Trazado_162231" data-name="Trazado 162231" d="M516.54,151.155c.049.049.323-.184.736-.213s.728.159.769.106-.033-.11-.172-.2a1.038,1.038,0,0,0-.617-.143.989.989,0,0,0-.585.233C516.552,151.044,516.515,151.134,516.54,151.155Z" transform="translate(-482.884 -141.732)" fill="#263238"/>
        <path id="Trazado_162232" data-name="Trazado 162232" d="M511.859,154.558a3.022,3.022,0,0,0-.679-.074c-.106,0-.209,0-.229-.09a.523.523,0,0,1,.049-.315l.258-.818a14.555,14.555,0,0,0,.556-2.142,13.645,13.645,0,0,0-.728,2.093c-.086.286-.168.56-.245.818a.625.625,0,0,0-.025.409.262.262,0,0,0,.184.139.7.7,0,0,0,.18,0,2.555,2.555,0,0,0,.679-.02Z" transform="translate(-479.491 -141.979)" fill="#263238"/>
        <path id="Trazado_162233" data-name="Trazado 162233" d="M514.636,160c-.069,0-.037.446-.409.789s-.818.327-.818.409.11.078.315.069a1.124,1.124,0,0,0,.7-.3.986.986,0,0,0,.307-.662C514.722,160.114,514.665,160,514.636,160Z" transform="translate(-481.038 -147.229)" fill="#263238"/>
        <path id="Trazado_162234" data-name="Trazado 162234" d="M516,147.351c.049.11.454.029.94.057s.887.131.944.025-.049-.151-.213-.249a1.566,1.566,0,0,0-.711-.2,1.594,1.594,0,0,0-.728.135C516.07,147.208,516,147.3,516,147.351Z" transform="translate(-482.569 -139.535)" fill="#263238"/>
        <path id="Trazado_162235" data-name="Trazado 162235" d="M506.783,148.667c.082.086.356-.029.7-.057s.634.02.695-.082-.029-.139-.159-.221a1.014,1.014,0,0,0-1.12.11C506.783,148.52,506.75,148.622,506.783,148.667Z" transform="translate(-477.113 -140.246)" fill="#263238"/>
        <path id="Trazado_162236" data-name="Trazado 162236" d="M524.857,146.741c-.02.748.053,1.5.033,2.244a2.514,2.514,0,0,1-.213.818.74.74,0,0,1-1.4.1,2.22,2.22,0,0,1-.229-.948,3.105,3.105,0,0,0-.164-.969,5.172,5.172,0,0,0-.621-.908,1.194,1.194,0,0,1-.241-1.034,5.47,5.47,0,0,1,2.833.691" transform="translate(-486.112 -138.978)" fill="#263238"/>
        <path id="Trazado_162237" data-name="Trazado 162237" d="M504.7,144.073l-.045-1.5,4.292-1.6,5.58,1.226.106,1.611A13.491,13.491,0,0,0,504.7,144.073Z" transform="translate(-475.859 -135.978)" fill="#455a64"/>
        <path id="Trazado_162238" data-name="Trazado 162238" d="M502.828,142.1l-.18.2-1.509,1.1a24.962,24.962,0,0,1,6.1-1.226,29.381,29.381,0,0,1,6.794.638l-2.158-1.108h0a3.585,3.585,0,0,0-2.62-.961l-3.941.188A3.593,3.593,0,0,0,502.828,142.1Z" transform="translate(-473.784 -135.836)" fill="#7b669f"/>
        <path id="Trazado_162239" data-name="Trazado 162239" d="M511.818,134.8a13.739,13.739,0,0,0,.057-2.1,13.982,13.982,0,0,0-.106-2.1,12.576,12.576,0,0,0-.057,2.1,13.349,13.349,0,0,0,.106,2.1Z" transform="translate(-480.022 -129.854)" fill="#263238"/>
        <path id="Trazado_162240" data-name="Trazado 162240" d="M518.927,130.084a2.784,2.784,0,0,0-.752-.164.319.319,0,0,0-.294.315l.025.441c.029.315.053.65.082,1,.057.711.123,1.353.176,1.815a3.271,3.271,0,0,0,.123.748,3.231,3.231,0,0,0,0-.756c-.025-.466-.07-1.108-.131-1.815-.033-.352-.061-.687-.09-1,0-.147-.033-.29-.045-.429a.2.2,0,0,1,.172-.2A4.564,4.564,0,0,0,518.927,130.084Z" transform="translate(-483.681 -129.446)" fill="#263238"/>
        <path id="Trazado_162241" data-name="Trazado 162241" d="M500.89,143.148s.18-.09.511-.233c.164-.074.364-.155.593-.282a1.766,1.766,0,0,0,.658-.589c.192-.286.2-.666.409-.952s.63-.331,1.047-.372c.842-.094,1.77-.164,2.747-.2s1.913-.049,2.759-.041a1.713,1.713,0,0,1,1.1.286,2.977,2.977,0,0,1,.356.409l.168.2.086.094a.45.45,0,0,0,.119.078c.6.241,1.1.409,1.439.519a4.405,4.405,0,0,0,.527.18.707.707,0,0,0-.127-.074c-.086-.041-.213-.1-.38-.168-.327-.143-.818-.315-1.406-.564a.41.41,0,0,1-.086-.053l-.078-.094-.159-.2a3.4,3.4,0,0,0-.368-.409,1.807,1.807,0,0,0-1.186-.335c-.85,0-1.786,0-2.768.029s-1.917.114-2.764.217a4.013,4.013,0,0,0-.621.1.863.863,0,0,0-.486.331c-.237.335-.237.715-.409.969a1.655,1.655,0,0,1-.605.568c-.217.131-.409.225-.576.307s-.282.151-.364.2a.557.557,0,0,0-.135.086Z" transform="translate(-473.637 -135.605)" fill="#263238"/>
        <path id="Trazado_162242" data-name="Trazado 162242" d="M502.369,145.6a.482.482,0,0,0,.11-.065c.069-.049.176-.114.315-.192a6.8,6.8,0,0,1,1.263-.478,15.857,15.857,0,0,1,4.431-.515c.879,0,1.713,0,2.453.033a16.391,16.391,0,0,1,2,.245,7.536,7.536,0,0,1,.752.168,1.279,1.279,0,0,1,.519.221.511.511,0,0,1,.192.409.2.2,0,0,0,.025-.131.544.544,0,0,0-.172-.339,1.292,1.292,0,0,0-.536-.266,7.326,7.326,0,0,0-.76-.192,18.985,18.985,0,0,0-2.007-.282c-.764-.057-1.607-.041-2.481-.045a14.717,14.717,0,0,0-4.464.568,5.5,5.5,0,0,0-1.263.536,2.047,2.047,0,0,0-.3.217A.786.786,0,0,0,502.369,145.6Z" transform="translate(-474.511 -137.869)" fill="#263238"/>
        <path id="Trazado_162243" data-name="Trazado 162243" d="M513.55,129.2a2.677,2.677,0,0,0,.409,0l.989-.037c.384,0,.74-.061.985-.037a.458.458,0,0,1,.343.176.147.147,0,0,0-.057-.094.49.49,0,0,0-.282-.127,6.4,6.4,0,0,0-.993,0l-.989.057a1.819,1.819,0,0,0-.4.061Z" transform="translate(-481.121 -128.939)" fill="#fafafa"/>
        <path id="Trazado_162244" data-name="Trazado 162244" d="M513.13,141.175a1.03,1.03,0,0,0,.208,0h2.428l1.026.025a4.812,4.812,0,0,1,.818.065.818.818,0,0,1,.466.282.837.837,0,0,1,.1.176.385.385,0,0,0-.078-.192.818.818,0,0,0-.474-.311,4.5,4.5,0,0,0-.818-.082c-.315,0-.662-.025-1.026-.029-.732,0-1.39,0-1.868.02l-.564.029A1.224,1.224,0,0,0,513.13,141.175Z" transform="translate(-480.873 -136.061)" fill="#fafafa"/>
        <path id="Trazado_162245" data-name="Trazado 162245" d="M517.9,134.039a.659.659,0,0,0,0-.147,2.974,2.974,0,0,0-.057-.409c-.045-.339-.1-.818-.155-1.329s-.082-.989-.1-1.329a3.372,3.372,0,0,0-.024-.409.517.517,0,0,0,0-.147.606.606,0,0,0,0,.147v.409c0,.343.033.818.082,1.337s.119.989.176,1.325c.029.172.057.307.078.409A.493.493,0,0,0,517.9,134.039Z" transform="translate(-483.491 -129.653)" fill="#fafafa"/>
        <path id="Trazado_162246" data-name="Trazado 162246" d="M526.72,143.47a.646.646,0,0,0,.131.057l.36.135,1.194.409a5.766,5.766,0,0,1,.646.249.776.776,0,0,1,.38.38.593.593,0,0,1,.037.364c-.029.082-.061.123-.053.127a.319.319,0,0,0,.078-.119.561.561,0,0,0,0-.388.817.817,0,0,0-.409-.409,4.358,4.358,0,0,0-.654-.258l-1.2-.409-.364-.114A.593.593,0,0,0,526.72,143.47Z" transform="translate(-488.907 -137.456)" fill="#fafafa"/>
        <path id="Trazado_162247" data-name="Trazado 162247" d="M443.7,321.973l.372,6.639s-6.623,2.6-6.672,3.835l12.894-.253-.155-10.363Z" transform="translate(-436.102 -242.902)" fill="#7b669f"/>
        <g id="Grupo_102715" data-name="Grupo 102715" transform="translate(1.298 78.928)" opacity="0.4">
          <path id="Trazado_162248" data-name="Trazado 162248" d="M443.7,321.973l.372,6.639s-6.623,2.6-6.672,3.835l12.894-.253-.155-10.363Z" transform="translate(-437.4 -321.83)"/>
        </g>
        <path id="Trazado_162249" data-name="Trazado 162249" d="M462.535,336.845a.523.523,0,0,1,.376.593.5.5,0,0,1-.585.376.552.552,0,0,1-.409-.63.527.527,0,0,1,.65-.327" transform="translate(-450.592 -251.772)" fill="#e0e0e0"/>
        <path id="Trazado_162250" data-name="Trazado 162250" d="M450.284,345.672l-.057-1.042-12.342.634s-.568.262-.495.662Z" transform="translate(-436.092 -256.381)" fill="#e0e0e0"/>
        <path id="Trazado_162251" data-name="Trazado 162251" d="M453.209,338.183c0,.061.315.082.63.278s.487.458.544.433-.045-.388-.429-.617S453.193,338.125,453.209,338.183Z" transform="translate(-445.448 -252.534)" fill="#263238"/>
        <path id="Trazado_162252" data-name="Trazado 162252" d="M449.92,339.657c0,.061.262.164.482.409s.286.544.348.54.1-.364-.18-.683S449.92,339.6,449.92,339.657Z" transform="translate(-443.503 -253.423)" fill="#263238"/>
        <path id="Trazado_162253" data-name="Trazado 162253" d="M447.366,342.152c.057,0,.139-.307-.029-.646s-.466-.474-.491-.409.159.233.294.515S447.317,342.143,447.366,342.152Z" transform="translate(-441.685 -254.283)" fill="#263238"/>
        <path id="Trazado_162254" data-name="Trazado 162254" d="M453.406,334.219c.029.057.315-.033.67,0s.638.123.666.07-.237-.274-.658-.29S453.374,334.17,453.406,334.219Z" transform="translate(-445.563 -250.095)" fill="#263238"/>
        <g id="Grupo_102716" data-name="Grupo 102716" transform="translate(7.676 80.318)" opacity="0.3">
          <path id="Trazado_162255" data-name="Trazado 162255" d="M453,325.3l.061,1.181,6.336-.184-.012-1.067Z" transform="translate(-453 -325.23)"/>
        </g>
        <path id="Trazado_162256" data-name="Trazado 162256" d="M453.29,329.744a1.267,1.267,0,0,0,.646,0,3.2,3.2,0,0,0,.67-.221,3.726,3.726,0,0,0,.368-.2,1,1,0,0,0,.192-.155.282.282,0,0,0,.02-.335.343.343,0,0,0-.278-.139.711.711,0,0,0-.241.037,2.043,2.043,0,0,0-.409.147,2.313,2.313,0,0,0-.589.409c-.29.282-.388.519-.368.531s.172-.18.47-.409a2.579,2.579,0,0,1,.572-.335,2.43,2.43,0,0,1,.368-.123c.135-.041.249-.041.286,0s0,.033,0,.074a.716.716,0,0,1-.139.114,3.339,3.339,0,0,1-.339.2,3.6,3.6,0,0,1-.617.253A3.837,3.837,0,0,0,453.29,329.744Z" transform="translate(-445.496 -246.957)" fill="#263238"/>
        <path id="Trazado_162257" data-name="Trazado 162257" d="M452.238,328.506a1.039,1.039,0,0,0,.159-.625,2.2,2.2,0,0,0-.1-.707,2.132,2.132,0,0,0-.172-.409.527.527,0,0,0-.409-.315.3.3,0,0,0-.266.184.969.969,0,0,0-.061.237,1.528,1.528,0,0,0,0,.433,1.5,1.5,0,0,0,.29.662c.258.331.523.409.527.38a3.628,3.628,0,0,1-.409-.466,1.492,1.492,0,0,1-.217-.605,1.262,1.262,0,0,1,0-.372c0-.139.065-.249.119-.237a.444.444,0,0,1,.229.209,1.806,1.806,0,0,1,.168.347,2.277,2.277,0,0,1,.139.642C452.267,328.261,452.205,328.5,452.238,328.506Z" transform="translate(-444.362 -245.633)" fill="#263238"/>
        <path id="Trazado_162258" data-name="Trazado 162258" d="M481.6,249.308s-1.41,7.228-3.749,7.33c-2.862.123-23.649.409-23.649.409l1.235,23.142-9.067-.217-3.606-22.807a8.74,8.74,0,0,1,.965-5.985l.074-.127a8.7,8.7,0,0,1,7.42-4.182l17.264-.262Z" transform="translate(-439.174 -198.432)" fill="#263238"/>
        <path id="Trazado_162259" data-name="Trazado 162259" d="M452.324,321.973l.368,6.639s-6.623,2.6-6.672,3.835l12.894-.253-.155-10.363Z" transform="translate(-441.198 -242.902)" fill="#7b669f"/>
        <path id="Trazado_162260" data-name="Trazado 162260" d="M471.155,336.845a.523.523,0,0,1,.376.593.5.5,0,0,1-.585.376.552.552,0,0,1-.409-.63.527.527,0,0,1,.65-.327" transform="translate(-455.688 -251.772)" fill="#e0e0e0"/>
        <path id="Trazado_162261" data-name="Trazado 162261" d="M458.9,345.672l-.057-1.042-12.342.634s-.568.262-.495.662Z" transform="translate(-441.188 -256.381)" fill="#e0e0e0"/>
        <path id="Trazado_162262" data-name="Trazado 162262" d="M461.829,338.183c0,.061.319.082.63.278s.486.458.544.433-.045-.388-.429-.617S461.813,338.125,461.829,338.183Z" transform="translate(-450.544 -252.534)" fill="#263238"/>
        <path id="Trazado_162263" data-name="Trazado 162263" d="M458.55,339.657c0,.061.262.164.478.409s.286.544.348.54.1-.364-.18-.683S458.55,339.6,458.55,339.657Z" transform="translate(-448.605 -253.423)" fill="#263238"/>
        <path id="Trazado_162264" data-name="Trazado 162264" d="M455.986,342.152c.061,0,.139-.307-.029-.646s-.466-.474-.491-.409.159.233.294.515S455.925,342.143,455.986,342.152Z" transform="translate(-446.781 -254.283)" fill="#263238"/>
        <path id="Trazado_162265" data-name="Trazado 162265" d="M462,334.219c.029.057.315-.033.67,0s.638.123.666.07-.237-.274-.658-.29A.791.791,0,0,0,462,334.219Z" transform="translate(-450.645 -250.095)" fill="#263238"/>
        <g id="Grupo_102717" data-name="Grupo 102717" transform="translate(11.2 80.318)" opacity="0.3">
          <path id="Trazado_162266" data-name="Trazado 162266" d="M461.62,325.3l.065,1.181,6.332-.184-.012-1.067Z" transform="translate(-461.62 -325.23)"/>
        </g>
        <path id="Trazado_162267" data-name="Trazado 162267" d="M461.91,329.744a1.267,1.267,0,0,0,.646,0,3.2,3.2,0,0,0,.67-.221,3.311,3.311,0,0,0,.368-.2,1,1,0,0,0,.192-.155.282.282,0,0,0,.02-.335.343.343,0,0,0-.278-.139.711.711,0,0,0-.241.037,2.043,2.043,0,0,0-.409.147,2.215,2.215,0,0,0-.585.409c-.294.282-.409.519-.372.531s.172-.18.47-.409a2.579,2.579,0,0,1,.572-.335,2.429,2.429,0,0,1,.368-.123c.135-.041.249-.041.286,0s0,.033,0,.074a.715.715,0,0,1-.139.114,3.33,3.33,0,0,1-.339.2,3.588,3.588,0,0,1-.617.253A3.842,3.842,0,0,0,461.91,329.744Z" transform="translate(-450.592 -246.957)" fill="#263238"/>
        <path id="Trazado_162268" data-name="Trazado 162268" d="M460.858,328.506a1.039,1.039,0,0,0,.159-.625,2.1,2.1,0,0,0-.1-.707,2.129,2.129,0,0,0-.172-.409.527.527,0,0,0-.409-.315.3.3,0,0,0-.266.184.969.969,0,0,0-.061.237,1.528,1.528,0,0,0,0,.433,1.5,1.5,0,0,0,.29.662c.258.331.523.409.527.38a3.626,3.626,0,0,1-.409-.466,1.492,1.492,0,0,1-.217-.605,1.262,1.262,0,0,1,0-.372c.02-.139.069-.249.119-.237a.459.459,0,0,1,.229.209,1.806,1.806,0,0,1,.168.347,2.277,2.277,0,0,1,.139.642C460.887,328.261,460.813,328.5,460.858,328.506Z" transform="translate(-449.458 -245.633)" fill="#263238"/>
        <path id="Trazado_162269" data-name="Trazado 162269" d="M487.17,249.308s-1.406,7.228-3.749,7.33c-2.862.123-23.649.409-23.649.409l1.263,23.142-9.067-.217-3.626-22.807a8.74,8.74,0,0,1,.965-5.985l.074-.127a8.7,8.7,0,0,1,7.424-4.182l17.26-.262Z" transform="translate(-442.473 -198.432)" fill="#263238"/>
        <path id="Trazado_162270" data-name="Trazado 162270" d="M500.3,177.956l2.739,18.184-1.852,8.176,16.818,4.951c1.521-2.175,1.578-9.08,1.525-13.965-.094-8.609.286-9.026-.086-12.047s-1.006-4.959-2.6-5.911L512.258,175s-2.584,1.635-4.158,1.558a4.512,4.512,0,0,1-2.9-.916C505.2,175.63,501.4,176.774,500.3,177.956Z" transform="translate(-473.288 -156.097)" fill="#7b669f"/>
        <path id="Trazado_162271" data-name="Trazado 162271" d="M492.195,182.23l-5.6,7.726,7.632,4.48-.585-2.809Z" transform="translate(-465.182 -160.371)" fill="#7b669f"/>
        <path id="Trazado_162272" data-name="Trazado 162272" d="M456.14,247.505a.238.238,0,0,1-.1,0l-.282.02a4.139,4.139,0,0,0-.462.057,4.939,4.939,0,0,0-.617.114,8.107,8.107,0,0,0-3.5,1.856,9.259,9.259,0,0,0-1.746,2.122,7.208,7.208,0,0,0-.985,2.968,14.494,14.494,0,0,0,.131,3.5c.168,1.226.409,2.453.536,3.757.29,2.575.679,5.02,1.042,7.24s.715,4.211,1,5.895.5,3.037.638,3.982c.061.458.11.818.147,1.087a2.157,2.157,0,0,0,.033.282.439.439,0,0,1,0,.1.324.324,0,0,1-.025-.094,1.638,1.638,0,0,0-.057-.282l-.184-1.079c-.172-.957-.409-2.306-.7-3.969s-.65-3.679-1.042-5.887-.773-4.664-1.063-7.252c-.131-1.288-.364-2.53-.527-3.749a14.246,14.246,0,0,1-.119-3.544,7.3,7.3,0,0,1,1.026-3.037,9.2,9.2,0,0,1,1.8-2.146,8.013,8.013,0,0,1,3.581-1.823,5.486,5.486,0,0,1,1.48-.11Z" transform="translate(-442.483 -198.955)" fill="#455a64"/>
        <path id="Trazado_162273" data-name="Trazado 162273" d="M480.736,215.705s6.488,2.093,11.532,3.92a5.519,5.519,0,0,0,5.167-.752h0a5.507,5.507,0,0,0,1.983-2.772l3.454-10.882L497.1,203.2l-3.855,9.783L478.9,211.1" transform="translate(-460.636 -172.769)" fill="#ffbe9d"/>
        <path id="Trazado_162274" data-name="Trazado 162274" d="M462.323,224.038l-.053-.515a1.766,1.766,0,0,1,.45-1.022h0a1.689,1.689,0,0,1,.491-.376l1.7-.887a1.349,1.349,0,0,1,.818-.131l3.479.593,3.994.523-.818,4.554-1.848-.613a4.2,4.2,0,0,1-2.163.564s-.764.511-1.079.135c0,0-.683.589-.94.552s-.764-.335-.744-.511l.02-.237a.818.818,0,0,1-.846-.037,1.194,1.194,0,0,1-.388-.531,1.574,1.574,0,0,1-.863-.372,1.962,1.962,0,0,1-.315-.785S462.45,224.57,462.323,224.038Z" transform="translate(-450.805 -183.346)" fill="#ffbe9d"/>
        <path id="Trazado_162275" data-name="Trazado 162275" d="M466.207,224.27c.025,0,.065.188-.02.474a2.453,2.453,0,0,1-.613.957c-.307.315-.593.572-.769.785s-.27.36-.3.347,0-.192.18-.437a5.852,5.852,0,0,1,.732-.842,3.29,3.29,0,0,0,.63-.863C466.158,224.446,466.17,224.27,466.207,224.27Z" transform="translate(-452.121 -185.225)" fill="#eb996e"/>
        <path id="Trazado_162276" data-name="Trazado 162276" d="M468.556,228.718a3.561,3.561,0,0,1-1.206,1.856,4.44,4.44,0,0,1,.572-.948C468.253,229.119,468.5,228.689,468.556,228.718Z" transform="translate(-453.808 -187.854)" fill="#eb996e"/>
        <path id="Trazado_162277" data-name="Trazado 162277" d="M471.268,231.656c.049.033-.094.327-.323.662s-.45.581-.5.544.1-.331.323-.662S471.219,231.623,471.268,231.656Z" transform="translate(-455.633 -189.59)" fill="#eb996e"/>
        <path id="Trazado_162278" data-name="Trazado 162278" d="M471.4,229.032c0,.025-.09.029-.2-.037a.593.593,0,0,1-.258-.409.56.56,0,0,1,.123-.458c.078-.094.155-.119.176-.1a1.248,1.248,0,0,0-.09.523C471.2,228.827,471.426,228.979,471.4,229.032Z" transform="translate(-455.93 -187.444)" fill="#eb996e"/>
        <path id="Trazado_162279" data-name="Trazado 162279" d="M473.841,232.377c0,.025-.074.029-.164,0a.5.5,0,0,1-.229-.315.372.372,0,0,1,.11-.409c.106-.074.188-.025.18,0a.319.319,0,0,0-.082.339C473.7,232.2,473.866,232.324,473.841,232.377Z" transform="translate(-457.401 -189.567)" fill="#eb996e"/>
        <path id="Trazado_162280" data-name="Trazado 162280" d="M469.953,225.92c0,.025-.09.045-.213,0a.527.527,0,0,1-.082-.9c.11-.078.2-.069.2-.045a.748.748,0,0,0-.2.5C469.683,225.764,469.97,225.871,469.953,225.92Z" transform="translate(-455.046 -185.632)" fill="#eb996e"/>
        <path id="Trazado_162281" data-name="Trazado 162281" d="M526.809,184.011a3.642,3.642,0,0,0-3.892,1,8.886,8.886,0,0,0-1.8,3.569c-.409,1.267-1.382,3.708-1.778,4.93l7.477,3.2q.957-2.588,1.782-5.22a7.031,7.031,0,0,0,.36-4.521" transform="translate(-484.544 -161.29)" fill="#7b669f"/>
        <path id="Trazado_162282" data-name="Trazado 162282" d="M528.764,186.911a.752.752,0,0,1,.078.18,2.935,2.935,0,0,1,.143.544,5.479,5.479,0,0,1-.053,2.093,22.9,22.9,0,0,1-.9,3.082c-.409,1.169-.818,2.473-1.3,3.875l-.037.1-.106-.045-5.265-2.248-2.216-.948-.09-.041.029-.082c.605-1.782,1.28-3.413,1.786-4.906a15.9,15.9,0,0,1,.818-2.114,5.641,5.641,0,0,1,1.169-1.635,3.961,3.961,0,0,1,2.739-1.079,2.837,2.837,0,0,1,.818.147,1.719,1.719,0,0,1,.258.114,3.733,3.733,0,0,0-1.067-.188,3.916,3.916,0,0,0-2.637,1.1,5.514,5.514,0,0,0-1.112,1.59,16.1,16.1,0,0,0-.785,2.1c-.495,1.517-1.169,3.156-1.762,4.926l-.061-.123,2.22.948,5.257,2.257-.143.057c.482-1.4.932-2.7,1.337-3.863a24.559,24.559,0,0,0,.944-3.054,5.849,5.849,0,0,0,.115-2.044C528.846,187.165,528.748,186.915,528.764,186.911Z" transform="translate(-484.349 -161.234)" fill="#263238"/>
        <path id="Trazado_162283" data-name="Trazado 162283" d="M486.66,227.239c-.025,0-.082-.409-.335-1.157a5.966,5.966,0,0,0-.617-1.255,3.708,3.708,0,0,0-1.3-1.247h.02l-8.1-1.055-4.906-.658-2.13-.294-1.852-.3-.818-.127a.981.981,0,0,0-.666.119l-1.051.507-.666.315a.982.982,0,0,1-.241.094,1.637,1.637,0,0,1,.221-.135l.65-.347,1.034-.54a1.12,1.12,0,0,1,.74-.147l.818.114,1.852.27,2.134.278,4.906.642,8.086,1.108h.025a3.761,3.761,0,0,1,1.345,1.325,5.665,5.665,0,0,1,.593,1.3,6.758,6.758,0,0,1,.213.871,1.49,1.49,0,0,1,.045.323Z" transform="translate(-451.827 -183.292)" fill="#eb996e"/>
        <path id="Trazado_162284" data-name="Trazado 162284" d="M503.471,204.262a3,3,0,0,1-.11-.589c-.069-.409-.155-.957-.258-1.607-.233-1.394-.54-3.25-.879-5.314s-.65-3.908-.879-5.314c-.1-.65-.184-1.194-.249-1.611a2.894,2.894,0,0,1-.065-.6,3.2,3.2,0,0,1,.147.581l.315,1.6c.258,1.353.6,3.221.944,5.314s.634,3.953.818,5.314c.094.683.155,1.226.192,1.635a2.982,2.982,0,0,1,.025.585Z" transform="translate(-473.719 -164.51)" fill="#263238"/>
      </g>
      <g id="freepik--Floor--inject-12" transform="translate(49.959 219.607)">
        <path id="Trazado_162285" data-name="Trazado 162285" d="M314.292,444.746c0,.061-59.17.106-132.142.106S50,444.808,50,444.746s59.158-.106,132.158-.106S314.292,444.689,314.292,444.746Z" transform="translate(-50 -444.64)" fill="#263238"/>
      </g>
      <g id="freepik--Plant--inject-12" transform="translate(49.93 196.662)">
        <path id="Trazado_162286" data-name="Trazado 162286" d="M63.5,397.934a1.639,1.639,0,0,1-2.432,0,4.585,4.585,0,0,1-.977-2.142,11.216,11.216,0,0,1-.486-5.355A2.939,2.939,0,0,1,60.328,389a1.549,1.549,0,0,1,1.48-.45,2.274,2.274,0,0,1,1.251,1.382,12.8,12.8,0,0,1,1.108,5.486,4.464,4.464,0,0,1-.666,2.514" transform="translate(-55.553 -388.512)" fill="#7b669f"/>
        <g id="Grupo_102718" data-name="Grupo 102718" transform="translate(3.888)" opacity="0.2">
          <path id="Trazado_162287" data-name="Trazado 162287" d="M63.5,397.934a1.639,1.639,0,0,1-2.432,0,4.585,4.585,0,0,1-.977-2.142,11.216,11.216,0,0,1-.486-5.355A2.939,2.939,0,0,1,60.328,389a1.549,1.549,0,0,1,1.48-.45,2.274,2.274,0,0,1,1.251,1.382,12.8,12.8,0,0,1,1.108,5.486,4.464,4.464,0,0,1-.666,2.514" transform="translate(-59.441 -388.512)"/>
        </g>
        <path id="Trazado_162288" data-name="Trazado 162288" d="M55.387,421.749a5.486,5.486,0,0,0-3.385-.5,2.862,2.862,0,0,0-1.7.7,1.214,1.214,0,0,0-.061,1.68,1.636,1.636,0,0,0,1.051.294,4.082,4.082,0,0,1,2.6.441c.409.323.662.842,1.149,1.006a1.153,1.153,0,0,0,1.288-.531,1.983,1.983,0,0,0,.184-1.459A2.24,2.24,0,0,0,55.387,421.749Z" transform="translate(-49.93 -407.818)" fill="#7b669f"/>
        <path id="Trazado_162289" data-name="Trazado 162289" d="M72.636,403.835a3.271,3.271,0,0,1-.429-3.037,5.814,5.814,0,0,1,1.844-2.551,9.7,9.7,0,0,1,3.27-1.807,3.406,3.406,0,0,1,1.451-.2,1.509,1.509,0,0,1,1.19.764,2.2,2.2,0,0,1-.409,2.044,24.391,24.391,0,0,1-2.2,3.152,5.724,5.724,0,0,1-2.371,1.925,2.083,2.083,0,0,1-2.453-.409" transform="translate(-62.984 -393.072)" fill="#7b669f"/>
        <path id="Trazado_162290" data-name="Trazado 162290" d="M62.075,432.724a1.8,1.8,0,0,1-.045-.409c-.025-.3-.049-.679-.082-1.124a15.556,15.556,0,0,0-.208-1.635A12.643,12.643,0,0,0,61.2,427.6a7.068,7.068,0,0,0-.944-1.786,3.708,3.708,0,0,0-1.226-1.071,3.482,3.482,0,0,0-1.047-.36,1.746,1.746,0,0,1-.409-.07,1.994,1.994,0,0,1,.409,0,3.169,3.169,0,0,1,1.092.315,3.736,3.736,0,0,1,1.3,1.087,6.949,6.949,0,0,1,.977,1.819,11.59,11.59,0,0,1,.552,1.958,14.173,14.173,0,0,1,.176,1.668c0,.478.025.863.025,1.128A2.167,2.167,0,0,1,62.075,432.724Z" transform="translate(-54.447 -409.672)" fill="#263238"/>
        <path id="Trazado_162291" data-name="Trazado 162291" d="M66.143,415.94a.694.694,0,0,1,0-.192c0-.143,0-.323,0-.544,0-.47.033-1.157.029-2,0-1.692-.078-4.027-.29-6.6s-.527-4.906-.818-6.541c-.069-.409-.139-.793-.208-1.12s-.119-.613-.172-.846-.086-.409-.114-.531a.928.928,0,0,1-.029-.188,1.264,1.264,0,0,1,.061.18c.033.119.086.311.143.527s.131.511.2.838.155.7.233,1.12a61.6,61.6,0,0,1,.875,6.541c.213,2.575.278,4.906.245,6.614,0,.846-.049,1.533-.086,2a5.077,5.077,0,0,1-.045.544A1.46,1.46,0,0,1,66.143,415.94Z" transform="translate(-58.567 -393.755)" fill="#263238"/>
        <path id="Trazado_162292" data-name="Trazado 162292" d="M68.711,413.724a3.206,3.206,0,0,1,0-.572c.033-.364.094-.891.217-1.533a21.116,21.116,0,0,1,1.57-4.865,14.231,14.231,0,0,1,2.862-4.223,7.173,7.173,0,0,1,.666-.585c.1-.082.192-.164.282-.229l.258-.168a3.713,3.713,0,0,1,.486-.29,17.025,17.025,0,0,0-1.607,1.357,14.983,14.983,0,0,0-2.8,4.207,21.666,21.666,0,0,0-1,2.608,22.081,22.081,0,0,0-.593,2.208c-.135.638-.217,1.161-.27,1.521A4.213,4.213,0,0,1,68.711,413.724Z" transform="translate(-61.026 -396.049)" fill="#263238"/>
      </g>
    </g>
  </g>
</svg>
